<svg xmlns="http://www.w3.org/2000/svg" xmlns:xlink="http://www.w3.org/1999/xlink" width="820" height="461" viewBox="0 0 820 461">
  <defs>
    <linearGradient id="linear-gradient" x1="0.5" x2="0.5" y2="1" gradientUnits="objectBoundingBox">
      <stop offset="0" stop-color="#defff8"/>
      <stop offset="0.803" stop-color="#eaf5ff"/>
      <stop offset="1" stop-color="#f0feff"/>
    </linearGradient>
    <linearGradient id="linear-gradient-2" x1="1" y1="0.5" x2="0" y2="0.5" gradientUnits="objectBoundingBox">
      <stop offset="0" stop-color="#fcad7e" stop-opacity="0"/>
      <stop offset="0.883" stop-color="#f2c5ab"/>
      <stop offset="1" stop-color="#ffc6a5"/>
    </linearGradient>
    <linearGradient id="linear-gradient-3" x1="1" y1="0.5" x2="0" y2="0.5" gradientUnits="objectBoundingBox">
      <stop offset="0" stop-color="#aba370" stop-opacity="0"/>
      <stop offset="0.586" stop-color="#a2974c"/>
      <stop offset="1" stop-color="#9e955c"/>
    </linearGradient>
    <linearGradient id="linear-gradient-4" x1="1" y1="0.5" x2="0" y2="0.5" gradientUnits="objectBoundingBox">
      <stop offset="0" stop-color="#e7ffd1" stop-opacity="0.02"/>
      <stop offset="0.427" stop-color="#c1e29a"/>
      <stop offset="1" stop-color="#c1e29a"/>
    </linearGradient>
    <clipPath id="clip-path">
      <rect id="Rectángulo_377777" data-name="Rectángulo 377777" width="389.333" height="413.452" fill="none"/>
    </clipPath>
  </defs>
  <g id="Grupo_1073562" data-name="Grupo 1073562" transform="translate(-390 -6502)">
    <rect id="Rectángulo_376022" data-name="Rectángulo 376022" width="820" height="461" transform="translate(1210 6963) rotate(180)" fill="url(#linear-gradient)"/>
    <rect id="Rectángulo_377778" data-name="Rectángulo 377778" width="458" height="167" transform="translate(667 6535)" fill="url(#linear-gradient-2)"/>
    <rect id="Rectángulo_377779" data-name="Rectángulo 377779" width="458" height="84" transform="translate(667 6702)" fill="url(#linear-gradient-3)"/>
    <rect id="Rectángulo_377780" data-name="Rectángulo 377780" width="458" height="76" transform="translate(667 6786)" fill="url(#linear-gradient-4)"/>
    <rect id="Rectángulo_377782" data-name="Rectángulo 377782" width="272" height="26" rx="13" transform="translate(748 6731)" fill="#615504"/>
    <path id="Trazado_823388" data-name="Trazado 823388" d="M13,0H273a13,13,0,0,1,0,26H13A13,13,0,0,1,13,0Z" transform="translate(685 6606)" fill="#ffae7e"/>
    <rect id="Rectángulo_377784" data-name="Rectángulo 377784" width="275" height="26" rx="13" transform="translate(810 6811)" fill="#a0c573"/>
    <text id="Nivel_intermedio" data-name="Nivel intermedio" transform="translate(842 6750)" fill="#fff" font-size="18" font-family="Roboto-Bold, Roboto" font-weight="700"><tspan x="0" y="0">Nivel intermedio</tspan></text>
    <text id="Nivel_nacional" data-name="Nivel nacional" transform="translate(786 6625)" font-size="18" font-family="Roboto-Bold, Roboto" font-weight="700"><tspan x="0" y="0">Nivel nacional</tspan></text>
    <text id="Nivel_local" data-name="Nivel local" transform="translate(917 6830)" font-size="18" font-family="Roboto-Bold, Roboto" font-weight="700"><tspan x="0" y="0">Nivel local</tspan></text>
    <g id="Grupo_1073552" data-name="Grupo 1073552" transform="translate(475 6534.418)">
      <g id="Grupo_1073551" data-name="Grupo 1073551" clip-path="url(#clip-path)">
        <path id="Trazado_822652" data-name="Trazado 822652" d="M39.962,250.759l-.234.265c-.309.677-.564,1.382-.94,2.026-3.384,5.807-6.8,11.6-10.19,17.406q-6.34,10.847-12.658,21.7c-4.616,7.956-9.1,15.976-13.827,23.878-4.295,7.184-1.934,14.486,6.124,18.041,5.133,2.264,10.307,4.448,15.463,6.667,9.04,3.893,18.155,7.643,27.1,11.715,8.432,3.839,17.149,7.079,25.6,10.889,12.216,5.512,24.6,10.7,36.92,16.026,3.992,1.727,7.917,3.6,11.993,5.138,4.186,1.574,8.2,3.513,12.419,5.045,2.962,1.076,5.907,2.93,8.989,4.053,2.021.738,3.708,2.459,6.154,2.154,2.5,2.616,6.164,3.5,9.354,4.852,8.364,3.545,16.728,7.082,25.011,10.792a17.76,17.76,0,0,0,7.288,1.87,11.374,11.374,0,0,0,4.873-.892c6.765-2.173,12.948-5.533,19.443-8.26,18.714-7.863,37.318-15.95,55.954-23.975,12.95-5.576,25.874-11.206,38.823-16.787,13.434-5.791,26.9-11.52,40.318-17.338,9.2-3.99,18.4-7.978,27.45-12.272a13.5,13.5,0,0,0,7.571-8.614c1.279-4.112-.921-7.452-2.72-10.77-3.992-7.354-8.486-14.468-12.6-21.771-4.894-8.682-10.048-17.24-15.166-25.812-3.337-5.586-6.276-11.384-10.219-16.655-1.948-3.663-4.261-7.145-6.344-10.744-4.883-8.43-9.6-16.946-14.811-25.217-3.159-5.014-5.876-10.266-8.844-15.385-3.77-6.5-7.588-12.977-11.4-19.458q-4.846-8.238-9.72-16.461c-.638-2.1-2.011-3.855-3.1-5.74q-5.661-9.785-11.4-19.531c-2.671-4.547-5.422-9.054-8.079-13.607-4.443-7.619-8.811-15.276-13.261-22.892q-15.132-25.893-30.314-51.763-6.426-10.98-12.833-21.968c-3.844-6.586-7.831-13.106-11.479-19.785C203.883,2.515,199.494-.164,193.6.256A10.687,10.687,0,0,0,184.2,4.572a82.506,82.506,0,0,0-5.081,8.086q-7.1,12.495-14.512,24.837C160,45.153,155.671,52.959,151.219,60.7c-2.72,4.728-5.818,9.27-8.161,14.184-2.02,3.3-4.1,6.564-6.049,9.894-3.217,5.487-6.328,11.03-9.534,16.525-2.476,4.243-5.056,8.436-7.543,12.675-2.663,4.541-5.254,9.117-7.9,13.662-3.061,5.252-6.258,10.438-9.2,15.747-2.708,4.885-5.677,9.627-8.525,14.435-.816,1.377-2.125,2.655-2.3,4.361-.122.057-.306.084-.358.175-3.129,5.423-6.293,10.826-9.347,16.285-1.845,3.293-3.9,6.475-5.844,9.713-2.153,3.582-4.064,7.289-6.182,10.893-1.66,2.823-3.844,5.517-5.165,8.341C63.016,212.044,60.021,216,57.94,220.4c-1.613,3.414-4.115,6.368-5.813,9.761-1.939,3.876-4.366,7.541-6.475,11.348-1.634,2.949-3.861,5.6-5.109,8.734q-.291.257-.582.511" transform="translate(0 0.131)" fill="#f6f8fa"/>
        <path id="Trazado_822653" data-name="Trazado 822653" d="M265.131,154.88c3.942,5.269,6.882,11.067,10.218,16.655,5.119,8.572,10.273,17.13,15.167,25.812,4.116,7.3,8.608,14.415,12.6,21.771,1.8,3.317,4,6.657,2.722,10.77a13.5,13.5,0,0,1-7.571,8.614c-9.047,4.295-18.249,8.283-27.45,12.272-13.42,5.819-26.886,11.547-40.318,17.337-12.948,5.583-25.872,11.212-38.823,16.789-18.636,8.023-37.24,16.112-55.954,23.973-6.494,2.729-12.679,6.087-19.443,8.26a11.364,11.364,0,0,1-4.875.894c-.391-1.123.007-2.253.005-3.377q-.045-47.1-.019-94.2a8.114,8.114,0,0,0,2.907-.776c6.922-2.968,13.871-5.885,20.748-8.939,4.812-2.136,9.611-4.373,14.482-6.312,9.269-3.687,18.312-7.809,27.5-11.636,5.991-2.493,11.863-5.3,17.858-7.724,8.7-3.527,17.247-7.375,25.942-10.915,9.98-4.062,19.829-8.4,29.688-12.712,4.892-2.138,9.952-3.965,14.608-6.556" transform="translate(83.113 95.385)" fill="#729843"/>
        <path id="Trazado_822654" data-name="Trazado 822654" d="M194.508,220.4q-.005,47.1.017,94.2c0,1.125-.4,2.253-.005,3.376a17.786,17.786,0,0,1-7.288-1.87c-8.283-3.71-173.865-75.068-178.994-77.332-8.06-3.555-10.42-10.857-6.126-18.041,4.721-7.9,9.211-15.923,13.826-23.878q6.306-10.866,12.66-21.7,5.09-8.7,10.19-17.4c.374-.645.631-1.349.94-2.021.337.1.379-.013.232-.27l.578-.507a58.8,58.8,0,0,1,6.671,2.833c2.967,1.54,6.162,2.71,9.262,4.035q18.29,7.829,36.588,15.651,14.042,6,28.1,11.969,14.446,6.154,28.89,12.318c6.79,2.9,13.693,5.605,20.323,8.794,6.737,3.24,13.839,5.68,20.683,8.674,1.019.446,2.095,1.252,3.428,1.02Z" transform="translate(0 95.43)" fill="#c1e29a"/>
        <path id="Trazado_822655" data-name="Trazado 822655" d="M265.073,188.14c-4.656,2.59-9.716,4.418-14.608,6.556-9.859,4.31-19.708,8.65-29.688,12.712-8.7,3.54-17.238,7.388-25.942,10.915-5.995,2.429-11.867,5.231-17.858,7.724-9.192,3.826-18.235,7.948-27.5,11.636-4.871,1.939-9.671,4.175-14.482,6.312-6.877,3.054-13.826,5.971-20.748,8.939a8.114,8.114,0,0,1-2.907.776l-.021-.158q.013-54.5.028-109,4.081-1.694,8.159-3.393c13.42-5.618,26.673-11.57,40.173-17.03,6.447-2.608,12.683-5.651,19.146-8.262,10.174-4.111,20.171-8.592,30.258-12.89,1.628-.693,3.031-1.834,4.875-2.1q4.861,8.229,9.721,16.461c3.811,6.48,7.628,12.958,11.4,19.458,2.968,5.117,5.684,10.371,8.844,15.385,5.212,8.27,9.928,16.786,14.809,25.217,2.084,3.6,4.4,7.079,6.346,10.744" transform="translate(83.172 62.125)" fill="#615504"/>
        <path id="Trazado_822656" data-name="Trazado 822656" d="M177.177,144.808q-.013,54.5-.028,109c-1.331.234-2.409-.572-3.428-1.018-6.842-3-13.946-5.436-20.683-8.674-6.631-3.188-13.534-5.893-20.325-8.8q-14.438-6.169-28.886-12.318-14.053-5.987-28.105-11.969-18.3-7.814-36.588-15.65c-3.1-1.327-6.292-2.5-9.26-4.036A59.087,59.087,0,0,0,23.2,188.52c1.253-3.141,3.48-5.79,5.114-8.739,2.109-3.807,4.534-7.472,6.473-11.348,1.7-3.393,4.2-6.345,5.813-9.761,2.081-4.41,5.076-8.36,7.162-12.815,1.323-2.825,3.507-5.518,5.166-8.341,2.118-3.6,4.029-7.309,6.182-10.893,1.946-3.238,4-6.418,5.843-9.713,3.056-5.458,6.22-10.862,9.347-16.285.054-.09.236-.118.358-.175a57.939,57.939,0,0,0,10.412,5.323c5.49,2.414,11.032,4.731,16.556,7.077q15.384,6.535,30.772,13.063c6.51,2.771,13,5.591,19.5,8.367,6.765,2.888,13.553,5.73,20.308,8.64,1.628.7,3.131,1.66,4.967,1.887" transform="translate(17.336 61.864)" fill="#8b813b"/>
        <path id="Trazado_822657" data-name="Trazado 822657" d="M254.681,157.129q-5.661-9.785-11.4-19.531c-2.671-4.547-5.423-9.054-8.079-13.607-4.443-7.619-8.811-15.276-13.261-22.892Q206.8,75.206,191.623,49.337,185.2,38.357,178.79,27.369c-3.844-6.586-7.831-13.106-11.479-19.785-2.771-5.069-7.16-7.748-13.059-7.328a10.687,10.687,0,0,0-9.393,4.316,82.512,82.512,0,0,0-5.081,8.086q-7.1,12.495-14.512,24.837c-4.613,7.658-8.939,15.464-13.39,23.2-2.72,4.73-5.818,9.272-8.161,14.186-2.02,3.3-4.1,6.564-6.049,9.894-3.217,5.487-6.328,11.03-9.534,16.525-2.476,4.243-5.056,8.436-7.543,12.675-2.663,4.541-5.254,9.117-7.9,13.662-3.061,5.252-6.258,10.438-9.2,15.747-2.708,4.885-5.677,9.627-8.525,14.435-.816,1.375-2.125,2.655-2.3,4.361a57.923,57.923,0,0,0,10.41,5.323c5.491,2.414,11.032,4.73,16.558,7.077Q95,181.118,110.394,187.646c6.508,2.771,12.994,5.589,19.5,8.367,6.765,2.888,13.553,5.73,20.308,8.638,1.628.7,3.131,1.661,4.966,1.889q4.081-1.7,8.159-3.393c13.42-5.618,26.673-11.57,40.173-17.031,6.447-2.608,12.683-5.649,19.146-8.26,10.174-4.111,20.171-8.593,30.258-12.89,1.628-.695,3.031-1.836,4.876-2.1-.638-2.1-2.011-3.855-3.1-5.74" transform="translate(39.343 0.131)" fill="#ffae7e"/>
        <path id="Trazado_822658" data-name="Trazado 822658" d="M22.972,155.267c.147.259.1.375-.234.27.079-.094.155-.181.234-.27" transform="translate(16.99 95.623)" fill="#b6c53e"/>
        <path id="Trazado_822659" data-name="Trazado 822659" d="M111.706,206.609,110.8.387s6.578-2.928,13.058,7.328L214.333,163Z" transform="translate(82.791 0)" fill="#ff8740"/>
      </g>
    </g>
  </g>
</svg>
