<svg xmlns="http://www.w3.org/2000/svg" xmlns:xlink="http://www.w3.org/1999/xlink" width="190" height="182" viewBox="0 0 190 182">
  <defs>
    <clipPath id="clip-path">
      <rect id="Rect치ngulo_377796" data-name="Rect치ngulo 377796" width="190" height="182" transform="translate(285 725.081)" fill="#fff" stroke="#707070" stroke-width="1"/>
    </clipPath>
    <clipPath id="clip-path-2">
      <rect id="Rect치ngulo_377797" data-name="Rect치ngulo 377797" width="173.29" height="150.285" fill="none"/>
    </clipPath>
  </defs>
  <g id="Enmascarar_grupo_377" data-name="Enmascarar grupo 377" transform="translate(-285 -725.081)" clip-path="url(#clip-path)">
    <g id="Grupo_1073557" data-name="Grupo 1073557" transform="translate(315.161 736.82)">
      <g id="Grupo_1073559" data-name="Grupo 1073559" transform="translate(-25.162 -3.739)">
        <g id="Grupo_1073558" data-name="Grupo 1073558" clip-path="url(#clip-path-2)">
          <path id="Trazado_822673" data-name="Trazado 822673" d="M12.679,58.075a2.475,2.475,0,0,1-2.722-2.487c-.073-3.685-.2-7.379.061-11.056a5.255,5.255,0,0,1,4.646-4.888c2.967-.349,5.942-.035,8.911-.164,1.108-.048,1.106-.034,1.108-1.11,0-.986-.026-1.973.037-2.954.043-.662-.152-.955-.827-.839a3.944,3.944,0,0,1-2.659-.711,4.287,4.287,0,0,1-1.88-3.319c-.022-.134-.066-.264-.1-.4l.038-.06-.043-.057A10.9,10.9,0,0,0,19.2,26.76c.253-.152.227-.3-.009-.439.284-1.036.207-1.138-.775-1.137-1.569,0-3.134-.039-4.707.039C12.165,25.3,10.122,23.195,10,21.6c-.191-2.618-.049-5.241-.077-7.861A4.16,4.16,0,0,1,10.7,11.17a4.044,4.044,0,0,1,3.287-1.6c1.549-.072,3.1-.05,4.653-.023.559.01.724-.156.7-.721-.054-1.546-.1-3.1-.041-4.642A4.125,4.125,0,0,1,22.7.257,35.408,35.408,0,0,1,31.071.24c2.35.264,3.257,1.1,3.868,3.381a7.346,7.346,0,0,1,.088,1.844c.018,1.127.037,2.256-.007,3.382-.022.574.176.718.722.7,1.3-.037,2.6-.012,3.892-.012,3.363,0,4.954,2.159,4.867,4.9-.065,2.056-.009,4.115-.014,6.173A4.157,4.157,0,0,1,40.2,25.155c-1.407.068-2.822.069-4.228,0-.8-.041-.95.252-.923.964.048,1.295,0,2.593.007,3.89a4.3,4.3,0,0,1-4.576,4.557c-.524,0-.734.094-.709.677.05,1.182.056,2.37,0,3.551-.031.63.194.715.756.714q18.023-.024,36.047-.012c4.09,0,8.179-.035,12.27-.008.74,0,.905-.252.888-.928-.06-2.391.231-4.782.034-7.176l.02-.052,0,.058A31.255,31.255,0,0,1,75.5,30.341c-3.734-1.383-6.086-4.126-7.8-7.576A11.445,11.445,0,0,1,66.432,18.2a15.306,15.306,0,0,1,.672-5.023A13.421,13.421,0,0,1,76.1,3.9a16.219,16.219,0,0,1,4.976-.742q4.774-.117,9.552-.01a4.171,4.171,0,0,1,2.269.4,3.072,3.072,0,0,1,1.231,2.1,2.828,2.828,0,0,1-2.88,2.534c-3.638.006-7.275,0-10.913,0a8.45,8.45,0,0,0-3.958,1,8.935,8.935,0,0,0-4.6,10.04,8.382,8.382,0,0,0,7.978,6.975c22.982.124,45.965.063,68.948.05a14.515,14.515,0,0,0,2.508-.232c4.807-.85,7.487-5.476,7.011-10.036a8.937,8.937,0,0,0-8.818-7.8c-2.768-.022-5.537-.007-8.306-.008h-6.683q-15.229,0-30.457.012a2.937,2.937,0,0,1-2.869-1.679c-.127-.247-.274-.483-.412-.724a1.582,1.582,0,0,0,.21-.526,2.762,2.762,0,0,1,2.939-2.145q22.76,0,45.519.029a12.086,12.086,0,0,1,5.928,1.456A14.013,14.013,0,0,1,159.4,7.56a12.064,12.064,0,0,1,2.053,2.829,15.23,15.23,0,0,1,1.66,4.913,18.429,18.429,0,0,1-.093,4.18,13.828,13.828,0,0,1-1.871,5.19,12.433,12.433,0,0,1-5.692,5.067,15.493,15.493,0,0,1-4.913,1.456c-.336.031-.416.261-.412.531q.051,3.8.115,7.6l-.033.054.061.02c2.306.187,4.616.042,6.923.085a5.7,5.7,0,0,1,5.514,3.369,6.526,6.526,0,0,1,.6,2.743q.06,8.369.075,16.739.013,34.463,0,68.925c0,.76-.014,1.523-.079,2.279-.044.509.135.712.617.885a9.511,9.511,0,0,1,2.852,1.273,21.528,21.528,0,0,1,2.94,2.7,14.668,14.668,0,0,1,3.352,7.3,5.1,5.1,0,0,1,.093,2.46,2.674,2.674,0,0,1-2.439,2.106c-.336.029-.676.025-1.014.026H3.114A2.782,2.782,0,0,1,0,147.133a13.036,13.036,0,0,1,3.087-8.266,13.468,13.468,0,0,1,6.36-4.475.708.708,0,0,0,.513-.825c-.04-1.352-.046-2.705-.046-4.058q0-30.065,0-60.13c0-.62.056-1.242.026-1.86a2.384,2.384,0,0,1,2.573-2.524,2.158,2.158,0,0,1,1.675.64,3.242,3.242,0,0,1,.761,2.589q0,31.117,0,62.233c0,.815-.021,1.63-.047,2.444-.013.4.1.581.55.659a19.72,19.72,0,0,1,3.924.954.657.657,0,0,0,.9-.312,11.845,11.845,0,0,1,2.645-2.8,16.58,16.58,0,0,1,8.8-3.641,15.707,15.707,0,0,1,6.354.513,15.927,15.927,0,0,1,9.484,6.784,18.037,18.037,0,0,1,2.865,9.331c.022.546.164.88.815.851,1.013-.045,2.031-.046,3.045-.016.644.018.789-.245.787-.861-.022-8.568-.016-17.136-.023-25.7,0-1.913-.048-3.826-.044-5.739,0-1.18.028-1.18-1.188-1.218a3.589,3.589,0,0,1-3.164-2.981c-.02-3.116.066-6.234.028-9.349a3.612,3.612,0,0,1,3.723-3.706c4.6-.037,9.192-.028,13.789,0,1.9.01,3.007,1.183,2.913,2.495a2.447,2.447,0,0,1-2.41,2.518,9.323,9.323,0,0,1-1.013.026c-3.665,0-7.33.025-11-.02-.871-.01-1.121.257-1.07,1.108a31.832,31.832,0,0,1,.007,3.8c-.053.873.234,1.089,1.084,1.087Q74,106.636,91.3,106.652q12.686,0,25.372.016c.775,0,1.035-.2.994-1a35.146,35.146,0,0,1,0-3.886c.05-.854-.2-1.085-1.064-1.084q-17.635.04-35.269.012c-2.144,0-2.738-.454-3.327-2.53a2.705,2.705,0,0,1,2.967-2.527c1.72-.016,3.439,0,5.159,0q16.026,0,32.054.01a4.214,4.214,0,0,1,3.015.89,4.264,4.264,0,0,1,1.407,3.522c-.073,2.56-.177,5.129-.047,7.683a3.676,3.676,0,0,1-3.767,3.945c-.524-.007-.7.2-.674.7.048.814.085,1.63.085,2.445,0,9.89.09,19.781-.056,29.67-.007.516.117.721.641.712,1.155-.019,2.311,0,3.467,0,.181,0,.466.077.426-.228-.06-.465.2-.869.187-1.314a13.089,13.089,0,0,1,1.027-5.116,17.315,17.315,0,0,1,6.312-8.107c2.749-1.98,5.847-2.565,9.08-2.82a17.894,17.894,0,0,1,5.4.782.743.743,0,0,0,.2.145,15.728,15.728,0,0,1,7.889,5.529.926.926,0,0,0,1.218.346,14.82,14.82,0,0,1,3.791-.906c.476-.049.6-.3.582-.739-.035-1.013-.046-2.028-.046-3.042q-.011-34.037-.018-68.074c0-5.271,0-10.542-.017-15.814,0-1.119-.181-1.307-1.252-1.312-4.06-.015-8.12,0-12.18.007-.338-.014-.675-.038-1.013-.038q-63.065,0-126.13,0c-.62,0-1.241.005-1.861.029-.509.019-.856.225-.85.81,0,.309-.052.617-.054.926-.013,2.987,0,5.975-.037,8.962a2.452,2.452,0,0,1-2.076,2.69c-.112-.028-.148.048-.179.132Zm61.507,86.958a.306.306,0,0,0,.024-.081q.022-16.309.054-32.619c0-.583-.278-.62-.73-.619-4.227.008-8.455.013-12.682-.012-.534,0-.659.166-.658.668q.028,16.058.015,32.115c0,.6.156.754.744.751,4-.026,8-.013,12.006-.028a2.7,2.7,0,0,0,1.167-.07l.092-.053-.031-.052M79.2,128.578h.067q0,7.692,0,15.382c0,.447-.179,1.025.036,1.305.238.312.8-.054,1.242-.052,4.2.02,8.4-.015,12.6.01.7,0,.954-.152.863-.884a14.989,14.989,0,0,1,.01-1.856q.03-15.085.065-30.17c0-.418-.084-.562-.541-.618a13.772,13.772,0,0,0-1.685.029c-3.946-.013-7.892.008-11.838-.028-.668-.006-.833.177-.829.828.024,5.351.014,10.7.014,16.053m19.806-.12h0c0,5.354.007,10.708-.011,16.062,0,.509.047.742.658.736q6.386-.06,12.773-.035c.545,0,.643-.145.642-.655q-.026-16.065,0-32.13c0-.6-.154-.736-.742-.733q-6.217.039-12.435-.007c-.687-.005-.9.155-.9.869.031,5.3.017,10.6.017,15.892m15.918-97.153v-.018q-9.6,0-19.192-.007c-.446,0-.725-.008-.71.6.052,2.167.039,4.337.046,6.505,0,1.089,0,1.1,1.071,1.1q17.671.006,35.343.007c.9,0,1.8-.029,2.705-.011.4.008.541-.117.538-.525q-.022-3.592,0-7.184c0-.4-.1-.485-.523-.483-6.425.022-12.85.016-19.275.016M24.369,8.832v2.621c0,2.152-.985,3.116-3.173,3.107-1.8-.008-3.61.016-5.412-.05-.734-.026-.918.23-.894.911.043,1.267.062,2.538-.007,3.8-.041.77.248.975.955.966,1.945-.024,3.891-.03,5.836.007a2.512,2.512,0,0,1,2.7,2.772c.006,1.945.024,3.89-.007,5.834-.01.6.2.784.779.767,1.324-.039,2.65-.059,3.974-.022.728.02.885-.266.871-.946q-.057-2.7.025-5.41c.062-2.055,1.009-2.98,3.047-3.018,1.832-.034,3.665-.032,5.5-.018.643,0,.9-.223.879-.9-.043-1.323-.024-2.649-.007-3.973.007-.536-.177-.736-.744-.727q-2.748.043-5.5-.013c-2.268-.048-3.162-.955-3.2-3.225q-.041-2.662,0-5.326c.011-.63-.144-.913-.846-.888-1.38.048-2.764.031-4.144-.01-.488-.014-.651.126-.639.607.024,1.042.007,2.085.005,3.128M37.737,145.214c2.283,0,4.568-.025,6.85.016.653.012.795-.187.782-.812A11.515,11.515,0,0,0,34.228,132.7a11.253,11.253,0,0,0-8.566,2.961c-1.962,1.8-1.841,1.667-.228,3.443a8.36,8.36,0,0,1,2.326,4.485c.2,1.46.8,2.008,2.222,1.766a13.3,13.3,0,0,1,2.173-.135c1.86-.011,3.721,0,5.582,0m98.668.01v0c2.451,0,4.9-.065,7.35.033a1.306,1.306,0,0,0,1.569-1.17,13.072,13.072,0,0,1,3.259-5.914.93.93,0,0,0,.013-1.46,11.817,11.817,0,0,0-2.867-2.341,11.358,11.358,0,0,0-10.747-.776,11.119,11.119,0,0,0-7.064,10.741c-.006.685.154.923.884.909,2.534-.046,5.069-.018,7.6-.018m-122.192,0v-.007h8.036c.84,0,.926-.136.609-.935a9.093,9.093,0,0,0-2.687-3.665,9.451,9.451,0,0,0-8.791-1.7A8.756,8.756,0,0,0,5.6,144.283c-.347.8-.264.943.58.944q4.018,0,8.036,0m144.742.005v-.015H166.9c.883,0,1.036-.183.689-.964-2.131-4.8-6.739-6.578-11.435-5.29a8.7,8.7,0,0,0-5.739,5.331c-.34.8-.245.936.6.937q3.97,0,7.941,0M84.782,35.385h-.005c0,1.154.015,2.307-.008,3.46-.009.442.058.652.59.631,1.349-.054,2.7-.051,4.051-.034.492.006.616-.18.612-.646q-.03-3.418,0-6.837c0-.419-.084-.6-.551-.587-1.378.025-2.758.018-4.136-.013-.444-.01-.575.117-.562.566.033,1.153.011,2.307.011,3.46m55.139.035h-.016c0,1.153.009,2.306-.005,3.458,0,.415.113.6.576.588,1.292-.04,2.587-.037,3.88-.047.4,0,.7-.048.69-.587-.021-2.306-.014-4.612,0-6.918,0-.4-.129-.541-.535-.539-1.322.006-2.645,0-3.966-.041-.548-.016-.65.223-.635.712.033,1.124.01,2.249.01,3.374" transform="translate(0 0)" fill="#060607"/>
          <path id="Trazado_822674" data-name="Trazado 822674" d="M150.609,149.463a17.894,17.894,0,0,0-5.4-.782c-3.232.255-6.331.84-9.08,2.82a17.32,17.32,0,0,0-6.312,8.106,13.094,13.094,0,0,0-1.027,5.116c.016.446-.247.849-.187,1.314.04.306-.245.228-.426.228-1.156,0-2.312-.014-3.467,0-.524.009-.649-.2-.64-.712.145-9.89.056-19.78.056-29.67,0-.815-.037-1.631-.086-2.445-.03-.5.151-.709.674-.7a3.676,3.676,0,0,0,3.767-3.945c-.13-2.554-.025-5.123.048-7.683a4.262,4.262,0,0,0-1.408-3.522,4.214,4.214,0,0,0-3.015-.89q-16.026-.024-32.054-.01c-1.72,0-3.439-.02-5.159,0a2.706,2.706,0,0,0-2.967,2.527l-6.9-.02c.094-1.312-1.009-2.485-2.913-2.495-4.6-.024-9.193-.033-13.789,0a3.612,3.612,0,0,0-3.723,3.706c.038,3.115-.048,6.233-.028,9.349a3.589,3.589,0,0,0,3.164,2.981c1.215.038,1.19.038,1.187,1.218,0,1.913.042,3.826.044,5.739.007,8.569,0,17.137.024,25.7,0,.616-.143.878-.788.861-1.014-.029-2.031-.029-3.044.016-.651.029-.793-.3-.816-.851a18.037,18.037,0,0,0-2.865-9.331,15.925,15.925,0,0,0-9.484-6.784,15.706,15.706,0,0,0-6.354-.513,16.583,16.583,0,0,0-8.8,3.641,11.845,11.845,0,0,0-2.645,2.8.657.657,0,0,1-.9.312,19.72,19.72,0,0,0-3.924-.954c-.446-.079-.563-.26-.55-.659.026-.814.047-1.629.047-2.444q0-31.117,0-62.233a3.242,3.242,0,0,0-.761-2.589,2.158,2.158,0,0,0-1.675-.64c0-1.812.01-3.625,0-5.437a5.493,5.493,0,0,1,.166-1.483l-.008.008.179-.131a2.453,2.453,0,0,0,2.076-2.69c.033-2.987.023-5.975.036-8.962,0-.309.056-.617.054-.926-.006-.585.341-.792.85-.811.619-.023,1.24-.028,1.86-.028q63.066,0,126.131,0c.337,0,.674.024,1.012.038q0,4.221,0,8.442c-3.578.012-7.157,0-10.734.046-1.9.026-3.746.892-3.856,3.4q-.2,4.683.022,9.372a3.48,3.48,0,0,0,3.492,3.249c3.691.023,7.382.026,11.073.038q0,2.6,0,5.2a32.776,32.776,0,0,1-3.288.083,83.806,83.806,0,0,0-8.425.09,3.434,3.434,0,0,0-2.848,2.957c-.193,3.092-.088,6.187-.041,9.28a3.161,3.161,0,0,0,.228,1.464,3.725,3.725,0,0,0,3.563,2.238c3.6,0,7.206.023,10.809.036q0,2.578,0,5.156-5.326.013-10.653.026c-2.178,0-3.944,1.167-3.966,3.569-.028,3.123-.113,6.246-.083,9.369.015,1.492,1.9,3.122,3.419,3.124q4.9.005,9.809,0a4.013,4.013,0,0,0,1.473-.14c0,1.212.022,2.423,0,3.635-.084,4.406.2,8.817-.17,13.22M65.877,90.121c2.029,0,4.06.029,6.088-.009,1.667-.03,3.353-1.331,3.485-2.759a71.563,71.563,0,0,0,.06-9.655c-.1-2.32-1.745-3.651-4.2-3.629-3.355.031-6.709,0-10.064.016a12.289,12.289,0,0,0-1.841.147,3.537,3.537,0,0,0-2.719,2.657c-.217,3.321-.128,6.646-.027,9.966a3.366,3.366,0,0,0,3.464,3.263c1.917.026,3.833.006,5.75,0m.09,21.31v.019c2,0,4,.029,6-.009a3.35,3.35,0,0,0,3.445-2.622,6.772,6.772,0,0,0,.21-1.8c.022-2.451.111-4.908-.019-7.352-.135-2.529-1.023-4.129-3.766-4.225-3.885-.137-7.779-.093-11.667-.037a3.275,3.275,0,0,0-3.542,3.408c-.11,3.148-.065,6.306.038,9.456a3.4,3.4,0,0,0,3.381,3.156c1.972.039,3.945.009,5.918.009M39.5,132.743c2,0,4,.046,6-.015a3.513,3.513,0,0,0,3.382-3,76.11,76.11,0,0,0,.1-9.446c-.09-2.566-1.416-3.474-3.605-3.555-3.885-.143-7.78-.092-11.67-.021a3.422,3.422,0,0,0-3.619,3.587c-.117,2.986.01,5.973-.043,8.957a3.715,3.715,0,0,0,3.535,3.511c1.972-.06,3.947-.014,5.92-.014m79.788-42.621h2.875c.986,0,1.973.013,2.959-.006a3.315,3.315,0,0,0,3.334-3.149q.127-4.771.016-9.547a3.177,3.177,0,0,0-2.248-3.045,6.243,6.243,0,0,0-2.165-.3q-5.074,0-10.147-.006a7.259,7.259,0,0,0-1.519.124,3.645,3.645,0,0,0-2.876,3.427c-.014,2.929-.039,5.859-.016,8.789a3.7,3.7,0,0,0,3.7,3.7c2.029.024,4.058,0,6.088.005m-79.791,0v.006h5.753a3.5,3.5,0,0,0,3.717-3.45c.131-3.039.156-6.094,0-9.13-.124-2.413-1.539-3.363-3.742-3.476-.113-.006-.226-.005-.339-.005-3.441,0-6.882,0-10.324.014a9.323,9.323,0,0,0-1.6.142,3.425,3.425,0,0,0-2.833,2.928c-.177,3.182-.12,6.367-.054,9.553a3.637,3.637,0,0,0,3.665,3.428c1.917-.041,3.836-.01,5.754-.01m52.9,21.322v.026c1.8,0,3.608-.021,5.411,0,2.61.038,4.23-1.315,4.237-4.3.006-2.592-.011-5.184,0-7.775a3.578,3.578,0,0,0-3.742-3.96c-3.831-.1-7.669-.127-11.5,0-2.437.078-3.677,1.369-3.71,3.921-.037,2.817.011,5.635-.015,8.451a3.677,3.677,0,0,0,3.564,3.644c1.916-.019,3.833,0,5.749,0m26.46,0v.009c2.029,0,4.06.037,6.089-.01a3.451,3.451,0,0,0,3.545-3.474c.07-3.041.046-6.087,0-9.129a3.226,3.226,0,0,0-1.853-2.98,4.562,4.562,0,0,0-2.014-.446c-3.863-.037-7.726-.088-11.586,0a3.357,3.357,0,0,0-3.492,3.331c-.151,3.064-.129,6.145,0,9.211a3.459,3.459,0,0,0,3.475,3.467c1.942.084,3.89.018,5.835.018M39.5,111.433v.045c.93,0,1.861,0,2.791,0,.958,0,1.918-.035,2.876-.013a3.646,3.646,0,0,0,3.868-4.008c-.016-2.536,0-5.073-.013-7.609a9.6,9.6,0,0,0-.1-1.346,3.4,3.4,0,0,0-2.9-2.984A9.092,9.092,0,0,0,44.5,95.4c-3.242-.015-6.485-.012-9.727-.023a8.952,8.952,0,0,0-1.934.162A3.467,3.467,0,0,0,30.122,98.4c-.178,3.238-.1,6.478-.033,9.718a3.69,3.69,0,0,0,3.488,3.324c1.972-.037,3.947-.009,5.92-.009M92.39,90.125v0h2.959c.986,0,1.972.022,2.959,0a3.77,3.77,0,0,0,3.725-3.69c.029-2.817.037-5.634-.007-8.45a3.627,3.627,0,0,0-1.189-2.866A4.976,4.976,0,0,0,97.6,74.07c-3.353.034-6.707.009-10.06.016-.393,0-.786.054-1.178.084a3.643,3.643,0,0,0-3.283,3.724c.01,2.873.043,5.747-.012,8.62a3.832,3.832,0,0,0,3.572,3.628c1.913-.068,3.832-.016,5.748-.016" transform="translate(-5.911 -21.034)" fill="#dbc9c4"/>
          <path id="Trazado_822675" data-name="Trazado 822675" d="M134.469,8.409c.138.241.285.477.412.724a2.935,2.935,0,0,0,2.869,1.678q15.228-.031,30.456-.011h6.684c2.768,0,5.537-.014,8.306.007a8.937,8.937,0,0,1,8.817,7.8c.476,4.559-2.2,9.185-7.011,10.036a14.529,14.529,0,0,1-2.508.232c-22.983.014-45.966.074-68.948-.05a8.382,8.382,0,0,1-7.978-6.976,8.934,8.934,0,0,1,4.6-10.04,8.451,8.451,0,0,1,3.958-1c3.638,0,7.276,0,10.914,0a2.828,2.828,0,0,0,2.879-2.534c.177.065.361.28.516-.03l.061,0,.053-.03c1.65-.149,3.3.055,4.947.027a1.539,1.539,0,0,1,.971.175M148.7,22.3h29.776c1.015,0,2.031.024,3.045,0a2.449,2.449,0,0,0,2.045-3.664c-.721-1.282-1.918-1.32-3.154-1.32q-31.172.007-62.343.016c-.761,0-1.525,0-2.281.074a2.435,2.435,0,0,0-2.061,1.523,2.16,2.16,0,0,0,.414,2.477,2.644,2.644,0,0,0,2.161.9q16.2-.023,32.4-.01" transform="translate(-33.793 -2.615)" fill="#c1e29a"/>
          <path id="Trazado_822676" data-name="Trazado 822676" d="M28.205,38.754c.236.141.262.287.009.439a.258.258,0,0,1-.009-.439" transform="translate(-9.011 -12.433)" fill="#54ab78"/>
          <path id="Trazado_822677" data-name="Trazado 822677" d="M221.226,57.973l-.061-.02.033-.054.058.02Z" transform="translate(-70.952 -18.575)" fill="#54ab78"/>
          <path id="Trazado_822678" data-name="Trazado 822678" d="M117.455,46.185l0-.058-.02.052.017.005" transform="translate(-37.676 -14.798)" fill="#54ab78"/>
          <path id="Trazado_822679" data-name="Trazado 822679" d="M28.29,44.218l.043.058-.038.06-.123-.056.118-.062" transform="translate(-9.038 -14.186)" fill="#54ab78"/>
          <path id="Trazado_822680" data-name="Trazado 822680" d="M139.462,8.214l-.054.03-.06,0c.02-.084.06-.084.114-.027" transform="translate(-44.704 -2.623)" fill="#c2b1ac"/>
          <path id="Trazado_822681" data-name="Trazado 822681" d="M213.047,149.475c.368-4.4.086-8.813.169-13.22.023-1.211,0-2.423,0-3.635a3.522,3.522,0,0,0,3.907-1.889,4.963,4.963,0,0,0,.356-2.2,60.614,60.614,0,0,0-.194-9.237,3.168,3.168,0,0,0-2.51-2.419,12.259,12.259,0,0,1-1.558-.211q0-2.578,0-5.155c.308-.02.617-.038.925-.061a3.5,3.5,0,0,0,3.308-3.221c.171-3.124.149-6.255.014-9.379a3.394,3.394,0,0,0-3.156-3.359c-.361-.053-.726-.085-1.089-.126q0-2.6,0-5.2l.842-.035a3.487,3.487,0,0,0,3.389-3.154c.172-3.147.132-6.3.011-9.448a3.257,3.257,0,0,0-1.965-3,6.811,6.811,0,0,0-2.273-.474q0-4.221,0-8.442c4.06-.005,8.12-.022,12.18-.007,1.071,0,1.248.193,1.251,1.312.02,5.271.016,10.542.018,15.813q.008,34.038.018,68.075c0,1.013.01,2.028.045,3.041.016.441-.106.69-.582.739a14.821,14.821,0,0,0-3.79.906.926.926,0,0,1-1.219-.346,15.721,15.721,0,0,0-7.889-5.528.76.76,0,0,1-.2-.145" transform="translate(-68.348 -21.046)" fill="#c2b1ac"/>
          <path id="Trazado_822682" data-name="Trazado 822682" d="M116.609,181.326c0-5.351.011-10.7-.014-16.054,0-.651.162-.833.829-.827,3.946.036,7.892.015,11.838.027a13.777,13.777,0,0,1,1.685-.029c.457.056.543.2.542.618q-.044,15.085-.065,30.17a14.979,14.979,0,0,0-.01,1.856c.09.732-.164.888-.863.884-4.2-.024-8.4.01-12.6-.009-.438,0-1,.363-1.242.052-.215-.281-.037-.859-.037-1.306q0-7.691,0-15.382h-.067" transform="translate(-37.405 -52.747)" fill="#cee8fa"/>
          <path id="Trazado_822683" data-name="Trazado 822683" d="M145.768,181.22c0-5.3.014-10.6-.016-15.893,0-.714.208-.874.9-.868q6.218.051,12.435.007c.587,0,.742.133.742.732q-.028,16.065,0,32.13c0,.51-.1.657-.642.655q-6.386-.024-12.773.035c-.611.006-.659-.227-.658-.736.018-5.354.011-10.708.011-16.062h0" transform="translate(-46.759 -52.76)" fill="#cee8fa"/>
          <path id="Trazado_822684" data-name="Trazado 822684" d="M102.557,197.9a2.709,2.709,0,0,1-1.166.07c-4,.015-8,0-12.007.028-.588,0-.744-.151-.744-.751q.02-16.057-.015-32.115c0-.5.124-.67.658-.668,4.228.024,8.455.02,12.683.012.452,0,.731.036.73.619q-.043,16.31-.054,32.619a.283.283,0,0,1-.024.081c-.086,0-.1.037-.061.105" transform="translate(-28.432 -52.762)" fill="#cee8fa"/>
          <path id="Trazado_822685" data-name="Trazado 822685" d="M97.377,144.526l6.9.02c.589,2.076,1.183,2.529,3.327,2.53q17.634.005,35.269-.012c.861,0,1.115.23,1.065,1.084a34.977,34.977,0,0,0,0,3.886c.041.795-.218,1-.993,1q-12.687-.038-25.373-.016-17.295,0-34.591.029c-.85,0-1.136-.213-1.084-1.087a31.55,31.55,0,0,0-.007-3.8c-.051-.852.2-1.119,1.071-1.108,3.664.046,7.33.021,10.995.02a9.338,9.338,0,0,0,1.014-.026,2.447,2.447,0,0,0,2.409-2.518" transform="translate(-26.269 -46.366)" fill="#54ab78"/>
          <path id="Trazado_822686" data-name="Trazado 822686" d="M31.4,11.24c0-1.043.017-2.086-.007-3.128-.011-.482.151-.621.639-.607,1.381.041,2.764.057,4.144.009.7-.024.856.259.846.889q-.045,2.662,0,5.326c.035,2.271.93,3.178,3.2,3.225q2.748.058,5.5.013c.568-.009.752.192.745.728-.018,1.324-.037,2.65.006,3.973.022.674-.236.9-.878.9-1.832-.014-3.666-.016-5.5.018-2.038.038-2.986.964-3.048,3.018q-.082,2.7-.024,5.41c.014.68-.143.966-.871.945-1.323-.037-2.65-.017-3.974.022-.581.018-.789-.168-.779-.767.031-1.945.013-3.889.007-5.834A2.512,2.512,0,0,0,28.7,22.6c-1.945-.037-3.89-.032-5.836-.007-.708.009-1-.2-.955-.966.069-1.264.05-2.536.007-3.8-.023-.682.16-.937.9-.911,1.8.065,3.608.041,5.412.049,2.188.01,3.171-.954,3.172-3.106q0-1.31,0-2.621" transform="translate(-7.028 -2.408)" fill="#c1e29a"/>
          <path id="Trazado_822687" data-name="Trazado 822687" d="M49.172,207.885c-1.86,0-3.721-.007-5.582,0a13.3,13.3,0,0,0-2.173.135c-1.417.242-2.025-.306-2.222-1.766a8.361,8.361,0,0,0-2.326-4.485c-1.612-1.777-1.734-1.642.228-3.443a11.25,11.25,0,0,1,8.565-2.961A11.515,11.515,0,0,1,56.8,207.088c.013.625-.129.823-.782.812-2.283-.041-4.567-.016-6.85-.014" transform="translate(-11.435 -62.669)" fill="#c1e29a"/>
          <path id="Trazado_822688" data-name="Trazado 822688" d="M196.827,207.852c-2.535,0-5.07-.029-7.6.018-.729.014-.89-.224-.883-.909a11.119,11.119,0,0,1,7.064-10.741,11.359,11.359,0,0,1,10.747.777,11.8,11.8,0,0,1,2.867,2.341A.93.93,0,0,1,209,200.8a13.072,13.072,0,0,0-3.259,5.914,1.306,1.306,0,0,1-1.569,1.17c-2.446-.1-4.9-.032-7.35-.032Z" transform="translate(-60.422 -62.627)" fill="#c1e29a"/>
          <path id="Trazado_822689" data-name="Trazado 822689" d="M16.766,210.662q-4.018,0-8.036,0c-.844,0-.927-.149-.58-.944a8.757,8.757,0,0,1,5.783-5.36,9.451,9.451,0,0,1,8.791,1.7,9.084,9.084,0,0,1,2.687,3.665c.318.8.232.935-.609.935H16.766v.007" transform="translate(-2.553 -65.433)" fill="#54ab78"/>
          <path id="Trazado_822690" data-name="Trazado 822690" d="M229.916,210.681q-3.97,0-7.941,0c-.847,0-.943-.14-.6-.937a8.7,8.7,0,0,1,5.739-5.331c4.7-1.288,9.3.493,11.435,5.29.347.78.194.964-.688.964h-7.942Z" transform="translate(-70.96 -65.448)" fill="#54ab78"/>
          <path id="Trazado_822691" data-name="Trazado 822691" d="M124.822,50.2c0-1.153.022-2.307-.011-3.46-.014-.449.118-.576.561-.566,1.379.031,2.758.039,4.137.014.468-.009.554.168.552.587q-.025,3.418,0,6.837c0,.466-.12.652-.613.645-1.35-.017-2.7-.019-4.051.034-.531.021-.6-.188-.589-.631.023-1.153.007-2.307.007-3.46h.006" transform="translate(-40.04 -14.812)" fill="#c2b1ac"/>
          <path id="Trazado_822692" data-name="Trazado 822692" d="M206,50.221c0-1.125.022-2.249-.01-3.374-.015-.489.087-.729.635-.712,1.321.038,2.644.048,3.966.041.405,0,.537.143.535.539-.014,2.306-.021,4.612,0,6.918.005.539-.29.585-.69.587-1.293.01-2.588.007-3.88.047-.463.014-.581-.173-.576-.588.014-1.153.005-2.306.005-3.458Z" transform="translate(-66.081 -14.8)" fill="#c2b1ac"/>
          <path id="Trazado_822693" data-name="Trazado 822693" d="M18.836,85.323l-.179.131c.031-.083.066-.159.179-.131" transform="translate(-5.985 -27.371)" fill="#f6f9fa"/>
          <path id="Trazado_822694" data-name="Trazado 822694" d="M109.128,213.643c-.037-.069-.024-.109.061-.105l.032.052-.093.053" transform="translate(-35.003 -68.505)" fill="#54ab78"/>
          <path id="Trazado_822695" data-name="Trazado 822695" d="M83.89,94.141c-1.917,0-3.833.02-5.75-.005a3.366,3.366,0,0,1-3.463-3.263c-.1-3.32-.19-6.645.027-9.965a3.536,3.536,0,0,1,2.719-2.658,12.371,12.371,0,0,1,1.841-.147c3.354-.014,6.709.016,10.063-.016,2.453-.022,4.1,1.309,4.2,3.63a71.662,71.662,0,0,1-.06,9.655c-.132,1.428-1.818,2.729-3.486,2.76-2.029.037-4.059.009-6.088.011m-4.245-5.051c.014.067.032.121.106.046,2.7-.01,5.4-.032,8.1-.02.533,0,.674-.2.664-.7-.029-1.489-.052-2.981-.016-4.47.016-.619-.242-.782-.788-.782-2.5,0-5.008-.007-7.512-.032-.473,0-.61.158-.643.631-.087,1.28.02,2.561-.064,3.844-.029.433-.291,1.039.156,1.48" transform="translate(-23.923 -25.051)" fill="#060607"/>
          <path id="Trazado_822696" data-name="Trazado 822696" d="M83.985,125.5c-1.972,0-3.945.031-5.918-.01a3.4,3.4,0,0,1-3.381-3.156c-.1-3.15-.148-6.308-.037-9.457a3.274,3.274,0,0,1,3.542-3.407c3.888-.057,7.782-.1,11.667.036,2.743.1,3.631,1.7,3.765,4.225.13,2.444.042,4.9.02,7.352a6.805,6.805,0,0,1-.21,1.805,3.351,3.351,0,0,1-3.445,2.622c-2,.039-4,.009-6,.009V125.5m-.066-5.072c1.324,0,2.65-.013,3.974.007.416.006.623-.094.618-.554q-.028-2.407-.012-4.815c0-.384-.111-.554-.528-.558-2.589-.026-5.177-.07-7.767-.115-.45-.008-.653.143-.658.634-.013,1.566-.049,3.132-.121,4.7-.026.547.131.731.689.716,1.267-.036,2.536-.012,3.8-.011" transform="translate(-23.927 -35.102)" fill="#060607"/>
          <path id="Trazado_822697" data-name="Trazado 822697" d="M44.979,156.864c-1.973,0-3.948-.046-5.92.014a3.716,3.716,0,0,1-3.535-3.511c.052-2.984-.073-5.971.043-8.956a3.423,3.423,0,0,1,3.62-3.587c3.889-.071,7.784-.122,11.669.022,2.189.081,3.515.989,3.606,3.554a76.24,76.24,0,0,1-.1,9.446,3.515,3.515,0,0,1-3.383,3c-2,.061-4,.015-6,.014m4.449-10.485c.112-.53-.24-.53-.6-.53-2.586,0-5.173.013-7.759,0-.431,0-.587.107-.578.562.03,1.629.031,3.259.017,4.888,0,.412.14.528.537.525,2.586-.018,5.172-.013,7.758-.025.253,0,.6.115.631-.337,0-.058,0-.117,0-.175l-.006-4.731c0-.058,0-.117,0-.175" transform="translate(-11.394 -45.155)" fill="#060607"/>
          <path id="Trazado_822698" data-name="Trazado 822698" d="M162.3,94.14c-2.029,0-4.058.019-6.088,0a3.7,3.7,0,0,1-3.7-3.7c-.023-2.929,0-5.859.016-8.789a3.645,3.645,0,0,1,2.876-3.427,7.3,7.3,0,0,1,1.519-.124q5.074.012,10.147.006a6.228,6.228,0,0,1,2.165.3,3.176,3.176,0,0,1,2.248,3.044q.107,4.771-.016,9.547a3.315,3.315,0,0,1-3.334,3.149c-.986.02-1.972.006-2.959.006q-1.438,0-2.875,0m-.185-5.021v0c1.267,0,2.537-.041,3.8.018.579.027.649-.18.64-.671-.026-1.463-.048-2.929.016-4.39.031-.723-.213-.918-.9-.91-2.393.026-4.787.028-7.18-.014-.678-.012-.88.217-.866.867.033,1.491.036,2.984-.006,4.474-.014.5.134.643.607.635,1.3-.02,2.591-.007,3.886-.007" transform="translate(-48.924 -25.053)" fill="#060607"/>
          <path id="Trazado_822699" data-name="Trazado 822699" d="M44.965,94.141c-1.918,0-3.837-.032-5.754.009a3.636,3.636,0,0,1-3.665-3.428c-.067-3.185-.124-6.37.054-9.552a3.424,3.424,0,0,1,2.833-2.928,9.392,9.392,0,0,1,1.6-.143c3.441-.015,6.882-.012,10.324-.014.113,0,.226,0,.338.005,2.2.114,3.619,1.064,3.743,3.477.156,3.036.132,6.091,0,9.13a3.5,3.5,0,0,1-3.717,3.45H44.965v-.005m-4.307-5.085q4.128.032,8.256.068c.3,0,.5-.061.505-.4,0-.058,0-.117,0-.176l-.01-4.728-.008-.18c.046-.488-.327-.467-.62-.468-2.564-.008-5.128.006-7.692,0-.486,0-.615.187-.6.653.037,1.689.035,3.378.047,5.067-.036.115,0,.172.126.166" transform="translate(-11.383 -25.051)" fill="#060607"/>
          <path id="Trazado_822700" data-name="Trazado 822700" d="M122.929,125.516c-1.917,0-3.833-.015-5.749,0a3.676,3.676,0,0,1-3.563-3.644c.025-2.817-.022-5.634.014-8.452.034-2.55,1.274-3.841,3.71-3.92,3.829-.123,7.667-.1,11.5,0a3.578,3.578,0,0,1,3.742,3.96c-.016,2.592,0,5.184,0,7.775-.007,2.989-1.627,4.342-4.236,4.3-1.8-.025-3.608,0-5.412,0v-.027m-4.3-10.836c-.023.011-.067.023-.067.03a1.073,1.073,0,0,0,.032.14c.026,1.658.063,3.315.07,4.973,0,.382-.008.624.5.619,2.616-.024,5.233-.017,7.849,0,.4,0,.534-.114.527-.53-.026-1.63-.025-3.261-.011-4.892,0-.412-.149-.515-.545-.518-1.8-.014-3.6-.1-5.4-.084a9.448,9.448,0,0,0-2.965.266" transform="translate(-36.45 -35.103)" fill="#060607"/>
          <path id="Trazado_822701" data-name="Trazado 822701" d="M206.35,140.787a12.258,12.258,0,0,0,1.558.211,3.171,3.171,0,0,1,2.51,2.419,60.8,60.8,0,0,1,.194,9.238,4.971,4.971,0,0,1-.356,2.2,3.523,3.523,0,0,1-3.907,1.889,3.994,3.994,0,0,1-1.472.14q-4.905,0-9.81,0c-1.517,0-3.4-1.631-3.418-3.123-.031-3.122.054-6.246.082-9.369.022-2.4,1.788-3.565,3.966-3.569q5.327-.009,10.653-.027m-9.595,10.673c-.04.139-.112.292.128.32,2.873.085,5.746.111,8.618-.01.213-.029.163-.166.125-.3.016-1.6,0-3.2.063-4.8.024-.626-.156-.833-.79-.826q-3.795.038-7.591-.007c-.514-.005-.609.216-.6.655.028,1.657.034,3.315.048,4.972" transform="translate(-61.481 -45.166)" fill="#060607"/>
          <path id="Trazado_822702" data-name="Trazado 822702" d="M206.363,78.051a6.811,6.811,0,0,1,2.273.474,3.258,3.258,0,0,1,1.965,3c.121,3.148.162,6.3-.01,9.448a3.487,3.487,0,0,1-3.39,3.154l-.842.037c-3.691-.012-7.382-.016-11.073-.038a3.482,3.482,0,0,1-3.492-3.249q-.226-4.682-.022-9.372c.11-2.512,1.952-3.376,3.856-3.4,3.577-.049,7.156-.034,10.734-.046M196.9,83.187c-.123-.045-.164-.006-.123.119q0,2.7-.007,5.4c-.058.147-.056.269.127.318a19.586,19.586,0,0,0,3.261.072c1.787-.01,3.577.111,5.362-.06.22-.039.161-.181.119-.319.017-1.627.027-3.255.056-4.881.006-.358-.041-.513-.479-.556-2.771-.264-5.544-.078-8.316-.09" transform="translate(-61.492 -25.04)" fill="#060607"/>
          <path id="Trazado_822703" data-name="Trazado 822703" d="M161.837,125.524c-1.945,0-3.892.066-5.834-.018a3.46,3.46,0,0,1-3.475-3.468c-.133-3.066-.156-6.147,0-9.21a3.356,3.356,0,0,1,3.491-3.331c3.861-.09,7.724-.039,11.586,0a4.563,4.563,0,0,1,2.015.446,3.224,3.224,0,0,1,1.852,2.98c.05,3.043.073,6.088,0,9.129a3.452,3.452,0,0,1-3.545,3.474c-2.029.048-4.06.01-6.089.01v-.009m.114-5.085h3.973c.3,0,.614.087.607-.427-.024-1.689-.012-3.38-.008-5.069,0-.306-.1-.448-.441-.454-2.646-.053-5.291-.085-7.937.014-.459.017-.554.218-.549.635.019,1.576.023,3.153-.01,4.729-.009.45.115.588.561.579,1.267-.024,2.535-.008,3.8-.007" transform="translate(-48.898 -35.112)" fill="#060607"/>
          <path id="Trazado_822704" data-name="Trazado 822704" d="M44.971,125.516c-1.974,0-3.947-.029-5.92.009a3.69,3.69,0,0,1-3.488-3.324c-.065-3.24-.145-6.479.033-9.718a3.468,3.468,0,0,1,2.719-2.857,8.9,8.9,0,0,1,1.933-.162c3.242.01,6.485.008,9.727.022a9.094,9.094,0,0,1,1.515.114,3.4,3.4,0,0,1,2.9,2.984,9.5,9.5,0,0,1,.1,1.346c.011,2.536,0,5.073.012,7.609a3.645,3.645,0,0,1-3.867,4.008c-.958-.022-1.917.009-2.876.013-.93,0-1.861,0-2.791,0v-.045m-.112-5.072c1.3,0,2.593-.016,3.889.009.444.008.691-.085.687-.585-.015-1.606-.009-3.211-.016-4.817,0-.3-.048-.535-.46-.545-2.618-.06-5.235-.145-7.853-.1-.475.008-.626.2-.62.662.022,1.606.024,3.212,0,4.817-.007.452.131.574.572.564,1.268-.028,2.537-.01,3.805-.01" transform="translate(-11.385 -35.117)" fill="#060607"/>
          <path id="Trazado_822705" data-name="Trazado 822705" d="M122.925,94.143c-1.916,0-3.834-.053-5.748.015a3.832,3.832,0,0,1-3.572-3.628c.055-2.872.021-5.746.012-8.62a3.643,3.643,0,0,1,3.283-3.724c.393-.029.786-.082,1.178-.084,3.354-.006,6.708.019,10.061-.015a4.977,4.977,0,0,1,3.232,1.043A3.629,3.629,0,0,1,132.56,82c.044,2.816.037,5.634.007,8.45a3.768,3.768,0,0,1-3.725,3.689c-.985.025-1.972,0-2.959,0h-2.959v0M126.5,89.1c0,.187.113.24.274.226.135-.012.189-.1.187-.229.57.13.564-.22.56-.628-.015-1.542-.033-3.086,0-4.627.012-.528-.169-.691-.664-.688-2.664.022-5.327.029-7.99.041-.109-.035-.159,0-.143.118-.17,1.744-.035,3.494-.1,5.241-.2-.026-.225.046-.144.219.046.1-.162.336.162.274a1.289,1.289,0,0,0,.386.124q3.734-.027,7.468-.071" transform="translate(-36.446 -25.052)" fill="#060607"/>
          <path id="Trazado_822706" data-name="Trazado 822706" d="M206.368,109.424c.363.041.727.073,1.089.126a3.394,3.394,0,0,1,3.155,3.36c.135,3.124.157,6.255-.014,9.378a3.5,3.5,0,0,1-3.308,3.222c-.308.022-.617.04-.926.06-3.6-.013-7.206-.031-10.808-.037a3.725,3.725,0,0,1-3.564-2.237,3.161,3.161,0,0,1-.228-1.464c-.047-3.093-.151-6.188.041-9.28a3.433,3.433,0,0,1,2.848-2.956,84,84,0,0,1,8.425-.09,32.784,32.784,0,0,0,3.289-.082m-9.509,5.208a.276.276,0,0,0-.1.386c-.01,1.578.007,3.157-.045,4.733-.019.556.124.7.679.692,2.481-.031,4.963-.042,7.443,0,.693.013.842-.155.885-.857.1-1.585-.522-3.155-.048-4.739.1-.325-.175-.338-.418-.348-.7-.028-1.4,0-2.108-.053a35.342,35.342,0,0,0-6.291.18" transform="translate(-61.498 -35.105)" fill="#060607"/>
          <path id="Trazado_822707" data-name="Trazado 822707" d="M152.562,26.635q-16.2,0-32.4.01a2.644,2.644,0,0,1-2.161-.9,2.16,2.16,0,0,1-.414-2.477,2.435,2.435,0,0,1,2.061-1.523c.757-.069,1.521-.074,2.281-.074q31.172-.011,62.343-.016c1.236,0,2.433.037,3.154,1.32a2.449,2.449,0,0,1-2.045,3.664c-1.015.026-2.03,0-3.045,0H152.562" transform="translate(-37.652 -6.946)" fill="#060607"/>
          <path id="Trazado_822708" data-name="Trazado 822708" d="M81.92,91.474c-.447-.441-.185-1.047-.156-1.48.084-1.283-.023-2.564.064-3.844.033-.473.17-.635.643-.631,2.5.025,5.008.031,7.512.032.546,0,.8.163.788.782-.037,1.489-.014,2.981.016,4.47.01.5-.131.7-.664.7-2.7-.012-5.4.01-8.095.02,0-.092-.043-.1-.107-.046" transform="translate(-26.198 -27.436)" fill="#f6f9fa"/>
          <path id="Trazado_822709" data-name="Trazado 822709" d="M82.042,94.272c.063-.05.1-.047.107.046-.075.075-.093.021-.107-.046" transform="translate(-26.32 -30.233)" fill="#54ab78"/>
          <path id="Trazado_822710" data-name="Trazado 822710" d="M86.2,122.778c-1.268,0-2.537-.024-3.8.012-.558.016-.715-.168-.689-.716.072-1.564.108-3.13.121-4.7,0-.492.209-.643.658-.634,2.589.046,5.177.09,7.767.115.416,0,.53.174.528.558q-.013,2.407.012,4.815c.005.46-.2.56-.618.554-1.324-.02-2.65-.007-3.974-.008" transform="translate(-26.213 -37.453)" fill="#f6f9fa"/>
          <path id="Trazado_822711" data-name="Trazado 822711" d="M51.78,148.96l.006,4.731c-.018.016-.054.037-.052.05a.735.735,0,0,0,.05.126c-.027.452-.378.336-.631.337-2.586.012-5.172.007-7.758.025-.4,0-.541-.113-.537-.526.015-1.629.014-3.259-.017-4.887-.008-.456.148-.565.579-.562,2.586.015,5.173,0,7.759,0,.359,0,.712,0,.6.53-.111.059-.106.118,0,.175" transform="translate(-13.744 -47.561)" fill="#f6f9fa"/>
          <path id="Trazado_822712" data-name="Trazado 822712" d="M55.963,149.211c-.107-.058-.113-.116,0-.175,0,.058,0,.117,0,.175" transform="translate(-17.927 -47.812)" fill="#c2b1ac"/>
          <path id="Trazado_822713" data-name="Trazado 822713" d="M55.985,156.435a.735.735,0,0,1-.05-.126c0-.012.033-.033.052-.05,0,.058,0,.117,0,.175" transform="translate(-17.945 -50.13)" fill="#c2b1ac"/>
          <path id="Trazado_822714" data-name="Trazado 822714" d="M164.529,91.508c-1.3,0-2.591-.013-3.886.007-.473.007-.62-.137-.607-.635.042-1.49.039-2.983.006-4.474-.014-.65.187-.88.866-.867,2.393.041,4.787.039,7.18.014.685-.007.928.187.9.91-.063,1.461-.041,2.927-.016,4.39.009.491-.06.7-.64.671-1.264-.058-2.533-.018-3.8-.018Z" transform="translate(-51.341 -27.442)" fill="#f6f9fa"/>
          <path id="Trazado_822715" data-name="Trazado 822715" d="M51.772,86.223q.005,2.364.01,4.728c-.02.017-.058.038-.055.049a.786.786,0,0,0,.056.128c-.009.336-.206.4-.506.4-2.752-.029-5.5-.047-8.256-.069l-.126-.165c-.012-1.689-.01-3.379-.047-5.067-.01-.467.119-.656.6-.654,2.564.011,5.128,0,7.692,0,.293,0,.666-.02.62.468-.126.066-.107.125.008.18" transform="translate(-13.746 -27.452)" fill="#f6f9fa"/>
          <path id="Trazado_822716" data-name="Trazado 822716" d="M42.911,93.994l.126.166c-.122.005-.162-.051-.126-.166" transform="translate(-13.762 -30.154)" fill="#dbc9c4"/>
          <path id="Trazado_822717" data-name="Trazado 822717" d="M55.978,93.669a.782.782,0,0,1-.056-.128c0-.01.035-.032.055-.048,0,.058,0,.118,0,.176" transform="translate(-17.94 -29.994)" fill="#c2b1ac"/>
          <path id="Trazado_822718" data-name="Trazado 822718" d="M55.943,86.446c-.115-.055-.134-.114-.008-.18l.008.18" transform="translate(-17.917 -27.675)" fill="#c2b1ac"/>
          <path id="Trazado_822719" data-name="Trazado 822719" d="M120.975,117.036a9.449,9.449,0,0,1,2.965-.266c1.8-.017,3.6.069,5.4.084.4,0,.549.105.545.518-.014,1.631-.015,3.262.011,4.892.007.416-.132.532-.527.53-2.616-.012-5.233-.019-7.849,0-.513,0-.5-.236-.5-.619-.007-1.657-.043-3.315-.069-4.972.011-.056.022-.113.034-.171" transform="translate(-38.799 -37.46)" fill="#f6f9fa"/>
          <path id="Trazado_822720" data-name="Trazado 822720" d="M120.96,117.163c-.012.058-.023.115-.034.171a1.038,1.038,0,0,1-.033-.141c0-.007.043-.019.067-.03" transform="translate(-38.784 -37.587)" fill="#54ab78"/>
          <path id="Trazado_822721" data-name="Trazado 822721" d="M207.893,154.154c-2.873.121-5.746.1-8.618.01-.01-.12.005-.249-.128-.319-.014-1.658-.02-3.316-.048-4.973-.007-.439.087-.659.6-.654,2.531.025,5.061.032,7.591.006.634-.007.814.2.791.827-.06,1.6-.047,3.2-.063,4.8q-.063.15-.125.3" transform="translate(-63.873 -47.55)" fill="#f6f9fa"/>
          <path id="Trazado_822722" data-name="Trazado 822722" d="M199.15,156.5c.133.071.118.2.128.32-.24-.028-.168-.181-.128-.32" transform="translate(-63.876 -50.207)" fill="#c2b1ac"/>
          <path id="Trazado_822723" data-name="Trazado 822723" d="M212.047,156.816q.062-.151.125-.3c.038.133.088.271-.125.3" transform="translate(-68.027 -50.212)" fill="#dbc9c4"/>
          <path id="Trazado_822724" data-name="Trazado 822724" d="M207.92,91.434c-1.786.171-3.576.05-5.362.06a19.593,19.593,0,0,1-3.261-.072.3.3,0,0,0-.127-.318q0-2.7.007-5.4l.123-.118c2.772.011,5.545-.175,8.316.09.437.041.486.2.48.555-.031,1.627-.039,3.255-.057,4.882l-.118.319" transform="translate(-63.896 -27.441)" fill="#f6f9fa"/>
          <path id="Trazado_822725" data-name="Trazado 822725" d="M212.053,94.07l.118-.319c.043.137.1.28-.118.319" transform="translate(-68.029 -30.076)" fill="#dbc9c4"/>
          <path id="Trazado_822726" data-name="Trazado 822726" d="M199.153,93.735a.3.3,0,0,1,.127.318c-.183-.05-.185-.172-.127-.318" transform="translate(-63.88 -30.071)" fill="#c2b1ac"/>
          <path id="Trazado_822727" data-name="Trazado 822727" d="M199.3,85.6l-.123.119c-.041-.125,0-.164.123-.119" transform="translate(-63.892 -27.457)" fill="#c2b1ac"/>
          <path id="Trazado_822728" data-name="Trazado 822728" d="M164.392,122.8c-1.268,0-2.536-.016-3.8.008-.446.009-.571-.129-.561-.579.033-1.576.029-3.152.01-4.728,0-.418.09-.619.549-.636,2.646-.1,5.291-.067,7.937-.014.342.007.441.148.441.454,0,1.69-.016,3.38.008,5.069.007.513-.306.427-.607.427h-3.973" transform="translate(-51.339 -37.47)" fill="#f6f9fa"/>
          <path id="Trazado_822729" data-name="Trazado 822729" d="M47.217,122.773c-1.269,0-2.537-.018-3.805.01-.441.01-.579-.112-.572-.564.027-1.606.024-3.212,0-4.817-.006-.466.145-.654.62-.663,2.619-.047,5.236.037,7.853.1.413.01.459.245.46.544.007,1.606,0,3.212.016,4.817,0,.5-.243.593-.687.585-1.3-.024-2.593-.009-3.889-.009" transform="translate(-13.743 -37.447)" fill="#f6f9fa"/>
          <path id="Trazado_822730" data-name="Trazado 822730" d="M121.249,85.595c2.663-.012,5.327-.019,7.99-.041.494,0,.676.16.664.688-.036,1.541-.018,3.084,0,4.626,0,.409.009.759-.56.629a.5.5,0,0,0-.462,0c-2.489.025-4.978.053-7.468.071a1.343,1.343,0,0,1-.385-.123l-.018-.5c.065-1.746-.071-3.5.1-5.241l.143-.117" transform="translate(-38.82 -27.447)" fill="#f6f9fa"/>
          <path id="Trazado_822731" data-name="Trazado 822731" d="M132.6,94.28a.506.506,0,0,1,.462,0c0,.129-.053.217-.188.229-.16.014-.274-.039-.274-.226" transform="translate(-42.538 -30.228)" fill="#54ab78"/>
          <path id="Trazado_822732" data-name="Trazado 822732" d="M120.918,93.5l.018.494c-.324.062-.116-.177-.162-.275-.081-.173-.056-.245.144-.219" transform="translate(-38.732 -29.994)" fill="#54ab78"/>
          <path id="Trazado_822733" data-name="Trazado 822733" d="M121.295,85.608l-.143.117c-.016-.117.035-.152.143-.117" transform="translate(-38.866 -27.46)" fill="#c2b1ac"/>
          <path id="Trazado_822734" data-name="Trazado 822734" d="M199.232,116.974a35.342,35.342,0,0,1,6.291-.18c.705.05,1.406.025,2.108.053.243.01.516.023.418.348-.473,1.584.145,3.154.048,4.739-.043.7-.192.87-.885.857-2.48-.047-4.961-.036-7.443,0-.555.007-.7-.137-.678-.692.052-1.576.035-3.156.045-4.733a.36.36,0,0,0,.1-.386" transform="translate(-63.87 -37.447)" fill="#f6f9fa"/>
          <path id="Trazado_822735" data-name="Trazado 822735" d="M199.236,117.092a.36.36,0,0,1-.1.386.276.276,0,0,1,.1-.386" transform="translate(-63.874 -37.564)" fill="#c2b1ac"/>
        </g>
      </g>
    </g>
  </g>
</svg>
