<svg xmlns="http://www.w3.org/2000/svg" xmlns:xlink="http://www.w3.org/1999/xlink" width="169" height="169" viewBox="0 0 169 169">
  <defs>
    <clipPath id="clip-path">
      <rect id="Rect치ngulo_377857" data-name="Rect치ngulo 377857" width="101.414" height="101.453" fill="none"/>
    </clipPath>
  </defs>
  <g id="Grupo_1073686" data-name="Grupo 1073686" transform="translate(-719 -2877.811)">
    <g id="Grupo_1073327" data-name="Grupo 1073327" transform="translate(334 819.811)">
      <g id="Grupo_159182" data-name="Grupo 159182" transform="translate(385.001 2058)">
        <path id="Uni칩n_12" data-name="Uni칩n 12" d="M84.5,0A84.5,84.5,0,1,1,0,84.5,84.5,84.5,0,0,1,84.5,0Z" transform="translate(0 0)" fill="#ffae7e"/>
      </g>
    </g>
    <g id="Grupo_1073689" data-name="Grupo 1073689" transform="translate(752.793 2911.584)">
      <g id="Grupo_1073688" data-name="Grupo 1073688" clip-path="url(#clip-path)">
        <path id="Trazado_823097" data-name="Trazado 823097" d="M73.015,33.086q-3.087-3.108-6.174-6.217c-.384-.387-.774-.768-1.135-1.175-.207-.234-.331-.208-.537,0-.83.85-1.675,1.686-2.519,2.523a2.9,2.9,0,0,1-.844.67,1.429,1.429,0,0,1-1.8-.421,1.37,1.37,0,0,1,.027-1.661,4.262,4.262,0,0,1,.484-.56c.86-.867,1.72-1.735,2.594-2.588.217-.211.217-.328,0-.547-2.3-2.275-4.575-4.576-6.884-6.842A4.553,4.553,0,0,1,54.7,12.25,4.412,4.412,0,0,1,56.331,9.4a4.312,4.312,0,0,1,2.849-.963,4.018,4.018,0,0,1,2.975,1.18c.933.948,1.9,1.858,2.775,2.867.783.9,1.7,1.695,2.568,2.517s1.753,1.689,2.593,2.573c.48.505,1.008.964,1.5,1.457.219.219.279-.025.38-.108,1.064-.884,2.014-1.888,2.992-2.862,1.544-1.538,3.077-3.086,4.628-4.617.171-.169.246-.411.484-.532.148-.075.008-.184-.063-.272a29.639,29.639,0,0,0-2.322-2.349A6.556,6.556,0,0,1,75.955,6a4.326,4.326,0,0,1,.038-3.147,4.1,4.1,0,0,1,2.676-2.6,4.311,4.311,0,0,1,4.6,1.054q4.527,4.462,9.014,8.966c2.268,2.261,4.542,4.517,6.784,6.8a12.542,12.542,0,0,1,1.577,1.713,4.428,4.428,0,0,1-1.875,6.556,4.193,4.193,0,0,1-5.058-1.017q-1.39-1.375-2.72-2.809c-.251-.269-.376-.277-.635-.015q-3.136,3.167-6.3,6.308c-.514.513-1.02,1.035-1.55,1.531-.216.2-.218.311-.029.552a21.791,21.791,0,0,0,1.766,1.782c2.391,2.423,4.784,4.844,7.2,7.238a4.764,4.764,0,0,1,1.547,3.446,4.448,4.448,0,0,1-7.7,2.974c-2.28-2.3-4.583-4.569-6.848-6.879-.346-.353-.5-.29-.8.014Q64.221,51.911,50.786,65.336q-4.92,4.921-9.835,9.847a2.574,2.574,0,0,1-.921.668,1.255,1.255,0,0,1-1.422-.268c-.577-.543-1.135-1.1-1.7-1.662-.511-.5-.514-.511-1-.022q-4.294,4.319-8.587,8.639a8.98,8.98,0,0,1-2.717,2.145A6.054,6.054,0,0,1,20.538,85a5.439,5.439,0,0,1-1.059-.49.4.4,0,0,0-.557.091q-8.036,8.073-16.085,16.132a1.914,1.914,0,0,1-1.429.721A1.516,1.516,0,0,1,.059,99.577,1.879,1.879,0,0,1,.538,98.8q7.006-7,14-14.017c.757-.759,1.509-1.522,2.28-2.265a.416.416,0,0,0,.1-.608,5.579,5.579,0,0,1-.659-3.421,5.933,5.933,0,0,1,1.667-3.423c.941-.989,2-1.859,2.954-2.833,2.191-2.228,4.415-4.423,6.623-6.635.124-.124.2-.294.33-.415.181-.174.046-.3-.061-.389a11.649,11.649,0,0,1-2.019-2.132,1.335,1.335,0,0,1,.127-1.8q14.8-14.786,29.6-29.573a3.546,3.546,0,0,1,.975-.824,1.306,1.306,0,0,1,1.671.332,1.445,1.445,0,0,1,.1,1.781,4.462,4.462,0,0,1-.525.591c-.885.849-1.694,1.777-2.636,2.567-.212.178-.18.275.015.469,1.492,1.478,2.951,2.99,4.449,4.461.952.934,1.852,1.924,2.871,2.789.924.935,1.859,1.86,2.765,2.813.253.265.388.227.618-.01,1.092-1.121,2.2-2.228,3.3-3.336q3.262-3.272,6.53-6.54c.19-.19.414-.362.119-.647q-1.364-1.321-2.721-2.65M53.9,51.912a1.156,1.156,0,0,0-.113-.16q-3.505-3.531-7.011-7.061c-.242-.245-.4-.184-.623.042q-7,7.033-14.021,14.052-1.347,1.349-2.7,2.7c-.231.231-.377.485-.095.764.569.563,1.162,1.1,1.729,1.67.985.981,1.946,1.986,2.942,2.955.817.8,1.566,1.662,2.443,2.4.87.877,1.747,1.748,2.608,2.634.468.482.488.5.951.008,1.543-1.625,3.134-3.2,4.713-4.792C48.69,63.13,52.588,59.073,56.7,55.233c.16-.149.3-.3.1-.492-.963-.947-1.934-1.887-2.9-2.829m36.141-9.707a1.722,1.722,0,0,0-.7-1.252c-1.269-1.222-2.476-2.5-3.755-3.718-1.341-1.272-2.59-2.642-3.9-3.952q-6.852-6.867-13.717-13.723-3.868-3.866-7.742-7.727a1.59,1.59,0,0,0-2.136-.032,1.508,1.508,0,0,0-.069,2.087,12.8,12.8,0,0,0,.918,1.024c6.321,6.276,12.547,12.646,18.929,18.861,2.6,2.531,5.137,5.125,7.705,7.688.654.652,1.3,1.314,1.987,1.932a1.419,1.419,0,0,0,1.658.232,1.444,1.444,0,0,0,.817-1.421M19.2,79.362c-.061.194.124.486.208.8a2.928,2.928,0,0,0,3.712,1.893,4.486,4.486,0,0,0,1.64-1.144q4.589-4.583,9.179-9.164c.292-.29.343-.452.01-.773-1.191-1.142-2.353-2.314-3.5-3.5-.3-.311-.461-.269-.736.017-.949.987-1.922,1.952-2.89,2.921q-3.2,3.205-6.408,6.4A3.678,3.678,0,0,0,19.2,79.362M63.364,48.65a2.264,2.264,0,0,0-.156-.212c-.1-.108-.212-.208-.317-.313q-4.817-4.838-9.629-9.682c-.3-.308-.474-.368-.814-.009-1.019,1.078-2.09,2.107-3.14,3.156-.689.689-.689.69-.016,1.361q4.73,4.715,9.454,9.436c.325.326.527.366.868.012,1.156-1.2,2.347-2.364,3.525-3.541.068-.067.14-.13.225-.208M78.631,4.42a1.856,1.856,0,0,0,.637,1.307l16.4,16.378a2.784,2.784,0,0,0,.62.488A1.432,1.432,0,0,0,98,22.374a1.5,1.5,0,0,0,.331-1.642,3.353,3.353,0,0,0-.821-1.043Q90.553,12.711,83.589,5.738c-.805-.805-1.61-1.612-2.444-2.387a1.367,1.367,0,0,0-1.654-.2,1.584,1.584,0,0,0-.859,1.27m5.741,10.5c-.048-.043-.124-.1-.193-.174-.522-.527-1.06-1.04-1.558-1.59-.265-.293-.4-.288-.689,0q-3.933,3.971-7.908,7.9c-.229.227-.109.316.036.461.56.559,1.127,1.111,1.672,1.684.213.224.334.151.509-.034,2.605-2.733,5.283-5.393,7.99-8.025.053-.052.154-.073.139-.223m2.061,2.144c-.06.07-.107.135-.163.191q-1.469,1.47-2.94,2.937-2.47,2.462-4.941,4.924c-.2.2-.426.385-.1.687.522.479,1.034.971,1.523,1.484.265.279.425.285.708,0q3.885-3.917,7.8-7.8c.2-.2.271-.336.038-.561-.569-.549-1.121-1.117-1.683-1.675a2.286,2.286,0,0,0-.246-.186" transform="translate(0 0)"/>
        <path id="Trazado_823098" data-name="Trazado 823098" d="M167.643,83.262q1.36,1.326,2.721,2.65c.294.285.071.457-.118.647q-3.266,3.269-6.531,6.54c-1.105,1.108-2.211,2.215-3.3,3.336-.231.237-.366.275-.618.01-.906-.953-1.841-1.878-2.765-2.813.971-1.206,2.128-2.233,3.21-3.332,2.188-2.221,4.406-4.415,6.594-6.637.242-.246.635-.085.811-.4" transform="translate(-94.629 -50.176)" fill="#4cf2e7"/>
        <path id="Trazado_823099" data-name="Trazado 823099" d="M80.706,136.8c-.877-.734-1.626-1.6-2.443-2.4-1-.97-1.956-1.975-2.941-2.955-.568-.565-1.16-1.106-1.729-1.67-.282-.279-.136-.533.095-.764q1.348-1.348,2.7-2.7Q83.4,119.3,90.4,112.271c.225-.226.381-.287.623-.042q3.5,3.534,7.011,7.06a1.182,1.182,0,0,1,.113.16c-.552.142-.732.682-1.084,1.033q-7.472,7.446-14.925,14.912a6.617,6.617,0,0,1-.919.865c-.188.128-.515.209-.517.545" transform="translate(-44.255 -67.537)" fill="#ff4447"/>
        <path id="Trazado_823100" data-name="Trazado 823100" d="M177.446,59.5a1.446,1.446,0,0,1-.818,1.421,1.42,1.42,0,0,1-1.658-.232c-.686-.618-1.333-1.28-1.987-1.932-2.569-2.563-5.106-5.157-7.7-7.688-6.382-6.215-12.608-12.585-18.929-18.861a12.732,12.732,0,0,1-.917-1.024,1.507,1.507,0,0,1,.07-2.087,1.589,1.589,0,0,1,2.136.031Q151.5,33,155.379,36.86q6.862,6.858,13.717,13.723c1.307,1.309,2.556,2.679,3.9,3.951,1.279,1.213,2.486,2.5,3.754,3.718a1.724,1.724,0,0,1,.7,1.252" transform="translate(-87.409 -17.298)" fill="#4cf2e7"/>
        <path id="Trazado_823101" data-name="Trazado 823101" d="M91.729,147.993c0-.336.328-.417.517-.545a6.619,6.619,0,0,0,.919-.865q7.463-7.456,14.925-14.912c.352-.351.532-.891,1.084-1.033.968.942,1.938,1.882,2.9,2.829.2.2.062.343-.1.492-4.112,3.839-8.01,7.9-11.976,11.883-1.579,1.588-3.171,3.167-4.713,4.792-.463.488-.483.474-.951-.008-.861-.887-1.738-1.757-2.608-2.634" transform="translate(-55.278 -78.725)" fill="#df0015"/>
        <path id="Trazado_823102" data-name="Trazado 823102" d="M48.3,181.359a3.678,3.678,0,0,1,1.214-2.548q3.215-3.191,6.408-6.4c.968-.969,1.94-1.933,2.89-2.92.274-.285.436-.327.736-.017,1.147,1.186,2.31,2.358,3.5,3.5.334.32.283.482-.01.773q-4.6,4.572-9.179,9.164a4.486,4.486,0,0,1-1.64,1.144,2.929,2.929,0,0,1-3.712-1.893c-.083-.312-.269-.6-.207-.8" transform="translate(-29.097 -101.996)" fill="#f8f9fb"/>
        <path id="Trazado_823103" data-name="Trazado 823103" d="M137.35,106.564c-.085.078-.157.141-.225.208-1.178,1.177-2.368,2.343-3.525,3.541-.341.354-.544.315-.869-.012q-4.715-4.73-9.453-9.436c-.674-.672-.674-.673.016-1.361,1.05-1.049,2.121-2.078,3.14-3.156.34-.359.509-.3.815.009q4.8,4.851,9.629,9.682c.1.1.215.2.317.313a2.348,2.348,0,0,1,.156.213" transform="translate(-73.987 -57.913)" fill="#f8f9fb"/>
        <path id="Trazado_823104" data-name="Trazado 823104" d="M197.873,8.912a1.586,1.586,0,0,1,.86-1.27,1.368,1.368,0,0,1,1.655.2c.834.774,1.639,1.581,2.443,2.387Q209.8,17.2,216.754,24.181a3.357,3.357,0,0,1,.821,1.043,1.5,1.5,0,0,1-.33,1.642,1.433,1.433,0,0,1-1.714.219,2.793,2.793,0,0,1-.62-.488l-16.4-16.378a1.858,1.858,0,0,1-.637-1.307" transform="translate(-119.243 -4.492)" fill="#4cf2e7"/>
        <path id="Trazado_823105" data-name="Trazado 823105" d="M196.436,34.545c.015.151-.086.172-.14.223-2.707,2.632-5.385,5.292-7.99,8.025-.176.184-.3.257-.509.034-.545-.573-1.112-1.125-1.672-1.684-.145-.145-.265-.234-.036-.461q3.971-3.932,7.908-7.9c.285-.288.424-.293.689,0,.5.55,1.035,1.063,1.558,1.59.068.069.145.131.193.174" transform="translate(-112.064 -19.623)" fill="#f8f9fb"/>
        <path id="Trazado_823106" data-name="Trazado 823106" d="M204.909,42.945a2.286,2.286,0,0,1,.246.186c.562.558,1.113,1.127,1.683,1.675.233.225.163.362-.038.561q-3.911,3.89-7.8,7.8c-.283.285-.443.279-.708,0-.489-.513-1-1.005-1.523-1.484-.329-.3-.1-.486.1-.687q2.469-2.463,4.941-4.924,1.472-1.466,2.94-2.937c.056-.056.1-.12.163-.191" transform="translate(-118.476 -25.88)" fill="#4cf2e7"/>
        <path id="Trazado_823107" data-name="Trazado 823107" d="M145.9,82.426l-7.336-7.719,10.1-10.041,7.845,7.389-9.45,9.368" transform="translate(-83.504 -38.97)" fill="#f8f9fb"/>
      </g>
    </g>
  </g>
</svg>
