<svg id="Grupo_1074667" data-name="Grupo 1074667" xmlns="http://www.w3.org/2000/svg" xmlns:xlink="http://www.w3.org/1999/xlink" width="123.73" height="115.245" viewBox="0 0 123.73 115.245">
  <defs>
    <clipPath id="clip-path">
      <rect id="Rectángulo_378238" data-name="Rectángulo 378238" width="123.73" height="115.245" fill="none"/>
    </clipPath>
  </defs>
  <g id="Grupo_1074666" data-name="Grupo 1074666" clip-path="url(#clip-path)">
    <path id="Trazado_823963" data-name="Trazado 823963" d="M20.489,87.741c-.136-3.081,1.207-5.618,2.979-7.978A49.957,49.957,0,0,1,27.715,74.6,33.834,33.834,0,0,1,31.612,71c.272-.2.662-.511-.014-.745a.1.1,0,0,0-.174-.011Q20.158,70.2,8.892,70.17c-1.215,0-2.43.071-3.646.108h-.2a5.013,5.013,0,0,1-3.194-1.065C.9,68.482.917,67.131,0,66.478c.42.091.511-.179.467-.627a43.679,43.679,0,0,1,.179-5.363,52.312,52.312,0,0,1,.478-5.777,6.013,6.013,0,0,1,4.232-4.776c2.754-.816,5.583-1.353,8.322-2.227a21.949,21.949,0,0,0,3.385-1.474,3.076,3.076,0,0,0,1.5-2.729c.044-.381-.219-.562-.483-.749a13.442,13.442,0,0,1-4.758-5.941,5.074,5.074,0,0,1-.585-1.728c-.006-.6-.377-.634-.694-.722-2.573-.708-4.382-2.2-4.961-4.893a5.828,5.828,0,0,1,1.486-5.354,2.686,2.686,0,0,0,.793-2.04,40.77,40.77,0,0,1,.02-4.6A12.286,12.286,0,0,1,11.028,12.6,13.588,13.588,0,0,1,19.742,5.59a16.32,16.32,0,0,1,3.9-.648c.725-.015,1.451-.175,2.185-.148a21.549,21.549,0,0,1,6,.805,7.544,7.544,0,0,1,5.488,6.091.954.954,0,0,0,.591.735,6.026,6.026,0,0,1,3.234,4.722,28.071,28.071,0,0,1,.268,5.35,1.794,1.794,0,0,0,1.037,1.73c.342-.75.472-1.553.821-2.286a3.522,3.522,0,0,1,.9-1.307,2.329,2.329,0,0,0,.906-2.193c-.061-1.07-.014-2.14-.094-3.217a9.746,9.746,0,0,1,.61-3.743A15.974,15.974,0,0,1,47.8,6.758,15.519,15.519,0,0,1,57.62.481a30.656,30.656,0,0,1,7.673-.4C67.82.25,70.36.732,72.351,2.491A8.7,8.7,0,0,1,74.7,5.953a2.7,2.7,0,0,1,.278,1.2c-.062.984.9,1.137,1.506,1.428A4.266,4.266,0,0,1,78.552,11.2a17.07,17.07,0,0,1,.9,7.214,2.491,2.491,0,0,1-.085.379c-.264.18-.212.393-.066.617l.084.166-.112.065.128.1a13.076,13.076,0,0,1,1.881,2.543,3.1,3.1,0,0,1,.5,1.553c-.008.162-.01.333.156.415.194.1.351-.048.467-.161a1.724,1.724,0,0,0,.669-1.364c-.046-1.11,0-2.223-.026-3.335a13.924,13.924,0,0,1,1.975-7.066A14.516,14.516,0,0,1,97.392,4.962c.733.01,1.442-.217,2.184-.177a24.225,24.225,0,0,1,5.789.7,7.732,7.732,0,0,1,5.794,6.147,1.017,1.017,0,0,0,.652.806c2.023.916,2.788,2.688,3.181,4.717a23.351,23.351,0,0,1,.221,5.579,1.284,1.284,0,0,0,.432.976,6.5,6.5,0,0,1,1.878,4.811,5.934,5.934,0,0,1-3.986,5.5,3.425,3.425,0,0,1-1.274.354c-.3-.01-.4.265-.486.589a13.179,13.179,0,0,1-3.886,6.713,13.393,13.393,0,0,1-1.357,1.07,1.7,1.7,0,0,0-.163,2.868,10.693,10.693,0,0,0,3.587,1.91c2.869,1.1,5.921,1.545,8.852,2.418a5.582,5.582,0,0,1,4.087,4.41,26.037,26.037,0,0,1,.337,3.577c.17,2.4.3,4.806.484,7.207.14,1.831-.868,4.3-2.923,4.874a14.068,14.068,0,0,1-4,.23c-.342,0-.684-.071-1.026-.07q-11.709.033-23.417.078c-.132,0-.264.018-.4.028-.01-.069-.01-.159-.1-.046l.113.03c.016.166-.048.311.155.469a37.666,37.666,0,0,1,10.256,11.791c2.168,4.038,1.5,8.085-.967,11.844a41.092,41.092,0,0,1-4.645,5.807,49.49,49.49,0,0,1-8.7,7.223,39.7,39.7,0,0,1-7.545,4.068,58.2,58.2,0,0,1-10.195,2.987,49.291,49.291,0,0,1-10.525.761,42.135,42.135,0,0,1-4.267-.469,45.226,45.226,0,0,1-10.243-2.627A47.232,47.232,0,0,1,34.921,106.6c-1.392-.984-2.723-2.046-4.047-3.119a46.961,46.961,0,0,1-7.131-7.734,14.141,14.141,0,0,1-2.835-5.069,24.6,24.6,0,0,1-.392-2.624c.162-.117.143-.219-.026-.309M12.335,30.994c0-1.688-.021-3.376-.008-5.064,0-.655-.158-.717-.71-.367a2.876,2.876,0,0,0-1.469,2.982,3.031,3.031,0,0,0,2.059,2.622c.125,0,.17-.054.128-.174m26.057-5.75c-.17,1.945-.005,3.891,0,5.837.128.256.247.149.365-.008A3.189,3.189,0,0,0,40.5,27.622a2.97,2.97,0,0,0-1.9-2.407c-.09-.122-.163-.124-.216.029m37.731,1.465a2.457,2.457,0,0,0-.022,1.145l0,.435c.057.259.118.508.435.2l.759-.539a3.506,3.506,0,0,0-.564-6.031c-.521-.207-.694-.158-.669.435.045,1.025.04,2.053.055,3.08,0,.071,0,.141,0,.212q0,.532,0,1.064m10.15-8.079c-.01.576-.022,1.153-.025,1.73,0,.121-.02.294.17.276a.326.326,0,0,0,.207-.2c.2-.591.39-1.187.581-1.781.418-.263.587-.736.916-1.078a3.653,3.653,0,0,1,3.206-1.233,5.421,5.421,0,0,1,2.613,1.181,9.869,9.869,0,0,0,7.316,1.271,8.9,8.9,0,0,0,3.961-1.819,3.786,3.786,0,0,1,5.3.9c.413.613.778,1.257,1.165,1.886l.331.895c.43-.353-.015-.628.07-.909a7.6,7.6,0,0,0-.6-3.448,1.236,1.236,0,0,0-1.083-.883,2.533,2.533,0,0,1-2.249-2.378,4.655,4.655,0,0,0-4-4.6,32.39,32.39,0,0,0-4.67-.425,16.221,16.221,0,0,0-4.033.418,10.607,10.607,0,0,0-7.866,5.737,8.349,8.349,0,0,0-1.3,4.452m-41.6,44.154a.738.738,0,0,0,0-.773c.005-1.244-.014-2.489.022-3.732.033-1.15.554-1.687,1.547-1.688s1.537.539,1.578,1.664c.033.9,0,1.8-.01,2.7-.014,1.027-.017,1.034,1.019.745a47.049,47.049,0,0,1,11.16-1.807c1.4-.046,2.78,0,4.168,0a35.727,35.727,0,0,1,5.388.566,38.416,38.416,0,0,1,6.461,1.5c.466.154.726.031.7-.56-.048-1-.03-2.012-.01-3.018a1.594,1.594,0,0,1,1.734-1.792c.9.016,1.451.676,1.457,1.785q.011,2.144,0,4.288c0,.339.023.634.388.78,1.834.73,3.588,1.636,5.423,2.552a12.117,12.117,0,0,0-.085-1.932c.1-2.56-.339-5.092-.339-7.645a12,12,0,0,0-.2-2.114A3.354,3.354,0,0,0,82.5,51.519c-1.721-.5-3.468-.888-5.209-1.308A22.764,22.764,0,0,1,72.6,48.668c-.446-.217-.884-.327-1.241.214a11.332,11.332,0,0,1-2.324,2.492,10.337,10.337,0,0,1-6.03,2.506A10.485,10.485,0,0,1,53.5,49.342c-.737-.989-.706-.989-1.891-.548A61.506,61.506,0,0,1,42.817,51.2c-2.147.452-3.537,1.695-3.554,3.8-.021,2.582-.259,5.147-.365,7.72a15.251,15.251,0,0,1-.207,2.5c-.1.458.056.413.345.419a1.543,1.543,0,0,0,.737-.256c1.363-.7,2.725-1.4,4.147-1.969.309-.124.667-.226.753-.632m15.368.332c-.648.018-1.4.075-2.157.131a40.6,40.6,0,0,0-7.67,1.375,45.418,45.418,0,0,0-10.839,4.622,41.255,41.255,0,0,0-8.5,6.51,50.474,50.474,0,0,0-5.207,6.086c-2.351,3.233-2.854,6.77-.719,10.219a40.6,40.6,0,0,0,7.3,8.528,41.559,41.559,0,0,0,9.161,6.408,46.557,46.557,0,0,0,9.621,3.7,45.143,45.143,0,0,0,10,1.327,60.4,60.4,0,0,0,6.137-.273,36.276,36.276,0,0,0,7.061-1.421A45.4,45.4,0,0,0,84.511,106,44.739,44.739,0,0,0,98.059,93.794c1.572-2.082,2.652-4.279,2.338-7.022a8.407,8.407,0,0,0-1.044-3.554A40.82,40.82,0,0,0,88.015,71.4a44.7,44.7,0,0,0-13.934-6.7,43.54,43.54,0,0,0-10.6-1.581c-1.108-.031-2.218-.005-3.437-.005M23.823,67.094v-.005q5.16,0,10.32,0a2.743,2.743,0,0,0,1.314-.11c.364-.224-.191-.7-.056-1.086a.667.667,0,0,0,0-.237c-.043-1.184.318-2.348.286-3.51-.068-2.506.358-4.978.374-7.476a5.033,5.033,0,0,1,.436-2.112c.734-1.557.734-1.557-.93-2.112a1.013,1.013,0,0,1-.229-.062c-.839-.544-1.332-.188-1.862.548a9.933,9.933,0,0,1-16.437-.319.88.88,0,0,0-1.243-.388,21.846,21.846,0,0,1-2.462.821c-2.254.6-4.522,1.152-6.778,1.75a2.9,2.9,0,0,0-2.325,2.384c-.156.791-.049,1.568-.131,2.348a72.168,72.168,0,0,0-.466,8.248c.009.9.329,1.268,1.219,1.3,1.031.035,2.065-.018,3.095.031.7.033.974-.154.955-.923-.055-2.222-.024-4.446-.024-6.669a1.62,1.62,0,0,1,1.643-1.639c.97,0,1.51.611,1.521,1.806.02,2.223.031,4.447,0,6.67-.009.589.137.767.743.763,3.678-.028,7.356-.014,11.035-.014m27.819-42.71H51.63c0,1.588.047,3.177-.011,4.762a10.174,10.174,0,0,0,2,6.32,10.656,10.656,0,0,0,17.141.156,11.608,11.608,0,0,0,2.133-6.986c-.066-3.4.152-6.806-.136-10.2a4.039,4.039,0,0,0-1.044-2.5.734.734,0,0,0-1.1-.123,15.9,15.9,0,0,1-5.453,2.5,12.758,12.758,0,0,1-6.839-.317,15.644,15.644,0,0,1-4.3-2.157.838.838,0,0,0-1.295.2,4.429,4.429,0,0,0-1.064,2.719c-.04,1.878-.011,3.757-.011,5.636m48.823,42.747v-.038c3.625,0,7.25-.015,10.875.015.635.005.8-.174.791-.8-.033-2.355-.013-4.71.013-7.066a1.428,1.428,0,0,1,1.514-1.368,1.292,1.292,0,0,1,1.508,1.242,11.985,11.985,0,0,1,.116,1.879q0,2.7,0,5.4c0,.4.015.735.573.72,1.137-.031,2.276,0,3.412-.039.9-.035,1.364-.478,1.247-1.357-.205-1.539-.15-3.088-.253-4.628-.092-1.384-.205-2.777-.224-4.172-.007-.564-.087-1.142-.141-1.713a2.924,2.924,0,0,0-1.88-2.254,92.6,92.6,0,0,1-9.694-2.7c-.582-.227-.861-.071-1.191.416a9.992,9.992,0,0,1-15.934,1c-.481-.515-.652-1.472-1.361-1.548a5.544,5.544,0,0,0-2.009.592c-.025.008-.052.008-.078.015-.464.115-.535.336-.251.735a4.351,4.351,0,0,1,.693,1.9c.373,2.4.444,4.833.585,7.257.036.627.056,1.262.077,1.883.044,1.3.455,2.6.092,3.919-.141.511.045.742.645.737,3.625-.027,7.249-.013,10.874-.013m8.4-39.338h.025c0-1.773-.009-3.546,0-5.319a4.153,4.153,0,0,0-.567-2.1c-.553-.978-.793-1.017-1.716-.4A13,13,0,0,1,96.043,21.95a13.646,13.646,0,0,1-4.741-2.3c-.313-.222-.644-.356-.875,0a5.222,5.222,0,0,0-.995,2.756c-.032,3.6-.047,7.2,0,10.795a5.29,5.29,0,0,0,.468,2.255c1.227,2.5,2.671,4.72,5.575,5.659a10.862,10.862,0,0,0,6.046.42,9.589,9.589,0,0,0,7.346-8.977c.027-1.588,0-3.176,0-4.763m-93.158-.078h.026a39.678,39.678,0,0,0,.05,6.1,9.414,9.414,0,0,0,11.094,7.867c5.358-1.035,8.086-4.77,8.2-9.873.066-2.8-.006-5.609.026-8.414a8.372,8.372,0,0,0-.37-2.376c-.407-1.449-1.017-1.663-2.237-.87-.089.057-.175.12-.264.176a13.014,13.014,0,0,1-9.571,1.75,12.375,12.375,0,0,1-5.066-2.4c-.448-.332-.69-.282-1.005.154a4.132,4.132,0,0,0-.9,2.559c.029,1.772.008,3.546.008,5.319m39.185,14.1c-.093-.224.311-.777-.3-1.14A10.988,10.988,0,0,1,53.3,39.664a13.485,13.485,0,0,1-4.538-7.627c-.043-.188-.031-.369-.281-.4a6.38,6.38,0,0,1-4.361-2.335c-.256-.305-.376-.3-.481.139a8.561,8.561,0,0,1-.8,2.019,6.191,6.191,0,0,1-4.225,2.886,1.042,1.042,0,0,0-.821.86,12.268,12.268,0,0,1-5.171,7.506,1.186,1.186,0,0,0-.536,1.335,3.13,3.13,0,0,0,1.781,2.326,27.277,27.277,0,0,0,3.676,1.572,6.313,6.313,0,0,0,3.784.447c2.547-.675,5.113-1.278,7.655-1.971a19.516,19.516,0,0,0,4.678-1.987,2.338,2.338,0,0,0,1.239-2.623m14.693.263a1.836,1.836,0,0,0,.865,2.113,21.9,21.9,0,0,0,3.937,1.9c2.309.86,4.742,1.262,7.106,1.92a6.323,6.323,0,0,0,2.967.461,21.338,21.338,0,0,0,5.855-2.115A3.613,3.613,0,0,0,91.68,45.2a2.62,2.62,0,0,0-.18-2.766,13.4,13.4,0,0,1-4.9-7.375c-.129-.46-.273-.617-.7-.716a6.245,6.245,0,0,1-4.913-4.694c-.185-.662-.347-.72-.842-.214a7.1,7.1,0,0,1-3.745,2.122.9.9,0,0,0-.736.663,24.14,24.14,0,0,1-1.93,4.656,11.54,11.54,0,0,1-3.073,3.29c-.719.53-1.353.913-1.079,1.906M76.373,18.05l.214-.022c-.55-1.368-.188-2.828-.527-4.216-.323-1.324-.455-2.77-2.333-2.9a1.3,1.3,0,0,1-1.091-.937,14.746,14.746,0,0,1-.722-2.339A3.992,3.992,0,0,0,70.8,5.507c-1.225-1.466-3.016-1.775-4.721-2.1a22.132,22.132,0,0,0-7.724.172,11.274,11.274,0,0,0-4.4,1.631,12.926,12.926,0,0,0-5.166,6.811,13.177,13.177,0,0,0-.383,5.592,10.334,10.334,0,0,1,1.15-2.725,4.563,4.563,0,0,1,3.856-2.6c1.224-.081,2.062.692,2.965,1.285a10.441,10.441,0,0,0,5.6,1.693,10.349,10.349,0,0,0,6.61-1.979,4.043,4.043,0,0,1,5.1.041,5.678,5.678,0,0,1,1.739,2.325c.327.8.636,1.6.953,2.4m-37.985,2.5a25,25,0,0,0-.468-3.518,2.138,2.138,0,0,0-1.6-1.753,2.3,2.3,0,0,1-1.9-2.243,4.634,4.634,0,0,0-3.607-4.314,17.252,17.252,0,0,0-7.043-.6c-3.718.363-6.878,1.681-9.215,4.736a10.6,10.6,0,0,0-1.9,7.5,13.481,13.481,0,0,1,.653-1.441,7.97,7.97,0,0,1,1-1.329,3.572,3.572,0,0,1,4.791-.712c.343.2.673.419,1.007.632a9.378,9.378,0,0,0,4.708,1.449,10.5,10.5,0,0,0,6.5-1.9,3.65,3.65,0,0,1,3.293-.647,5.185,5.185,0,0,1,2.848,2.61,5.032,5.032,0,0,0,.941,1.521m24.421,30.2a8.308,8.308,0,0,0,5.725-3.2c.225-.3.36-.555.032-.812a8.118,8.118,0,0,1-2.3-3.52c-.221-.532-.536-.509-.928-.4a6.19,6.19,0,0,1-1.911.278,17.29,17.29,0,0,1-4.54-.3c-.256-.077-.683-.157-.757.319A5.811,5.811,0,0,1,56,46.706a.446.446,0,0,0-.081.726,7.969,7.969,0,0,0,6.888,3.316M25.164,51.834a9.9,9.9,0,0,0,1.651-.08A8.418,8.418,0,0,0,30.7,49.465c.538-.536.56-.94.04-1.445A5.337,5.337,0,0,1,29.125,45.2c-.105-.543-.369-.594-.8-.486a14.186,14.186,0,0,1-6.065.092c-.466-.087-.59-.04-.67.386a5.44,5.44,0,0,1-1.7,2.974c-.4.382-.407.659-.065,1.058,1.406,1.644,3.047,2.788,5.342,2.6m73.364.006a7.226,7.226,0,0,0,5.745-2.5c.5-.519.457-.858-.037-1.3a5.2,5.2,0,0,1-1.621-2.735c-.115-.5-.3-.5-.687-.449a13.185,13.185,0,0,1-6.232-.255c-.427-.148-.585-.034-.625.36a6.046,6.046,0,0,1-2,3.476c-.238.253-.117.339.014.5,1.443,1.741,3.1,3.072,5.447,2.9M48.425,25.1h.017c0-.9-.019-1.8.007-2.7.016-.537-.126-.731-.682-.524a3.492,3.492,0,0,0-2.052,3.336,3.64,3.64,0,0,0,2.142,3.061c.385.129.589.089.575-.4-.027-.924-.008-1.851-.008-2.777m37.8,3.145c0-.764.011-1.53-.007-2.294-.005-.212.14-.526-.154-.616a.856.856,0,0,0-.734.135c-2.258,1.479-1.677,4.057-.057,5.441a1.051,1.051,0,0,0,.792.228c.33-.075.143-.446.15-.68.025-.738.009-1.477.009-2.215M112.3,31.168a2.957,2.957,0,0,0,2.042-3.313,2.763,2.763,0,0,0-2.042-2.52ZM48.2,18.109l-.024.048.032.006Z" transform="translate(0 0)" fill="#060708"/>
    <path id="Trazado_823964" data-name="Trazado 823964" d="M170.913,157.3c-.024-1.039-.025-1.065-1.125-1.046a2.186,2.186,0,0,1-2.231-2.925,2.266,2.266,0,0,1,2.3-1.178c.68,0,1.117.042.971-.978a2.025,2.025,0,0,1,1.042-2.2,2.069,2.069,0,0,1,2.108.1,1.824,1.824,0,0,1,.863,1.6c.022,1.628.031,1.628,1.626,1.622a1.784,1.784,0,0,1,1.862,1.653,1.92,1.92,0,0,1-1.667,2.137,9.155,9.155,0,0,1-1.269.019c-.411-.016-.577.153-.551.562.02.316.006.635,0,.952a1.921,1.921,0,0,1-1.929,1.98,1.984,1.984,0,0,1-2-1.978c0-.106,0-.212,0-.318" transform="translate(-60.666 -53.906)" fill="#f8b931"/>
    <path id="Trazado_823965" data-name="Trazado 823965" d="M156.822,176.23a2.073,2.073,0,0,1-2.049,2.063,2.28,2.28,0,0,1-2.065-2.3,1.984,1.984,0,0,1,2.08-1.919,2.041,2.041,0,0,1,2.033,2.16" transform="translate(-55.345 -63.087)" fill="#f8b931"/>
    <path id="Trazado_823966" data-name="Trazado 823966" d="M124.311,30.089c-.145-.224-.2-.437.066-.617.279.238,0,.416-.066.617" transform="translate(-45.009 -10.681)" fill="#494b4e"/>
    <path id="Trazado_823967" data-name="Trazado 823967" d="M31.992,137.616c.169.09.188.192.026.309-.1-.019-.27.079-.279-.094-.006-.113.113-.206.252-.215" transform="translate(-11.503 -49.875)" fill="#494b4e"/>
    <path id="Trazado_823968" data-name="Trazado 823968" d="M124.463,30.864l-.129-.1.112-.065a.73.73,0,0,1,.034.108c0,.017-.011.038-.017.057" transform="translate(-45.061 -11.126)" fill="#494b4e"/>
    <path id="Trazado_823969" data-name="Trazado 823969" d="M49.287,110.141a.1.1,0,0,1,.174.011l-.174-.011" transform="translate(-17.863 -39.901)" fill="#494b4e"/>
    <path id="Trazado_823970" data-name="Trazado 823970" d="M7.922,110.228h.2l-.128.124-.068-.124" transform="translate(-2.871 -39.949)" fill="#494b4e"/>
    <path id="Trazado_823971" data-name="Trazado 823971" d="M73.451,98.987c1.218,0,2.328-.026,3.437,0a43.6,43.6,0,0,1,10.6,1.581,44.69,44.69,0,0,1,13.935,6.7,40.82,40.82,0,0,1,11.338,11.817,8.423,8.423,0,0,1,1.044,3.553c.313,2.743-.766,4.94-2.338,7.022a44.749,44.749,0,0,1-13.548,12.21A45.423,45.423,0,0,1,87.63,146.2a36.281,36.281,0,0,1-7.062,1.421,60.2,60.2,0,0,1-6.136.274,45.132,45.132,0,0,1-10-1.327,46.578,46.578,0,0,1-9.622-3.706,41.548,41.548,0,0,1-9.161-6.408,40.6,40.6,0,0,1-7.3-8.528c-2.135-3.45-1.633-6.987.719-10.219a50.436,50.436,0,0,1,5.208-6.086,41.3,41.3,0,0,1,8.5-6.51,45.463,45.463,0,0,1,10.839-4.622,40.654,40.654,0,0,1,7.67-1.375c.755-.055,1.509-.112,2.157-.13m2.034,45.925c.882-.087,1.9-.052,2.925-.133a41.992,41.992,0,0,0,7.958-1.371,41.374,41.374,0,0,0,9.578-3.889,39.144,39.144,0,0,0,9.152-7.108,48.113,48.113,0,0,0,4.665-5.771,5.566,5.566,0,0,0,.884-4.487,7.779,7.779,0,0,0-1.575-2.942,39.389,39.389,0,0,0-4.086-4.824,40.688,40.688,0,0,0-5.888-5.1,58.5,58.5,0,0,0-5.792-3.261,38.316,38.316,0,0,0-7.612-2.738,31.73,31.73,0,0,0-4.482-.854,45.5,45.5,0,0,0-5.178-.541,42.143,42.143,0,0,0-9.319,1.023,40.371,40.371,0,0,0-11.063,4.119,50.477,50.477,0,0,0-4.381,2.824,37.1,37.1,0,0,0-4.411,3.576,24.472,24.472,0,0,0-2.538,2.7c-1.135,1.45-2.314,2.862-3.313,4.413a4.949,4.949,0,0,0,.041,5.789,43.029,43.029,0,0,0,6.36,7.651,39.273,39.273,0,0,0,12.125,7.682,40.091,40.091,0,0,0,15.952,3.244" transform="translate(-13.41 -35.871)" fill="#f6f8fa"/>
    <path id="Trazado_823972" data-name="Trazado 823972" d="M66.65,90.348c-.086.406-.444.508-.753.632-1.422.573-2.785,1.27-4.147,1.969a1.54,1.54,0,0,1-.738.256c-.289-.005-.441.04-.344-.418a15.321,15.321,0,0,0,.207-2.5c.105-2.574.344-5.138.365-7.72.017-2.107,1.407-3.349,3.554-3.8a61.433,61.433,0,0,0,8.793-2.406c1.185-.44,1.153-.441,1.89.549a10.487,10.487,0,0,0,9.506,4.538,10.341,10.341,0,0,0,6.03-2.506,11.335,11.335,0,0,0,2.324-2.492c.357-.541.794-.43,1.241-.213a22.8,22.8,0,0,0,4.693,1.542c1.741.42,3.489.805,5.21,1.308a3.356,3.356,0,0,1,2.569,2.784,12.064,12.064,0,0,1,.2,2.114c0,2.553.434,5.085.339,7.645a12.043,12.043,0,0,1,.085,1.932c-1.834-.916-3.588-1.822-5.423-2.552-.365-.145-.39-.441-.388-.779q.016-2.144,0-4.289c-.006-1.107-.553-1.768-1.457-1.784a1.594,1.594,0,0,0-1.734,1.792c-.02,1.005-.038,2.013.01,3.018.028.591-.233.715-.7.56a38.407,38.407,0,0,0-6.461-1.5,35.663,35.663,0,0,0-5.388-.566c-1.389,0-2.773-.044-4.168,0a47.082,47.082,0,0,0-11.16,1.808c-1.035.289-1.033.282-1.019-.745.012-.9.043-1.8.01-2.7-.041-1.125-.581-1.665-1.578-1.663s-1.514.537-1.547,1.688c-.036,1.243-.017,2.488-.021,3.732a1.029,1.029,0,0,0,0,.774" transform="translate(-21.977 -27.563)" fill="#60c2ec"/>
    <path id="Trazado_823973" data-name="Trazado 823973" d="M25.89,95.578c-3.678,0-7.356-.014-11.035.014-.606,0-.752-.174-.743-.763.033-2.223.022-4.447,0-6.67-.01-1.194-.551-1.8-1.521-1.8a1.62,1.62,0,0,0-1.643,1.638c0,2.224-.032,4.448.024,6.67.019.77-.253.956-.954.923-1.03-.048-2.064.005-3.1-.03-.89-.031-1.209-.4-1.219-1.3a72.188,72.188,0,0,1,.466-8.249c.082-.779-.025-1.556.131-2.347a2.893,2.893,0,0,1,2.324-2.384c2.256-.6,4.524-1.148,6.778-1.75a21.906,21.906,0,0,0,2.462-.821.88.88,0,0,1,1.242.388,9.932,9.932,0,0,0,16.437.319c.531-.736,1.023-1.092,1.862-.548a1.048,1.048,0,0,0,.229.062c1.663.554,1.664.555.93,2.112a5.022,5.022,0,0,0-.435,2.112c-.015,2.5-.442,4.97-.374,7.476.032,1.162-.33,2.326-.286,3.509a.671.671,0,0,1,0,.237c-.135.388.42.862.056,1.086a2.75,2.75,0,0,1-1.314.11q-5.161.009-10.32,0Z" transform="translate(-2.067 -28.484)" fill="#7816c2"/>
    <path id="Trazado_823974" data-name="Trazado 823974" d="M80.981,33.259c0-1.878-.029-3.757.011-5.635a4.427,4.427,0,0,1,1.065-2.719.837.837,0,0,1,1.294-.2,15.658,15.658,0,0,0,4.3,2.158,12.761,12.761,0,0,0,6.839.316,15.89,15.89,0,0,0,5.453-2.5.734.734,0,0,1,1.1.123,4.035,4.035,0,0,1,1.044,2.5c.288,3.4.071,6.8.136,10.2A11.614,11.614,0,0,1,100.1,44.5a10.657,10.657,0,0,1-17.141-.156,10.175,10.175,0,0,1-2-6.319c.058-1.586.011-3.175.011-4.763h.012" transform="translate(-29.338 -8.875)" fill="#f9c5a3"/>
    <path id="Trazado_823975" data-name="Trazado 823975" d="M150.108,95.611c-3.625,0-7.249-.014-10.874.013-.6.005-.786-.226-.645-.737.363-1.317-.048-2.616-.092-3.919-.02-.621-.04-1.256-.077-1.883-.142-2.424-.212-4.853-.585-7.258a4.346,4.346,0,0,0-.694-1.9c-.284-.4-.213-.62.251-.735.026-.006.053-.006.078-.015a5.544,5.544,0,0,1,2.009-.592c.708.077.879,1.033,1.361,1.548a9.99,9.99,0,0,0,15.933-1c.33-.488.609-.643,1.192-.416a92.632,92.632,0,0,0,9.693,2.7,2.923,2.923,0,0,1,1.88,2.254c.054.571.133,1.15.141,1.713.018,1.4.132,2.788.224,4.172.1,1.54.048,3.089.253,4.628.117.88-.347,1.322-1.248,1.357-1.136.044-2.275.008-3.412.039-.558.015-.573-.319-.572-.72q.006-2.7,0-5.4a11.915,11.915,0,0,0-.117-1.879A1.292,1.292,0,0,0,163.3,86.35a1.428,1.428,0,0,0-1.513,1.368c-.026,2.355-.046,4.711-.013,7.066.009.631-.156.81-.791.8-3.625-.03-7.25-.015-10.875-.015v.038" transform="translate(-49.642 -28.48)" fill="#f8b931"/>
    <path id="Trazado_823976" data-name="Trazado 823976" d="M159.686,38.837c0,1.588.022,3.176,0,4.764a9.589,9.589,0,0,1-7.346,8.977,10.862,10.862,0,0,1-6.046-.42c-2.9-.939-4.348-3.161-5.575-5.659a5.292,5.292,0,0,1-.467-2.256c-.043-3.6-.029-7.2,0-10.794a5.225,5.225,0,0,1,.995-2.756c.231-.358.562-.225.875,0a13.632,13.632,0,0,0,4.741,2.3,13,13,0,0,0,10.571-1.971c.923-.618,1.163-.579,1.716.4a4.151,4.151,0,0,1,.566,2.1c-.013,1.773,0,3.546,0,5.318h-.025" transform="translate(-50.819 -11.044)" fill="#f9c5a3"/>
    <path id="Trazado_823977" data-name="Trazado 823977" d="M24.6,38.782c0-1.773.02-3.546-.008-5.319a4.129,4.129,0,0,1,.9-2.559c.315-.435.557-.485,1-.154a12.373,12.373,0,0,0,5.067,2.4,13.014,13.014,0,0,0,9.571-1.75c.089-.056.175-.119.263-.176,1.22-.794,1.83-.58,2.237.87A8.373,8.373,0,0,1,44,34.466c-.033,2.8.039,5.611-.027,8.414-.119,5.1-2.847,8.839-8.2,9.874a9.414,9.414,0,0,1-11.093-7.868,39.6,39.6,0,0,1-.05-6.1H24.6" transform="translate(-8.886 -11.067)" fill="#f9c5a3"/>
    <path id="Trazado_823978" data-name="Trazado 823978" d="M103.823,19.831c-.317-.8-.626-1.607-.953-2.4A5.676,5.676,0,0,0,101.13,15.1a4.043,4.043,0,0,0-5.1-.042,10.349,10.349,0,0,1-6.61,1.979,10.441,10.441,0,0,1-5.6-1.693c-.9-.592-1.741-1.366-2.965-1.285a4.564,4.564,0,0,0-3.856,2.6,10.343,10.343,0,0,0-1.15,2.725,13.163,13.163,0,0,1,.383-5.592,12.924,12.924,0,0,1,5.165-6.811,11.276,11.276,0,0,1,4.4-1.63,22.1,22.1,0,0,1,7.724-.172c1.7.328,3.5.637,4.721,2.1a3.986,3.986,0,0,1,1.116,2.134,14.746,14.746,0,0,0,.722,2.339,1.3,1.3,0,0,0,1.091.937c1.878.126,2.01,1.571,2.333,2.9.339,1.388-.023,2.849.527,4.216l-.214.022" transform="translate(-27.45 -1.78)" fill="#494b4e"/>
    <path id="Trazado_823979" data-name="Trazado 823979" d="M45.508,25.1a5.032,5.032,0,0,1-.941-1.521,5.185,5.185,0,0,0-2.848-2.61,3.65,3.65,0,0,0-3.293.648,10.5,10.5,0,0,1-6.5,1.9,9.384,9.384,0,0,1-4.708-1.448c-.333-.214-.664-.434-1.007-.632a3.572,3.572,0,0,0-4.791.712,8,8,0,0,0-1,1.329,13.481,13.481,0,0,0-.653,1.441,10.594,10.594,0,0,1,1.9-7.5c2.337-3.055,5.5-4.374,9.215-4.737a17.252,17.252,0,0,1,7.043.6,4.636,4.636,0,0,1,3.607,4.314,2.3,2.3,0,0,0,1.9,2.242,2.139,2.139,0,0,1,1.6,1.753,25.028,25.028,0,0,1,.468,3.518" transform="translate(-7.12 -4.554)" fill="#494b4e"/>
    <path id="Trazado_823980" data-name="Trazado 823980" d="M160.716,24.316c-.387-.63-.752-1.274-1.165-1.886a3.786,3.786,0,0,0-5.3-.9,8.9,8.9,0,0,1-3.961,1.82,9.869,9.869,0,0,1-7.316-1.271,5.433,5.433,0,0,0-2.613-1.181,3.655,3.655,0,0,0-3.206,1.234c-.328.341-.5.814-.915,1.078l-.935-.027a8.353,8.353,0,0,1,1.3-4.452,10.606,10.606,0,0,1,7.866-5.736,16.219,16.219,0,0,1,4.032-.418,32.389,32.389,0,0,1,4.67.425,4.656,4.656,0,0,1,4,4.6,2.534,2.534,0,0,0,2.249,2.379,1.236,1.236,0,0,1,1.083.883,7.6,7.6,0,0,1,.6,3.448l-.4.015" transform="translate(-49.036 -4.546)" fill="#494b4e"/>
    <path id="Trazado_823981" data-name="Trazado 823981" d="M94.511,75.041a7.967,7.967,0,0,1-6.888-3.316A.446.446,0,0,1,87.7,71a5.809,5.809,0,0,0,2.13-3.594c.074-.476.5-.4.757-.319a17.317,17.317,0,0,0,4.54.3,6.208,6.208,0,0,0,1.911-.277c.393-.111.707-.135.928.4a8.12,8.12,0,0,0,2.3,3.52c.328.257.193.516-.032.812a8.308,8.308,0,0,1-5.725,3.2" transform="translate(-31.702 -24.292)" fill="#f9c5a3"/>
    <path id="Trazado_823982" data-name="Trazado 823982" d="M36.291,77.228c-2.3.184-3.936-.96-5.342-2.6-.342-.4-.338-.677.065-1.059a5.438,5.438,0,0,0,1.7-2.974c.08-.426.2-.473.67-.386a14.186,14.186,0,0,0,6.065-.092c.432-.107.695-.056.8.486a5.332,5.332,0,0,0,1.611,2.815c.52.506.5.91-.04,1.446a8.42,8.42,0,0,1-3.882,2.288,9.9,9.9,0,0,1-1.651.08" transform="translate(-11.127 -25.394)" fill="#f9c5a3"/>
    <path id="Trazado_823983" data-name="Trazado 823983" d="M151.353,77.16c-2.348.171-4-1.161-5.447-2.9-.131-.159-.252-.244-.015-.5a6.049,6.049,0,0,0,2-3.475c.04-.393.2-.508.624-.36a13.179,13.179,0,0,0,6.232.256c.391-.054.571-.05.687.449a5.2,5.2,0,0,0,1.621,2.735c.494.441.535.78.037,1.3a7.227,7.227,0,0,1-5.745,2.5" transform="translate(-52.825 -25.32)" fill="#f9c5a3"/>
    <path id="Trazado_823984" data-name="Trazado 823984" d="M74.412,37.488c0,.926-.019,1.852.008,2.777.014.487-.19.527-.575.4A3.639,3.639,0,0,1,71.7,37.6a3.493,3.493,0,0,1,2.052-3.336c.556-.207.7-.013.682.524-.026.9-.007,1.8-.007,2.7h-.017" transform="translate(-25.986 -12.389)" fill="#f9c5a3"/>
    <path id="Trazado_823985" data-name="Trazado 823985" d="M119.357,37.829c-.015-1.027-.01-2.055-.055-3.08-.025-.593.148-.642.669-.435a3.506,3.506,0,0,1,.564,6.031l-.759.539c-.084-.2-.29-.132-.435-.2l0-.435a1.592,1.592,0,0,0,.022-1.144q0-.533,0-1.065c.1-.069.1-.14,0-.212" transform="translate(-43.237 -12.396)" fill="#f9c5a3"/>
    <path id="Trazado_823986" data-name="Trazado 823986" d="M133.89,42.626c0,.738.016,1.477-.009,2.215-.008.234.179.605-.151.68a1.049,1.049,0,0,1-.791-.228c-1.621-1.384-2.2-3.962.057-5.442a.856.856,0,0,1,.734-.135c.293.09.148.4.153.616.018.764.007,1.53.008,2.294" transform="translate(-47.661 -14.382)" fill="#f9c5a3"/>
    <path id="Trazado_823987" data-name="Trazado 823987" d="M60.175,45.415c-.01-1.946-.174-3.891,0-5.837l.216-.029a2.969,2.969,0,0,1,1.9,2.407,3.188,3.188,0,0,1-1.743,3.451l-.365.008" transform="translate(-21.78 -14.333)" fill="#f9c5a3"/>
    <path id="Trazado_823988" data-name="Trazado 823988" d="M17.958,45.58A3.032,3.032,0,0,1,15.9,42.957a2.875,2.875,0,0,1,1.469-2.981c.552-.351.714-.289.71.366-.013,1.688,0,3.376.008,5.064l-.128.174" transform="translate(-5.751 -14.412)" fill="#f9c5a3"/>
    <path id="Trazado_823989" data-name="Trazado 823989" d="M176.136,45.57V39.736a2.764,2.764,0,0,1,2.042,2.52,2.958,2.958,0,0,1-2.042,3.313" transform="translate(-63.836 -14.401)" fill="#f9c5a3"/>
    <path id="Trazado_823990" data-name="Trazado 823990" d="M135.3,29.22l.935.027c-.192.595-.379,1.191-.582,1.781a.325.325,0,0,1-.207.2c-.191.017-.171-.156-.17-.277,0-.576.016-1.153.025-1.729" transform="translate(-49.025 -10.59)" fill="#f8b931"/>
    <path id="Trazado_823991" data-name="Trazado 823991" d="M175.164,31l.4-.015c-.085.281.36.557-.07.909L175.164,31" transform="translate(-63.483 -11.229)" fill="#f8b931"/>
    <path id="Trazado_823992" data-name="Trazado 823992" d="M119.348,41.892a1.6,1.6,0,0,1-.021,1.144,2.445,2.445,0,0,1,.021-1.144" transform="translate(-43.226 -15.183)" fill="#494b4e"/>
    <path id="Trazado_823993" data-name="Trazado 823993" d="M70.024,98.033a1.029,1.029,0,0,1,0-.774.737.737,0,0,1,0,.774" transform="translate(-25.351 -35.249)" fill="#494b4e"/>
    <path id="Trazado_823994" data-name="Trazado 823994" d="M119.365,44.37c.145.067.352,0,.435.2-.317.309-.378.06-.435-.2" transform="translate(-43.261 -16.081)" fill="#494b4e"/>
    <path id="Trazado_823995" data-name="Trazado 823995" d="M75.587,28.4l.008.054-.032-.006Z" transform="translate(-27.386 -10.294)" fill="#494b4e"/>
    <path id="Trazado_823996" data-name="Trazado 823996" d="M60.221,48.744l.365-.008c-.118.158-.238.265-.365.008" transform="translate(-21.825 -17.663)" fill="#494b4e"/>
    <path id="Trazado_823997" data-name="Trazado 823997" d="M19.146,48.787l.128-.174c.043.12,0,.177-.128.174" transform="translate(-6.939 -17.618)" fill="#494b4e"/>
    <path id="Trazado_823998" data-name="Trazado 823998" d="M144.181,110.163l-.113-.03c.091-.113.091-.022.1.046l.011-.016" transform="translate(-52.213 -39.895)" fill="#494b4e"/>
    <path id="Trazado_823999" data-name="Trazado 823999" d="M119.389,39.89c.1.072.094.143,0,.212,0-.071,0-.141,0-.212" transform="translate(-43.268 -14.457)" fill="#494b4e"/>
    <path id="Trazado_824000" data-name="Trazado 824000" d="M60.43,39.5l-.216.029c.053-.153.126-.15.216-.029" transform="translate(-21.823 -14.283)" fill="#494b4e"/>
    <path id="Trazado_824001" data-name="Trazado 824001" d="M77.242,146.567a40.092,40.092,0,0,1-15.952-3.244,39.262,39.262,0,0,1-12.125-7.682,42.975,42.975,0,0,1-6.36-7.651,4.948,4.948,0,0,1-.041-5.789c1-1.551,2.179-2.963,3.313-4.413a24.472,24.472,0,0,1,2.538-2.7,37.09,37.09,0,0,1,4.411-3.576,50.574,50.574,0,0,1,4.381-2.824,40.379,40.379,0,0,1,11.063-4.119,42.147,42.147,0,0,1,9.319-1.023,45.5,45.5,0,0,1,5.178.541,31.712,31.712,0,0,1,4.482.854,38.3,38.3,0,0,1,7.612,2.738,58.5,58.5,0,0,1,5.792,3.261,40.658,40.658,0,0,1,5.889,5.1,39.439,39.439,0,0,1,4.086,4.824,7.761,7.761,0,0,1,1.575,2.942,5.564,5.564,0,0,1-.884,4.487,48.049,48.049,0,0,1-4.665,5.771,39.13,39.13,0,0,1-9.152,7.108,41.375,41.375,0,0,1-9.578,3.889,41.985,41.985,0,0,1-7.958,1.371c-1.023.081-2.042.045-2.925.133M64.8,109.009a.654.654,0,0,0-.616-.018,35.616,35.616,0,0,0-7.261,3.545,38.568,38.568,0,0,0-11.179,10.653c-.952,1.35-1.143,1.974-.083,3.568.443.666,1.011,1.259,1.463,1.9a30.753,30.753,0,0,0,3.847,4.318,38.044,38.044,0,0,0,11.567,7.52,32.757,32.757,0,0,0,5.615,1.852,33.637,33.637,0,0,0,7.162,1.026,48.922,48.922,0,0,0,6.54-.259,38.634,38.634,0,0,0,7.678-1.721,37.773,37.773,0,0,0,19.233-14.484,2.717,2.717,0,0,0,.062-3.586,38.293,38.293,0,0,0-18.29-14.258c-.259-.1-.556-.3-.867-.056,7.356,7.565,5.281,18.729-.5,24.113-6.289,5.854-15.516,6.642-22.427,1.281a17.128,17.128,0,0,1-1.94-25.392m-.773,6.845a14.09,14.09,0,1,0,25.258-2.4,13.722,13.722,0,0,0-14.8-6.221,7.26,7.26,0,0,1,4.491,4.311,7.834,7.834,0,0,1-.189,6.261,7.384,7.384,0,0,1-6.922,4.546c-4.211.031-6.6-2.529-7.839-6.5m12.264-1.31a4.694,4.694,0,0,0-4.782-4.68,4.755,4.755,0,0,0-4.412,4.494c-.014,2.822,1.989,4.662,5,4.719,2.08.039,4.611-2.437,4.2-4.533" transform="translate(-15.167 -37.527)" fill="#060708"/>
    <path id="Trazado_824002" data-name="Trazado 824002" d="M66.563,112.048a17.127,17.127,0,0,0,1.94,25.392c6.911,5.361,16.138,4.573,22.427-1.281,5.784-5.384,7.859-16.548.5-24.113.312-.243.609-.046.868.055a38.3,38.3,0,0,1,18.289,14.258,2.718,2.718,0,0,1-.061,3.587A37.769,37.769,0,0,1,91.3,144.43a38.544,38.544,0,0,1-7.678,1.721,48.818,48.818,0,0,1-6.54.259,33.555,33.555,0,0,1-7.161-1.027,32.782,32.782,0,0,1-5.616-1.852,38.029,38.029,0,0,1-11.566-7.52,30.718,30.718,0,0,1-3.847-4.318c-.452-.64-1.019-1.232-1.463-1.9-1.06-1.595-.869-2.219.083-3.569a38.568,38.568,0,0,1,11.179-10.653,35.564,35.564,0,0,1,7.261-3.544.653.653,0,0,1,.616.018" transform="translate(-16.928 -40.566)" fill="#b5ffed"/>
    <path id="Trazado_824003" data-name="Trazado 824003" d="M76.194,117.747c1.235,3.973,3.628,6.533,7.84,6.5a7.382,7.382,0,0,0,6.922-4.546,7.836,7.836,0,0,0,.188-6.261,7.26,7.26,0,0,0-4.491-4.311,13.725,13.725,0,0,1,14.8,6.221,14.083,14.083,0,1,1-25.259,2.4" transform="translate(-27.332 -39.421)" fill="#60c2ec"/>
    <path id="Trazado_824004" data-name="Trazado 824004" d="M90.647,118.135c.416,2.1-2.115,4.572-4.2,4.533-3.009-.057-5.013-1.9-5-4.719a4.755,4.755,0,0,1,4.412-4.494,4.694,4.694,0,0,1,4.782,4.68" transform="translate(-29.52 -41.118)" fill="#f6f8fa"/>
  </g>
</svg>
