<svg xmlns="http://www.w3.org/2000/svg" xmlns:xlink="http://www.w3.org/1999/xlink" width="510" height="1517.641" viewBox="0 0 510 1517.641">
  <defs>
    <linearGradient id="linear-gradient" x1="0.5" x2="0.5" y2="1" gradientUnits="objectBoundingBox">
      <stop offset="0" stop-color="#defff8"/>
      <stop offset="0.803" stop-color="#eaf5ff"/>
      <stop offset="1" stop-color="#f0feff"/>
    </linearGradient>
    <clipPath id="clip-path">
      <rect id="Rectángulo_377801" data-name="Rectángulo 377801" width="44.029" height="65.993" fill="none"/>
    </clipPath>
    <clipPath id="clip-path-2">
      <rect id="Rectángulo_377804" data-name="Rectángulo 377804" width="79.37" height="38.919" fill="none"/>
    </clipPath>
    <clipPath id="clip-path-3">
      <rect id="Rectángulo_377805" data-name="Rectángulo 377805" width="73.707" height="35.35" fill="none"/>
    </clipPath>
    <clipPath id="clip-path-4">
      <rect id="Rectángulo_377806" data-name="Rectángulo 377806" width="41.681" height="59.352" fill="none"/>
    </clipPath>
    <clipPath id="clip-path-5">
      <rect id="Rectángulo_377807" data-name="Rectángulo 377807" width="47.275" height="57.055" fill="none"/>
    </clipPath>
  </defs>
  <g id="Grupo_1073624" data-name="Grupo 1073624" transform="translate(4542.5 10734.974)">
    <rect id="Rectángulo_377383" data-name="Rectángulo 377383" width="510" height="1496.677" transform="translate(-4032.5 -9217.333) rotate(180)" fill="url(#linear-gradient)"/>
    <rect id="Rectángulo_377719" data-name="Rectángulo 377719" width="458" height="185" rx="25" transform="translate(-4515.595 -10311.01)" fill="#fff"/>
    <rect id="Rectángulo_377718" data-name="Rectángulo 377718" width="458" height="120" rx="25" transform="translate(-4515.595 -10053.01)" fill="#fff"/>
    <rect id="Rectángulo_377717" data-name="Rectángulo 377717" width="458" height="199" rx="25" transform="translate(-4515.595 -9860.68)" fill="#fff"/>
    <rect id="Rectángulo_377716" data-name="Rectángulo 377716" width="458" height="137" rx="25" transform="translate(-4515.595 -9592.68)" fill="#fff"/>
    <rect id="Rectángulo_377715" data-name="Rectángulo 377715" width="458" height="132" rx="25" transform="translate(-4515.595 -9383.129)" fill="#fff"/>
    <text id="Es_cualquier_objeto_material_sustancia_o_elemento_principalmente_sólido_resultante_del_consumo_o_uso_de_un_bien_en_actividades_domésticas_industriales_comerciales_institucionales_o_de_servicios_que_el_generador_presenta_para_su_recolección_por_parte_" data-name="Es cualquier objeto, material, sustancia o elemento principalmente sólido resultante del consumo o uso de un bien en actividades domésticas, industriales, comerciales, institucionales o de servicios, que el generador presenta para su recolección por parte " transform="translate(-4496.595 -10272.01)" font-size="16" font-family="Roboto-Regular, Roboto"><tspan x="0" y="15">Es cualquier objeto, material, sustancia o elemento </tspan><tspan x="0" y="35">principalmente sólido resultante del consumo o uso de un </tspan><tspan x="0" y="55">bien en actividades domésticas, industriales, comerciales, </tspan><tspan x="0" y="75">institucionales o de servicios, que el generador presenta </tspan><tspan x="0" y="95">para su recolección por parte de la persona prestadora del </tspan><tspan x="0" y="115">servicio público de aseo.</tspan></text>
    <text id="Actividades_propias_del_conjunto_de_los_servicios_domiciliarios_de_alcantarillado_y_aseo._" data-name="Actividades propias del conjunto de los servicios domiciliarios de alcantarillado y aseo.
" transform="translate(-4496.595 -10004.01)" font-size="16" font-family="Roboto-Regular, Roboto"><tspan x="0" y="15">Actividades propias del conjunto de los servicios </tspan><tspan x="0" y="35">domiciliarios de alcantarillado y aseo.</tspan></text>
    <text id="Es_la_actividad_complementaria_del_servicio_público_de_aseo_que_comprende_la_recolección_de_residuos_aprovechables_separados_en_la_fuente_por_los_usuarios_el_transporte_selectivo_hasta_la_estación_de_clasificación_y_aprovechamiento_o_hasta_la_planta_de_ap" data-name="Es la actividad complementaria del servicio público de aseo que comprende la recolección de residuos aprovechables separados en la fuente por los usuarios, el transporte selectivo hasta la estación de clasificación y aprovechamiento o hasta la planta de ap" transform="translate(-4492.595 -9806.68)" font-size="16" font-family="Roboto-Regular, Roboto"><tspan x="0" y="15">Es la actividad complementaria del servicio público de </tspan><tspan x="0" y="35">aseo que comprende la recolección de residuos </tspan><tspan x="0" y="55">aprovechables separados en la fuente por los usuarios, el </tspan><tspan x="0" y="75">transporte selectivo hasta la estación de clasificación y </tspan><tspan x="0" y="95">aprovechamiento o hasta la planta de aprovechamiento, </tspan><tspan x="0" y="115">así como su clasificación y pesaje.</tspan></text>
    <text id="degradación_de_la_materia_orgánica_por_acción_de_microorganismos_sobre_el_suelo_aire_cuerpos_de_agua_receptores_o_procesos_de_tratamiento_de_aguas_residuales._" data-name="degradación de la materia orgánica por acción de microorganismos sobre el suelo, aire, cuerpos de agua receptores o procesos de tratamiento de aguas residuales.

" transform="translate(-4493.595 -9552.68)" font-size="16" font-family="Roboto-Regular, Roboto"><tspan x="0" y="15">degradación de la materia orgánica por acción de </tspan><tspan x="0" y="35">microorganismos sobre el suelo, aire, cuerpos de agua </tspan><tspan x="0" y="55">receptores o procesos de tratamiento de aguas residuales.</tspan><tspan x="0" y="75"></tspan></text>
    <text id="Es_el_sitio_de_disposición_a_cielo_abierto_de_los_residuos_sólidos._Es_un_sitio_de_acumulación_de_residuos_sólidos_que_no_cumple_con_las_disposiciones_vigentes_y_crea_riesgos_para_la_salud_humana_y_el_ambiente_en_general._" data-name="Es el sitio de disposición a cielo abierto de los residuos sólidos. Es un sitio de acumulación de residuos sólidos que no cumple con las disposiciones vigentes y crea riesgos para la salud humana y el ambiente en general.

" transform="translate(-4491.595 -9342.129)" font-size="16" font-family="Roboto-Regular, Roboto"><tspan x="0" y="15">Es el sitio de disposición a cielo abierto de los residuos </tspan><tspan x="0" y="35">sólidos. Es un sitio de acumulación de residuos sólidos </tspan><tspan x="0" y="55">que no cumple con las disposiciones vigentes y crea </tspan><tspan x="0" y="75">riesgos para la salud humana y el ambiente en general.</tspan></text>
    <path id="Trazado_822769" data-name="Trazado 822769" d="M44.245,58.947C1.98,37.891.329,23.8.329,23.8S-2.2,13.855,6.785,5.564L13.192,0,49.775,55.289Z" transform="translate(-4397.645 -10421.119) rotate(-30)" fill="#b2af3b"/>
    <path id="Trazado_822770" data-name="Trazado 822770" d="M30.264,2.409c7.16,46.674-3.4,56.146-3.4,56.146S20.2,66.356,8.24,63.794L0,61.766,24.088,0Z" transform="translate(-4187.439 -10573.169) rotate(-30)" fill="#b2af3b"/>
    <path id="Trazado_822771" data-name="Trazado 822771" d="M0,23.983C37.671-4.488,51.022.3,51.022.3S61.055,2.465,64.477,14.2l2.131,8.215L.814,30.562Z" transform="translate(-4420.737 -10649.925) rotate(-30)" fill="#b2af3b"/>
    <path id="Trazado_822772" data-name="Trazado 822772" d="M292.784,146.393A146.392,146.392,0,1,0,146.391,292.785,146.393,146.393,0,0,0,292.784,146.393" transform="translate(-4496.595 -10588.582) rotate(-30)" fill="#e4dbcf"/>
    <path id="Trazado_822773" data-name="Trazado 822773" d="M104.48,66.334,82.467,69.059,79.7,43.429s-.7-12.2-10.27-16.543L4.907,0C15.28,5.424,17.651,20.963,17.651,20.963L24.1,76.284,2.085,79.009a2.374,2.374,0,0,0-.869,4.428L57.069,114.7a2.374,2.374,0,0,0,2.79-.345L106.4,70.417a2.375,2.375,0,0,0-1.922-4.083" transform="translate(-4378.171 -10673.038) rotate(-30)" fill="#d6c3aa"/>
    <path id="Trazado_822775" data-name="Trazado 822775" d="M21.142,99.374,29.2,78.708l23.869,9.738s11.07,5.184,19.435-1.179l54.308-44c-9.7,6.55-24.5,1.255-24.5,1.255L50.57,23.913,58.63,3.247A2.374,2.374,0,0,0,55.146.381L1.1,34.677A2.372,2.372,0,0,0,.081,37.3L16.637,99.124a2.374,2.374,0,0,0,4.505.249" transform="translate(-4267.248 -10507.617) rotate(-30)" fill="#d6c3aa"/>
    <path id="Trazado_822776" data-name="Trazado 822776" d="M247.417,216.707a15.887,15.887,0,0,0,2.242-1.817Z" transform="translate(-4409.104 -10668.392)" fill="#b2af3b"/>
    <path id="Trazado_822777" data-name="Trazado 822777" d="M19.729,3.692l12.24,18.5L10.251,36.081S-.365,42.138.01,52.641l4.648,69.744c.24-11.7,13.1-20.743,13.1-20.743l46.667-30.4,12.24,18.5a2.374,2.374,0,0,0,4.352-1.192l3.131-63.932a2.375,2.375,0,0,0-1.551-2.344L22.529.155a2.374,2.374,0,0,0-2.8,3.538" transform="translate(-4452.077 -10506.404) rotate(-30)" fill="#d6c3aa"/>
    <path id="Trazado_822778" data-name="Trazado 822778" d="M61.221,208.027a15.871,15.871,0,0,0,.191,2.88Z" transform="translate(-4505.737 -10671.955)" fill="#b2af3b"/>
    <g id="Grupo_1073623" data-name="Grupo 1073623" transform="translate(626.405)">
      <rect id="Rectángulo_377720" data-name="Rectángulo 377720" width="258" height="62" rx="31" transform="translate(-5034 -10342.01)" fill="#ffbf9a"/>
      <text id="Residuo_sólido_" data-name="Residuo sólido
" transform="translate(-4883 -10305.01)" fill="#12263f" font-size="18" font-family="Roboto-Bold, Roboto" font-weight="700"><tspan x="-59.708" y="0">Residuo sólido</tspan><tspan x="0" y="20"></tspan></text>
      <g id="Grupo_1073615" data-name="Grupo 1073615" transform="translate(-130.706 1058.732)">
        <path id="Trazado_822781" data-name="Trazado 822781" d="M91.724,76.405a42.5,42.5,0,1,0-42.5,42.5,42.5,42.5,0,0,0,42.5-42.5" transform="translate(-4926.018 -11456.36)" fill="#c1e29a"/>
        <g id="Grupo_1073591" data-name="Grupo 1073591" transform="translate(-4900.972 -11411.943)">
          <g id="Grupo_1073590" data-name="Grupo 1073590" transform="translate(0 0)" clip-path="url(#clip-path)">
            <path id="Trazado_822786" data-name="Trazado 822786" d="M18.784,32.019l5.825-1.138a2.145,2.145,0,0,0,1.678-2.507L22.2,7.036A2.128,2.128,0,0,0,19.71,5.342L13.886,6.48a2.145,2.145,0,0,0-1.677,2.507L16.3,30.325a2.127,2.127,0,0,0,2.484,1.694" transform="translate(0.083 0.087)" fill="#017864" fill-rule="evenodd"/>
            <path id="Trazado_822787" data-name="Trazado 822787" d="M22.136,40.192l2.378-.466A.875.875,0,0,0,25.2,38.7L20.631,14.879a.867.867,0,0,0-1.014-.692l-2.379.465a.875.875,0,0,0-.685,1.023L21.122,39.5a.868.868,0,0,0,1.014.692" transform="translate(0.113 0.232)" fill="#017864" fill-rule="evenodd"/>
            <path id="Trazado_822788" data-name="Trazado 822788" d="M23.7,31.053l.874-.171a2.145,2.145,0,0,0,1.677-2.507L22.163,7.037a2.125,2.125,0,0,0-2.484-1.694l-2.912.568,1.659,8.653,3.239,16.887L23.325,40.1l1.189-.233a.875.875,0,0,0,.685-1.023Z" transform="translate(0.115 0.087)" fill="#026551" fill-rule="evenodd"/>
            <path id="Trazado_822789" data-name="Trazado 822789" d="M21.574,40.165l3.537-.691a.643.643,0,0,0,.5-.752l-.266-1.386a.638.638,0,0,0-.745-.508l-3.537.691a.643.643,0,0,0-.5.752l.266,1.386a.638.638,0,0,0,.745.508" transform="translate(0.141 0.603)" fill="#db5500" fill-rule="evenodd"/>
            <path id="Trazado_822790" data-name="Trazado 822790" d="M23.327,39.819l1.768-.346a.643.643,0,0,0,.5-.752l-.266-1.385a.637.637,0,0,0-.745-.508l-1.768.345Z" transform="translate(0.157 0.603)" fill="#c94d00" fill-rule="evenodd"/>
            <path id="Trazado_822791" data-name="Trazado 822791" d="M33.826,7.69l5.4,2.474A2.155,2.155,0,0,1,40.284,13L31.389,32.789a2.119,2.119,0,0,1-2.807,1.065l-5.4-2.475a2.154,2.154,0,0,1-1.054-2.833L31.02,8.754A2.117,2.117,0,0,1,33.826,7.69" transform="translate(0.15 0.123)" fill="#017864" fill-rule="evenodd"/>
            <path id="Trazado_822792" data-name="Trazado 822792" d="M38.991.51,41.2,1.521a.88.88,0,0,1,.432,1.157L31.7,24.776a.864.864,0,0,1-1.145.435L28.343,24.2a.881.881,0,0,1-.43-1.157L37.845.945A.864.864,0,0,1,38.991.51" transform="translate(0.191 0.007)" fill="#017864" fill-rule="evenodd"/>
            <path id="Trazado_822793" data-name="Trazado 822793" d="M38.391,9.9l.811.371A2.154,2.154,0,0,1,40.256,13.1L31.362,32.9a2.118,2.118,0,0,1-2.806,1.065l-2.7-1.237L29.462,24.7,36.5,9.033l3.608-8.026,1.1.5a.88.88,0,0,1,.431,1.157Z" transform="translate(0.177 0.017)" fill="#026551" fill-rule="evenodd"/>
            <path id="Trazado_822794" data-name="Trazado 822794" d="M38.487.057l3.281,1.5a.647.647,0,0,1,.316.85l-.578,1.286a.634.634,0,0,1-.842.319l-3.28-1.5a.646.646,0,0,1-.317-.85L37.645.376a.634.634,0,0,1,.842-.319" transform="translate(0.254 0)" fill="#db5500" fill-rule="evenodd"/>
            <path id="Trazado_822795" data-name="Trazado 822795" d="M40.115.795l1.64.751a.647.647,0,0,1,.316.85L41.493,3.68a.635.635,0,0,1-.842.32l-1.64-.751Z" transform="translate(0.268 0.013)" fill="#c94d00" fill-rule="evenodd"/>
            <path id="Trazado_822796" data-name="Trazado 822796" d="M10.046,24.343l4.916-3.352a2.158,2.158,0,0,0,.571-2.971L8.43,7.4l.761,4.938L5.282,9.987l.378,2.448L3.551,11.167l.7,4.539L0,13.149,7.1,23.768a2.114,2.114,0,0,0,2.943.575" transform="translate(0 0.121)" fill="#017864" fill-rule="evenodd"/>
            <path id="Trazado_822797" data-name="Trazado 822797" d="M16.362,30.614l2.009-1.369a.88.88,0,0,0,.233-1.213L7.343,11.2,5.258,9.944l.378,2.448L3.527,11.125,3.9,13.546,15.161,30.379a.862.862,0,0,0,1.2.235" transform="translate(0.024 0.163)" fill="#017864" fill-rule="evenodd"/>
            <path id="Trazado_822798" data-name="Trazado 822798" d="M14.19,21.494l.737-.5a2.157,2.157,0,0,0,.571-2.97L8.394,7.4l.761,4.938L5.246,9.987l.378,2.446,6.846,10.234,4.887,7.3,1-.684a.881.881,0,0,0,.234-1.213Z" transform="translate(0.036 0.121)" fill="#026551" fill-rule="evenodd"/>
            <path id="Trazado_822799" data-name="Trazado 822799" d="M15.932,30.872l2.985-2.035a.647.647,0,0,0,.171-.891l-.782-1.17a.633.633,0,0,0-.883-.173l-2.985,2.035a.647.647,0,0,0-.171.891l.782,1.17a.634.634,0,0,0,.883.173" transform="translate(0.097 0.434)" fill="#db5500" fill-rule="evenodd"/>
            <path id="Trazado_822800" data-name="Trazado 822800" d="M17.413,29.854l1.492-1.017a.648.648,0,0,0,.171-.891l-.782-1.169a.635.635,0,0,0-.883-.174L15.919,27.62Z" transform="translate(0.109 0.434)" fill="#c94d00" fill-rule="evenodd"/>
            <path id="Trazado_822801" data-name="Trazado 822801" d="M6.726,21.254H37.419c2.052,0,4.04,1.719,3.73,3.766l-5.565,36.86c-.308,2.047-1.679,3.766-3.729,3.766H12.291c-2.051,0-3.421-1.719-3.73-3.766L3,25.02c-.309-2.048,1.678-3.766,3.73-3.766" transform="translate(0.02 0.348)" fill="#ffdba7" fill-rule="evenodd"/>
            <path id="Trazado_822802" data-name="Trazado 822802" d="M21.942,21.254H37.289c2.052,0,4.04,1.719,3.73,3.766l-5.565,36.86c-.309,2.047-1.679,3.766-3.73,3.766H21.942Z" transform="translate(0.151 0.348)" fill="#f0c07d" fill-rule="evenodd"/>
            <path id="Trazado_822803" data-name="Trazado 822803" d="M22.457,13.3l-.943,5.913a2.144,2.144,0,0,0,1.757,2.453L35.8,23.7l-4.089-2.817,4.375-1.268-2.028-1.4,2.359-.684-3.759-2.591,4.757-1.38L24.886,11.525a2.129,2.129,0,0,0-2.43,1.773" transform="translate(0.147 0.189)" fill="#004d3a" fill-rule="evenodd"/>
            <path id="Trazado_822804" data-name="Trazado 822804" d="M13.614,13.623l-.385,2.415a.874.874,0,0,0,.717,1l19.865,3.228,2.333-.677-2.027-1.4,2.359-.685-2-1.381L14.605,12.9a.869.869,0,0,0-.992.724" transform="translate(0.091 0.211)" fill="#004d3a" fill-rule="evenodd"/>
            <path id="Trazado_822805" data-name="Trazado 822805" d="M21.712,18.27l-.142.886a2.144,2.144,0,0,0,1.757,2.454l12.532,2.036L31.77,20.828l4.375-1.268-2.026-1.4L22.042,16.2l-8.621-1.4-.192,1.206a.876.876,0,0,0,.717,1Z" transform="translate(0.091 0.243)" fill="#035b45" fill-rule="evenodd"/>
            <path id="Trazado_822806" data-name="Trazado 822806" d="M13.479,13.006l-.572,3.59a.641.641,0,0,0,.527.736l1.38.225a.638.638,0,0,0,.729-.532l.572-3.591a.642.642,0,0,0-.526-.736l-1.381-.224a.638.638,0,0,0-.729.532" transform="translate(0.088 0.204)" fill="#db5500" fill-rule="evenodd"/>
            <path id="Trazado_822807" data-name="Trazado 822807" d="M13.192,14.763l-.286,1.795a.643.643,0,0,0,.527.736l1.38.224a.638.638,0,0,0,.729-.532l.286-1.795Z" transform="translate(0.088 0.242)" fill="#c94d00" fill-rule="evenodd"/>
            <path id="Trazado_822808" data-name="Trazado 822808" d="M1.627,19.342H42.556a1.483,1.483,0,0,1,1.472,1.486v1.646a1.483,1.483,0,0,1-1.472,1.486H1.627A1.484,1.484,0,0,1,.155,22.473V20.828a1.484,1.484,0,0,1,1.472-1.486" transform="translate(0.001 0.317)" fill="#6c3900" fill-rule="evenodd"/>
            <path id="Trazado_822809" data-name="Trazado 822809" d="M21.942,19.342h20.97c.532,0,.967.669.967,1.486v1.646c0,.817-.435,1.486-.967,1.486H21.942Z" transform="translate(0.151 0.317)" fill="#572e00" fill-rule="evenodd"/>
            <path id="Trazado_822810" data-name="Trazado 822810" d="M22.764,33.729c.209,0,.416.006.622.018V31.4L28.2,35.371,23.387,39.34V36.511q-.308-.024-.622-.024a7.824,7.824,0,0,0-5.575,2.332,7.962,7.962,0,0,0-2.16,4.075l-2.5-1.292a10.731,10.731,0,0,1,2.731-4.732,10.538,10.538,0,0,1,7.507-3.14M32.786,53.755l-2.124-2.145a10.767,10.767,0,0,0-1.436-15.668l-2.194,1.81a8.008,8.008,0,0,1,1.695,11.9l-1.5-1.515L26.6,54.384ZM10.657,49.1l1.668-6.043,5.534,2.857L15.31,47.046a7.966,7.966,0,0,0,1.88,3.03,7.838,7.838,0,0,0,8.437,1.79l-.3,2.983a10.558,10.558,0,0,1-10.072-2.823,10.733,10.733,0,0,1-2.456-3.87Z" transform="translate(0.073 0.514)" fill="#6c3900" fill-rule="evenodd"/>
          </g>
        </g>
      </g>
    </g>
    <g id="Grupo_1073622" data-name="Grupo 1073622" transform="translate(627.787)">
      <path id="Trazado_821828" data-name="Trazado 821828" d="M28,0H224a31,31,0,0,1,0,62H31A31,31,0,0,1,0,31C0,13.879,10.879,0,28,0Z" transform="translate(-5030 -9414.129)" fill="#ffbf9a"/>
      <text id="Botadero" transform="translate(-4891 -9377.129)" fill="#12263f" font-size="18" font-family="Roboto-Bold, Roboto" font-weight="700"><tspan x="-36.848" y="0">Botadero</tspan></text>
      <g id="Grupo_1073614" data-name="Grupo 1073614" transform="translate(-107.058 1672.179)">
        <path id="Trazado_822785" data-name="Trazado 822785" d="M98.2,268.423a42.5,42.5,0,1,0-42.5,42.5,42.5,42.5,0,0,0,42.5-42.5" transform="translate(-4960.527 -11335.612)" fill="#c1e29a"/>
        <g id="Grupo_1073593" data-name="Grupo 1073593" transform="translate(-4944.141 -11091.196)">
          <g id="Grupo_1073592" data-name="Grupo 1073592" transform="translate(0 0)" clip-path="url(#clip-path-2)">
            <path id="Trazado_822811" data-name="Trazado 822811" d="M26.382,26.268l.851.571a.4.4,0,0,1,.111.525l-1.964,3.261a.349.349,0,0,1-.5.117l-.852-.571a.393.393,0,0,1-.11-.525l1.962-3.261a.352.352,0,0,1,.5-.117" transform="translate(-7.211 -6.91)" fill="#017864" fill-rule="evenodd"/>
            <path id="Trazado_822812" data-name="Trazado 822812" d="M27.926,24.714l.348.233a.16.16,0,0,1,.045.214L26.127,28.8a.142.142,0,0,1-.2.047l-.348-.233a.161.161,0,0,1-.045-.214l2.192-3.642a.143.143,0,0,1,.2-.047" transform="translate(-7.708 -6.509)" fill="#017864" fill-rule="evenodd"/>
            <path id="Trazado_822813" data-name="Trazado 822813" d="M27.362,26.4l.128.085a.4.4,0,0,1,.111.525l-1.964,3.261a.35.35,0,0,1-.5.117l-.426-.286.8-1.323,1.553-2.58.8-1.323.174.117a.159.159,0,0,1,.045.214Z" transform="translate(-7.468 -6.56)" fill="#026551" fill-rule="evenodd"/>
            <path id="Trazado_822814" data-name="Trazado 822814" d="M28.755,24.592l.517.347a.118.118,0,0,1,.033.158l-.128.212a.105.105,0,0,1-.149.035L28.511,25a.117.117,0,0,1-.033-.157l.128-.212a.1.1,0,0,1,.149-.035" transform="translate(-8.6 -6.479)" fill="#db5500" fill-rule="evenodd"/>
            <path id="Trazado_822815" data-name="Trazado 822815" d="M29.148,24.833l.258.173a.118.118,0,0,1,.033.158l-.128.212a.106.106,0,0,1-.149.035l-.258-.173Z" transform="translate(-8.734 -6.547)" fill="#c94d00" fill-rule="evenodd"/>
            <path id="Trazado_822816" data-name="Trazado 822816" d="M14.863,39.517l1.077.4a.438.438,0,0,1,.249.549l-1.373,4.124a.4.4,0,0,1-.52.263l-1.077-.4a.436.436,0,0,1-.25-.548l1.373-4.124a.4.4,0,0,1,.52-.263" transform="translate(-3.912 -10.412)" fill="#017864" fill-rule="evenodd"/>
            <path id="Trazado_822817" data-name="Trazado 822817" d="M16.187,37.412l.44.163a.178.178,0,0,1,.1.223L15.2,42.4a.165.165,0,0,1-.212.108l-.44-.163a.179.179,0,0,1-.1-.225l1.533-4.6a.164.164,0,0,1,.212-.107" transform="translate(-4.361 -9.861)" fill="#017864" fill-rule="evenodd"/>
            <path id="Trazado_822818" data-name="Trazado 822818" d="M16.13,39.338l.161.06a.439.439,0,0,1,.25.549L15.168,44.07a.4.4,0,0,1-.52.263l-.538-.2.556-1.672L15.753,39.2l.557-1.672.219.081a.179.179,0,0,1,.1.224Z" transform="translate(-4.263 -9.894)" fill="#026551" fill-rule="evenodd"/>
            <path id="Trazado_822819" data-name="Trazado 822819" d="M16.706,37.3l.654.242a.132.132,0,0,1,.075.165l-.089.267a.121.121,0,0,1-.156.079l-.653-.242a.132.132,0,0,1-.075-.164l.089-.268a.122.122,0,0,1,.156-.079" transform="translate(-4.972 -9.832)" fill="#db5500" fill-rule="evenodd"/>
            <path id="Trazado_822820" data-name="Trazado 822820" d="M17.21,37.466l.327.122a.132.132,0,0,1,.075.165l-.089.267a.121.121,0,0,1-.156.079l-.327-.121Z" transform="translate(-5.149 -9.878)" fill="#c94d00" fill-rule="evenodd"/>
            <path id="Trazado_822821" data-name="Trazado 822821" d="M3.816,44.19l.77-1.44a.545.545,0,0,1,.763-.224l4.953,2.95a.611.611,0,0,1,.212.8l-.771,1.441a.547.547,0,0,1-.763.223l-4.953-2.95a.61.61,0,0,1-.212-.8" transform="translate(-1.131 -11.191)" fill="#017864" fill-rule="evenodd"/>
            <path id="Trazado_822822" data-name="Trazado 822822" d="M1.282,42.355l.314-.588a.223.223,0,0,1,.311-.091l5.53,3.294a.248.248,0,0,1,.087.328l-.315.588a.222.222,0,0,1-.311.091l-5.53-3.294a.249.249,0,0,1-.087-.328" transform="translate(-0.379 -10.979)" fill="#017864" fill-rule="evenodd"/>
            <path id="Trazado_822823" data-name="Trazado 822823" d="M3.8,42.753l.115-.216a.546.546,0,0,1,.763-.224l4.952,2.95a.611.611,0,0,1,.213.806l-.385.72-2.008-1.2-3.92-2.335-2.009-1.2.158-.294a.223.223,0,0,1,.311-.091Z" transform="translate(-0.459 -10.979)" fill="#026551" fill-rule="evenodd"/>
            <path id="Trazado_822824" data-name="Trazado 822824" d="M1.1,42.416l.468-.875a.163.163,0,0,1,.229-.067l.322.191a.184.184,0,0,1,.064.242l-.468.874a.165.165,0,0,1-.229.068l-.322-.192a.183.183,0,0,1-.064-.241" transform="translate(-0.325 -10.928)" fill="#db5500" fill-rule="evenodd"/>
            <path id="Trazado_822825" data-name="Trazado 822825" d="M1.443,41.977l.234-.437a.164.164,0,0,1,.229-.067l.322.191a.184.184,0,0,1,.064.242l-.234.437Z" transform="translate(-0.436 -10.928)" fill="#c94d00" fill-rule="evenodd"/>
            <path id="Trazado_822826" data-name="Trazado 822826" d="M18.912,42.244a4.075,4.075,0,0,1,6.132,1.92c2.221-.969,4.819,2.946,4.641,5.315H.009c-.18-2.37,2.42-6.284,4.64-5.315a4.076,4.076,0,0,1,6.133-1.92,4.872,4.872,0,0,1,8.131,0" transform="translate(0 -10.561)" fill="#944c00" fill-rule="evenodd"/>
            <path id="Trazado_822827" data-name="Trazado 822827" d="M21.275,40.036a4.754,4.754,0,0,1,4.065,2.2,4.075,4.075,0,0,1,6.132,1.921c2.221-.97,4.821,2.945,4.641,5.314H21.275Z" transform="translate(-6.428 -10.555)" fill="#834400" fill-rule="evenodd"/>
            <path id="Trazado_822828" data-name="Trazado 822828" d="M29.353,32.624c1.178,4.052-7.094-1.783,1.4,9.7-2.061.79-4.252-2.79-4.817-3.106a2.569,2.569,0,0,1-2.159.658c-1.516,0-6.9.468-6.114-3.09s2.8-4.024,3.925-4.785a4.446,4.446,0,0,1-.273-1.543,4.17,4.17,0,0,1,4.052-4.277,3.883,3.883,0,0,1,.721.068,4.159,4.159,0,0,1,4.05-4.127,3.888,3.888,0,0,1,2.129.636,3.882,3.882,0,0,1,2.128-.636A4.168,4.168,0,0,1,38.451,26.4a4.289,4.289,0,0,1-2.428,3.917c-.192,2.174-2.933,3.876-4.035,3.876s-2.542-1.563-2.635-1.57" transform="translate(-5.315 -5.833)" fill="#944c00" fill-rule="evenodd"/>
            <path id="Trazado_822829" data-name="Trazado 822829" d="M32.821,34.183c.115.4-2.407-.923-2.407.476s-2.291,2.906,1.456,7.666c-2.061.79-4.252-2.791-4.817-3.106a2.569,2.569,0,0,1-2.159.657,19.288,19.288,0,0,1-3.62-.149V32.848c.526-.345,1.034-.577,1.431-.846a4.447,4.447,0,0,1-.273-1.543,4.169,4.169,0,0,1,4.052-4.276,3.947,3.947,0,0,1,.721.067,4.159,4.159,0,0,1,4.05-4.127,3.883,3.883,0,0,1,2.129.637,3.876,3.876,0,0,1,2.128-.637A4.169,4.169,0,0,1,39.565,26.4a4.291,4.291,0,0,1-2.428,3.917A4.145,4.145,0,0,1,33.1,34.194c-.094,0-.188,0-.281-.011" transform="translate(-6.428 -5.833)" fill="#834400" fill-rule="evenodd"/>
            <rect id="Rectángulo_377802" data-name="Rectángulo 377802" width="3.985" height="8.339" transform="translate(46.723 23.268)"/>
            <rect id="Rectángulo_377803" data-name="Rectángulo 377803" width="5.944" height="3.85" transform="translate(45.743 23.268)"/>
            <path id="Trazado_822830" data-name="Trazado 822830" d="M63.286,0l-26.1,4.393-3.71,27,35.011-9.079Z" transform="translate(-10.115 0)" fill="#db5500" fill-rule="evenodd"/>
            <path id="Trazado_822831" data-name="Trazado 822831" d="M64.032,0l-26.1,4.393L35.943,18.853l30.631-7.943Z" transform="translate(-10.861 0)" fill="#ed7500" fill-rule="evenodd"/>
            <path id="Trazado_822832" data-name="Trazado 822832" d="M42.281,4.729l-5.1.91-3.71,27,5.368-1.392Z" transform="translate(-10.115 -1.247)" fill="#c94d00" fill-rule="evenodd"/>
            <path id="Trazado_822833" data-name="Trazado 822833" d="M43.027,4.729l-5.1.91L35.944,20.1l5.269-1.367Z" transform="translate(-10.861 -1.247)" fill="#db5500" fill-rule="evenodd"/>
            <path id="Trazado_822834" data-name="Trazado 822834" d="M72.385,2.978l-1.979.514a.927.927,0,0,0-.574.461,1.114,1.114,0,0,0-.108.778l3.795,17.112a1.044,1.044,0,0,0,.424.641.858.858,0,0,0,.7.128l1.978-.513a.927.927,0,0,0,.575-.461,1.119,1.119,0,0,0,.107-.778L73.513,3.747a1.039,1.039,0,0,0-.423-.64.861.861,0,0,0-.7-.129m-1.826,1.2,1.979-.513a.263.263,0,0,1,.218.041.323.323,0,0,1,.133.2l3.795,17.112a.349.349,0,0,1-.033.242.3.3,0,0,1-.179.144l-1.978.513a.269.269,0,0,1-.22-.041.325.325,0,0,1-.132-.2l-3.8-17.113a.351.351,0,0,1,.034-.242.294.294,0,0,1,.179-.144" transform="translate(-21.059 -0.778)" fill="#c94d00" fill-rule="evenodd"/>
            <path id="Trazado_822835" data-name="Trazado 822835" d="M64.346,4.955l-1.978.514a.929.929,0,0,0-.574.461,1.113,1.113,0,0,0-.108.778L65.48,23.82a1.042,1.042,0,0,0,.424.641.852.852,0,0,0,.7.127l1.979-.513a.927.927,0,0,0,.574-.46,1.117,1.117,0,0,0,.108-.779l-3.8-17.112a1.043,1.043,0,0,0-.422-.64.866.866,0,0,0-.706-.129m-1.824,1.2L64.5,5.647a.267.267,0,0,1,.219.041.326.326,0,0,1,.133.2L68.647,23a.35.35,0,0,1-.034.242.293.293,0,0,1-.179.144l-1.979.513a.267.267,0,0,1-.22-.041.318.318,0,0,1-.131-.2l-3.8-17.112a.351.351,0,0,1,.034-.243.291.291,0,0,1,.179-.144" transform="translate(-18.631 -1.3)" fill="#c94d00" fill-rule="evenodd"/>
            <path id="Trazado_822836" data-name="Trazado 822836" d="M56.309,6.931l-1.978.513a.931.931,0,0,0-.574.462,1.113,1.113,0,0,0-.108.778L57.443,25.8a1.046,1.046,0,0,0,.423.641.859.859,0,0,0,.7.128l1.978-.514a.924.924,0,0,0,.575-.46,1.116,1.116,0,0,0,.108-.778L57.437,7.7a1.043,1.043,0,0,0-.422-.64.863.863,0,0,0-.706-.129m-1.826,1.2,1.979-.513a.265.265,0,0,1,.219.041.322.322,0,0,1,.132.2l3.8,17.112a.349.349,0,0,1-.034.242.291.291,0,0,1-.179.144l-1.978.513a.267.267,0,0,1-.22-.041.321.321,0,0,1-.132-.2L54.271,8.522a.346.346,0,0,1,.034-.242.291.291,0,0,1,.178-.144" transform="translate(-16.202 -1.821)" fill="#c94d00" fill-rule="evenodd"/>
            <path id="Trazado_822837" data-name="Trazado 822837" d="M48.272,8.908l-1.979.514a.924.924,0,0,0-.574.461,1.109,1.109,0,0,0-.108.778l3.794,17.112a1.047,1.047,0,0,0,.424.641.86.86,0,0,0,.7.128l1.979-.514a.925.925,0,0,0,.575-.46,1.116,1.116,0,0,0,.107-.778L49.4,9.677a1.041,1.041,0,0,0-.423-.64.861.861,0,0,0-.7-.129m-1.826,1.2L48.426,9.6a.263.263,0,0,1,.218.04.323.323,0,0,1,.133.2l3.795,17.112a.345.345,0,0,1-.033.242.293.293,0,0,1-.179.144l-1.979.513a.268.268,0,0,1-.219-.04.322.322,0,0,1-.132-.2L46.234,10.5a.355.355,0,0,1,.034-.242.294.294,0,0,1,.179-.144" transform="translate(-13.774 -2.342)" fill="#c94d00" fill-rule="evenodd"/>
            <path id="Trazado_822838" data-name="Trazado 822838" d="M72.385,2.978l-1.979.513a.932.932,0,0,0-.574.461,1.116,1.116,0,0,0-.108.778l1.843,8.311.624-.162L70.346,4.569a.351.351,0,0,1,.034-.242.289.289,0,0,1,.179-.144l1.979-.514a.267.267,0,0,1,.218.041.324.324,0,0,1,.133.2l1.843,8.311.623-.162L73.512,3.747a1.036,1.036,0,0,0-.422-.64.859.859,0,0,0-.7-.129" transform="translate(-21.059 -0.778)" fill="#db5500" fill-rule="evenodd"/>
            <path id="Trazado_822839" data-name="Trazado 822839" d="M64.347,4.955l-1.978.513a.929.929,0,0,0-.574.461,1.116,1.116,0,0,0-.108.778l1.843,8.311.624-.162L62.309,6.546a.35.35,0,0,1,.034-.242.288.288,0,0,1,.179-.144L64.5,5.647a.268.268,0,0,1,.219.041.326.326,0,0,1,.133.2L66.7,14.2l.623-.162L65.475,5.724a1.044,1.044,0,0,0-.422-.64.863.863,0,0,0-.706-.129" transform="translate(-18.631 -1.3)" fill="#db5500" fill-rule="evenodd"/>
            <path id="Trazado_822840" data-name="Trazado 822840" d="M56.31,6.931l-1.978.513a.932.932,0,0,0-.574.461,1.12,1.12,0,0,0-.109.778L55.492,17l.624-.162L54.272,8.522a.346.346,0,0,1,.034-.242.286.286,0,0,1,.178-.144l1.979-.514a.269.269,0,0,1,.219.041.323.323,0,0,1,.132.2l1.843,8.311.624-.162L57.438,7.7a1.044,1.044,0,0,0-.422-.64.861.861,0,0,0-.706-.129" transform="translate(-16.202 -1.821)" fill="#db5500" fill-rule="evenodd"/>
            <path id="Trazado_822841" data-name="Trazado 822841" d="M48.273,8.908l-1.98.513a.929.929,0,0,0-.574.461,1.116,1.116,0,0,0-.109.778l1.844,8.311.623-.162L46.234,10.5a.351.351,0,0,1,.034-.242.289.289,0,0,1,.179-.144L48.426,9.6a.264.264,0,0,1,.218.04.324.324,0,0,1,.133.2L50.62,18.15l.624-.162L49.4,9.677a1.039,1.039,0,0,0-.423-.64.858.858,0,0,0-.7-.129" transform="translate(-13.774 -2.342)" fill="#db5500" fill-rule="evenodd"/>
            <path id="Trazado_822842" data-name="Trazado 822842" d="M89.279,18.077H83.494a1.864,1.864,0,0,0-1.807,1.906V32.768a1.863,1.863,0,0,0,1.807,1.906h6.457a1.69,1.69,0,0,0,.491-.072v.072a1.762,1.762,0,0,0,1.708,1.8h8.826a1.762,1.762,0,0,0,1.708-1.8v-5.64a1.875,1.875,0,0,0-1.708-1.8l-8.826-1.419a1.139,1.139,0,0,0-.244-.015l-.821-5.814a1.976,1.976,0,0,0-1.806-1.906" transform="translate(-24.683 -4.766)" fill="#026551" fill-rule="evenodd"/>
            <path id="Trazado_822843" data-name="Trazado 822843" d="M89.279,18.077H83.494a1.864,1.864,0,0,0-1.807,1.906v8.771h20.974a1.919,1.919,0,0,0-1.687-1.524l-8.826-1.419a1.139,1.139,0,0,0-.244-.015l-.821-5.814a1.976,1.976,0,0,0-1.806-1.906" transform="translate(-24.683 -4.766)" fill="#017864" fill-rule="evenodd"/>
            <path id="Trazado_822844" data-name="Trazado 822844" d="M89.744,40.411H39.362A1.206,1.206,0,0,0,38.2,41.644V43.46a1.205,1.205,0,0,0,1.167,1.232H89.744a1.2,1.2,0,0,0,1.167-1.232V41.644a1.206,1.206,0,0,0-1.167-1.233" transform="translate(-11.541 -10.654)" fill-rule="evenodd"/>
            <path id="Trazado_822845" data-name="Trazado 822845" d="M99.445,37.275a6.241,6.241,0,0,0-6.067,6.4c0,.063,0,.125,0,.188H105.51c0-.063,0-.125,0-.188a6.241,6.241,0,0,0-6.068-6.4" transform="translate(-28.215 -9.827)" fill-rule="evenodd"/>
            <path id="Trazado_822846" data-name="Trazado 822846" d="M89.773,20.066H87.189A1.7,1.7,0,0,0,85.542,21.8v3.85a1.7,1.7,0,0,0,1.647,1.738H90.05A1.793,1.793,0,0,0,91.892,25.4l-.472-3.6a1.793,1.793,0,0,0-1.647-1.738" transform="translate(-25.847 -5.29)" fill="#dcecfa" fill-rule="evenodd"/>
            <path id="Trazado_822847" data-name="Trazado 822847" d="M99.992,49.224a5.077,5.077,0,1,0-4.8-5.069,4.952,4.952,0,0,0,4.8,5.069" transform="translate(-28.762 -10.304)" fill="#636262" fill-rule="evenodd"/>
            <path id="Trazado_822848" data-name="Trazado 822848" d="M99.992,39.086a5.076,5.076,0,0,0,0,10.138Z" transform="translate(-28.762 -10.305)" fill="#4a4a4a" fill-rule="evenodd"/>
            <path id="Trazado_822849" data-name="Trazado 822849" d="M101.184,47.359a2.168,2.168,0,1,0-2.051-2.164,2.114,2.114,0,0,0,2.051,2.164" transform="translate(-29.954 -11.344)" fill="#4a4a4a" fill-rule="evenodd"/>
            <path id="Trazado_822850" data-name="Trazado 822850" d="M101.184,43.029a2.168,2.168,0,0,0,0,4.33Z" transform="translate(-29.954 -11.344)" fill="#2e2e2e" fill-rule="evenodd"/>
            <path id="Trazado_822851" data-name="Trazado 822851" d="M47.267,49.224a5.077,5.077,0,1,0-4.8-5.069,4.952,4.952,0,0,0,4.8,5.069" transform="translate(-12.831 -10.304)" fill="#636262" fill-rule="evenodd"/>
            <path id="Trazado_822852" data-name="Trazado 822852" d="M47.267,39.086a5.076,5.076,0,0,0,0,10.138Z" transform="translate(-12.831 -10.305)" fill="#4a4a4a" fill-rule="evenodd"/>
            <path id="Trazado_822853" data-name="Trazado 822853" d="M48.459,47.359a2.168,2.168,0,1,0-2.051-2.164,2.114,2.114,0,0,0,2.051,2.164" transform="translate(-14.023 -11.344)" fill="#4a4a4a" fill-rule="evenodd"/>
            <path id="Trazado_822854" data-name="Trazado 822854" d="M48.459,43.029a2.168,2.168,0,0,0,0,4.33Z" transform="translate(-14.022 -11.344)" fill="#2e2e2e" fill-rule="evenodd"/>
            <path id="Trazado_822855" data-name="Trazado 822855" d="M17.76,33.315c-2.229-3.263,1.562-2.484,1.183-7.524,1.59,4.751-1.97,4.584-1.183,7.524" transform="translate(-5.153 -6.8)" fill="#f0c07d" fill-rule="evenodd"/>
            <path id="Trazado_822856" data-name="Trazado 822856" d="M8.225,40.029c1.709-2.5-1.2-1.906-.908-5.771C6.1,37.9,8.828,37.773,8.225,40.029" transform="translate(-2.115 -9.032)" fill="#f0c07d" fill-rule="evenodd"/>
          </g>
        </g>
      </g>
    </g>
    <text id="Conceptos_de_desechos_sólidos_" data-name="Conceptos de 
desechos sólidos
" transform="translate(-4288.645 -10528.02)" fill="#264100" font-size="28" font-family="Roboto-Bold, Roboto" font-weight="700"><tspan x="-89.735" y="0">Conceptos de </tspan><tspan x="-109.498" y="25">desechos sólidos</tspan><tspan x="0" y="50"></tspan></text>
    <g id="Grupo_1073621" data-name="Grupo 1073621" transform="translate(628.787)">
      <g id="Grupo_1073480" data-name="Grupo 1073480" transform="translate(-5985.904 -10812.063)">
        <rect id="Rectángulo_377703" data-name="Rectángulo 377703" width="258" height="62" rx="31" transform="translate(951.904 1188.383)" fill="#ffbf9a"/>
        <text id="Biodegradación" transform="translate(1097.904 1228.383)" fill="#12263f" font-size="18" font-family="Roboto-Bold, Roboto" font-weight="700"><tspan x="-63.374" y="0">Biodegradación</tspan></text>
      </g>
      <g id="Grupo_1073620" data-name="Grupo 1073620" transform="translate(-413.633 1341.335)">
        <path id="Trazado_822784" data-name="Trazado 822784" d="M256.2,309.146a42.5,42.5,0,1,0-42.5,42.5,42.5,42.5,0,0,0,42.5-42.5" transform="translate(-4811.951 -11254.648)" fill="#c1e29a"/>
        <g id="Grupo_1073594" data-name="Grupo 1073594" transform="translate(-4634.029 -10965.831)" clip-path="url(#clip-path-3)">
          <path id="Trazado_822857" data-name="Trazado 822857" d="M45.49,19.055c5.2-4.3,12.81-1.624,14.757,5.59,5.342-2.823,11.6,5.712,11.166,12.605H0c.4-8.731,5.2-13.183,11.167-12.605,1.946-7.213,9.552-9.893,14.757-5.59,4.322-8.487,15.243-8.486,19.566,0" transform="translate(0 -1.901)" fill="#834400" fill-rule="evenodd"/>
          <path id="Trazado_822858" data-name="Trazado 822858" d="M41.247,12.637a11.131,11.131,0,0,1,9.783,6.41c5.2-4.3,12.81-1.624,14.757,5.59,5.343-2.822,11.6,1.856,11.166,8.75H41.247Z" transform="translate(-5.54 -1.893)" fill="#6c3900" fill-rule="evenodd"/>
          <path id="Trazado_822859" data-name="Trazado 822859" d="M28.753,14.7c-4.105-5.591,2.875-4.257,2.178-12.895C33.857,9.948,27.3,9.662,28.753,14.7" transform="translate(-3.687 -0.27)" fill="#f0c07d" fill-rule="evenodd"/>
          <path id="Trazado_822860" data-name="Trazado 822860" d="M69.371,20.49c1.582-7.378-6.09-3.853-4.65-13.952.923,8.914,8.424,5.386,4.65,13.952" transform="translate(-8.668 -0.979)" fill="#f0c07d" fill-rule="evenodd"/>
          <path id="Trazado_822861" data-name="Trazado 822861" d="M.359,13.269c4.116-1.11,5.716-.69,7.759,1.491,1.537-2.585,2-4.326,9.223-6.355-4.718,2.967-6.919,4.851-8.24,10.262-2.849-3.27-4.93-4.795-8.742-5.4" transform="translate(-0.048 -1.259)" fill="#6c3900" fill-rule="evenodd"/>
          <path id="Trazado_822862" data-name="Trazado 822862" d="M59.318,4.369c-3.7-1-5.134-.62-6.97,1.339C50.968,3.386,50.551,1.822,44.064,0c4.238,2.665,6.215,4.357,7.4,9.218,2.56-2.937,4.428-4.308,7.852-4.849" transform="translate(-5.918 0)" fill="#6c3900" fill-rule="evenodd"/>
          <path id="Trazado_822863" data-name="Trazado 822863" d="M57.52,26.718c3.882-2.471,9.555-.932,11.007,3.209,3.985-1.62,8.651,4.922,8.33,8.879H23.59c-.322-3.958,4.343-10.5,8.329-8.879,1.452-4.14,7.125-5.679,11.007-3.209,3.224-4.871,11.37-4.871,14.595,0" transform="translate(-3.166 -3.455)" fill="#944c00" fill-rule="evenodd"/>
          <path id="Trazado_822864" data-name="Trazado 822864" d="M54.358,23.034a8.7,8.7,0,0,1,7.3,3.68c3.882-2.47,9.555-.933,11.007,3.209,3.985-1.62,8.652,4.922,8.33,8.879H54.358Z" transform="translate(-7.301 -3.451)" fill="#834400" fill-rule="evenodd"/>
        </g>
      </g>
    </g>
    <g id="Grupo_1073618" data-name="Grupo 1073618" transform="translate(624.559 26)">
      <g id="Grupo_1073479" data-name="Grupo 1073479" transform="translate(-5705 -11123.063)">
        <rect id="Rectángulo_377702" data-name="Rectángulo 377702" width="258" height="62" rx="31" transform="translate(671 1205.383)" fill="#ffbf9a"/>
        <text id="Aprovechamiento" transform="translate(825 1243.383)" fill="#12263f" font-size="18" font-family="Roboto-Bold, Roboto" font-weight="700"><tspan x="-71.051" y="0">Aprovechamiento</tspan></text>
      </g>
      <g id="Grupo_1073617" data-name="Grupo 1073617" transform="translate(-598.155 1303.079)">
        <path id="Trazado_822783" data-name="Trazado 822783" d="M354.185,189.5a42.5,42.5,0,1,0-42.5,42.5,42.5,42.5,0,0,0,42.5-42.5" transform="translate(-4718.185 -11390.505)" fill="#c1e29a"/>
        <g id="Grupo_1073596" data-name="Grupo 1073596" transform="translate(-4429.556 -11229.236)" clip-path="url(#clip-path-4)">
          <path id="Trazado_822865" data-name="Trazado 822865" d="M9.515,3.8H31.9a6.647,6.647,0,0,1,6.628,6.627V51.522A6.647,6.647,0,0,1,31.9,58.15H16.6A10.419,10.419,0,0,0,2.888,42.509V10.431A6.646,6.646,0,0,1,9.515,3.8" transform="translate(0.131 0.173)" fill="#017864" fill-rule="evenodd"/>
          <path id="Trazado_822866" data-name="Trazado 822866" d="M19.934,3.8H31.127a6.647,6.647,0,0,1,6.627,6.627V51.522a6.647,6.647,0,0,1-6.627,6.627H19.934Z" transform="translate(0.907 0.173)" fill="#026551" fill-rule="evenodd"/>
          <path id="Trazado_822867" data-name="Trazado 822867" d="M8.8,4.085H32.075L29.291,58.137H16.33a10.421,10.421,0,0,0-5.654-17.685Z" transform="translate(0.4 0.185)" fill="#026551" fill-rule="evenodd"/>
          <path id="Trazado_822868" data-name="Trazado 822868" d="M19.934,4.085H31.569L28.786,58.137H19.934Z" transform="translate(0.907 0.185)" fill="#035b45" fill-rule="evenodd"/>
          <path id="Trazado_822869" data-name="Trazado 822869" d="M9.355,57.5A8.431,8.431,0,1,0,.924,49.074,8.447,8.447,0,0,0,9.355,57.5" transform="translate(0.042 1.848)" fill="#834400" fill-rule="evenodd"/>
          <path id="Trazado_822870" data-name="Trazado 822870" d="M8.988,40.643a8.431,8.431,0,0,1,0,16.862Z" transform="translate(0.409 1.848)" fill="#6c3900" fill-rule="evenodd"/>
          <path id="Trazado_822871" data-name="Trazado 822871" d="M9.147,52.515a3.649,3.649,0,1,0-3.65-3.65,3.657,3.657,0,0,0,3.65,3.65" transform="translate(0.25 2.056)" fill="#6c3900" fill-rule="evenodd"/>
          <path id="Trazado_822872" data-name="Trazado 822872" d="M8.988,45.216a3.649,3.649,0,0,1,0,7.3Z" transform="translate(0.409 2.056)" fill="#572e00" fill-rule="evenodd"/>
          <path id="Trazado_822873" data-name="Trazado 822873" d="M40.142,4.085V19.532a3.267,3.267,0,0,1-3.258,3.258H4.667A3.266,3.266,0,0,1,1.41,19.532V4.085Z" transform="translate(0.064 0.185)" fill="#017864" fill-rule="evenodd"/>
          <path id="Trazado_822874" data-name="Trazado 822874" d="M39.3,4.085V19.532a3.267,3.267,0,0,1-3.258,3.258H19.934V4.085Z" transform="translate(0.907 0.185)" fill="#026551" fill-rule="evenodd"/>
          <path id="Trazado_822875" data-name="Trazado 822875" d="M1.105,0H40.576a1.108,1.108,0,0,1,1.1,1.105V4.124a1.107,1.107,0,0,1-1.1,1.1H1.105A1.107,1.107,0,0,1,0,4.124V1.105A1.108,1.108,0,0,1,1.105,0" transform="translate(0 -0.001)" fill="#026551" fill-rule="evenodd"/>
          <path id="Trazado_822876" data-name="Trazado 822876" d="M19.934,0H39.669a1.109,1.109,0,0,1,1.105,1.105V4.124a1.108,1.108,0,0,1-1.105,1.1H19.934Z" transform="translate(0.907 -0.001)" fill="#035b45" fill-rule="evenodd"/>
        </g>
      </g>
    </g>
    <g id="Grupo_1073619" data-name="Grupo 1073619" transform="translate(629.787)">
      <rect id="Rectángulo_377721" data-name="Rectángulo 377721" width="258" height="62" rx="31" transform="translate(-5034 -10085.68)" fill="#ffbf9a"/>
      <text id="Saneamiento_básico" data-name="Saneamiento básico" transform="translate(-4883 -10048.68)" fill="#12263f" font-size="18" font-family="Roboto-Bold, Roboto" font-weight="700"><tspan x="-82.099" y="0">Saneamiento básico</tspan></text>
      <g id="Grupo_1073616" data-name="Grupo 1073616" transform="translate(-452.605 1393.977)">
        <path id="Trazado_822782" data-name="Trazado 822782" d="M286.917,42.5a42.5,42.5,0,1,0-42.5,42.5,42.5,42.5,0,0,0,42.5-42.5" transform="translate(-4805.694 -11502.317)" fill="#c1e29a"/>
        <g id="Grupo_1073598" data-name="Grupo 1073598" transform="translate(-4586.784 -11488.187)" clip-path="url(#clip-path-5)">
          <path id="Trazado_822877" data-name="Trazado 822877" d="M16.706,8.91V8.99c-1.3.187-1.039,2.225.269,2.357v.083a1.194,1.194,0,0,0,.05,2.369l.013.1h-.021c-.779.4-.362,1.524.868,1.535a64.583,64.583,0,0,0,7.763-.356c1.669-.165,1.881.229,2.855-1.083l5.932-1.041v-6.4L28.378,7.619a2.5,2.5,0,0,0-2-1.639l-4.034-.8a1.037,1.037,0,0,0-1.4.276l-.61.923c-.912-.025-.047.018-3.414.018-1.74,0-1.58,2.509-.216,2.509" transform="translate(-0.077 -0.025)" fill="#ffdba7" fill-rule="evenodd"/>
          <path id="Trazado_822878" data-name="Trazado 822878" d="M17.889,15.441c2.352.02,6.521-.265,8.747-.454.632-.526-.626-4.211-.2-4.455,1.234-.7,1.714-1.719,1.58-2.367L21.347,6.078,20.34,6.75a9.406,9.406,0,0,0-3.054-.235c-.772,0-.894.565-.778,3.91.125,3.64.266,4.918,1.381,5.016" transform="translate(-0.081 -0.03)" fill="#f0c07d" fill-rule="evenodd"/>
          <path id="Trazado_822879" data-name="Trazado 822879" d="M29.062,14.548l-.105-8.106c5.83-.084,11.437-.182,16.919-.295v8.369c-6.23.023-11.991.034-16.814.032" transform="translate(-0.143 -0.031)" fill="#db5500" fill-rule="evenodd"/>
          <path id="Trazado_822880" data-name="Trazado 822880" d="M29.063,14.57l-.055-4.026c5.011,0,10.733-.009,16.868-.026v4.021c-6.23.023-11.991.033-16.814.031" transform="translate(-0.143 -0.052)" fill="#ed7500" fill-rule="evenodd"/>
          <path id="Trazado_822881" data-name="Trazado 822881" d="M3.756,45.683C2.063,48.708,2.629,52.173,0,55.131c5.348,3.648,11.4.34,13.2.455,6.631,1.992,12.07,1.983,19.009.341,6.69,1.5,11.91,1.612,14.629.176.639-1.718.835-5.573-1.312-7.4-.506-4.956-.39-4.819-2.618-9.276,1.458-7.385-1.241-21.858-13.159-25.2a23.438,23.438,0,0,0-11.546.031C5.663,17.063,4.008,33.193,3.756,45.683" transform="translate(0 -0.067)" fill="#1265a9" fill-rule="evenodd"/>
          <path id="Trazado_822882" data-name="Trazado 822882" d="M23.755,57.116a40.44,40.44,0,0,0,8.575-1.188c6.69,1.5,11.91,1.612,14.629.176.639-1.718.835-5.573-1.311-7.4-.506-4.956-.39-4.819-2.618-9.276,1.458-7.385-1.241-21.858-13.159-25.2a20.1,20.1,0,0,0-6.116-.69Z" transform="translate(-0.117 -0.067)" fill="#0c4c80" fill-rule="evenodd"/>
          <path id="Trazado_822883" data-name="Trazado 822883" d="M16.315,2.506a6.677,6.677,0,0,0,3.363,5.261c1.493,1.023,1.194,4.787,1.374,6.889l7.768.12c-3.887-2.645-3.66-4.557-3.281-5.781,1.142-3.69,4.277-2.815,4.676-6.648-2.495-.17-2.477-.544-4.1.483C25.759,1.308,24.981.773,23.646,0c-.857.7-3.078,1.372-2.991,2.83-1.953-1.261-3.153.606-4.339-.324" transform="translate(-0.08 0)" fill="#1265a9" fill-rule="evenodd"/>
          <path id="Trazado_822884" data-name="Trazado 822884" d="M23.755,14.7l5.1.079c-3.887-2.645-3.66-4.557-3.281-5.781C26.72,5.3,29.854,6.18,30.253,2.347c-2.495-.17-2.477-.544-4.1.483C25.8,1.336,25.046.793,23.755.042Z" transform="translate(-0.117 -0.001)" fill="#0c4c80" fill-rule="evenodd"/>
          <path id="Trazado_822885" data-name="Trazado 822885" d="M18.727,8.469l2.2-2.965c.435-.56.764-.516,1.382-.409,1.093.189,3.121.7,4.084.886a2.506,2.506,0,0,1,2,1.639c-.051.63-1.129,3.5-4.3,1.378a4.789,4.789,0,0,0-1.975-1.2L20.593,9.854a1.162,1.162,0,0,1-1.866-1.385" transform="translate(-0.091 -0.025)" fill="#ffdba7" fill-rule="evenodd"/>
          <path id="Trazado_822886" data-name="Trazado 822886" d="M15.947,12.6h0a1.165,1.165,0,0,1,1.162-1.161H20.8A1.164,1.164,0,0,1,21.963,12.6h0A1.164,1.164,0,0,1,20.8,13.761H17.109A1.165,1.165,0,0,1,15.947,12.6" transform="translate(-0.079 -0.057)" fill="#ffdba7" fill-rule="evenodd"/>
          <path id="Trazado_822887" data-name="Trazado 822887" d="M15.83,10.147h0a1.164,1.164,0,0,1,1.161-1.161h3.694a1.165,1.165,0,0,1,1.161,1.161h0a1.165,1.165,0,0,1-1.161,1.161H16.991a1.164,1.164,0,0,1-1.161-1.161" transform="translate(-0.078 -0.045)" fill="#ffdba7" fill-rule="evenodd"/>
          <path id="Trazado_822888" data-name="Trazado 822888" d="M15.649,7.685h0A1.164,1.164,0,0,1,16.81,6.524H20.5a1.162,1.162,0,0,1,0,2.323H16.81a1.165,1.165,0,0,1-1.161-1.162" transform="translate(-0.077 -0.032)" fill="#ffdba7" fill-rule="evenodd"/>
          <path id="Trazado_822889" data-name="Trazado 822889" d="M16.418,14.719h0a.858.858,0,0,1,.856-.856h3.62a.855.855,0,0,1,0,1.711h-3.62a.857.857,0,0,1-.856-.855" transform="translate(-0.081 -0.069)" fill="#ffdba7" fill-rule="evenodd"/>
        </g>
      </g>
    </g>
  </g>
</svg>
