<svg xmlns="http://www.w3.org/2000/svg" xmlns:xlink="http://www.w3.org/1999/xlink" width="190" height="174" viewBox="0 0 190 174">
  <defs>
    <clipPath id="clip-path">
      <rect id="Rect치ngulo_377738" data-name="Rect치ngulo 377738" width="190" height="174" transform="translate(390 2505)" fill="none" stroke="#707070" stroke-width="1"/>
    </clipPath>
    <clipPath id="clip-path-2">
      <rect id="Rect치ngulo_377739" data-name="Rect치ngulo 377739" width="164" height="125.444" fill="none"/>
    </clipPath>
  </defs>
  <g id="Enmascarar_grupo_371" data-name="Enmascarar grupo 371" transform="translate(-390 -2505)" clip-path="url(#clip-path)">
    <g id="Grupo_1073528" data-name="Grupo 1073528" transform="translate(412 2516.278)">
      <g id="Grupo_1073527" data-name="Grupo 1073527" clip-path="url(#clip-path-2)">
        <path id="Trazado_822060" data-name="Trazado 822060" d="M0,19.322H1.5q47.584,0,95.168,0c.988,0,2.153.306,2.911-.114.737-.408,1.069-1.561,1.559-2.4a33.1,33.1,0,0,1,14.821-13.56A32.451,32.451,0,0,1,132.273.082,32.935,32.935,0,0,1,149.8,6.335a34.019,34.019,0,0,1,13.76,22.346c2.081,11.711-3.366,25.381-14.3,32.818-1.3.882-2.662,1.672-4.035,2.434a.9.9,0,0,0-.475.973q.015,18.255.02,36.509,0,11.568-.018,23.137c0,.513.016.894-.735.892q-23.031-.043-46.062-.036Q49.608,125.4,1.263,125.4H0Zm17.822,96.443H126.851c-.242-.217-.376-.343-.515-.463Q113.906,104.65,101.473,94,92.808,86.58,84.141,79.164c-.442-.38-.712-.391-1.134.006-.7.657-1.463,1.243-2.193,1.868q-4.219,3.614-8.45,7.247c-.186-.138-.338-.24-.477-.358q-4.565-3.9-9.13-7.8c-1.718-1.46-1.752-1.477-3.472,0-4.012,3.437-7.985,6.919-12,10.354Q32.754,102.923,18.2,115.342a5.165,5.165,0,0,0-.377.422M96.681,28.794c-26.3.014-52.535-.04-78.775.036l-.006.225,54.42,46.6c1.955-1.657,3.892-3.288,5.816-4.933q11.108-9.494,22.211-18.995c.918-.784.925-.773.355-1.831a33.281,33.281,0,0,1-4.029-19.272c.054-.574.007-1.156.007-1.829m-43,43.557L9.608,34.585V110.1L53.681,72.351M130.266,9.62a24.152,24.152,0,0,0-.211,48.3,24.416,24.416,0,0,0,24.371-23.7c.3-12.532-10.148-24.738-24.16-24.6M90.966,72.35l44.15,37.826v-43c-10.669,1.248-20.017-1.609-27.906-8.81L90.966,72.35" transform="translate(0 0)"/>
        <path id="Trazado_822061" data-name="Trazado 822061" d="M27.718,159.559a4.713,4.713,0,0,1,.378-.422q14.542-12.431,29.086-24.861c4.013-3.435,7.985-6.918,12-10.354,1.719-1.472,1.753-1.456,3.471,0q4.575,3.887,9.13,7.8c.138.118.292.22.476.359q4.242-3.639,8.451-7.247c.729-.625,1.494-1.211,2.193-1.869.422-.4.694-.386,1.135-.006q8.65,7.435,17.332,14.836,12.436,10.646,24.863,21.3c.14.12.274.245.515.463Z" transform="translate(-9.896 -43.795)" fill="#ffef57"/>
        <path id="Trazado_822062" data-name="Trazado 822062" d="M106.62,44.778c0,.672.046,1.255-.007,1.829a33.279,33.279,0,0,0,4.029,19.271c.57,1.058.563,1.047-.356,1.831Q99.178,77.2,88.076,86.7c-1.924,1.645-3.862,3.275-5.817,4.932l-54.42-46.6c0-.075,0-.15.006-.224,26.239-.076,52.478-.023,78.775-.036" transform="translate(-9.939 -15.984)" fill="#ffef57"/>
        <path id="Trazado_822063" data-name="Trazado 822063" d="M59.016,91.553,14.942,129.3V53.788L59.016,91.553" transform="translate(-5.334 -19.203)" fill="#ffef57"/>
        <path id="Trazado_822064" data-name="Trazado 822064" d="M189.148,14.961c14.013-.134,24.461,12.072,24.16,24.6a24.2,24.2,0,1,1-24.16-24.6m4.776,38.588v-.891c0-9.044-.016-18.087.011-27.131,0-.734-.219-.889-.9-.885q-6.246.038-12.492,0c-.636,0-.757.237-.752.795.026,2.666.041,5.334.013,8-.007.651.2.824.828.8,1.191-.047,2.385-.014,3.612-.014a4.077,4.077,0,0,1,.06.461c0,6,.014,12-.012,18,0,.707.191.914.9.9,2.454-.05,4.911-.03,7.366-.037h1.357" transform="translate(-58.882 -5.341)" fill="#ff715a"/>
        <path id="Trazado_822065" data-name="Trazado 822065" d="M141.473,104.754l16.244-13.988c7.889,7.2,17.237,10.058,27.906,8.81v43l-44.15-37.826" transform="translate(-50.507 -32.404)" fill="#ffef57"/>
        <path id="Trazado_822066" data-name="Trazado 822066" d="M202.177,58.924H200.82c-2.456.006-4.912-.014-7.366.037-.714.014-.908-.193-.9-.9.026-6,.015-12,.012-18a4.081,4.081,0,0,0-.06-.461c-1.226,0-2.421-.033-3.612.014-.626.025-.835-.148-.828-.8.028-2.666.013-5.333-.013-8-.005-.558.116-.8.752-.795q6.246.041,12.492,0c.677,0,.9.15.9.885-.027,9.044-.013,18.087-.011,27.131v.891" transform="translate(-67.135 -10.716)"/>
      </g>
    </g>
  </g>
</svg>
