<svg xmlns="http://www.w3.org/2000/svg" width="1251.792" height="716.177" viewBox="0 0 1251.792 716.177">
  <g id="Grupo_1074669" data-name="Grupo 1074669" transform="translate(-168.543 -583.632)">
    <text id="Procedimientos_a_realizar" data-name="Procedimientos a realizar" transform="translate(385 1204.346)" fill="#12263f" font-size="16" font-family="Roboto-Regular, Roboto"><tspan x="-90.387" y="0">Procedimientos a realizar</tspan></text>
    <text id="Explica_sobre" data-name="Explica sobre" transform="translate(1222.488 1010.172)" fill="#12263f" font-size="16" font-family="Roboto-Regular, Roboto"><tspan x="-47.449" y="0">Explica sobre</tspan></text>
    <text id="Teniendo_en_cuenta" data-name="Teniendo en cuenta" transform="translate(812.488 695.632)" fill="#12263f" font-size="16" font-family="Roboto-Regular, Roboto"><tspan x="-69.535" y="0">Teniendo en cuenta</tspan></text>
    <text id="Si_es" data-name="Si es" transform="translate(233.488 871.953)" fill="#12263f" font-size="16" font-family="Roboto-Regular, Roboto"><tspan x="-17.031" y="0">Si es</tspan></text>
    <text id="Tales" transform="translate(384.488 871.953)" fill="#12263f" font-size="16" font-family="Roboto-Regular, Roboto"><tspan x="-18.988" y="0">Tales</tspan></text>
    <text id="A" transform="translate(520.488 871.953)" fill="#12263f" font-size="16" font-family="Roboto-Regular, Roboto"><tspan x="-5.219" y="0">A</tspan></text>
    <text id="Según_" data-name="Según " transform="translate(665.488 871.953)" fill="#12263f" font-size="16" font-family="Roboto-Regular, Roboto"><tspan x="-24.277" y="0">Según </tspan></text>
    <text id="Según_2" data-name="Según " transform="translate(805.488 871.953)" fill="#12263f" font-size="16" font-family="Roboto-Regular, Roboto"><tspan x="-24.277" y="0">Según </tspan></text>
    <text id="Y" transform="translate(805.488 998.632)" fill="#12263f" font-size="16" font-family="Roboto-Regular, Roboto"><tspan x="-4.805" y="0">Y</tspan></text>
    <text id="Según_3" data-name="Según " transform="translate(951.488 871.953)" fill="#12263f" font-size="16" font-family="Roboto-Regular, Roboto"><tspan x="-24.277" y="0">Según </tspan></text>
    <text id="del" transform="translate(1081.488 871.953)" fill="#12263f" font-size="16" font-family="Roboto-Regular, Roboto"><tspan x="-10.691" y="0">del</tspan></text>
    <text id="Según_4" data-name="Según " transform="translate(1225 871.953)" fill="#12263f" font-size="16" font-family="Roboto-Regular, Roboto"><tspan x="-24.277" y="0">Según </tspan></text>
    <text id="Tales_como" data-name="Tales como" transform="translate(1358.488 871.953)" fill="#12263f" font-size="16" font-family="Roboto-Regular, Roboto"><tspan x="-41.293" y="0">Tales como</tspan></text>
    <line id="Línea_1110" data-name="Línea 1110" y2="34.96" transform="translate(233.988 739.672)" fill="none" stroke="#615504" stroke-miterlimit="10" stroke-width="3"/>
    <line id="Línea_1111" data-name="Línea 1111" y2="34.96" transform="translate(233.988 883.453)" fill="none" stroke="#615504" stroke-miterlimit="10" stroke-width="3"/>
    <line id="Línea_1069" data-name="Línea 1069" x2="0.301" y2="27" transform="translate(232.988 821.672)" fill="none" stroke="#615504" stroke-miterlimit="10" stroke-width="3"/>
    <line id="Línea_1093" data-name="Línea 1093" x2="0.301" y2="27" transform="translate(1357.988 821.672)" fill="none" stroke="#615504" stroke-miterlimit="10" stroke-width="3"/>
    <line id="Línea_1074" data-name="Línea 1074" x2="0.301" y2="27" transform="translate(381.988 821.672)" fill="none" stroke="#615504" stroke-miterlimit="10" stroke-width="3"/>
    <line id="Línea_1077" data-name="Línea 1077" x2="0.301" y2="27" transform="translate(519.463 821.672)" fill="none" stroke="#615504" stroke-miterlimit="10" stroke-width="3"/>
    <line id="Línea_1081" data-name="Línea 1081" x2="0.301" y2="27" transform="translate(656.938 822.453)" fill="none" stroke="#615504" stroke-miterlimit="10" stroke-width="3"/>
    <line id="Línea_1084" data-name="Línea 1084" x2="0.301" y2="27" transform="translate(802.326 822.453)" fill="none" stroke="#615504" stroke-miterlimit="10" stroke-width="3"/>
    <line id="Línea_1086" data-name="Línea 1086" x2="0.301" y2="27" transform="translate(947.715 822.453)" fill="none" stroke="#615504" stroke-miterlimit="10" stroke-width="3"/>
    <line id="Línea_1087" data-name="Línea 1087" x2="0.301" y2="27" transform="translate(1080.988 822.453)" fill="none" stroke="#615504" stroke-miterlimit="10" stroke-width="3"/>
    <line id="Línea_1088" data-name="Línea 1088" x2="0.301" y2="27" transform="translate(1222.988 822.453)" fill="none" stroke="#615504" stroke-miterlimit="10" stroke-width="3"/>
    <line id="Línea_1070" data-name="Línea 1070" y2="43.006" transform="translate(233.988 952.666)" fill="none" stroke="#615504" stroke-miterlimit="10" stroke-width="3"/>
    <line id="Línea_1091" data-name="Línea 1091" y2="43.006" transform="translate(1358.988 952.666)" fill="none" stroke="#615504" stroke-miterlimit="10" stroke-width="3"/>
    <line id="Línea_1073" data-name="Línea 1073" y2="43.006" transform="translate(382.988 952.666)" fill="none" stroke="#615504" stroke-miterlimit="10" stroke-width="3"/>
    <line id="Línea_1076" data-name="Línea 1076" y2="43.006" transform="translate(520.463 952.666)" fill="none" stroke="#615504" stroke-miterlimit="10" stroke-width="3"/>
    <line id="Línea_1080" data-name="Línea 1080" y2="43.006" transform="translate(657.938 953.447)" fill="none" stroke="#615504" stroke-miterlimit="10" stroke-width="3"/>
    <line id="Línea_1083" data-name="Línea 1083" y2="34.09" transform="translate(805.988 1002.632)" fill="none" stroke="#615504" stroke-miterlimit="10" stroke-width="3"/>
    <line id="Línea_1071" data-name="Línea 1071" y2="43.006" transform="translate(233.988 1053.628)" fill="none" stroke="#615504" stroke-miterlimit="10" stroke-width="3"/>
    <line id="Línea_1092" data-name="Línea 1092" y2="43.006" transform="translate(1358.988 1053.628)" fill="none" stroke="#615504" stroke-miterlimit="10" stroke-width="3"/>
    <line id="Línea_1094" data-name="Línea 1094" y2="43.006" transform="translate(1358.988 1147.479)" fill="none" stroke="#615504" stroke-miterlimit="10" stroke-width="3"/>
    <line id="Línea_1072" data-name="Línea 1072" y2="48.002" transform="translate(382.988 1026.67)" fill="none" stroke="#615504" stroke-miterlimit="10" stroke-width="3"/>
    <line id="Línea_1075" data-name="Línea 1075" y2="48.002" transform="translate(520.462 1026.67)" fill="none" stroke="#615504" stroke-miterlimit="10" stroke-width="3"/>
    <line id="Línea_1079" data-name="Línea 1079" y2="48.002" transform="translate(657.937 1035.453)" fill="none" stroke="#615504" stroke-miterlimit="10" stroke-width="3"/>
    <line id="Línea_1109" data-name="Línea 1109" y2="34.96" transform="translate(382 739.672)" fill="none" stroke="#615504" stroke-miterlimit="10" stroke-width="3"/>
    <line id="Línea_1112" data-name="Línea 1112" y2="34.96" transform="translate(382 883.453)" fill="none" stroke="#615504" stroke-miterlimit="10" stroke-width="3"/>
    <line id="Línea_1102" data-name="Línea 1102" y2="34.96" transform="translate(520.313 739.672)" fill="none" stroke="#615504" stroke-miterlimit="10" stroke-width="3"/>
    <line id="Línea_1113" data-name="Línea 1113" y2="34.96" transform="translate(520.313 883.453)" fill="none" stroke="#615504" stroke-miterlimit="10" stroke-width="3"/>
    <line id="Línea_1103" data-name="Línea 1103" y2="34.96" transform="translate(664.625 739.672)" fill="none" stroke="#615504" stroke-miterlimit="10" stroke-width="3"/>
    <line id="Línea_1114" data-name="Línea 1114" y2="34.96" transform="translate(664.625 883.453)" fill="none" stroke="#615504" stroke-miterlimit="10" stroke-width="3"/>
    <line id="Línea_1104" data-name="Línea 1104" y2="34.96" transform="translate(803.988 739.672)" fill="none" stroke="#615504" stroke-miterlimit="10" stroke-width="3"/>
    <line id="Línea_1115" data-name="Línea 1115" y2="34.96" transform="translate(803.988 883.453)" fill="none" stroke="#615504" stroke-miterlimit="10" stroke-width="3"/>
    <line id="Línea_1120" data-name="Línea 1120" y2="21.22" transform="translate(805.988 954.912)" fill="none" stroke="#615504" stroke-miterlimit="10" stroke-width="3"/>
    <line id="Línea_1105" data-name="Línea 1105" y2="34.96" transform="translate(951.313 739.672)" fill="none" stroke="#615504" stroke-miterlimit="10" stroke-width="3"/>
    <line id="Línea_1116" data-name="Línea 1116" y2="34.96" transform="translate(951.313 883.453)" fill="none" stroke="#615504" stroke-miterlimit="10" stroke-width="3"/>
    <line id="Línea_1106" data-name="Línea 1106" y2="34.96" transform="translate(1080.988 739.672)" fill="none" stroke="#615504" stroke-miterlimit="10" stroke-width="3"/>
    <line id="Línea_1117" data-name="Línea 1117" y2="34.96" transform="translate(1080.988 883.453)" fill="none" stroke="#615504" stroke-miterlimit="10" stroke-width="3"/>
    <line id="Línea_1107" data-name="Línea 1107" y2="34.96" transform="translate(1222 739.672)" fill="none" stroke="#615504" stroke-miterlimit="10" stroke-width="3"/>
    <line id="Línea_1118" data-name="Línea 1118" y2="34.96" transform="translate(1222 883.453)" fill="none" stroke="#615504" stroke-miterlimit="10" stroke-width="3"/>
    <line id="Línea_1108" data-name="Línea 1108" y2="34.96" transform="translate(1353.665 739.672)" fill="none" stroke="#615504" stroke-miterlimit="10" stroke-width="3"/>
    <line id="Línea_1119" data-name="Línea 1119" y2="34.96" transform="translate(1358.988 883.453)" fill="none" stroke="#615504" stroke-miterlimit="10" stroke-width="3"/>
    <path id="Trazado_816891" data-name="Trazado 816891" d="M248.074,20.8,248.311,0H0V20.8" transform="translate(265 1235.729)" fill="none" stroke="#615504" stroke-miterlimit="10" stroke-width="3"/>
    <line id="Línea_925" data-name="Línea 925" y1="25.057" transform="translate(380.979 1210.672)" fill="none" stroke="#615504" stroke-miterlimit="10" stroke-width="3"/>
    <line id="Línea_1090" data-name="Línea 1090" y1="25.057" transform="translate(1222.988 1022.453)" fill="none" stroke="#615504" stroke-miterlimit="10" stroke-width="3"/>
    <line id="Línea_1078" data-name="Línea 1078" y1="81.977" transform="translate(380.979 1105.695)" fill="none" stroke="#615504" stroke-miterlimit="10" stroke-width="3"/>
    <line id="Línea_1089" data-name="Línea 1089" y1="36.438" transform="translate(1222.988 958.234)" fill="none" stroke="#615504" stroke-miterlimit="10" stroke-width="3"/>
    <line id="Línea_1050" data-name="Línea 1050" x1="19.385" transform="translate(380.979 1237.142) rotate(90)" fill="none" stroke="#615504" stroke-miterlimit="10" stroke-width="3"/>
    <line id="Línea_1047" data-name="Línea 1047" y1="35.04" transform="translate(803.988 702.132)" fill="none" stroke="#615504" stroke-miterlimit="10" stroke-width="3"/>
    <line id="Línea_1101" data-name="Línea 1101" y1="30.399" transform="translate(803.988 639.732)" fill="none" stroke="#615504" stroke-miterlimit="10" stroke-width="3"/>
    <path id="Trazado_819206" data-name="Trazado 819206" d="M110.509,284.7H10.772C5.928,284.7,2,280.377,2,275.045V239.572c0-5.332,3.927-9.654,8.771-9.654h99.737c4.844,0,8.771,4.323,8.771,9.654v35.473c0,5.332-3.927,9.654-8.771,9.654" transform="translate(179.302 538.254)" fill="#c1e29a"/>
    <path id="Trazado_821553" data-name="Trazado 821553" d="M110.509,284.7H10.772C5.928,284.7,2,280.377,2,275.045V239.572c0-5.332,3.927-9.654,8.771-9.654h99.737c4.844,0,8.771,4.323,8.771,9.654v35.473c0,5.332-3.927,9.654-8.771,9.654" transform="translate(459.928 538.254)" fill="#c1e29a"/>
    <path id="Trazado_821555" data-name="Trazado 821555" d="M110.509,284.7H10.772C5.928,284.7,2,280.377,2,275.045V239.572c0-5.332,3.927-9.654,8.771-9.654h99.737c4.844,0,8.771,4.323,8.771,9.654v35.473c0,5.332-3.927,9.654-8.771,9.654" transform="translate(743.487 537.754)" fill="#c1e29a"/>
    <path id="Trazado_821557" data-name="Trazado 821557" d="M110.509,284.7H10.772C5.928,284.7,2,280.377,2,275.045V239.572c0-5.332,3.927-9.654,8.771-9.654h99.737c4.844,0,8.771,4.323,8.771,9.654v35.473c0,5.332-3.927,9.654-8.771,9.654" transform="translate(1020.487 538.254)" fill="#c1e29a"/>
    <path id="Trazado_821551" data-name="Trazado 821551" d="M133.381,284.7H12.621C6.756,284.7,2,280.377,2,275.045V239.572c0-5.332,4.755-9.654,10.62-9.654H133.381c5.865,0,10.62,4.323,10.62,9.654v35.473c0,5.332-4.755,9.654-10.62,9.654" transform="translate(309.487 538.254)" fill="#c1e29a"/>
    <path id="Trazado_821552" data-name="Trazado 821552" d="M110.509,303.418H10.772c-4.844,0-8.771-5.8-8.771-12.953V242.871c0-7.153,3.927-12.953,8.771-12.953h99.737c4.844,0,8.771,5.8,8.771,12.953v47.594c0,7.153-3.927,12.953-8.771,12.953" transform="translate(601.046 538.254)" fill="#c1e29a"/>
    <path id="Trazado_821554" data-name="Trazado 821554" d="M125.5,303.418H11.984c-5.513,0-9.983-5.8-9.983-12.953V242.871c0-7.153,4.47-12.953,9.983-12.953H125.5c5.513,0,9.983,5.8,9.983,12.953v47.594c0,7.153-4.47,12.953-9.983,12.953" transform="translate(878.515 537.254)" fill="#c1e29a"/>
    <path id="Trazado_821556" data-name="Trazado 821556" d="M110.509,284.7H10.772C5.928,284.7,2,280.377,2,275.045V239.572c0-5.332,3.927-9.654,8.771-9.654h99.737c4.844,0,8.771,4.323,8.771,9.654v35.473c0,5.332-3.927,9.654-8.771,9.654" transform="translate(1160.442 538.254)" fill="#c1e29a"/>
    <path id="Trazado_821558" data-name="Trazado 821558" d="M115.66,284.7H11.188A9.43,9.43,0,0,1,2,275.045V239.572a9.43,9.43,0,0,1,9.187-9.654H115.66a9.43,9.43,0,0,1,9.187,9.654v35.473a9.43,9.43,0,0,1-9.187,9.654" transform="translate(1295.487 538.254)" fill="#c1e29a"/>
    <path id="Trazado_819195" data-name="Trazado 819195" d="M102.061,292.43H10.089C5.622,292.43,2,287.5,2,281.414V240.935c0-6.084,3.621-11.017,8.088-11.017h91.972c4.467,0,8.088,4.933,8.088,11.017v40.479c0,6.084-3.621,11.017-8.088,11.017" transform="translate(177.487 860.89)" fill="#d5fff5"/>
    <path id="Trazado_821576" data-name="Trazado 821576" d="M102.061,292.43H10.089C5.622,292.43,2,287.5,2,281.414V240.935c0-6.084,3.621-11.017,8.088-11.017h91.972c4.467,0,8.088,4.933,8.088,11.017v40.479c0,6.084-3.621,11.017-8.088,11.017" transform="translate(1302.487 860.89)" fill="#d5fff5"/>
    <path id="Trazado_821579" data-name="Trazado 821579" d="M102.061,268.432H10.089c-4.467,0-8.088-3.039-8.088-6.787V236.705c0-3.748,3.621-6.787,8.088-6.787h91.972c4.467,0,8.088,3.039,8.088,6.787v24.939c0,3.748-3.621,6.787-8.088,6.787" transform="translate(1302.487 954.253)" fill="#d5fff5"/>
    <path id="Trazado_821559" data-name="Trazado 821559" d="M102.061,266.626H10.089c-4.467,0-8.088-2.9-8.088-6.469v-23.77c0-3.573,3.621-6.469,8.088-6.469h91.972c4.467,0,8.088,2.9,8.088,6.469v23.77c0,3.573-3.621,6.469-8.088,6.469" transform="translate(326.487 845.212)" fill="#d5fff5"/>
    <path id="Trazado_821562" data-name="Trazado 821562" d="M118.358,266.626H11.406c-5.194,0-9.405-2.9-9.405-6.469v-23.77c0-3.573,4.211-6.469,9.405-6.469H118.358c5.194,0,9.405,2.9,9.405,6.469v23.77c0,3.573-4.211,6.469-9.405,6.469" transform="translate(457.236 845.212)" fill="#d5fff5"/>
    <path id="Trazado_821565" data-name="Trazado 821565" d="M118.358,266.626H11.406c-5.194,0-9.405-2.9-9.405-6.469v-23.77c0-3.573,4.211-6.469,9.405-6.469H118.358c5.194,0,9.405,2.9,9.405,6.469v23.77c0,3.573-4.211,6.469-9.405,6.469" transform="translate(597.999 845.361)" fill="#d5fff5"/>
    <path id="Trazado_819196" data-name="Trazado 819196" d="M122.314,292.43H11.726C6.355,292.43,2,287.5,2,281.414V240.935c0-6.084,4.354-11.017,9.725-11.017H122.314c5.371,0,9.725,4.933,9.725,11.017v40.479c0,6.084-4.354,11.017-9.725,11.017" transform="translate(166.542 763.042)" fill="#d5fff5"/>
    <path id="Trazado_821577" data-name="Trazado 821577" d="M99.149,284.969H9.854c-4.337,0-7.853-4.344-7.853-9.7V239.62c0-5.358,3.516-9.7,7.853-9.7h89.3c4.337,0,7.853,4.344,7.853,9.7v35.647c0,5.358-3.516,9.7-7.853,9.7" transform="translate(1304.487 763.042)" fill="#d5fff5"/>
    <path id="Trazado_821560" data-name="Trazado 821560" d="M122.314,267.918H11.726c-5.371,0-9.725-3-9.725-6.7V236.615c0-3.7,4.354-6.7,9.725-6.7H122.314c5.371,0,9.725,3,9.725,6.7v24.606c0,3.7-4.354,6.7-9.725,6.7" transform="translate(315.487 765.214)" fill="#d5fff5"/>
    <path id="Trazado_821563" data-name="Trazado 821563" d="M122.314,267.918H11.726c-5.371,0-9.725-3-9.725-6.7V236.615c0-3.7,4.354-6.7,9.725-6.7H122.314c5.371,0,9.725,3,9.725,6.7v24.606c0,3.7-4.354,6.7-9.725,6.7" transform="translate(452.961 765.214)" fill="#d5fff5"/>
    <path id="Trazado_821566" data-name="Trazado 821566" d="M122.314,278.107H11.726c-5.371,0-9.725-3.8-9.725-8.492v-31.2c0-4.69,4.354-8.492,9.725-8.492H122.314c5.371,0,9.725,3.8,9.725,8.492v31.2c0,4.69-4.354,8.492-9.725,8.492" transform="translate(590.436 760.995)" fill="#d5fff5"/>
    <path id="Trazado_821569" data-name="Trazado 821569" d="M122.314,278.107H11.726c-5.371,0-9.725-3.8-9.725-8.492v-31.2c0-4.69,4.354-8.492,9.725-8.492H122.314c5.371,0,9.725,3.8,9.725,8.492v31.2c0,4.69-4.354,8.492-9.725,8.492" transform="translate(735.824 801.264)" fill="#d5fff5"/>
    <path id="Trazado_819198" data-name="Trazado 819198" d="M102.061,273.426H10.089A7.886,7.886,0,0,1,2,265.758V237.585a7.886,7.886,0,0,1,8.088-7.667h91.972a7.886,7.886,0,0,1,8.088,7.667v28.173a7.886,7.886,0,0,1-8.088,7.667" transform="translate(177.487 681.079)" fill="#d5fff5"/>
    <path id="Trazado_821578" data-name="Trazado 821578" d="M102.061,273.426H10.089A7.886,7.886,0,0,1,2,265.758V237.585a7.886,7.886,0,0,1,8.088-7.667h91.972a7.886,7.886,0,0,1,8.088,7.667v28.173a7.886,7.886,0,0,1-8.088,7.667" transform="translate(1302.487 681.254)" fill="#d5fff5"/>
    <path id="Trazado_821561" data-name="Trazado 821561" d="M102.061,273.426H10.089A7.886,7.886,0,0,1,2,265.758V237.585a7.886,7.886,0,0,1,8.088-7.667h91.972a7.886,7.886,0,0,1,8.088,7.667v28.173a7.886,7.886,0,0,1-8.088,7.667" transform="translate(326.487 681.079)" fill="#d5fff5"/>
    <path id="Trazado_821564" data-name="Trazado 821564" d="M102.061,273.426H10.089A7.886,7.886,0,0,1,2,265.758V237.585a7.886,7.886,0,0,1,8.088-7.667h91.972a7.886,7.886,0,0,1,8.088,7.667v28.173a7.886,7.886,0,0,1-8.088,7.667" transform="translate(463.961 681.079)" fill="#d5fff5"/>
    <path id="Trazado_821567" data-name="Trazado 821567" d="M115.316,273.426H11.16C6.1,273.426,2,269.993,2,265.758V237.585c0-4.234,4.1-7.667,9.159-7.667H115.316c5.058,0,9.159,3.433,9.159,7.667v28.173c0,4.234-4.1,7.667-9.159,7.667" transform="translate(597.999 681.86)" fill="#d5fff5"/>
    <path id="Trazado_821570" data-name="Trazado 821570" d="M115.316,273.426H11.16C6.1,273.426,2,269.993,2,265.758V237.585c0-4.234,4.1-7.667,9.159-7.667H115.316c5.058,0,9.159,3.433,9.159,7.667v28.173c0,4.234-4.1,7.667-9.159,7.667" transform="translate(743.388 681.86)" fill="#d5fff5"/>
    <path id="Trazado_821572" data-name="Trazado 821572" d="M115.316,273.426H11.16C6.1,273.426,2,269.993,2,265.758V237.585c0-4.234,4.1-7.667,9.159-7.667H115.316c5.058,0,9.159,3.433,9.159,7.667v28.173c0,4.234-4.1,7.667-9.159,7.667" transform="translate(888.776 681.86)" fill="#d5fff5"/>
    <path id="Trazado_821573" data-name="Trazado 821573" d="M115.316,273.426H11.16C6.1,273.426,2,269.993,2,265.758V237.585c0-4.234,4.1-7.667,9.159-7.667H115.316c5.058,0,9.159,3.433,9.159,7.667v28.173c0,4.234-4.1,7.667-9.159,7.667" transform="translate(1018.487 681.86)" fill="#d5fff5"/>
    <path id="Trazado_821574" data-name="Trazado 821574" d="M115.316,273.426H11.16C6.1,273.426,2,269.993,2,265.758V237.585c0-4.234,4.1-7.667,9.159-7.667H115.316c5.058,0,9.159,3.433,9.159,7.667v28.173c0,4.234-4.1,7.667-9.159,7.667" transform="translate(1159.487 681.86)" fill="#d5fff5"/>
    <path id="Trazado_819207" data-name="Trazado 819207" d="M80.62,276.455H8.356c-3.51,0-6.355-3.672-6.355-8.2V238.119c0-4.529,2.845-8.2,6.355-8.2H80.62c3.51,0,6.355,3.672,6.355,8.2v30.135c0,4.529-2.845,8.2-6.355,8.2" transform="translate(219.926 1023.207)" fill="#e8e8e8"/>
    <path id="Trazado_819208" data-name="Trazado 819208" d="M132.881,275.661H12.58C6.738,275.661,2,272.052,2,267.6v-29.62c0-4.452,4.737-8.061,10.579-8.061h120.3c5.842,0,10.579,3.609,10.579,8.061V267.6c0,4.452-4.737,8.061-10.579,8.061" transform="translate(310.127 1024.147)" fill="#e8e8e8"/>
    <path id="Trazado_821575" data-name="Trazado 821575" d="M132.881,321.887H12.58C6.738,321.887,2,314.63,2,305.679V246.126c0-8.951,4.737-16.208,10.579-16.208h120.3c5.842,0,10.579,7.257,10.579,16.208v59.553c0,8.951-4.737,16.208-10.579,16.208" transform="translate(1150.487 818.092)" fill="#e8e8e8"/>
    <path id="Trazado_819209" data-name="Trazado 819209" d="M102.06,276.6H10.089A8.158,8.158,0,0,1,2,268.373V238.145a8.158,8.158,0,0,1,8.088-8.227H102.06a8.158,8.158,0,0,1,8.088,8.227v30.228a8.158,8.158,0,0,1-8.088,8.227" transform="translate(457.236 1023.063)" fill="#e8e8e8"/>
    <text id="Clasificación" transform="translate(240.688 800.172)" font-size="16" font-family="Roboto-Bold, Roboto" font-weight="700"><tspan x="-46.504" y="0">Clasificación</tspan></text>
    <text id="Autoridades_sanitarias" data-name="Autoridades 
sanitarias" transform="translate(522.266 791.172)" font-size="16" font-family="Roboto-Bold, Roboto" font-weight="700"><tspan x="-45.699" y="0">Autoridades </tspan><tspan x="-35.438" y="19">sanitarias</tspan></text>
    <text id="Normatividad_ambiental" data-name="Normatividad
 ambiental" transform="translate(804.488 789.172)" font-size="16" font-family="Roboto-Bold, Roboto" font-weight="700"><tspan x="-48.598" y="0">Normatividad</tspan><tspan x="-37.75" y="19" xml:space="preserve"> ambiental</tspan></text>
    <text id="Puntaje_de_riesgo" data-name="Puntaje de
 riesgo" transform="translate(1081.488 791.172)" font-size="16" font-family="Roboto-Bold, Roboto" font-weight="700"><tspan x="-38.336" y="0">Puntaje de</tspan><tspan x="-24.559" y="19" xml:space="preserve"> riesgo</tspan></text>
    <text id="Establecimientos" transform="translate(382.488 800.172)" font-size="16" font-family="Roboto-Bold, Roboto" font-weight="700"><tspan x="-61.922" y="0">Establecimientos</tspan></text>
    <text id="Clasificación_de_residuos_sólidos." data-name="Clasificación
 de residuos
 sólidos." transform="translate(661 794.172)" font-size="16" font-family="Roboto-Bold, Roboto" font-weight="700"><tspan x="-46.504" y="0">Clasificación</tspan><tspan x="-43.84" y="16" xml:space="preserve"> de residuos</tspan><tspan x="-30.34" y="32" xml:space="preserve"> sólidos.</tspan></text>
    <text id="Recolección_de_información_y_condiciones_sanitarias" data-name="Recolección de
 información
 y condiciones
 sanitarias" transform="translate(945.918 786.172)" font-size="16" font-family="Roboto-Bold, Roboto" font-weight="700"><tspan x="-54.863" y="0">Recolección de</tspan><tspan x="-45.414" y="16" xml:space="preserve"> información</tspan><tspan x="-51.539" y="32" xml:space="preserve"> y condiciones</tspan><tspan x="-37.43" y="48" xml:space="preserve"> sanitarias</tspan></text>
    <text id="Reporte_sanitario" data-name="Reporte
 sanitario" transform="translate(1221.829 791.172)" font-size="16" font-family="Roboto-Bold, Roboto" font-weight="700"><tspan x="-28.598" y="0">Reporte</tspan><tspan x="-33.551" y="19" xml:space="preserve"> sanitario</tspan></text>
    <text id="Tipos_de_procedimientos" data-name="Tipos de
 procedimientos" transform="translate(1358.488 791.172)" font-size="16" font-family="Roboto-Bold, Roboto" font-weight="700"><tspan x="-31.035" y="0">Tipos de</tspan><tspan x="-57.996" y="19" xml:space="preserve"> procedimientos</tspan></text>
    <text id="Concepto_desfavorable" data-name="Concepto
desfavorable" transform="translate(233.488 1116.979)" font-size="16" font-family="Roboto-Bold, Roboto" font-weight="700"><tspan x="-34.348" y="0">Concepto</tspan><tspan x="-46.59" y="19">desfavorable</tspan></text>
    <text id="Control_vectorial_" data-name="Control
 vectorial
" transform="translate(1358.488 1116.979)" font-size="16" font-family="Roboto-Bold, Roboto" font-weight="700"><tspan x="-26.363" y="0">Control</tspan><tspan x="-33.039" y="19" xml:space="preserve"> vectorial</tspan><tspan font-family="Roboto-Bold"><tspan x="0" y="38"></tspan></tspan></text>
    <text id="Inmunización" transform="translate(1358.488 1209.173)" font-size="16" font-family="Roboto-Bold, Roboto" font-weight="700"><tspan x="-48.473" y="0">Inmunización</tspan></text>
    <text id="Tiendas" transform="translate(382.488 1098.021)" font-size="16" font-family="Roboto-Bold, Roboto" font-weight="700"><tspan x="-28.785" y="0">Tiendas</tspan></text>
    <text id="Nivel_nacional" data-name="Nivel nacional" transform="translate(519.963 1098.021)" font-size="16" font-family="Roboto-Bold, Roboto" font-weight="700"><tspan x="-50.676" y="0">Nivel nacional</tspan></text>
    <text id="Composición" transform="translate(660.725 1098.17)" font-size="16" font-family="Roboto-Bold, Roboto" font-weight="700"><tspan x="-47.242" y="0">Composición</tspan></text>
    <text id="Favorable_con_requerimientos" data-name="Favorable con
 requerimientos" transform="translate(233.488 1019.132)" font-size="16" font-family="Roboto-Bold, Roboto" font-weight="700"><tspan x="-50.195" y="0">Favorable con</tspan><tspan x="-56.594" y="19" xml:space="preserve"> requerimientos</tspan></text>
    <text id="Saneamiento_domiciliario" data-name="Saneamiento
 domiciliario" transform="translate(1358.488 1017.173)" font-size="16" font-family="Roboto-Bold, Roboto" font-weight="700"><tspan x="-47.262" y="0">Saneamiento</tspan><tspan x="-44.457" y="19" xml:space="preserve"> domiciliario</tspan></text>
    <text id="_Bares" data-name=" Bares" transform="translate(382.488 1022.169)" font-size="16" font-family="Roboto-Bold, Roboto" font-weight="700"><tspan x="-22.668" y="0" xml:space="preserve"> Bares</tspan></text>
    <text id="Nivel_intermedio" data-name="Nivel intermedio" transform="translate(520.963 1019.169)" font-size="16" font-family="Roboto-Bold, Roboto" font-weight="700"><tspan x="-59.148" y="0">Nivel intermedio</tspan></text>
    <text id="Origen_de_los_residuos" data-name="Origen de
 los residuos" transform="translate(657.438 1008.952)" font-size="16" font-family="Roboto-Bold, Roboto" font-weight="700"><tspan x="-34.758" y="0">Origen de</tspan><tspan x="-45.766" y="19" xml:space="preserve"> los residuos</tspan></text>
    <text id="Decreto_506_del_2016" data-name="Decreto 506 
del 2016" transform="translate(802.826 1049.222)" font-size="16" font-family="Roboto-Bold, Roboto" font-weight="700"><tspan x="-45.727" y="0">Decreto 506 </tspan><tspan x="-31.305" y="19">del 2016</tspan></text>
    <text id="Favorable" transform="translate(233.488 937.169)" font-size="16" font-family="Roboto-Bold, Roboto" font-weight="700"><tspan x="-35.027" y="0">Favorable</tspan></text>
    <text id="Saneamiento_ambiental" data-name="Saneamiento
 ambiental" transform="translate(1358.488 929.172)" font-size="16" font-family="Roboto-Bold, Roboto" font-weight="700"><tspan x="-47.262" y="0">Saneamiento</tspan><tspan x="-37.75" y="19" xml:space="preserve"> ambiental</tspan></text>
    <text id="Restaurantes" transform="translate(382.488 937.169)" font-size="16" font-family="Roboto-Bold, Roboto" font-weight="700"><tspan x="-47.723" y="0">Restaurantes</tspan></text>
    <text id="Nivel_local" data-name="Nivel local" transform="translate(519.963 937.169)" font-size="16" font-family="Roboto-Bold, Roboto" font-weight="700"><tspan x="-37.426" y="0">Nivel local</tspan></text>
    <text id="Peligrosidad_de_los_residuos" data-name="Peligrosidad 
de los residuos" transform="translate(660 930.412)" font-size="16" font-family="Roboto-Bold, Roboto" font-weight="700"><tspan x="-47.074" y="0">Peligrosidad </tspan><tspan x="-54.598" y="19">de los residuos</tspan></text>
    <text id="Ley_99_de_1993" data-name="Ley 99 
de 1993" transform="translate(805.389 930.412)" font-size="16" font-family="Roboto-Bold, Roboto" font-weight="700"><tspan x="-25.785" y="0">Ley 99 </tspan><tspan x="-29.184" y="19">de 1993</tspan></text>
    <text id="Modelo_SOA" data-name="Modelo SOA" transform="translate(950.777 939.412)" font-size="16" font-family="Roboto-Bold, Roboto" font-weight="700"><tspan x="-44.742" y="0">Modelo SOA</tspan></text>
    <text id="_1_al_5_5_mayor_riesgo_" data-name="1 al 5
 (5 mayor riesgo)" transform="translate(1081.488 926.953)" font-size="16" font-family="Roboto-Bold, Roboto" font-weight="700"><tspan x="-19.574" y="0">1 al 5</tspan><tspan font-size="14"><tspan x="-53.652" y="19" xml:space="preserve"> (5 mayor riesgo)</tspan></tspan></text>
    <text id="Ley_9_de_1979" data-name="Ley 9
 de 1979" transform="translate(1222.488 926.953)" font-size="16" font-family="Roboto-Bold, Roboto" font-weight="700"><tspan x="-19.203" y="0">Ley 9</tspan><tspan x="-31.176" y="19" xml:space="preserve"> de 1979</tspan></text>
    <text id="Calidad_del_agua" data-name="Calidad 
del agua" transform="translate(264.413 1273.102)" font-size="15" font-family="Roboto-Bold, Roboto" font-weight="700"><tspan x="-27.246" y="0">Calidad </tspan><tspan x="-28.656" y="19">del agua</tspan></text>
    <text id="_Higiene_dentro_de_las_instalaciones" data-name=" Higiene dentro
 de las instalaciones" transform="translate(380.979 1274.172)" font-size="15" font-family="Roboto-Bold, Roboto" font-weight="700"><tspan x="-51.46" y="0" xml:space="preserve"> Higiene dentro</tspan><tspan x="-68.61" y="19" xml:space="preserve"> de las instalaciones</tspan></text>
    <text id="La_prevención_y_control_de_agentes_biológicos_físicos_y_químicos" data-name="La prevención y
 control de agentes
 biológicos, físicos
 y químicos" transform="translate(1222.488 1071.116)" font-size="15" font-family="Roboto-Bold, Roboto" font-weight="700"><tspan x="-52.815" y="0">La prevención y</tspan><tspan x="-64.603" y="19" xml:space="preserve"> control de agentes</tspan><tspan x="-63.12" y="38" xml:space="preserve"> biológicos, físicos</tspan><tspan x="-38.478" y="57" xml:space="preserve"> y químicos</tspan></text>
    <text id="Formación_del_personal" data-name="Formación 
del personal" transform="translate(515.67 1271.821)" font-size="15" font-family="Roboto-Bold, Roboto" font-weight="700"><tspan x="-37.731" y="0">Formación </tspan><tspan x="-41.455" y="19">del personal</tspan></text>
    <rect id="Rectángulo_377695" data-name="Rectángulo 377695" width="755" height="56" rx="15" transform="translate(422.488 583.632)" fill="#ffae7e"/>
    <text id="Caracterización_de_condiciones_sanitarias_de_establecimientos_según_normativa" data-name="Caracterización de condiciones sanitarias de establecimientos según normativa" transform="translate(800.488 617.632)" font-size="18" font-family="Roboto-Bold, Roboto" font-weight="700"><tspan x="-322.915" y="0">Caracterización de condiciones sanitarias de establecimientos según normativa</tspan></text>
    <path id="Trazado_821550" data-name="Trazado 821550" d="M-12470.488-9506h1120.677" transform="translate(12703.477 10243.172)" fill="none" stroke="#615504" stroke-width="2"/>
  </g>
</svg>
