<svg xmlns="http://www.w3.org/2000/svg" xmlns:xlink="http://www.w3.org/1999/xlink" width="503" height="668" viewBox="0 0 503 668">
  <defs>
    <linearGradient id="linear-gradient" x1="0.5" x2="0.5" y2="1" gradientUnits="objectBoundingBox">
      <stop offset="0" stop-color="#defff8"/>
      <stop offset="0.803" stop-color="#eaf5ff"/>
      <stop offset="1" stop-color="#f0feff"/>
    </linearGradient>
  </defs>
  <g id="Grupo_1074671" data-name="Grupo 1074671" transform="translate(6756 8806)">
    <g id="Grupo_1074670" data-name="Grupo 1074670">
      <rect id="Rectángulo_376022" data-name="Rectángulo 376022" width="503" height="668" transform="translate(-6253 -8138) rotate(180)" fill="url(#linear-gradient)"/>
    </g>
    <g id="Grupo_1073536" data-name="Grupo 1073536" transform="translate(4 126)">
      <rect id="Rectángulo_377741" data-name="Rectángulo 377741" width="141" height="54" rx="20" transform="translate(-6654 -8660.445)" fill="#c1e29a"/>
      <rect id="Rectángulo_377742" data-name="Rectángulo 377742" width="127" height="54" rx="20" transform="translate(-6654 -8502.449)" fill="#c1e29a"/>
      <text id="Higiene_en_las_instalaciones" data-name="Higiene en
 las instalaciones" transform="translate(-6585.5 -8636.445)" font-size="16" font-family="Roboto-Bold, Roboto" font-weight="700"><tspan x="-38.387" y="0">Higiene en</tspan><tspan x="-62.359" y="18" xml:space="preserve"> las instalaciones</tspan></text>
      <text id="Formación_de_personal" data-name="Formación de 
personal" transform="translate(-6590.334 -8478.449)" font-size="16" font-family="Roboto-Bold, Roboto" font-weight="700"><tspan x="-51.07" y="0">Formación de </tspan><tspan x="-31.273" y="18">personal</tspan></text>
      <text id="Se_revisa" data-name="Se revisa" transform="translate(-6708 -8574.087)" font-size="16" font-family="Roboto-Bold, Roboto" font-weight="700"><tspan x="-32.918" y="0">Se revisa</tspan></text>
      <text id="Para" transform="translate(-6503.312 -8306.438)" font-size="16" font-family="Roboto-Bold, Roboto" font-weight="700"><tspan x="-16.496" y="0">Para</tspan></text>
      <path id="Trazado_819303" data-name="Trazado 819303" d="M-6891-9838.016V-9556.4" transform="translate(183 963)" fill="none" stroke="#615504" stroke-width="2"/>
      <path id="Trazado_822078" data-name="Trazado 822078" d="M-6891-9838v31" transform="translate(3310.999 -15364.308) rotate(-90)" fill="none" stroke="#615504" stroke-width="2"/>
      <path id="Trazado_822133" data-name="Trazado 822133" d="M-6891-9838v21.353" transform="translate(3293.146 -15201.938) rotate(-90)" fill="none" stroke="#615504" stroke-width="2"/>
      <path id="Trazado_822135" data-name="Trazado 822135" d="M-6891-9838v21.353" transform="translate(3354.876 -15201.938) rotate(-90)" fill="none" stroke="#615504" stroke-width="2"/>
      <path id="Trazado_822076" data-name="Trazado 822076" d="M-6891-9838v12.667" transform="translate(3171.332 -15524.445) rotate(-90)" fill="none" stroke="#615504" stroke-width="2"/>
      <path id="Trazado_822130" data-name="Trazado 822130" d="M-6891-9838v41.333" transform="translate(3129.999 -15436.419) rotate(-90)" fill="none" stroke="#615504" stroke-width="2"/>
      <path id="Trazado_822136" data-name="Trazado 822136" d="M-6891-9838v41.333" transform="translate(3129.999 -15766) rotate(-90)" fill="none" stroke="#615504" stroke-width="2"/>
      <path id="Trazado_822072" data-name="Trazado 822072" d="M0,282V0H22.46" transform="translate(-6327.252 -8593.398) rotate(90)" fill="none" stroke="#615504" stroke-width="2"/>
      <rect id="Rectángulo_377759" data-name="Rectángulo 377759" width="103.707" height="65.5" rx="20" transform="translate(-6549.041 -8793)" fill="#ffd4bb"/>
      <rect id="Rectángulo_377744" data-name="Rectángulo 377744" width="87.167" height="36" rx="18" transform="translate(-6647.667 -8576.253)" fill="#ffd4bb"/>
      <rect id="Rectángulo_377745" data-name="Rectángulo 377745" width="90" height="36" rx="18" transform="translate(-6559 -8575.642)" fill="#ffd4bb"/>
      <rect id="Rectángulo_377746" data-name="Rectángulo 377746" width="85" height="36" rx="18" transform="translate(-6463.999 -8575.142)" fill="#ffd4bb"/>
      <rect id="Rectángulo_377747" data-name="Rectángulo 377747" width="84.417" height="36" rx="18" transform="translate(-6372.417 -8576.253)" fill="#ffd4bb"/>
      <text id="Plan_de_control_de_agua" data-name="Plan de 
control
de agua" transform="translate(-6498 -8773)" font-size="16" font-family="Roboto-Bold, Roboto" font-weight="700"><tspan x="-28.867" y="0">Plan de </tspan><tspan x="-25.301" y="18">control</tspan><tspan x="-28.445" y="36">de agua</tspan></text>
      <text id="Techos" transform="translate(-6605.001 -8552.253)" font-size="16" font-family="Roboto-Bold, Roboto" font-weight="700"><tspan x="-26.211" y="0">Techos</tspan></text>
      <text id="Paredes" transform="translate(-6514 -8551.642)" font-size="16" font-family="Roboto-Bold, Roboto" font-weight="700"><tspan x="-29.52" y="0">Paredes</tspan></text>
      <text id="Suelo" transform="translate(-6417.393 -8551.142)" font-size="16" font-family="Roboto-Bold, Roboto" font-weight="700"><tspan x="-20.363" y="0">Suelo</tspan></text>
      <text id="Baños" transform="translate(-6327.252 -8552.253)" font-size="16" font-family="Roboto-Bold, Roboto" font-weight="700"><tspan x="-22.512" y="0">Baños</tspan></text>
      <path id="Trazado_819306" data-name="Trazado 819306" d="M-7206-9828v-25.333h180.25" transform="translate(3186.667 -15596.077) rotate(-90)" fill="none" stroke="#707070" stroke-width="2"/>
      <path id="Trazado_822070" data-name="Trazado 822070" d="M0,25.333V0H90" transform="translate(-6433.585 -8709.834) rotate(-90)" fill="none" stroke="#707070" stroke-width="2"/>
      <path id="Trazado_822071" data-name="Trazado 822071" d="M81,25.333V0H0" transform="translate(-6433.585 -8717.834) rotate(-90)" fill="none" stroke="#707070" stroke-width="2"/>
      <path id="Trazado_819317" data-name="Trazado 819317" d="M-7081-9828v-25.333h-326" transform="translate(3186.667 -15842.334) rotate(-90)" fill="none" stroke="#707070" stroke-width="2"/>
      <rect id="Rectángulo_377341" data-name="Rectángulo 377341" width="159.238" height="62.5" rx="20" transform="translate(-6652.667 -8421.327)" fill="#c1e29a"/>
      <text id="Equipamiento_del_establecimiento" data-name="Equipamiento del
establecimiento" transform="translate(-6571.5 -8393.577)" font-size="16" font-family="Roboto-Bold, Roboto" font-weight="700"><tspan x="-62.242" y="0">Equipamiento del</tspan><tspan x="-57.633" y="18">establecimiento</tspan></text>
      <path id="Trazado_822131" data-name="Trazado 822131" d="M-6891-9838v21.792" transform="translate(3267.166 -15651.334) rotate(-90)" fill="none" stroke="#615504" stroke-width="2"/>
      <rect id="Rectángulo_377350" data-name="Rectángulo 377350" width="172" height="47" rx="20" transform="translate(-6497.334 -8496.808)" fill="#ffd4bb"/>
      <rect id="Rectángulo_377351" data-name="Rectángulo 377351" width="110.666" height="51" rx="20" transform="translate(-6650 -8336.438)" fill="#ffd4bb"/>
      <text id="Certificación_para_ejercer_las_labores" data-name="Certificación para
ejercer las labores" transform="translate(-6410.334 -8476.808)" font-size="16" font-family="Roboto-Bold, Roboto" font-weight="700"><tspan x="-63.996" y="0">Certificación para</tspan><tspan x="-66.211" y="18">ejercer las labores</tspan></text>
      <text id="Enfocado_en_la_cocina" data-name="Enfocado
 en la cocina" transform="translate(-6594.041 -8315.438)" font-size="16" font-family="Roboto-Bold, Roboto" font-weight="700"><tspan x="-33.863" y="0">Enfocado</tspan><tspan x="-44.949" y="18" xml:space="preserve"> en la cocina</tspan></text>
      <rect id="Rectángulo_377353" data-name="Rectángulo 377353" width="130.585" height="52" rx="20" transform="translate(-6418.585 -8821.334)" fill="#e3ffc2"/>
      <rect id="Rectángulo_377748" data-name="Rectángulo 377748" width="188.749" height="51" rx="20" transform="translate(-6463.999 -8336.438)" fill="#e3ffc2"/>
      <rect id="Rectángulo_377743" data-name="Rectángulo 377743" width="132.626" height="64.5" rx="20" transform="translate(-6420.626 -8738.834)" fill="#e3ffc2"/>
      <path id="Trazado_822068" data-name="Trazado 822068" d="M-6891-9813.332V-9838" transform="translate(183 1267.913)" fill="none" stroke="#615504" stroke-width="2"/>
      <path id="Trazado_822069" data-name="Trazado 822069" d="M0,13.374V0" transform="translate(-6446.959 -8759.723) rotate(-90)" fill="none" stroke="#615504" stroke-width="2"/>
      <text id="Estar_al_día" data-name="Estar al día" transform="translate(-6353.292 -8791.334)" font-size="16" font-family="Roboto-Bold, Roboto" font-weight="700"><tspan x="-39.836" y="0">Estar al día</tspan></text>
      <text id="Presentarlo_en_el_momento_de_la_inspección" data-name="Presentarlo
en el momento 
de la inspección" transform="translate(-6350.252 -8721.334)" font-size="16" font-family="Roboto-Bold, Roboto" font-weight="700"><tspan x="-41.801" y="0">Presentarlo</tspan><tspan x="-55.516" y="18">en el momento </tspan><tspan x="-58.238" y="36">de la inspección</tspan></text>
      <text id="Evitar_que_se_generen_inconformidades" data-name="Evitar que se generen
 inconformidades" transform="translate(-6369.624 -8315.438)" font-size="16" font-family="Roboto-Bold, Roboto" font-weight="700"><tspan x="-77.551" y="0">Evitar que se generen</tspan><tspan x="-62.867" y="18" xml:space="preserve"> inconformidades</tspan></text>
      <path id="Trazado_822129" data-name="Trazado 822129" d="M-6681-9838v12.333" transform="translate(3171.666 -15156.449) rotate(-90)" fill="none" stroke="#615504" stroke-width="2"/>
      <path id="Trazado_822073" data-name="Trazado 822073" d="M0,0H17.3" transform="translate(-6418.75 -8593.557) rotate(90)" fill="none" stroke="#707070" stroke-width="1"/>
      <path id="Trazado_822074" data-name="Trazado 822074" d="M0,0H17.3" transform="translate(-6514 -8593.557) rotate(90)" fill="none" stroke="#707070" stroke-width="1"/>
      <path id="Trazado_822075" data-name="Trazado 822075" d="M0,0H30.192" transform="translate(-6609.25 -8606.445) rotate(90)" fill="none" stroke="#707070" stroke-width="1"/>
      <path id="Trazado_822134" data-name="Trazado 822134" d="M0,0H24.192" transform="translate(-6590.5 -8360.631) rotate(90)" fill="none" stroke="#707070" stroke-width="1"/>
      <rect id="Rectángulo_377340" data-name="Rectángulo 377340" width="97.5" height="54" rx="20" transform="translate(-6658 -8787)" fill="#c1e29a"/>
      <text id="Calidad_de_agua" data-name="Calidad 
de agua" transform="translate(-6609 -8764)" font-size="16" font-family="Roboto-Bold, Roboto" font-weight="700"><tspan x="-29.063" y="0">Calidad </tspan><tspan x="-28.445" y="18">de agua</tspan></text>
      <rect id="Rectángulo_377338" data-name="Rectángulo 377338" width="387" height="40" rx="20" transform="translate(-6675 -8895)" fill="#ffae7e"/>
      <text id="Procedimientos_sanitarios" data-name="Procedimientos sanitarios" transform="translate(-6576 -8869)" font-size="16" font-family="Roboto-Bold, Roboto" font-weight="700"><tspan x="0" y="0">Procedimientos sanitarios</tspan></text>
    </g>
  </g>
</svg>
