<svg xmlns="http://www.w3.org/2000/svg" xmlns:xlink="http://www.w3.org/1999/xlink" width="505" height="392" viewBox="0 0 505 392">
  <defs>
    <linearGradient id="linear-gradient" x1="0.5" x2="0.5" y2="1" gradientUnits="objectBoundingBox">
      <stop offset="0" stop-color="#defff8"/>
      <stop offset="0.803" stop-color="#eaf5ff"/>
      <stop offset="1" stop-color="#f0feff"/>
    </linearGradient>
    <linearGradient id="linear-gradient-2" x1="1" y1="0.5" x2="0" y2="0.5" gradientUnits="objectBoundingBox">
      <stop offset="0" stop-color="#fcad7e" stop-opacity="0"/>
      <stop offset="0.883" stop-color="#f2c5ab"/>
      <stop offset="1" stop-color="#ffc6a5"/>
    </linearGradient>
    <linearGradient id="linear-gradient-3" x1="1" y1="0.5" x2="0" y2="0.5" gradientUnits="objectBoundingBox">
      <stop offset="0" stop-color="#aba370" stop-opacity="0"/>
      <stop offset="0.586" stop-color="#a2974c"/>
      <stop offset="1" stop-color="#9e955c"/>
    </linearGradient>
    <linearGradient id="linear-gradient-4" x1="1" y1="0.5" x2="0" y2="0.5" gradientUnits="objectBoundingBox">
      <stop offset="0" stop-color="#e7ffd1" stop-opacity="0.02"/>
      <stop offset="0.427" stop-color="#c1e29a"/>
      <stop offset="1" stop-color="#c1e29a"/>
    </linearGradient>
    <clipPath id="clip-path">
      <rect id="Rectángulo_377777" data-name="Rectángulo 377777" width="286.31" height="304.046" fill="none"/>
    </clipPath>
  </defs>
  <g id="Grupo_1074670" data-name="Grupo 1074670" transform="translate(6733 5100)">
    <rect id="Rectángulo_377785" data-name="Rectángulo 377785" width="505" height="392" transform="translate(-6228 -4708) rotate(180)" fill="url(#linear-gradient)"/>
    <g id="Grupo_1073554" data-name="Grupo 1073554" transform="translate(-1 10.353)">
      <rect id="Rectángulo_377790" data-name="Rectángulo 377790" width="337" height="122" transform="translate(-6577 -5065)" fill="url(#linear-gradient-2)"/>
      <rect id="Rectángulo_377787" data-name="Rectángulo 377787" width="337" height="61" transform="translate(-6577 -4943)" fill="url(#linear-gradient-3)"/>
      <rect id="Rectángulo_377786" data-name="Rectángulo 377786" width="337" height="57" transform="translate(-6577 -4882)" fill="url(#linear-gradient-4)"/>
      <rect id="Rectángulo_377789" data-name="Rectángulo 377789" width="206" height="29" rx="14.5" transform="translate(-6500 -4927)" fill="#615504"/>
      <rect id="Rectángulo_377791" data-name="Rectángulo 377791" width="242" height="30" rx="15" transform="translate(-6564 -5019)" fill="#ffae7e"/>
      <rect id="Rectángulo_377788" data-name="Rectángulo 377788" width="227" height="32" rx="16" transform="translate(-6476 -4872)" fill="#a0c573"/>
      <text id="Nivel_intermedio" data-name="Nivel intermedio" transform="translate(-6459 -4907)" fill="#fff" font-size="18" font-family="Roboto-Bold, Roboto" font-weight="700"><tspan x="0" y="0">Nivel intermedio</tspan></text>
      <text id="Nivel_nacional" data-name="Nivel nacional" transform="translate(-6480 -4998)" font-size="18" font-family="Roboto-Bold, Roboto" font-weight="700"><tspan x="0" y="0">Nivel nacional</tspan></text>
      <text id="Nivel_local" data-name="Nivel local" transform="translate(-6397 -4850)" font-size="18" font-family="Roboto-Bold, Roboto" font-weight="700"><tspan x="0" y="0">Nivel local</tspan></text>
      <g id="Grupo_1073553" data-name="Grupo 1073553" transform="translate(-6718 -5066.353)">
        <g id="Grupo_1073551" data-name="Grupo 1073551" clip-path="url(#clip-path)">
          <path id="Trazado_822652" data-name="Trazado 822652" d="M29.387,184.46l-.172.195c-.227.5-.415,1.016-.691,1.49-2.489,4.271-5,8.532-7.493,12.8q-4.662,7.976-9.309,15.96c-3.395,5.851-6.7,11.749-10.168,17.559-3.158,5.283-1.422,10.653,4.5,13.267,3.775,1.665,7.579,3.271,11.371,4.9,6.648,2.863,13.351,5.621,19.928,8.615,6.2,2.823,12.611,5.206,18.823,8.008,8.984,4.053,18.093,7.869,27.15,11.785,2.936,1.27,5.822,2.651,8.819,3.779,3.079,1.157,6.029,2.583,9.133,3.71,2.178.791,4.344,2.154,6.611,2.98,1.487.543,2.726,1.809,4.525,1.584,1.837,1.924,4.533,2.575,6.879,3.568,6.151,2.607,12.3,5.208,18.393,7.937a13.06,13.06,0,0,0,5.359,1.375,8.364,8.364,0,0,0,3.583-.656c4.975-1.6,9.522-4.069,14.3-6.074,13.762-5.782,27.443-11.73,41.148-17.631,9.523-4.1,19.027-8.241,28.55-12.345,9.879-4.259,19.78-8.471,29.649-12.75,6.767-2.934,13.535-5.867,20.186-9.025a9.924,9.924,0,0,0,5.567-6.335c.941-3.024-.677-5.48-2-7.92-2.936-5.408-6.241-10.64-9.268-16.01-3.6-6.385-7.389-12.678-11.153-18.982-2.454-4.108-4.615-8.371-7.515-12.248-1.433-2.694-3.134-5.255-4.665-7.9-3.591-6.2-7.059-12.461-10.892-18.544-2.323-3.687-4.321-7.549-6.5-11.314-2.773-4.78-5.58-9.543-8.384-14.309q-3.564-6.058-7.148-12.1a20.986,20.986,0,0,0-2.281-4.221q-4.163-7.2-8.386-14.363c-1.965-3.344-3.987-6.658-5.941-10.007-3.267-5.6-6.48-11.234-9.752-16.834q-11.128-19.042-22.292-38.065-4.726-8.074-9.437-16.155c-2.827-4.843-5.759-9.638-8.441-14.549a9.571,9.571,0,0,0-9.6-5.389,7.859,7.859,0,0,0-6.907,3.174,60.677,60.677,0,0,0-3.736,5.946Q126.5,18.553,121.051,27.63C117.659,33.261,114.478,39,111.2,44.695c-2,3.477-4.279,6.817-6,10.431-1.485,2.424-3.012,4.827-4.448,7.276-2.365,4.035-4.654,8.111-7.011,12.153-1.821,3.12-3.718,6.2-5.547,9.321-1.958,3.339-3.864,6.7-5.813,10.047-2.251,3.862-4.6,7.676-6.767,11.58-1.992,3.592-4.174,7.08-6.269,10.615-.6,1.012-1.562,1.952-1.693,3.207-.09.042-.225.062-.263.128-2.3,3.988-4.628,7.961-6.874,11.975-1.357,2.422-2.867,4.761-4.3,7.143-1.583,2.634-2.989,5.36-4.546,8.01-1.221,2.076-2.827,4.057-3.8,6.134-1.534,3.276-3.736,6.181-5.267,9.424-1.186,2.511-3.026,4.683-4.275,7.178-1.426,2.851-3.211,5.546-4.762,8.345-1.2,2.169-2.84,4.116-3.757,6.423l-.428.375" transform="translate(0 0.04)" fill="#f6f8fa"/>
          <path id="Trazado_822653" data-name="Trazado 822653" d="M224.408,154.88c2.9,3.875,5.061,8.139,7.514,12.248,3.765,6.3,7.555,12.6,11.154,18.982,3.027,5.37,6.33,10.6,9.266,16.01,1.323,2.44,2.941,4.9,2,7.92a9.924,9.924,0,0,1-5.567,6.335c-6.653,3.158-13.42,6.091-20.186,9.025-9.869,4.279-19.771,8.491-29.649,12.749-9.522,4.105-19.026,8.245-28.55,12.346-13.7,5.9-27.385,11.848-41.148,17.629-4.776,2.007-9.324,4.476-14.3,6.075a8.357,8.357,0,0,1-3.585.657,7.229,7.229,0,0,1,0-2.483q-.033-34.636-.014-69.273a5.967,5.967,0,0,0,2.138-.57c5.091-2.183,10.2-4.328,15.258-6.574,3.538-1.571,7.068-3.215,10.65-4.641,6.816-2.712,13.467-5.743,20.226-8.557,4.406-1.834,8.724-3.894,13.132-5.68,6.4-2.594,12.683-5.423,19.078-8.027,7.339-2.987,14.582-6.179,21.832-9.348,3.6-1.572,7.319-2.916,10.743-4.821" transform="translate(31.686 29.161)" fill="#729843"/>
          <path id="Trazado_822654" data-name="Trazado 822654" d="M143.038,203.084q0,34.638.013,69.274a7.159,7.159,0,0,0,0,2.482,13.079,13.079,0,0,1-5.359-1.375C131.6,270.738,9.83,218.262,6.058,216.6c-5.927-2.614-7.663-7.984-4.5-13.267,3.472-5.811,6.774-11.709,10.167-17.559q4.637-7.991,9.31-15.961,3.743-6.4,7.493-12.8c.275-.474.464-.992.691-1.487.248.077.279-.01.171-.2l.425-.373a43.239,43.239,0,0,1,4.906,2.083c2.182,1.132,4.532,1.993,6.811,2.967q13.451,5.757,26.906,11.51,10.326,4.41,20.666,8.8,10.623,4.526,21.245,9.058c4.993,2.134,10.069,4.122,14.945,6.467,4.954,2.383,10.177,4.177,15.21,6.379a4.336,4.336,0,0,0,2.521.75Z" transform="translate(0 29.174)" fill="#c1e29a"/>
          <path id="Trazado_822655" data-name="Trazado 822655" d="M224.386,165.048c-3.424,1.9-7.145,3.249-10.743,4.821-7.25,3.169-14.493,6.361-21.832,9.348-6.395,2.6-12.676,5.433-19.078,8.027-4.408,1.786-8.727,3.846-13.133,5.68-6.76,2.814-13.41,5.845-20.226,8.557-3.582,1.426-7.112,3.071-10.65,4.641-5.057,2.246-10.167,4.391-15.258,6.574a5.967,5.967,0,0,1-2.138.57l-.015-.116q.01-40.079.021-80.16,3-1.246,6-2.5c9.869-4.132,19.615-8.508,29.543-12.523,4.741-1.918,9.327-4.155,14.079-6.076,7.482-3.023,14.834-6.318,22.251-9.479,1.2-.51,2.229-1.349,3.585-1.541q3.575,6.051,7.149,12.105c2.8,4.765,5.61,9.529,8.384,14.309,2.183,3.763,4.18,7.626,6.5,11.314,3.833,6.082,7.3,12.344,10.89,18.544,1.533,2.645,3.234,5.206,4.667,7.9" transform="translate(31.708 18.993)" fill="#615504"/>
          <path id="Trazado_822656" data-name="Trazado 822656" d="M136.433,133.07q-.01,40.079-.021,80.159a4.329,4.329,0,0,1-2.521-.749c-5.031-2.2-10.256-4-15.21-6.379-4.876-2.344-9.953-4.334-14.947-6.468q-10.617-4.536-21.243-9.058-10.334-4.4-20.668-8.8-13.456-5.747-26.906-11.509c-2.279-.976-4.627-1.836-6.81-2.968a43.459,43.459,0,0,0-4.906-2.082c.921-2.31,2.559-4.258,3.761-6.426,1.551-2.8,3.334-5.495,4.76-8.345,1.249-2.5,3.09-4.666,4.275-7.178,1.53-3.243,3.733-6.148,5.267-9.424.973-2.077,2.579-4.058,3.8-6.134,1.557-2.649,2.963-5.375,4.546-8.01,1.431-2.381,2.941-4.72,4.3-7.143,2.247-4.014,4.574-7.988,6.874-11.975.04-.067.173-.087.263-.128a42.609,42.609,0,0,0,7.656,3.914c4.037,1.775,8.113,3.479,12.175,5.2q11.313,4.805,22.629,9.606c4.787,2.038,9.557,4.111,14.342,6.153,4.975,2.123,9.967,4.214,14.934,6.354a13.474,13.474,0,0,0,3.653,1.388" transform="translate(6.609 18.913)" fill="#8b813b"/>
          <path id="Trazado_822657" data-name="Trazado 822657" d="M201.222,115.607q-4.163-7.2-8.386-14.363c-1.965-3.344-3.988-6.658-5.941-10.007-3.267-5.6-6.48-11.234-9.752-16.834Q166.014,55.362,154.85,36.338q-4.726-8.074-9.437-16.155c-2.827-4.843-5.759-9.638-8.441-14.549a9.571,9.571,0,0,0-9.6-5.389,7.859,7.859,0,0,0-6.907,3.174,60.677,60.677,0,0,0-3.736,5.946Q111.5,18.553,106.052,27.63C102.66,33.261,99.479,39,96.205,44.694c-2,3.478-4.279,6.818-6,10.432-1.485,2.424-3.012,4.827-4.448,7.276-2.365,4.035-4.654,8.111-7.011,12.153-1.821,3.12-3.718,6.2-5.547,9.321-1.958,3.339-3.864,6.7-5.813,10.047-2.251,3.862-4.6,7.676-6.767,11.58-1.992,3.592-4.174,7.08-6.269,10.615-.6,1.011-1.562,1.952-1.693,3.207a42.6,42.6,0,0,0,7.655,3.914c4.038,1.775,8.113,3.478,12.177,5.2q11.311,4.805,22.629,9.606c4.786,2.038,9.555,4.11,14.342,6.153,4.975,2.123,9.967,4.214,14.934,6.353a13.483,13.483,0,0,0,3.652,1.389q3-1.248,6-2.5c9.869-4.132,19.615-8.508,29.543-12.524,4.741-1.918,9.327-4.154,14.079-6.074,7.482-3.023,14.834-6.319,22.251-9.479,1.2-.511,2.229-1.35,3.586-1.542a20.988,20.988,0,0,0-2.281-4.221" transform="translate(14.999 0.04)" fill="#ffae7e"/>
          <path id="Trazado_822658" data-name="Trazado 822658" d="M22.91,155.267c.108.19.076.276-.172.2.058-.069.114-.133.172-.2" transform="translate(6.477 29.234)" fill="#b6c53e"/>
          <path id="Trazado_822659" data-name="Trazado 822659" d="M111.467,151.937,110.8.285s4.837-2.153,9.6,5.389l66.531,114.194Z" transform="translate(31.563 0)" fill="#ff8740"/>
        </g>
      </g>
    </g>
  </g>
</svg>
