<svg xmlns="http://www.w3.org/2000/svg" xmlns:xlink="http://www.w3.org/1999/xlink" width="190" height="174" viewBox="0 0 190 174">
  <defs>
    <clipPath id="clip-path">
      <rect id="Rect치ngulo_377729" data-name="Rect치ngulo 377729" width="190" height="174" transform="translate(390 2505)" fill="none" stroke="#707070" stroke-width="1"/>
    </clipPath>
    <clipPath id="clip-path-2">
      <rect id="Rect치ngulo_377730" data-name="Rect치ngulo 377730" width="136.693" height="156.445" fill="none"/>
    </clipPath>
  </defs>
  <g id="Enmascarar_grupo_368" data-name="Enmascarar grupo 368" transform="translate(-390 -2505)" clip-path="url(#clip-path)">
    <g id="Grupo_1073502" data-name="Grupo 1073502" transform="translate(416.653 2511.888)">
      <g id="Grupo_1073501" data-name="Grupo 1073501" clip-path="url(#clip-path-2)">
        <path id="Trazado_821889" data-name="Trazado 821889" d="M148.134,137.9q0,3.033,0,6.066a2.269,2.269,0,0,0-2.218,1.735c-.058.59-.022,1.19-.023,1.785q0,19.1,0,38.19c0,.688.017,1.376-.019,2.062a1.694,1.694,0,0,1-1.792,1.768c-.279.015-.56.007-.84.007q-46.025,0-92.05,0c-5.169,0-10.337-.021-15.506-.032q0-44.354-.007-88.709a2.684,2.684,0,0,0-.025-.835,4.652,4.652,0,0,1,.186-2.585c.4-.023.808-.064,1.212-.064q52.416,0,104.833,0c.915,0,1.831.022,2.746.034a1.97,1.97,0,0,0,1,.047c.433.148.223.514.223.767q.031,16.674.039,33.347a42.045,42.045,0,0,0,.081,4.27,2.336,2.336,0,0,0,2.164,2.151m-9.887,2.248a1.122,1.122,0,0,0,.006-1.027l0-1.252c.015-.015.044-.036.04-.044a.625.625,0,0,0-.056-.1,3.613,3.613,0,0,0-.135-1.184,5.4,5.4,0,0,0-5.367-3.392c-2.031.07-4.067.023-6.1.022-3.914,0-7.828-.02-11.742-.013-1.9,0-2.569.561-2.827,2.286l-6.075-.029a2.96,2.96,0,0,0-.626-1.431,3,3,0,0,0-2.417-.816q-8.9-.011-17.8,0a5.924,5.924,0,0,0-1.851.248,4.484,4.484,0,0,0-3.426,4.652q-.017,18.747,0,37.494a7.62,7.62,0,0,0,.086,1.6,5.372,5.372,0,0,0,5.486,4.1c12.652-.064,25.3-.037,37.957-.042,3.182,0,6.365.006,9.547,0a5.1,5.1,0,0,0,4.445-2.2,6.259,6.259,0,0,0,.856-3.755q-.006-17.562,0-35.124" transform="translate(-13.75 -37.655)" fill="#ffd085"/>
        <path id="Trazado_821890" data-name="Trazado 821890" d="M130.88,59.66c-.915-.012-1.83-.034-2.746-.034q-52.416,0-104.833,0c-.4,0-.808.041-1.212.063a3.026,3.026,0,0,0-.446-.066c-5.449-.006-10.9,0-16.347-.023-.661,0-.652.313-.651.8q.009,43.726,0,87.452c0,.738-.025,1.477,0,2.214a1.694,1.694,0,0,0,1.782,1.777c.712.03,1.426.01,2.138.008l13.365-.034c5.168.011,10.337.031,15.505.032q46.024,0,92.05,0c.28,0,.561.008.84-.007a1.694,1.694,0,0,0,1.791-1.768c.036-.686.019-1.374.019-2.062q0-19.095,0-38.19c0-.6-.036-1.2.023-1.785a2.268,2.268,0,0,1,2.218-1.735,2.507,2.507,0,0,1,2.289,2.876q.01,20.317.007,40.633c0,3.408-1.781,5.377-4.674,6.427a4.4,4.4,0,0,1-1.477.186q-61.758.012-123.516.015a6.894,6.894,0,0,1-4.867-1.677,6.385,6.385,0,0,1-2.107-5.045c.045-7.459.02-14.918.02-22.377q0-35.438-.007-70.876a28.91,28.91,0,0,1,.009-3.318,10.878,10.878,0,0,1,1.276-4.26c.586-.989,1.005-2.055,1.682-3.015a14.912,14.912,0,0,1,5.729-4.769,14.826,14.826,0,0,1,4.381-1.384c.595-.091.585-.553.589-.975.013-1.425,0-2.851,0-4.277,0-4.251.021-8.5-.013-12.754a7.94,7.94,0,0,1,1.777-5.532,6.527,6.527,0,0,1,4.1-2.253,44.744,44.744,0,0,1,6.631-.123c1.22.009,1.321-.017,1.188-1.232a15.388,15.388,0,0,1,.037-1.592c-.015-1.4-.026-2.8,0-4.2A7.064,7.064,0,0,1,33.6.142,29.513,29.513,0,0,1,36.842.006Q68.734,0,100.625,0a3.88,3.88,0,0,1,3.027,1.242c2.191,2.306,4.481,4.52,6.732,6.77l6.386,6.385c1.7,1.7,3.356,3.432,5.105,5.073a3.675,3.675,0,0,1,1.173,2.9c-.006,5.524.009,11.049,0,16.573,0,.45.019.706.6.816a15.442,15.442,0,0,1,4.613,1.542,15.882,15.882,0,0,1,6.83,7.143,14.494,14.494,0,0,1,1.453,5.571c.257,4.6.1,9.2.113,13.792.04,9.929.013,19.858.013,29.787a2.246,2.246,0,1,1-4.453.5,42.227,42.227,0,0,1-.082-4.27q-.024-16.673-.039-33.347c0-.254.209-.62-.224-.767a1.63,1.63,0,0,0-1-.047m-34.261-26.8h4.542l-4.39-4.6a.678.678,0,0,0-.091-.191q-3.149-3.264-6.3-6.522l-.267.173c0,.344,0,.69,0,1.034q.023,3.238.049,6.476a13.023,13.023,0,0,0,.055,1.444,2.607,2.607,0,0,0,1.778,2.161,20.908,20.908,0,0,0,4.629.029M68.284,55.021v-.015H88.142q7.9,0,15.81,0c.414,0,.818.072.816-.579q-.025-8.172-.009-16.343c0-.483-.175-.582-.631-.579-3.386.026-6.772.023-10.157.027a14.943,14.943,0,0,1-2.56-.2,7.348,7.348,0,0,1-5.9-6.99c-.048-3.767-.026-7.535,0-11.3,0-.54-.086-.721-.687-.721q-31.66.031-63.319.023c-2.183,0-3.227,1.07-3.227,3.282V53.929c0,1.1,0,1.114,1.141,1.114,4.427,0,8.855-.02,13.282-.021q17.8-.006,35.591,0M66.26,4.575v.014q-15.545,0-31.09,0a2.877,2.877,0,0,0-3.155,3.2c.06,1.73.044,3.464-.015,5.193-.023.691.238.784.834.783q27.157-.018,54.314-.009A3.677,3.677,0,0,1,89.911,14.9q9.1,9.157,18.253,18.257a3.77,3.77,0,0,1,1.174,2.858c-.027,6.111,0,12.221-.028,18.332,0,.632.2.769.781.758,2.571-.045,5.143-.074,7.714-.063.582,0,.7-.172.7-.73q-.028-14.894,0-29.789c0-.561-.119-.716-.7-.712-3.488.028-6.976.015-10.464,0a7.952,7.952,0,0,1-4.405-1.076A7.264,7.264,0,0,1,99.5,17.962a15.194,15.194,0,0,1-.159-3.043c-.013-3.182-.007-6.365-.012-9.548,0-.26.107-.642-.33-.622-.588.027-1.133-.188-1.72-.187q-15.507.026-31.015.012M13.7,49.6h-.019c0-1.575-.016-3.15.009-4.725.008-.47-.1-.675-.6-.537a11.693,11.693,0,0,0-4.322,2.141A10.891,10.891,0,0,0,4.686,54.1c-.093.908-.078.907.864.9,2.465-.006,4.93-.019,7.394.015.607.009.785-.159.767-.772-.045-1.548-.015-3.1-.015-4.648m113.857,5.425V55c1.322,0,2.644-.013,3.966.007.417.006.618-.094.546-.552a13.077,13.077,0,0,0-2.305-5.956,11.041,11.041,0,0,0-6.1-3.993c-.531-.15-.582.112-.58.542.007,3.127.007,6.254-.016,9.381,0,.524.18.633.672.618,1.27-.039,2.542-.013,3.813-.013M104.106,7.844l-.2.162c0,2.887-.007,5.774.009,8.662a2.353,2.353,0,0,0,.341,1.156,2.918,2.918,0,0,0,2.87,1.343c2.34,0,4.678.018,7.017.024.245,0,.568.112.7-.142.17-.325-.182-.488-.363-.67-2.189-2.2-4.4-4.379-6.578-6.583-1.286-1.3-2.536-2.633-3.8-3.952" transform="translate(0)"/>
        <path id="Trazado_821891" data-name="Trazado 821891" d="M24.862,189.462,11.5,189.5c-.713,0-1.426.022-2.138-.008a1.693,1.693,0,0,1-1.781-1.777c-.029-.737,0-1.477,0-2.214q0-43.726,0-87.452c0-.488-.01-.8.652-.8,5.448.026,10.9.017,16.346.023a2.937,2.937,0,0,1,.446.066,4.652,4.652,0,0,0-.186,2.585,2.7,2.7,0,0,1,.025.835q0,44.354.007,88.709" transform="translate(-2.928 -37.641)" fill="#ffc365"/>
        <path id="Trazado_821892" data-name="Trazado 821892" d="M136.858,159.5l6.075.029c.536,1.921.828,2.11,2.484,2.256.278.025.56.009.84.009l7.866-.006c3.208,0,6.415,0,9.624-.007.5,0,.916.1.785.7a6.47,6.47,0,0,0-.009,1.444q-.007,17.793,0,35.586c0,1.187,0,1.2-1.17,1.2q-5.575.006-11.15.005-13.669-.014-27.339-.036c-.023-.07-.04-.067-.05,0-2.952.013-5.9.016-8.856.047-.627.007-.68-.324-.68-.823q.019-18.516.021-37.034c0-1.066,0-1.064,1.114-1.065q9.087-.006,18.175-.01a1.807,1.807,0,0,0,.493-.113,2.5,2.5,0,0,0,1.776-2.184m3.041,11.43v-.014q7.635,0,15.272,0a7.391,7.391,0,0,0,1.215-.092,2.257,2.257,0,0,0,1.95-2.232,2.22,2.22,0,0,0-2.033-2.246,14.645,14.645,0,0,0-1.752-.066q-14.432,0-28.864,0c-.321,0-.656-.068-.966-.078a3.846,3.846,0,0,0-2.59.615,2.066,2.066,0,0,0-.707,2.165,2.365,2.365,0,0,0,1.835,1.833,11.393,11.393,0,0,0,1.673.112q7.484.013,14.967,0m.006,8.427v-.015q7.369,0,14.737,0c.433,0,.867.016,1.3-.02A2.225,2.225,0,0,0,158.3,177a2.26,2.26,0,0,0-2.488-2.206c-.2,0-.407,0-.611,0q-14.049,0-28.1,0c-1.094,0-2.19-.044-3.282,0a2.385,2.385,0,0,0-2.3,1.684,1.941,1.941,0,0,0,.569,2.114,2.807,2.807,0,0,0,2.307.775q7.75-.007,15.5,0m-.064,3.848v0q-6.224,0-12.45,0c-1.247,0-2.5-.047-3.742,0a2.3,2.3,0,0,0-2.066,3.106,2.548,2.548,0,0,0,2.5,1.479q6.072-.043,12.143-.037c6.492,0,12.984.037,19.476.012,1.689-.007,2.824-.914,2.551-2.79-.158-1.082-1.213-1.765-2.677-1.765q-7.866,0-15.734,0m-.159,12.979v-.007c5.347,0,10.692.018,16.039-.01,1.857-.009,2.781-1.057,2.522-2.787-.162-1.078-1.237-1.755-2.75-1.755q-15.619-.008-31.236-.005a4.638,4.638,0,0,0-1.131.132,2.358,2.358,0,0,0-1.715,2.39,2.579,2.579,0,0,0,2.461,2.056c5.27-.034,10.54-.013,15.81-.013" transform="translate(-44.621 -61.739)" fill="#daecff"/>
        <path id="Trazado_821893" data-name="Trazado 821893" d="M122,199.246q13.67.018,27.34.036,5.575.006,11.15-.006c1.169,0,1.17-.013,1.169-1.2q0-17.793,0-35.586a6.505,6.505,0,0,1,.009-1.444c.131-.6-.28-.7-.785-.7-3.207.011-6.415.006-9.623.007l-7.866.006c-.28,0-.562.016-.84-.009-1.655-.146-1.947-.335-2.484-2.256.257-1.724.926-2.283,2.827-2.286,3.914-.006,7.828.01,11.742.013,2.034,0,4.069.048,6.1-.021a5.4,5.4,0,0,1,5.367,3.391,3.615,3.615,0,0,1,.135,1.184.119.119,0,0,0,.015.139l0,1.252a.74.74,0,0,0-.006,1.027q0,17.562,0,35.124a6.258,6.258,0,0,1-.856,3.755,5.1,5.1,0,0,1-4.445,2.2c-3.182.007-6.365,0-9.547,0-12.652,0-25.305-.022-37.957.042a5.374,5.374,0,0,1-5.486-4.1,7.7,7.7,0,0,1-.086-1.6q0-18.747,0-37.494a4.485,4.485,0,0,1,3.426-4.653,5.924,5.924,0,0,1,1.851-.248q8.9-.018,17.8,0a3,3,0,0,1,2.417.817,2.955,2.955,0,0,1,.626,1.431,2.5,2.5,0,0,1-1.776,2.184,1.817,1.817,0,0,1-.494.113q-9.087,0-18.174.01c-1.114,0-1.114,0-1.115,1.065q-.007,18.517-.021,37.034c0,.5.053.83.68.823,2.952-.031,5.9-.034,8.856-.047l.028.029Z" transform="translate(-41.752 -60.306)"/>
        <path id="Trazado_821894" data-name="Trazado 821894" d="M202.99,166.566a.74.74,0,0,1,.006-1.027,1.123,1.123,0,0,1-.006,1.027" transform="translate(-78.493 -64.076)" fill="#ffc365"/>
        <path id="Trazado_821895" data-name="Trazado 821895" d="M213.533,97.3a1.627,1.627,0,0,1,1,.047,1.968,1.968,0,0,1-1-.047" transform="translate(-82.653 -37.642)" fill="#ffc365"/>
        <path id="Trazado_821896" data-name="Trazado 821896" d="M203.1,163.409a.119.119,0,0,1-.015-.139.66.66,0,0,1,.056.1c0,.007-.026.028-.04.043" transform="translate(-78.604 -63.198)" fill="#ffc365"/>
        <path id="Trazado_821897" data-name="Trazado 821897" d="M79.821,66.59q-17.8,0-35.591,0c-4.428,0-8.855.019-13.282.021-1.141,0-1.141-.014-1.141-1.114V33.192c0-2.211,1.044-3.281,3.227-3.282q31.66-.006,63.319-.023c.6,0,.69.181.687.721-.022,3.768-.045,7.535,0,11.3a7.35,7.35,0,0,0,5.9,6.991,15,15,0,0,0,2.56.2c3.386,0,6.772,0,10.157-.027.456,0,.631.1.63.579q-.014,8.172.01,16.343c0,.65-.4.579-.816.579q-7.906,0-15.81,0H79.821Zm-7.964-9.313v.009q-1.681,0-3.361,0-13.788-.018-27.577-.025a2.793,2.793,0,0,0-2.676,1.187,2,2,0,0,0-.1,1.864c.226.7,1.086,1.561,1.826,1.5.571-.045,1.117.058,1.676.057q23.07-.012,46.14-.019,7.715,0,15.43-.017a2.33,2.33,0,0,0,2.216-1.788c.132-1.6-.451-2.452-1.879-2.7a6.778,6.778,0,0,0-1.138-.072q-15.278-.006-30.556,0m-5.483-3.845v-.007H92.189a6.35,6.35,0,0,0,1.561-.132,2.2,2.2,0,0,0,.179-4.262,8.133,8.133,0,0,0-1.644-.194q-24.172.017-48.343.017a23.432,23.432,0,0,0-4.16.124A2.3,2.3,0,0,0,37.9,51.261c.161,1.3.881,2.165,2.124,2.166q13.174.012,26.348,0" transform="translate(-11.538 -11.569)" fill="#daecff"/>
        <path id="Trazado_821898" data-name="Trazado 821898" d="M86.467,7.456q15.507,0,31.015-.012c.588,0,1.133.214,1.72.187.436-.02.329.362.33.622.006,3.183,0,6.365.012,9.548a15.141,15.141,0,0,0,.159,3.043,7.261,7.261,0,0,0,3.438,4.775,7.949,7.949,0,0,0,4.405,1.076c3.488.015,6.976.028,10.464,0,.583,0,.7.15.7.712q-.027,14.894,0,29.789c0,.558-.119.732-.7.73-2.571-.011-5.142.017-7.714.063-.577.01-.784-.126-.781-.758.026-6.111,0-12.221.028-18.332a3.768,3.768,0,0,0-1.174-2.858q-9.146-9.109-18.252-18.257a3.677,3.677,0,0,0-2.763-1.149q-27.157,0-54.314.009c-.6,0-.857-.092-.834-.783.059-1.73.075-3.464.015-5.193a2.878,2.878,0,0,1,3.155-3.2q15.545.014,31.09,0Z" transform="translate(-20.208 -2.881)" fill="#61ddfc"/>
        <path id="Trazado_821899" data-name="Trazado 821899" d="M16.632,77.58c0,1.549-.03,3.1.015,4.648.018.613-.16.78-.767.772-2.465-.034-4.929-.021-7.394-.015-.942,0-.957,0-.864-.9A10.891,10.891,0,0,1,11.7,74.459a11.688,11.688,0,0,1,4.322-2.141c.495-.138.6.067.6.537-.026,1.575-.01,3.15-.01,4.725h.02" transform="translate(-2.936 -27.976)" fill="#ffc365"/>
        <path id="Trazado_821900" data-name="Trazado 821900" d="M205.272,83.106c-1.271,0-2.543-.026-3.814.013-.493.015-.677-.094-.672-.617.025-3.127.023-6.254.017-9.381,0-.431.049-.693.58-.542a11.048,11.048,0,0,1,6.095,3.993,13.069,13.069,0,0,1,2.305,5.956c.072.458-.127.558-.545.552-1.322-.02-2.644-.007-3.966-.007v.034" transform="translate(-77.719 -28.077)" fill="#ffc365"/>
        <path id="Trazado_821901" data-name="Trazado 821901" d="M169.726,12.8c1.266,1.318,2.516,2.653,3.8,3.952,2.182,2.2,4.389,4.385,6.578,6.583.181.182.533.345.363.67-.134.254-.457.143-.7.142-2.339-.006-4.678-.027-7.017-.024a2.918,2.918,0,0,1-2.87-1.343,2.353,2.353,0,0,1-.341-1.156c-.017-2.887-.009-5.774-.009-8.662l.2-.162" transform="translate(-65.62 -4.954)" fill="#61ddfc"/>
        <path id="Trazado_821902" data-name="Trazado 821902" d="M153.524,46.472a20.908,20.908,0,0,1-4.629-.029,2.606,2.606,0,0,1-1.778-2.16,13.045,13.045,0,0,1-.055-1.445q-.029-3.237-.049-6.476c0-.344,0-.69,0-1.034l.267-.173q3.153,3.26,6.3,6.522a.673.673,0,0,1,.091.191,1.665,1.665,0,0,0-.743,1.451c-.007,1.1.5,2.083.592,3.152" transform="translate(-56.905 -13.608)" fill="#61ddfc"/>
        <path id="Trazado_821903" data-name="Trazado 821903" d="M157.262,50.711c-.092-1.07-.6-2.056-.592-3.152a1.665,1.665,0,0,1,.743-1.451l4.39,4.6Z" transform="translate(-60.643 -17.847)" fill="#daecff"/>
        <path id="Trazado_821904" data-name="Trazado 821904" d="M143.723,175.159q-7.483,0-14.966,0a11.386,11.386,0,0,1-1.673-.112,2.367,2.367,0,0,1-1.836-1.833,2.067,2.067,0,0,1,.708-2.165,3.845,3.845,0,0,1,2.59-.615c.31.01.644.078.965.078q14.433,0,28.864,0a14.635,14.635,0,0,1,1.752.066,2.22,2.22,0,0,1,2.033,2.246,2.257,2.257,0,0,1-1.949,2.232,7.4,7.4,0,0,1-1.215.092q-7.636.008-15.272,0Z" transform="translate(-48.445 -65.967)"/>
        <path id="Trazado_821905" data-name="Trazado 821905" d="M143.773,189q-7.749,0-15.5,0a2.8,2.8,0,0,1-2.307-.775,1.941,1.941,0,0,1-.569-2.114,2.384,2.384,0,0,1,2.295-1.684c1.093-.042,2.188,0,3.283,0q14.049,0,28.1,0c.2,0,.407,0,.61,0a2.259,2.259,0,0,1,2.488,2.206,2.224,2.224,0,0,1-2.366,2.326c-.43.036-.865.02-1.3.02q-7.368,0-14.737,0Z" transform="translate(-48.489 -71.381)"/>
        <path id="Trazado_821906" data-name="Trazado 821906" d="M143.706,198.161q7.867,0,15.734,0c1.463,0,2.519.683,2.677,1.765.273,1.876-.862,2.783-2.552,2.79-6.491.026-12.984-.01-19.475-.012q-6.072,0-12.144.037a2.547,2.547,0,0,1-2.5-1.479,2.3,2.3,0,0,1,2.066-3.106c1.245-.047,2.494,0,3.742,0q6.224,0,12.45,0Z" transform="translate(-48.487 -76.694)"/>
        <path id="Trazado_821907" data-name="Trazado 821907" d="M143.533,216.469c-5.27,0-10.54-.02-15.81.013a2.579,2.579,0,0,1-2.461-2.056,2.358,2.358,0,0,1,1.715-2.39,4.64,4.64,0,0,1,1.131-.132q15.618,0,31.236.006c1.513,0,2.588.678,2.75,1.755.259,1.73-.665,2.778-2.522,2.787-5.347.028-10.692.01-16.039.01Z" transform="translate(-48.472 -82.022)"/>
        <path id="Trazado_821908" data-name="Trazado 821908" d="M130.886,226.653l-.023.034-.028-.029c.01-.072.027-.075.05,0" transform="translate(-50.643 -87.712)" fill="#61ddfc"/>
        <path id="Trazado_821909" data-name="Trazado 821909" d="M77.007,74.563q15.278,0,30.556,0a6.789,6.789,0,0,1,1.139.072c1.428.243,2.011,1.093,1.878,2.7a2.33,2.33,0,0,1-2.216,1.788q-7.716.02-15.43.017-23.07.01-46.14.019c-.558,0-1.105-.1-1.676-.057-.74.058-1.6-.8-1.826-1.5a1.994,1.994,0,0,1,.1-1.864,2.792,2.792,0,0,1,2.675-1.187q13.789-.014,27.577.025,1.681,0,3.361,0Z" transform="translate(-16.687 -28.855)"/>
        <path id="Trazado_821910" data-name="Trazado 821910" d="M71.48,65.39q-13.174,0-26.348,0c-1.244,0-1.963-.867-2.124-2.166a2.3,2.3,0,0,1,1.879-2.283,23.432,23.432,0,0,1,4.16-.124Q73.218,60.8,97.389,60.8a8.133,8.133,0,0,1,1.644.194,2.2,2.2,0,0,1-.179,4.262,6.35,6.35,0,0,1-1.561.132H71.48Z" transform="translate(-16.643 -23.527)"/>
      </g>
    </g>
  </g>
</svg>
