<svg xmlns="http://www.w3.org/2000/svg" xmlns:xlink="http://www.w3.org/1999/xlink" width="1030" height="500" viewBox="0 0 1030 500">
  <defs>
    <linearGradient id="linear-gradient" x1="0.5" x2="0.5" y2="1" gradientUnits="objectBoundingBox">
      <stop offset="0" stop-color="#defff8"/>
      <stop offset="0.803" stop-color="#eaf5ff"/>
      <stop offset="1" stop-color="#f0feff"/>
    </linearGradient>
  </defs>
  <g id="Grupo_1073529" data-name="Grupo 1073529" transform="translate(-285 -1082)">
    <g id="Grupo_1072963" data-name="Grupo 1072963" transform="translate(1620 2546.667) rotate(180)">
      <rect id="Rectángulo_376022" data-name="Rectángulo 376022" width="1030" height="500" transform="translate(305 964.667)" fill="url(#linear-gradient)"/>
      <path id="Trazado_822077" data-name="Trazado 822077" d="M-6891-9838v40" transform="translate(-5752 -8551.333) rotate(180)" fill="none" stroke="#615504" stroke-width="2"/>
    </g>
    <g id="Grupo_1072964" data-name="Grupo 1072964" transform="translate(-9 -639)">
      <rect id="Rectángulo_377338" data-name="Rectángulo 377338" width="420" height="40" rx="20" transform="translate(604 1763)" fill="#ffae7e"/>
      <rect id="Rectángulo_377340" data-name="Rectángulo 377340" width="172" height="54" rx="20" transform="translate(405 1901)" fill="#c1e29a"/>
      <rect id="Rectángulo_377741" data-name="Rectángulo 377741" width="172" height="54" rx="20" transform="translate(627 1901)" fill="#c1e29a"/>
      <rect id="Rectángulo_377742" data-name="Rectángulo 377742" width="172" height="54" rx="20" transform="translate(837 1901)" fill="#c1e29a"/>
      <text id="Procedimientos_sanitarios" data-name="Procedimientos sanitarios" transform="translate(720 1789)" font-size="16" font-family="Roboto-Bold, Roboto" font-weight="700"><tspan x="0" y="0">Procedimientos sanitarios</tspan></text>
      <text id="Calidad_de_agua" data-name="Calidad de agua" transform="translate(490 1934)" font-size="16" font-family="Roboto-Bold, Roboto" font-weight="700"><tspan x="-57.508" y="0">Calidad de agua</tspan></text>
      <text id="Higiene_en_las_instalaciones" data-name="Higiene en
 las instalaciones" transform="translate(712 1925)" font-size="16" font-family="Roboto-Bold, Roboto" font-weight="700"><tspan x="-38.387" y="0">Higiene en</tspan><tspan x="-62.359" y="18" xml:space="preserve"> las instalaciones</tspan></text>
      <text id="Formación_de_personal" data-name="Formación de 
personal" transform="translate(922 1925)" font-size="16" font-family="Roboto-Bold, Roboto" font-weight="700"><tspan x="-51.07" y="0">Formación de </tspan><tspan x="-31.273" y="18">personal</tspan></text>
      <text id="Se_revisa" data-name="Se revisa" transform="translate(814 1847)" font-size="16" font-family="Roboto-Bold, Roboto" font-weight="700"><tspan x="-32.918" y="0">Se revisa</tspan></text>
      <text id="Para" transform="translate(1147 2065)" font-size="16" font-family="Roboto-Bold, Roboto" font-weight="700"><tspan x="-16.496" y="0">Para</tspan></text>
      <path id="Trazado_819303" data-name="Trazado 819303" d="M-6891-9838v29" transform="translate(7705.5 11641)" fill="none" stroke="#615504" stroke-width="2"/>
      <path id="Trazado_819304" data-name="Trazado 819304" d="M-6891-9838v40" transform="translate(7381 11793)" fill="none" stroke="#615504" stroke-width="2"/>
      <path id="Trazado_822078" data-name="Trazado 822078" d="M-6891-9838v31" transform="translate(7815 11793)" fill="none" stroke="#615504" stroke-width="2"/>
      <path id="Trazado_822076" data-name="Trazado 822076" d="M-6891-9838v25" transform="translate(7605 11714)" fill="none" stroke="#615504" stroke-width="2"/>
      <path id="Trazado_822072" data-name="Trazado 822072" d="M-6891-9838v205h15.808" transform="translate(7549 11793)" fill="none" stroke="#615504" stroke-width="2"/>
      <rect id="Rectángulo_377343" data-name="Rectángulo 377343" width="140" height="47" rx="20" transform="translate(421 1991)" fill="#ffd4bb"/>
      <rect id="Rectángulo_377744" data-name="Rectángulo 377744" width="130" height="36" rx="18" transform="translate(669 1991)" fill="#ffd4bb"/>
      <rect id="Rectángulo_377745" data-name="Rectángulo 377745" width="130" height="36" rx="18" transform="translate(669 2044)" fill="#ffd4bb"/>
      <rect id="Rectángulo_377746" data-name="Rectángulo 377746" width="130" height="36" rx="18" transform="translate(669 2097)" fill="#ffd4bb"/>
      <rect id="Rectángulo_377747" data-name="Rectángulo 377747" width="130" height="36" rx="18" transform="translate(669 2142)" fill="#ffd4bb"/>
      <text id="Plan_de_control_de_agua" data-name="Plan de control
de agua" transform="translate(490 2016)" font-size="16" font-family="Roboto-Bold, Roboto" font-weight="700"><tspan x="-54.168" y="0">Plan de control</tspan><tspan x="-28.445" y="18">de agua</tspan></text>
      <text id="Techos" transform="translate(733 2015)" font-size="16" font-family="Roboto-Bold, Roboto" font-weight="700"><tspan x="-26.211" y="0">Techos</tspan></text>
      <text id="Paredes" transform="translate(733 2068)" font-size="16" font-family="Roboto-Bold, Roboto" font-weight="700"><tspan x="-29.52" y="0">Paredes</tspan></text>
      <text id="Suelo" transform="translate(733 2121)" font-size="16" font-family="Roboto-Bold, Roboto" font-weight="700"><tspan x="-20.363" y="0">Suelo</tspan></text>
      <text id="Baños" transform="translate(733 2166)" font-size="16" font-family="Roboto-Bold, Roboto" font-weight="700"><tspan x="-22.512" y="0">Baños</tspan></text>
      <path id="Trazado_819306" data-name="Trazado 819306" d="M-7206-9828v-25.333h329" transform="translate(7696 11729.001)" fill="none" stroke="#707070" stroke-width="2"/>
      <path id="Trazado_822070" data-name="Trazado 822070" d="M-7206-9828v-25.333h90" transform="translate(7605 11916.001)" fill="none" stroke="#707070" stroke-width="2"/>
      <path id="Trazado_822071" data-name="Trazado 822071" d="M-7125-9828v-25.333h-81" transform="translate(7686 11916.001)" fill="none" stroke="#707070" stroke-width="2"/>
      <path id="Trazado_819317" data-name="Trazado 819317" d="M-7081-9828v-25.333h-326" transform="translate(8226 11729.001)" fill="none" stroke="#707070" stroke-width="2"/>
      <rect id="Rectángulo_377341" data-name="Rectángulo 377341" width="172" height="54" rx="20" transform="translate(1058 1899)" fill="#c1e29a"/>
      <text id="Equipamiento_del_establecimiento" data-name="Equipamiento del
establecimiento" transform="translate(1144 1923)" font-size="16" font-family="Roboto-Bold, Roboto" font-weight="700"><tspan x="-62.242" y="0">Equipamiento del</tspan><tspan x="-57.633" y="18">establecimiento</tspan></text>
      <path id="Trazado_819308" data-name="Trazado 819308" d="M-6891-9838v91" transform="translate(8035 11791)" fill="none" stroke="#615504" stroke-width="2"/>
      <path id="Trazado_822079" data-name="Trazado 822079" d="M-6891-9838v20" transform="translate(8035 11915)" fill="none" stroke="#615504" stroke-width="2"/>
      <rect id="Rectángulo_377350" data-name="Rectángulo 377350" width="172" height="47" rx="20" transform="translate(837 1982)" fill="#ffd4bb"/>
      <rect id="Rectángulo_377351" data-name="Rectángulo 377351" width="123" height="51" rx="20" transform="translate(1082 1976)" fill="#ffd4bb"/>
      <text id="Certificación_para_ejercer_las_labores" data-name="Certificación para
ejercer las labores" transform="translate(924 2002)" font-size="16" font-family="Roboto-Bold, Roboto" font-weight="700"><tspan x="-63.996" y="0">Certificación para</tspan><tspan x="-66.211" y="18">ejercer las labores</tspan></text>
      <text id="Enfocado_en_la_cocina" data-name="Enfocado
 en la cocina" transform="translate(1144 1997)" font-size="16" font-family="Roboto-Bold, Roboto" font-weight="700"><tspan x="-33.863" y="0">Enfocado</tspan><tspan x="-44.949" y="18" xml:space="preserve"> en la cocina</tspan></text>
      <rect id="Rectángulo_377353" data-name="Rectángulo 377353" width="145" height="74" rx="20" transform="translate(339 2089)" fill="#e3ffc2"/>
      <rect id="Rectángulo_377748" data-name="Rectángulo 377748" width="145" height="84" rx="20" transform="translate(1074 2095)" fill="#e3ffc2"/>
      <rect id="Rectángulo_377743" data-name="Rectángulo 377743" width="141" height="74" rx="20" transform="translate(493 2089)" fill="#e3ffc2"/>
      <path id="Trazado_822068" data-name="Trazado 822068" d="M-6891-9813.332V-9838" transform="translate(7705.5 11689)" fill="none" stroke="#615504" stroke-width="2"/>
      <path id="Trazado_822069" data-name="Trazado 822069" d="M-6891-9813.332V-9838" transform="translate(7380 11876)" fill="none" stroke="#615504" stroke-width="2"/>
      <text id="Estar_al_día" data-name="Estar al día" transform="translate(410 2129)" font-size="16" font-family="Roboto-Bold, Roboto" font-weight="700"><tspan x="-39.836" y="0">Estar al día</tspan></text>
      <text id="Presentarlo_en_el_momento_de_la_inspección" data-name="Presentarlo
en el momento 
de la inspección" transform="translate(565 2115)" font-size="16" font-family="Roboto-Bold, Roboto" font-weight="700"><tspan x="-41.801" y="0">Presentarlo</tspan><tspan x="-55.516" y="18">en el momento </tspan><tspan x="-58.238" y="36">de la inspección</tspan></text>
      <text id="Evitar_que_se_generen_inconformidades" data-name="Evitar que se 
generen
 inconformidades" transform="translate(1145 2123)" font-size="16" font-family="Roboto-Bold, Roboto" font-weight="700"><tspan x="-48.207" y="0">Evitar que se </tspan><tspan x="-29.344" y="18">generen</tspan><tspan x="-62.867" y="36" xml:space="preserve"> inconformidades</tspan></text>
      <path id="Trazado_822129" data-name="Trazado 822129" d="M-6681-9838v25" transform="translate(7605 11714)" fill="none" stroke="#615504" stroke-width="2"/>
    </g>
    <path id="Trazado_822073" data-name="Trazado 822073" d="M650.889,1417.293h12.179" transform="translate(-2 56)" fill="none" stroke="#707070" stroke-width="1"/>
    <path id="Trazado_822074" data-name="Trazado 822074" d="M650.889,1417.293h12.179" transform="translate(-2 7)" fill="none" stroke="#707070" stroke-width="1"/>
    <path id="Trazado_822075" data-name="Trazado 822075" d="M650.889,1417.293h12.179" transform="translate(-2 -46)" fill="none" stroke="#707070" stroke-width="1"/>
  </g>
</svg>
