<svg xmlns="http://www.w3.org/2000/svg" xmlns:xlink="http://www.w3.org/1999/xlink" width="169" height="169" viewBox="0 0 169 169">
  <defs>
    <clipPath id="clip-path">
      <rect id="Rect치ngulo_377858" data-name="Rect치ngulo 377858" width="111.682" height="111.555" fill="none"/>
    </clipPath>
  </defs>
  <g id="Grupo_1073684" data-name="Grupo 1073684" transform="translate(-385.5 -2057.999)">
    <g id="Grupo_159182" data-name="Grupo 159182" transform="translate(385.5 2057.999)">
      <path id="Uni칩n_12" data-name="Uni칩n 12" d="M84.5,0A84.5,84.5,0,1,1,0,84.5,84.5,84.5,0,0,1,84.5,0Z" transform="translate(0 0)" fill="#ffae7e"/>
    </g>
    <g id="Grupo_1073691" data-name="Grupo 1073691" transform="translate(412.818 2082.777)">
      <g id="Grupo_1073690" data-name="Grupo 1073690" clip-path="url(#clip-path)">
        <path id="Trazado_823108" data-name="Trazado 823108" d="M90.062,181.91a9.15,9.15,0,0,1,.277-2.606,9.589,9.589,0,0,1,2.069-3.633,8.429,8.429,0,0,1,7.273-2.891c4.181.351,6.782,2.734,8.047,6.653a7.424,7.424,0,0,1,.331,2.276q0,11.254,0,22.508c0,.9-.011.9.936.927.781.019,1.561.044,2.342.053.249,0,.344.08.339.346-.016.963-.014,1.926,0,2.888,0,.241-.071.331-.308.3a2.63,2.63,0,0,0-.327,0q-55.2,0-110.393.013c-.52,0-.678-.107-.644-.639a23.745,23.745,0,0,0,0-2.451c-.016-.4.134-.492.5-.487.908.012,1.817-.023,2.725,0,.34.007.446-.1.445-.429q-.028-11.008-.049-22.016a10.033,10.033,0,0,1,.54-4.176,9.2,9.2,0,0,1,1.885-2.933,9.857,9.857,0,0,1,3.727-2.439,8.741,8.741,0,0,1,3.945-.311,8.305,8.305,0,0,1,4.914,2.2,8.539,8.539,0,0,1,2.881,6.32c.033,1.809.114,3.617.077,5.427-.005.25.061.349.336.349q5.043-.015,10.085-.007c.53,0,.391-.415.393-.666.016-1.851-.1-3.708.021-5.55a9.013,9.013,0,0,1,2-4.925,8.424,8.424,0,0,1,3.061-2.381,8.636,8.636,0,0,1,6.17-.583,8.83,8.83,0,0,1,6.173,5.47,6.038,6.038,0,0,1,.509,1.588,19.24,19.24,0,0,1,.1,2.168c-.011,1.471-.013,2.942-.04,4.413-.006.319.06.47.409.469q5.042-.016,10.085-.014c.291,0,.38-.126.369-.4-.066-1.736.011-3.472-.056-5.209a7.962,7.962,0,0,1,.744-3.368,8.981,8.981,0,0,1,2.509-3.358,8.124,8.124,0,0,1,2.727-1.539,9.7,9.7,0,0,1,3.41-.507,8.814,8.814,0,0,1,6.673,3.434,5.338,5.338,0,0,1,.981,1.408,12.079,12.079,0,0,1,.724,1.986,34.455,34.455,0,0,1,.248,6.984c0,.449.076.593.544.59q4.879-.034,9.758-.015c.42,0,.575-.094.562-.542-.035-1.2-.02-2.4-.025-3.595a4.634,4.634,0,0,0,0-1.1m-68.335,8.867c-.069-.006-.1.015-.075.091l-.013.194v.13c-.011.908-.009,1.815-.039,2.722-.011.353.14.427.453.426q4.986-.011,9.972,0c.325,0,.453-.084.441-.426-.028-.834-.055-1.672-.02-2.5.022-.542-.134-.7-.7-.7-2.415.036-4.831.014-7.247.021-.925,0-1.85.026-2.775.04m39.348,3.549c.091.019.171.018.177-.106.006-.065.011-.129.016-.194,0-.044,0-.088,0-.132,0-.869-.017-1.739.016-2.607.017-.437-.131-.547-.555-.544-2.953.013-5.906,0-8.859,0-.451,0-.9.023-1.354.035-.015,0-.044,0-.044.007a.594.594,0,0,0,0,.079q-.024,1.463-.048,2.926c0,.042,0,.084-.006.127-.08.336.055.429.391.428,3.422-.014,6.844-.014,10.267-.017m14.612-1.343c-.053-3.56.035-7.12-.069-10.679a7.514,7.514,0,0,0-.22-2.048,5.492,5.492,0,0,0-5.907-3.874,5.414,5.414,0,0,0-4.675,5.538q-.014,11.306-.026,22.613c0,.485.135.614.614.611,3.216-.019,6.432-.022,9.647.01.515.005.648-.115.645-.621-.019-3.85-.01-7.7-.01-11.552M36,192.925c0,3.885.008,7.771-.01,11.656,0,.472.15.568.59.566,3.178-.018,6.356-.01,9.535-.006.767,0,.794.008.767-.785-.126-3.7-.051-7.406-.065-11.109-.015-3.794.007-7.589-.021-11.383a5.38,5.38,0,0,0-6.544-5.382,5.05,5.05,0,0,0-4.211,4.844c-.146,3.862-.041,7.733-.04,11.6m-28.783,0H7.2c0,3.885.008,7.771-.011,11.657,0,.471.146.569.59.567q4.849-.026,9.7.005c.462,0,.584-.107.582-.567-.023-6.246-.017-12.492-.044-18.738a43.616,43.616,0,0,0-.095-4.788,5.422,5.422,0,0,0-7.05-4.445,5.316,5.316,0,0,0-3.647,5.033c-.018,3.759,0,7.517,0,11.276m86.452.026h-.027c0,3.849.011,7.7-.013,11.546,0,.507.117.652.63.649q4.849-.03,9.7.011c.469,0,.541-.145.54-.551-.013-7.008-.009-14.015-.024-21.023a18.324,18.324,0,0,0-.147-2.809,5.438,5.438,0,0,0-6.722-4.24,5.245,5.245,0,0,0-3.927,5.089c-.027,3.776-.007,7.552-.007,11.328M55.823,205.134c1.651,0,3.3-.007,4.954.006.334,0,.492-.064.489-.444q-.026-3.184-.011-6.369c0-.278-.068-.389-.36-.392-.6-.005-1.192-.064-1.787-.064-2.756,0-5.512-.059-8.267.061-.33.014-.423.1-.421.438q.025,3.157-.006,6.314c0,.37.1.463.455.459,1.652-.017,3.3-.007,4.955-.009m-28.807.007v0c1.652,0,3.3-.007,4.955.006.345,0,.471-.086.466-.459-.021-1.9-.013-3.81-.016-5.715,0-.949,0-.948-.96-1.029-.2-.017-.394-.06-.592-.06-2.938,0-5.876-.084-8.813.049-.408.018-.457.15-.454.507.017,2.069.022,4.137-.007,6.205-.006.433.138.511.52.507,1.633-.016,3.267-.007,4.9-.007m57.616-.006v.009c1.543,0,3.085.008,4.628,0,.814-.006.814-.022.813-.839q0-2.64,0-5.28c0-1.021,0-1.019-.99-1.083-.161-.01-.321-.057-.482-.057-2.974,0-5.947-.089-8.921.047-.381.018-.431.136-.428.479.018,2.086.024,4.173,0,6.258-.006.414.126.478.488.475,1.633-.016,3.267-.007,4.9-.007m-.024-10.8c1.671,0,3.341-.007,5.012.006.343,0,.479-.079.467-.454-.03-.907-.025-1.815-.009-2.722.006-.333-.1-.439-.437-.438q-4.984.016-9.968.005c-.3,0-.407.09-.406.4,0,.907,0,1.816-.059,2.721-.025.387.053.492.443.488,1.652-.02,3.3-.009,4.957-.009" transform="translate(0 -97.189)" fill="#010101"/>
        <path id="Trazado_823109" data-name="Trazado 823109" d="M95.567,25.761c0-.4-.024-.8.008-1.2a.453.453,0,0,0-.38-.547,12.886,12.886,0,0,1-4.355-2.251,10.52,10.52,0,0,1-2.446-2.826,8.365,8.365,0,0,1-1.061-1.951c-.158-.544-.267-1.1-.407-1.65a10.581,10.581,0,0,1-.377-2.7A1.633,1.633,0,0,1,88.3,10.821a17.159,17.159,0,0,1,2.96.57c1.292.154,2.507.716,3.83.752.3.008.639.388.887.161.268-.247-.089-.576-.153-.873a13.993,13.993,0,0,1-.2-3.754,6.527,6.527,0,0,1,.446-2.009A11.838,11.838,0,0,1,98.86,1.185c.251-.232.491-.476.727-.723a1.961,1.961,0,0,1,2.981.54c.618,1.455,1.248,2.907,1.857,4.366.129.309.487.576.489.814a3.776,3.776,0,0,0,.369,1.131c.116.387.245.384.608.183A14.516,14.516,0,0,1,117.65,5.951a15.411,15.411,0,0,1,3.39,1.514c.415.233.549.234.754-.262.712-1.728,1.514-3.419,2.258-5.134a6.345,6.345,0,0,0,.443-1.007C124.78-.16,126.6-.253,127.361.445a14.832,14.832,0,0,1,2.586,3.1A10.511,10.511,0,0,1,131.386,7.9a9.43,9.43,0,0,1-.327,3.855c-.147.509.049.7.56.582,2.167-.5,4.322-1.064,6.5-1.489,1.494-.29,2.466.475,2.4,1.946a11.633,11.633,0,0,1-2.516,7.038,12.382,12.382,0,0,1-4.6,3.644,5.066,5.066,0,0,1-1.528.541c-.5.052-.494.452-.4.741a4.172,4.172,0,0,1-.046,1.861,14.268,14.268,0,0,1-1.21,4.568,15.918,15.918,0,0,1-2.717,4.123,17.843,17.843,0,0,1-6.616,4.57,24,24,0,0,1-4.862,1.338,14.868,14.868,0,0,1-4.162.1,20.138,20.138,0,0,1-5.772-1.475,20.446,20.446,0,0,1-3.616-1.893,17.28,17.28,0,0,1-2.445-2.168,15.082,15.082,0,0,1-3.674-5.818,11.144,11.144,0,0,1-.8-4.2m31.174,4.49a11.975,11.975,0,0,0,.779-8.487A17.238,17.238,0,0,0,125.06,16.2c-2.265-3.335-5.033-5.99-9.132-6.943a11.363,11.363,0,0,0-9.642,2.286,18.47,18.47,0,0,0-6.406,9.125,12.236,12.236,0,0,0,.189,8.98c.277.635.265.636.708.074A16,16,0,0,1,112.6,23.367a15.45,15.45,0,0,1,3.448.19,15.808,15.808,0,0,1,7.811,3.564,16.652,16.652,0,0,1,2.882,3.13m-13.3-3.3a12.821,12.821,0,0,0-2.569.244,6.46,6.46,0,0,0-1.62.464,13.325,13.325,0,0,0-6.445,5.3c-.178.286-.188.484.088.686.41.3.8.631,1.2.946a14.685,14.685,0,0,0,5.382,2.689,16.3,16.3,0,0,0,5.186.376,15.905,15.905,0,0,0,5.376-1.317,12.729,12.729,0,0,0,1.764-1.046,17.965,17.965,0,0,0,2.117-1.44c.609-.524.628-.546.164-1.224a12.706,12.706,0,0,0-10.639-5.677M95.937,20.558c.242.024.289-.106.361-.3.34-.946.709-1.882,1.074-2.82.124-.317.446-.693.359-.923-.126-.334-.629-.192-.968-.269-1.895-.426-3.784-.872-5.677-1.3-.672-.154-.683-.136-.5.521a1,1,0,0,0,.045.153,8.819,8.819,0,0,0,4.906,4.807c.133.052.27.093.405.139m40.488-5.709c-.124.03-.212.052-.3.072q-2.982.662-5.963,1.323c-.905.2-.9.2-.534,1a23.951,23.951,0,0,1,1.112,2.942c.084.272.164.506.562.331a10.032,10.032,0,0,0,3.3-2.16,8.539,8.539,0,0,0,1.951-3.046c.065-.182.223-.419-.125-.465m-36.1-9.675c-.08,0-.107,0-.221.223a7.228,7.228,0,0,0-.057,6.927c.133.265.262.264.419.036a16.659,16.659,0,0,1,1.9-2.09.369.369,0,0,0,.121-.47c-.632-1.44-1.253-2.885-1.873-4.33a.612.612,0,0,0-.286-.3m27.553,3.792A7.637,7.637,0,0,0,127,5.428c-.066-.125-.133-.3-.288-.3s-.193.2-.248.327c-.59,1.4-1.166,2.8-1.771,4.2a.581.581,0,0,0,.119.727q.907.964,1.786,1.953c.221.249.349.259.486-.066a8.131,8.131,0,0,0,.786-3.305" transform="translate(-48.697 0)" fill="#010101"/>
        <path id="Trazado_823110" data-name="Trazado 823110" d="M21.112,111.093c-1.958-.024-4.127.12-6.278-.087a7.411,7.411,0,0,1-3.972-1.7,9.711,9.711,0,0,1-3.489-5.5,5.524,5.524,0,0,1-.055-2.715.816.816,0,0,0-.084-.626A31.219,31.219,0,0,1,4.848,95.7a27.039,27.039,0,0,1-1-3.607,14.569,14.569,0,0,1-.209-3.76,8.569,8.569,0,0,1,.356-1.9.7.7,0,0,0-.185-.813,11.963,11.963,0,0,1-2.665-3.869A13.628,13.628,0,0,1,.037,75.224a11.649,11.649,0,0,1,1.3-4.332c.2-.41.3-1.053.606-1.176a3.745,3.745,0,0,1,1.363.012,12.321,12.321,0,0,1,6.861,2.459A20.239,20.239,0,0,1,13.023,74.6a.95.95,0,0,0,1.236.18,18.111,18.111,0,0,1,3.624-1.05,17.845,17.845,0,0,1,4.032-.4,20.039,20.039,0,0,1,4.886.73,11.051,11.051,0,0,1,1.975.663c.466.241.772-.091,1.08-.392a15.591,15.591,0,0,1,7.176-4.323,8.074,8.074,0,0,1,2.447-.292,1.426,1.426,0,0,0,.474-.055.765.765,0,0,1,1,.455,13.746,13.746,0,0,1,1.341,3.734,12.978,12.978,0,0,1-.084,5.816A11.464,11.464,0,0,1,39.23,85.18a.7.7,0,0,0-.144.75,13.315,13.315,0,0,1,.508,4.083,21.343,21.343,0,0,1-.736,4.409,20.333,20.333,0,0,1-2.694,5.759,1.628,1.628,0,0,0-.262,1.18,8.19,8.19,0,0,1-1.792,6.265,9.019,9.019,0,0,1-7.563,3.467c-1.744.006-3.488,0-5.434,0M7.206,89.6c.091.531.02,1.01.1,1.5a18.444,18.444,0,0,0,1.606,5.141c.175.363.279.36.54.049a8.822,8.822,0,0,1,11.6-1.7.9.9,0,0,0,1.189-.013,8.445,8.445,0,0,1,7.2-1.1A8.592,8.592,0,0,1,33.73,96.2c.425.481.443.481.69-.075a17.922,17.922,0,0,0,1.506-5.123,11.232,11.232,0,0,0-.209-4.132,12.667,12.667,0,0,0-6.336-8,15.891,15.891,0,0,0-6.438-1.877,16.044,16.044,0,0,0-4.295.18,13.879,13.879,0,0,0-6.153,2.574A11.925,11.925,0,0,0,7.206,89.6m14.348,17.85v.037c1.581,0,3.161,0,4.741,0a8.914,8.914,0,0,0,1.846-.1,5.316,5.316,0,0,0,4.15-6.334,5.006,5.006,0,0,0-3.6-4.059,5.057,5.057,0,0,0-5.3,1.173A14.044,14.044,0,0,0,22.007,99.7c-.316.41-.5.327-.774-.018-.337-.427-.706-.829-1.075-1.231a5.163,5.163,0,0,0-5.1-1.607,5.345,5.345,0,0,0-4.091,6.5,5.171,5.171,0,0,0,4.868,4.093c1.906.052,3.814.01,5.721.01M3.626,76.419a9.48,9.48,0,0,0,1.6,5.448c.272.429.38.335.6-.034a15.478,15.478,0,0,1,4.233-4.691c.3-.217.223-.342.015-.531a16.071,16.071,0,0,0-2.833-2.1,8.754,8.754,0,0,0-2.45-.934c-.458-.1-.722-.061-.858.505a9.188,9.188,0,0,0-.308,2.338m28.9.227c.254.188.489.355.718.531a16.321,16.321,0,0,1,3.951,4.237c.242.385.352.322.557-.045A10.03,10.03,0,0,0,38.934,77.9a10.4,10.4,0,0,0-.258-3.983c-.08-.331-.209-.54-.689-.426a12.961,12.961,0,0,0-5.463,3.153" transform="translate(-0.002 -39.171)" fill="#010101"/>
        <path id="Trazado_823111" data-name="Trazado 823111" d="M186.1,109.809a4.569,4.569,0,0,0,.047-1.242q0-5.673-.017-11.346c.135-.279-.148-.265-.26-.372a8.915,8.915,0,0,0-2.182-1.434c-1.482-.882-2.929-1.818-4.4-2.719-.475-.292-.964-.562-1.444-.846a1.8,1.8,0,0,1-.131-2.7A15.428,15.428,0,0,1,180.18,87.2a12.064,12.064,0,0,1,5.608-1.954,1.348,1.348,0,0,0,1.205-1.1,10.61,10.61,0,0,1,2.41-3.939c.244-.254.428-.576.7-.811.158-.138.08-.207,0-.351-.285-.509-.8-.8-1.145-1.252a6.735,6.735,0,0,1-1.285-3.04c-.493-2.835,2.29-5.717,4.343-6.406a5.59,5.59,0,0,1,5.532,1.208,1.875,1.875,0,0,0,2.293-.005,8.646,8.646,0,0,1,1.977-1.14,5.418,5.418,0,0,1,5.521,1.111,6.621,6.621,0,0,1,2.22,3.038,5.379,5.379,0,0,1-1.362,5.6c-.356.377-.772.7-1.16,1.047a12.421,12.421,0,0,1,3.07,4.021,11.556,11.556,0,0,1,1.158,4.788c.216,7.15.025,14.3.092,21.449a.635.635,0,0,1-.08.453c-.586-.392-1.152-.813-1.757-1.165-1.494-.869-2.856-1.93-4.288-2.888-.226-.151-.457-.3-.676-.456a.621.621,0,0,0-.8,0c-1.377.942-2.759,1.876-4.134,2.82-.9.618-.9.628-1.8.005-1.313-.906-2.629-1.808-3.923-2.739a.806.806,0,0,0-1.071.007c-2.169,1.48-4.353,2.94-6.532,4.407l-.2-.1m21.663-6.509v-.535c0-4.793,0-9.586-.021-14.379a8.271,8.271,0,0,0-.271-1.909,8.963,8.963,0,0,0-10.551-6.643,8.64,8.64,0,0,0-5.014,2.952,7.975,7.975,0,0,0-2.1,5.02c-.1,4.755-.038,9.513-.042,14.27a1.8,1.8,0,0,1-.024.486c-.056.193-.173.413.019.541s.4-.05.564-.162c.832-.551,1.676-1.085,2.478-1.678a.841.841,0,0,1,1.121-.012c1.424.97,2.869,1.91,4.287,2.889a.888.888,0,0,0,1.171-.007c1.415-.983,2.865-1.915,4.285-2.892a.807.807,0,0,1,1.069.025c.958.676,1.945,1.309,3.032,2.034m-9.086-27.247a12.507,12.507,0,0,1,4.931,1.006.577.577,0,0,0,.764-.133c.453-.494.94-.957,1.406-1.44a1.643,1.643,0,0,0,.346-1.864,3.58,3.58,0,0,0-1.409-1.579A1.721,1.721,0,0,0,203,71.8c-.8.349-1.454.917-2.307,1.216a6.425,6.425,0,0,1-2.073.519,6,6,0,0,1-3.354-1.217c-.82-.545-1.62-.951-2.556-.3a4.644,4.644,0,0,0-.963.95,1.783,1.783,0,0,0,.076,2.647c.4.443.859.834,1.263,1.275a.671.671,0,0,0,.9.15,11.416,11.416,0,0,1,4.687-.988m-12.514,14.7h-.009c0-.507-.021-1.016.007-1.521.022-.4-.164-.47-.491-.4a11.544,11.544,0,0,0-3.245,1.182c-.314.172-.25.293-.008.438,1.134.677,2.27,1.35,3.4,2.028.254.152.352.094.345-.2-.01-.507,0-1.014,0-1.522" transform="translate(-99.689 -38.314)" fill="#010101"/>
        <path id="Trazado_823112" data-name="Trazado 823112" d="M205.648,193.716a4.61,4.61,0,0,1,0,1.1.808.808,0,0,1,0-1.1" transform="translate(-115.586 -108.995)" fill="#a8b0bb"/>
        <path id="Trazado_823113" data-name="Trazado 823113" d="M197.055,133.84c.112.107.394.093.26.372a.315.315,0,0,1-.26-.372" transform="translate(-110.873 -75.306)" fill="#a8b0bb"/>
        <path id="Trazado_823114" data-name="Trazado 823114" d="M197.547,163.474l.2.1c-.009.083-.066.127-.136.107-.108-.031-.1-.118-.06-.2" transform="translate(-111.135 -91.979)" fill="#a8b0bb"/>
        <path id="Trazado_823115" data-name="Trazado 823115" d="M159.044,197.61c0,3.851-.009,7.7.01,11.552,0,.505-.13.625-.645.621-3.215-.032-6.431-.029-9.647-.01-.48,0-.616-.127-.614-.611q.029-11.306.026-22.613a5.414,5.414,0,0,1,4.675-5.538,5.492,5.492,0,0,1,5.907,3.874,7.5,7.5,0,0,1,.22,2.048c.1,3.559.015,7.119.069,10.679m-5.48-9.516a1.757,1.757,0,1,0,.045-3.513,1.873,1.873,0,0,0-1.769,1.665,1.833,1.833,0,0,0,1.724,1.847" transform="translate(-83.356 -101.816)" fill="#b27845"/>
        <path id="Trazado_823116" data-name="Trazado 823116" d="M82.27,197.592c0-3.867-.105-7.738.041-11.6a5.05,5.05,0,0,1,4.211-4.843,5.381,5.381,0,0,1,6.544,5.382c.028,3.794.006,7.588.021,11.383.015,3.7-.06,7.406.066,11.109.027.793,0,.785-.767.785-3.178,0-6.356-.011-9.534.007-.441,0-.593-.094-.591-.566.019-3.885.01-7.771.01-11.656m5.382-9.459a2.138,2.138,0,0,0,1.885-1.474,1.937,1.937,0,0,0-1.808-2.038,1.8,1.8,0,0,0-1.762,1.652,1.748,1.748,0,0,0,1.686,1.86" transform="translate(-46.269 -101.857)" fill="#b27845"/>
        <path id="Trazado_823117" data-name="Trazado 823117" d="M16.466,197.56c0-3.759-.014-7.517,0-11.276a5.316,5.316,0,0,1,3.646-5.033,5.421,5.421,0,0,1,7.05,4.445,43.617,43.617,0,0,1,.095,4.788c.028,6.246.021,12.492.044,18.738,0,.46-.12.57-.583.567q-4.849-.037-9.7-.005c-.443,0-.592-.1-.59-.567.019-3.885.011-7.771.011-11.657ZM23.55,186.4a1.711,1.711,0,1,0-3.419-.045,1.731,1.731,0,0,0,1.755,1.748,1.77,1.77,0,0,0,1.664-1.7" transform="translate(-9.248 -101.825)" fill="#b27845"/>
        <path id="Trazado_823118" data-name="Trazado 823118" d="M214.129,197.6c0-3.776-.02-7.552.007-11.328a5.244,5.244,0,0,1,3.927-5.088,5.437,5.437,0,0,1,6.722,4.239,18.27,18.27,0,0,1,.147,2.809c.015,7.008.011,14.015.024,21.023,0,.406-.071.555-.54.551q-4.849-.045-9.7-.01c-.513,0-.633-.142-.63-.649.024-3.848.013-7.7.013-11.546Zm5.313-9.489a1.756,1.756,0,0,0,.164-3.508,1.883,1.883,0,0,0-1.861,1.7,1.766,1.766,0,0,0,1.7,1.811" transform="translate(-120.458 -101.836)" fill="#b27845"/>
        <path id="Trazado_823119" data-name="Trazado 823119" d="M115.259,216.954q.024-1.463.048-2.926a.074.074,0,0,0,.041-.086c.452-.012.9-.035,1.355-.035,2.953,0,5.906.014,8.859,0,.424,0,.572.108.555.544-.033.868-.014,1.738-.016,2.607l-.133.068.136.064-.016.194-.177.106c-3.422,0-6.845,0-10.267.017-.336,0-.471-.092-.391-.428.067-.039.077-.081.006-.127" transform="translate(-64.835 -120.356)" fill="#deb18a"/>
        <path id="Trazado_823120" data-name="Trazado 823120" d="M49.429,214.2l.013-.195.075-.09c.925-.014,1.85-.038,2.775-.041,2.416-.007,4.832.015,7.247-.021.563-.008.72.154.7.7-.035.833-.008,1.67.02,2.5.011.343-.116.427-.441.426q-4.986-.014-9.972,0c-.313,0-.464-.074-.453-.426.03-.907.028-1.815.039-2.723.073-.044.07-.087,0-.129" transform="translate(-27.79 -120.324)" fill="#deb18a"/>
        <path id="Trazado_823121" data-name="Trazado 823121" d="M186.507,217.486c-1.652,0-3.305-.011-4.957.009-.391,0-.469-.1-.443-.488.059-.9.063-1.814.059-2.721,0-.314.1-.4.406-.4q4.984.008,9.968-.005c.332,0,.443.1.437.438-.017.907-.021,1.815.009,2.722.013.375-.124.457-.467.454-1.671-.014-3.341-.006-5.012-.006" transform="translate(-101.898 -120.339)" fill="#deb18a"/>
        <path id="Trazado_823122" data-name="Trazado 823122" d="M139.918,221.25l-.136-.064.133-.068c0,.044,0,.088,0,.132" transform="translate(-78.649 -124.413)" fill="#b27845"/>
        <path id="Trazado_823123" data-name="Trazado 823123" d="M139.652,221.969l.177-.106c-.006.124-.085.125-.177.106" transform="translate(-78.576 -124.832)" fill="#b27845"/>
        <path id="Trazado_823124" data-name="Trazado 823124" d="M49.571,213.99l-.075.09c-.03-.075.007-.1.075-.09" transform="translate(-27.843 -120.402)" fill="#b27845"/>
        <path id="Trazado_823125" data-name="Trazado 823125" d="M115.443,213.987a.075.075,0,0,1-.041.086.477.477,0,0,1,0-.079s.028,0,.044-.007" transform="translate(-64.929 -120.401)" fill="#b27845"/>
        <path id="Trazado_823126" data-name="Trazado 823126" d="M49.479,214.642c.072.042.075.086,0,.129v-.129" transform="translate(-27.84 -120.769)" fill="#b27845"/>
        <path id="Trazado_823127" data-name="Trazado 823127" d="M115.288,220.874c.071.046.061.088-.006.127,0-.042,0-.084.006-.127" transform="translate(-64.864 -124.276)" fill="#b27845"/>
        <path id="Trazado_823128" data-name="Trazado 823128" d="M142.915,41.815a16.651,16.651,0,0,0-2.882-3.13,15.812,15.812,0,0,0-7.811-3.564,15.451,15.451,0,0,0-3.448-.19,16,16,0,0,0-11.824,6.355c-.443.562-.43.56-.708-.074a12.236,12.236,0,0,1-.189-8.98,18.467,18.467,0,0,1,6.406-9.125A11.362,11.362,0,0,1,132.1,20.82c4.1.953,6.867,3.608,9.132,6.943a17.24,17.24,0,0,1,2.461,5.566,11.974,11.974,0,0,1-.779,8.486m-6.063-12.282a1.745,1.745,0,1,0-3.489-.068,1.8,1.8,0,0,0,1.7,1.782,1.708,1.708,0,0,0,1.787-1.714m-10.78-.017c.005-1.109-.719-1.679-2.139-1.685a1.56,1.56,0,0,0-1.363,1.627,1.744,1.744,0,0,0,1.717,1.786,1.726,1.726,0,0,0,1.785-1.728" transform="translate(-64.871 -11.565)" fill="#a8b0bb"/>
        <path id="Trazado_823129" data-name="Trazado 823129" d="M134.2,61.611a12.707,12.707,0,0,1,10.639,5.677c.465.679.446.7-.164,1.225a17.926,17.926,0,0,1-2.117,1.439A12.707,12.707,0,0,1,140.794,71a15.9,15.9,0,0,1-5.376,1.317,16.294,16.294,0,0,1-5.185-.376,14.685,14.685,0,0,1-5.382-2.689c-.4-.315-.787-.645-1.2-.946-.275-.2-.265-.4-.087-.686a13.323,13.323,0,0,1,6.445-5.3,6.479,6.479,0,0,1,1.62-.464,12.824,12.824,0,0,1,2.569-.244m-1.811,5.4A1.661,1.661,0,0,0,130.7,65.2a1.769,1.769,0,0,0-1.8,1.756,1.813,1.813,0,0,0,1.652,1.752,1.6,1.6,0,0,0,1.834-1.7m5.419,1.7a1.645,1.645,0,0,0,1.842-1.693,1.785,1.785,0,0,0-1.821-1.8,1.829,1.829,0,0,0-1.74,1.676,1.782,1.782,0,0,0,1.719,1.821" transform="translate(-69.454 -34.659)" fill="#f8f9fb"/>
        <path id="Trazado_823130" data-name="Trazado 823130" d="M101,39.674c-.135-.046-.272-.086-.4-.139a8.819,8.819,0,0,1-4.907-4.807,1.04,1.04,0,0,1-.045-.153c-.178-.656-.168-.674.505-.521,1.893.432,3.783.878,5.677,1.3.339.077.842-.065.968.269.087.229-.236.606-.359.922-.365.937-.733,1.874-1.074,2.82-.071.2-.119.329-.361.3" transform="translate(-53.758 -19.116)" fill="#a8b0bb"/>
        <path id="Trazado_823131" data-name="Trazado 823131" d="M191.546,33.953c.348.045.19.282.125.465a8.535,8.535,0,0,1-1.951,3.046,10.041,10.041,0,0,1-3.3,2.16c-.4.175-.477-.058-.562-.331a23.853,23.853,0,0,0-1.112-2.942c-.368-.8-.371-.8.534-1q2.981-.665,5.963-1.323c.089-.02.177-.042.3-.072" transform="translate(-103.819 -19.104)" fill="#a8b0bb"/>
        <path id="Trazado_823132" data-name="Trazado 823132" d="M116.583,11.829a.611.611,0,0,1,.287.3c.62,1.445,1.24,2.89,1.873,4.33a.369.369,0,0,1-.121.469,16.621,16.621,0,0,0-1.9,2.09c-.157.228-.286.23-.419-.036a7.228,7.228,0,0,1,.057-6.926c.114-.219.141-.222.221-.223" transform="translate(-64.959 -6.656)" fill="#a8b0bb"/>
        <path id="Trazado_823133" data-name="Trazado 823133" d="M176.858,15.568a8.132,8.132,0,0,1-.786,3.305c-.137.325-.265.314-.486.066q-.877-.991-1.786-1.953a.581.581,0,0,1-.119-.727c.6-1.393,1.181-2.8,1.771-4.2.055-.129.086-.321.248-.327s.222.171.288.3a7.637,7.637,0,0,1,.87,3.538" transform="translate(-97.68 -6.603)" fill="#a8b0bb"/>
        <path id="Trazado_823134" data-name="Trazado 823134" d="M16.47,99a11.925,11.925,0,0,1,5.288-9.851,13.873,13.873,0,0,1,6.153-2.575,16.043,16.043,0,0,1,4.295-.179,15.886,15.886,0,0,1,6.438,1.877,12.667,12.667,0,0,1,6.336,8,11.251,11.251,0,0,1,.209,4.132,17.935,17.935,0,0,1-1.506,5.123c-.247.556-.265.555-.691.075a8.6,8.6,0,0,0-4.291-2.723,8.449,8.449,0,0,0-7.2,1.1.9.9,0,0,1-1.188.013,8.821,8.821,0,0,0-11.6,1.7c-.261.311-.365.314-.54-.049a18.451,18.451,0,0,1-1.606-5.141c-.078-.491-.006-.97-.1-1.5M25.5,93.62a1.629,1.629,0,0,0-1.811,1.573,1.862,1.862,0,0,0,1.711,1.9,1.779,1.779,0,0,0,1.87-1.78A1.641,1.641,0,0,0,25.5,93.62m10.827,0a1.717,1.717,0,0,0-1.848,1.631c0,.809.876,1.852,1.545,1.837,1.231-.027,2.041-.719,2.045-1.75a1.641,1.641,0,0,0-1.742-1.718" transform="translate(-9.267 -48.566)" fill="#deb18a"/>
        <path id="Trazado_823135" data-name="Trazado 823135" d="M35.462,142.293c-1.907,0-3.815.042-5.721-.01a5.172,5.172,0,0,1-4.869-4.093,5.345,5.345,0,0,1,4.092-6.505,5.165,5.165,0,0,1,5.1,1.607c.368.4.737.8,1.075,1.231.272.344.458.428.774.018A14.048,14.048,0,0,1,37.3,133a5.058,5.058,0,0,1,5.3-1.173,5,5,0,0,1,3.6,4.059,5.315,5.315,0,0,1-4.15,6.333,8.921,8.921,0,0,1-1.846.1c-1.58,0-3.161,0-4.741,0v-.037m-5.33-3.584a1.763,1.763,0,1,0-.015-3.525,1.8,1.8,0,0,0-1.793,1.8,1.769,1.769,0,0,0,1.808,1.721M39.2,136.9a1.759,1.759,0,0,0,3.517.124,1.769,1.769,0,0,0-1.739-1.831A1.683,1.683,0,0,0,39.2,136.9" transform="translate(-13.911 -74.014)" fill="#deb18a"/>
        <path id="Trazado_823136" data-name="Trazado 823136" d="M8.281,81.454a9.2,9.2,0,0,1,.307-2.338c.137-.566.4-.609.858-.505a8.764,8.764,0,0,1,2.45.934,16.071,16.071,0,0,1,2.833,2.1c.208.19.286.314-.016.531a15.476,15.476,0,0,0-4.233,4.691c-.222.37-.329.463-.6.034a9.48,9.48,0,0,1-1.6-5.448" transform="translate(-4.658 -44.206)" fill="#deb18a"/>
        <path id="Trazado_823137" data-name="Trazado 823137" d="M74.364,81.591a12.96,12.96,0,0,1,5.463-3.153c.479-.115.608.095.689.426a10.4,10.4,0,0,1,.258,3.983,10.03,10.03,0,0,1-1.183,3.467c-.205.367-.315.431-.557.045a16.321,16.321,0,0,0-3.951-4.237c-.229-.176-.464-.343-.718-.531" transform="translate(-41.841 -44.115)" fill="#deb18a"/>
        <path id="Trazado_823138" data-name="Trazado 823138" d="M223.812,118.175c-1.086-.724-2.074-1.358-3.033-2.034a.806.806,0,0,0-1.069-.025c-1.419.977-2.869,1.909-4.284,2.892a.888.888,0,0,1-1.171.007c-1.418-.979-2.863-1.919-4.287-2.889a.841.841,0,0,0-1.121.013c-.8.592-1.646,1.126-2.478,1.678-.169.112-.37.291-.564.162s-.075-.348-.019-.541a1.8,1.8,0,0,0,.024-.486c0-4.757-.054-9.515.041-14.27a7.976,7.976,0,0,1,2.1-5.02,8.64,8.64,0,0,1,5.014-2.952,8.962,8.962,0,0,1,10.55,6.642,8.274,8.274,0,0,1,.271,1.909c.025,4.793.018,9.586.021,14.379v.535m-10.9-16.293a1.646,1.646,0,0,0-1.374-1.9,1.769,1.769,0,1,0-.52,3.5,1.628,1.628,0,0,0,1.895-1.595" transform="translate(-115.738 -53.19)" fill="#fe816d"/>
        <path id="Trazado_823139" data-name="Trazado 823139" d="M216.716,80.648a11.414,11.414,0,0,0-4.686.988.671.671,0,0,1-.9-.151c-.4-.441-.862-.832-1.263-1.275a1.782,1.782,0,0,1-.075-2.647,4.665,4.665,0,0,1,.962-.951c.935-.646,1.736-.24,2.556.305a6,6,0,0,0,3.354,1.217,6.425,6.425,0,0,0,2.073-.519c.853-.3,1.511-.868,2.307-1.216a1.72,1.72,0,0,1,1.715.24,3.58,3.58,0,0,1,1.409,1.579,1.642,1.642,0,0,1-.345,1.864c-.466.483-.953.946-1.406,1.44a.576.576,0,0,1-.764.133,12.507,12.507,0,0,0-4.932-1.006" transform="translate(-117.728 -42.91)" fill="#deb18a"/>
        <path id="Trazado_823140" data-name="Trazado 823140" d="M192.642,117.4c0,.507-.008,1.014,0,1.522.006.3-.092.354-.345.2-1.133-.678-2.268-1.351-3.4-2.028-.242-.145-.306-.266.008-.438a11.544,11.544,0,0,1,3.245-1.182c.327-.067.513,0,.491.4-.028.506-.007,1.014-.007,1.521Z" transform="translate(-106.168 -64.963)" fill="#fe816d"/>
        <path id="Trazado_823141" data-name="Trazado 823141" d="M158.31,192.757a1.833,1.833,0,0,1-1.724-1.847,1.873,1.873,0,0,1,1.769-1.665,1.757,1.757,0,1,1-.045,3.513" transform="translate(-88.102 -106.479)" fill="#010101"/>
        <path id="Trazado_823142" data-name="Trazado 823142" d="M92.454,192.755a1.748,1.748,0,0,1-1.686-1.86,1.8,1.8,0,0,1,1.763-1.652,1.937,1.937,0,0,1,1.808,2.038,2.138,2.138,0,0,1-1.885,1.474" transform="translate(-51.071 -106.478)" fill="#010101"/>
        <path id="Trazado_823143" data-name="Trazado 823143" d="M28.3,191.042a1.77,1.77,0,0,1-1.664,1.7A1.731,1.731,0,0,1,24.885,191a1.711,1.711,0,1,1,3.419.045" transform="translate(-14.002 -106.469)" fill="#010101"/>
        <path id="Trazado_823144" data-name="Trazado 823144" d="M224.143,192.75a1.766,1.766,0,0,1-1.7-1.811,1.883,1.883,0,0,1,1.861-1.7,1.756,1.756,0,0,1-.164,3.508" transform="translate(-125.159 -106.478)" fill="#010101"/>
        <path id="Trazado_823145" data-name="Trazado 823145" d="M160.1,38.76a1.708,1.708,0,0,1-1.787,1.714,1.8,1.8,0,0,1-1.7-1.782,1.745,1.745,0,1,1,3.488.068" transform="translate(-88.118 -20.79)" fill="#010101"/>
        <path id="Trazado_823146" data-name="Trazado 823146" d="M135.433,38.879a1.726,1.726,0,0,1-1.785,1.728,1.744,1.744,0,0,1-1.717-1.786,1.56,1.56,0,0,1,1.363-1.627c1.42.006,2.144.576,2.139,1.685" transform="translate(-74.231 -20.927)" fill="#010101"/>
        <path id="Trazado_823147" data-name="Trazado 823147" d="M139.415,71.635a1.6,1.6,0,0,1-1.834,1.7,1.813,1.813,0,0,1-1.652-1.752,1.769,1.769,0,0,1,1.8-1.756,1.661,1.661,0,0,1,1.684,1.81" transform="translate(-76.48 -39.287)" fill="#010101"/>
        <path id="Trazado_823148" data-name="Trazado 823148" d="M154.081,73.343a1.782,1.782,0,0,1-1.719-1.821,1.829,1.829,0,0,1,1.74-1.676,1.785,1.785,0,0,1,1.821,1.8,1.645,1.645,0,0,1-1.842,1.693" transform="translate(-85.727 -39.299)" fill="#010101"/>
        <path id="Trazado_823149" data-name="Trazado 823149" d="M34.782,103.016a1.642,1.642,0,0,1,1.77,1.692,1.778,1.778,0,0,1-1.87,1.78,1.862,1.862,0,0,1-1.711-1.9,1.63,1.63,0,0,1,1.811-1.573" transform="translate(-18.551 -57.962)" fill="#010101"/>
        <path id="Trazado_823150" data-name="Trazado 823150" d="M59.49,103.016a1.641,1.641,0,0,1,1.742,1.718c0,1.031-.814,1.724-2.045,1.75-.67.014-1.547-1.029-1.545-1.837a1.717,1.717,0,0,1,1.848-1.631" transform="translate(-32.433 -57.962)" fill="#010101"/>
        <path id="Trazado_823151" data-name="Trazado 823151" d="M34.763,143.392a1.769,1.769,0,0,1-1.808-1.721,1.8,1.8,0,0,1,3.6-.078,1.775,1.775,0,0,1-1.787,1.8" transform="translate(-18.542 -78.697)" fill="#010101"/>
        <path id="Trazado_823152" data-name="Trazado 823152" d="M57.819,141.586a1.683,1.683,0,0,1,1.777-1.707,1.769,1.769,0,0,1,1.739,1.831,1.759,1.759,0,0,1-3.517-.124" transform="translate(-32.532 -78.704)" fill="#010101"/>
        <path id="Trazado_823153" data-name="Trazado 823153" d="M217.69,108.878a1.628,1.628,0,0,1-1.895,1.595,1.769,1.769,0,1,1,.52-3.5,1.646,1.646,0,0,1,1.374,1.9" transform="translate(-120.519 -60.186)" fill="#010101"/>
      </g>
    </g>
  </g>
</svg>
