<svg xmlns="http://www.w3.org/2000/svg" xmlns:xlink="http://www.w3.org/1999/xlink" width="169" height="169" viewBox="0 0 169 169">
  <defs>
    <clipPath id="clip-path">
      <rect id="Rect치ngulo_377856" data-name="Rect치ngulo 377856" width="101" height="112.223" fill="none"/>
    </clipPath>
  </defs>
  <g id="Grupo_1073685" data-name="Grupo 1073685" transform="translate(-384.743 -2057.999)">
    <g id="Grupo_159182" data-name="Grupo 159182" transform="translate(384.743 2057.999)">
      <path id="Uni칩n_12" data-name="Uni칩n 12" d="M84.5,0A84.5,84.5,0,1,1,0,84.5,84.5,84.5,0,0,1,84.5,0Z" transform="translate(0 0)" fill="#ffae7e"/>
    </g>
    <g id="Grupo_1073335" data-name="Grupo 1073335" transform="translate(419.743 2084.999)">
      <g id="Grupo_1073687" data-name="Grupo 1073687" transform="translate(-9 6.773)">
        <g id="Grupo_1073687-2" data-name="Grupo 1073687" clip-path="url(#clip-path)">
          <path id="Trazado_823069" data-name="Trazado 823069" d="M39.138,103.3a4.186,4.186,0,0,1-3.409-.886,3.126,3.126,0,0,1-1.162-2.105,4.06,4.06,0,0,1,.689-3.06c.211-.259.472-.452.7-.688,1.734-1.814,3.435-3.663,5.229-5.416,1.39-1.358,2.642-2.849,4.086-4.151.257-.232.337-.613.69-.779.208-.1.04-.224-.052-.333-.446-.536-.944-1.021-1.437-1.514Q23.463,63.377,2.463,42.38A8.437,8.437,0,0,1,.326,39.2a5.6,5.6,0,0,1-.291-2.462,7.809,7.809,0,0,1,.547-2.013,6.266,6.266,0,0,1,1.4-2.076q5.294-5.282,10.575-10.577Q22.592,12.035,32.618,1.994a6.589,6.589,0,0,1,9.4-.04Q57.283,17.221,72.546,32.488q12.687,12.69,25.377,25.377c.561.562,1.122,1.127,1.648,1.723a6,6,0,0,1,1.408,3.647,6.72,6.72,0,0,1-2.275,5.5c-5.182,5.15-10.331,10.332-15.514,15.48-.5.494-.983,1-1.484,1.488-.441.431-.423.677.046,1.077,1.011.862,1.894,1.851,2.812,2.807,1.032,1.074,2.023,2.184,3.106,3.216A53.231,53.231,0,0,1,92,97.449a3.639,3.639,0,0,1-2.826,5.857c-1.553.027-3.107-.1-4.661-.161-1.47-.06-2.94-.212-4.415-.14a.362.362,0,0,0-.393.272c-.681,1.834-1.385,3.659-2.086,5.485A10.978,10.978,0,0,1,77,110.258a3.826,3.826,0,0,1-4.858,1.634c-2.52-1.077-5.121-1.954-7.65-3a2.233,2.233,0,0,0-1.894.066c-1.907.786-3.839,1.5-5.789,2.18-.88.305-1.73.7-2.627.967a3.267,3.267,0,0,1-2.988-.739,4.735,4.735,0,0,1-1.5-2.456c-.394-1.124-.982-2.166-1.316-3.314-.227-.78-.567-1.527-.825-2.3a.5.5,0,0,0-.605-.383c-.962.147-1.936.119-2.9.214-1.213.12-2.428.093-3.643.108-.307,0-.613.239-.919-.007-.155-.163-.272-.152-.341.076m17.879-11.9a1.632,1.632,0,0,0,.284.15,3.164,3.164,0,0,0,3.369-.976q3.93-3.956,7.842-7.931c4.838-4.9,9.728-9.748,14.6-14.616q3.861-3.86,7.726-7.717a2.85,2.85,0,0,0,.932-2.144,3.5,3.5,0,0,0-1.214-2.428C79.249,44.493,68.045,33.154,56.7,21.956c-5.46-5.388-10.855-10.841-16.276-16.27-.356-.356-.724-.7-1.059-1.079a2.78,2.78,0,0,0-3.171-.557,1.192,1.192,0,0,0-.74.429c-1.012.973-2.011,1.96-3.012,2.945A.63.63,0,0,0,32.215,8c.158,1.02.3,2.043.445,3.065.158,1.13.375,2.258.448,3.394a6.439,6.439,0,0,1-1.981,5.108c-1.643,1.66-3.3,3.306-4.951,4.957-1.083,1.083-2.145,2.189-3.256,3.243a36.387,36.387,0,0,1-4.32,4.1,6.093,6.093,0,0,1-3.421,1.219,23.078,23.078,0,0,1-2.422-.22c-1.21-.122-2.408-.324-3.6-.556a2.063,2.063,0,0,0-2.349.709A9.882,9.882,0,0,1,5.1,34.794a3.026,3.026,0,0,0-.4,4.665L54.28,89.033c.516.517,1.04,1.026,1.545,1.553a3.123,3.123,0,0,0,1.192.808M89.135,99.6c-.237-.255-.365-.4-.5-.537q-4.8-4.951-9.6-9.909c-.362-.376-.556-.218-.834.061-3.245,3.257-6.5,6.5-9.743,9.762a6.622,6.622,0,0,1-4.414,2.026,6.2,6.2,0,0,1-4.66-1.7c-.987-.913-1.932-1.874-2.886-2.823q-2.116-2.1-4.219-4.222-1.528-1.531-3.055-3.063c-.461-.461-.516-.448-.945.015s-.867.888-1.3,1.335q-3.988,4.141-7.97,8.286c-.2.208-.636.359-.519.66.124.323.479,0,.73-.007,1.668-.043,3.334-.136,5-.195q2.236-.078,4.472-.118a1.6,1.6,0,0,1,1.743,1.2q1.334,3.516,2.655,7.037c.379,1.009.374,1.006,1.383.658,2.63-.907,5.205-1.957,7.795-2.97a3.438,3.438,0,0,1,2.69-.025c2.789,1.113,5.6,2.171,8.4,3.258.356.138.593.1.717-.3.12-.382.259-.758.393-1.135.723-2.02,1.463-4.035,2.165-6.062.433-1.251.948-1.686,2.278-1.653,1.63.04,3.258.146,4.888.208.8.031,1.606,0,2.407.044.918.045,1.831.187,2.928.172m8.138-35.838a2.835,2.835,0,0,0-.336-1.43,8.543,8.543,0,0,0-1.552-1.758c-.223-.237-.318.018-.382.17a7.425,7.425,0,0,1-1.8,2.431c-1.388,1.333-2.712,2.734-4.075,4.094q-4.506,4.5-9.022,8.987c-2.71,2.71-5.405,5.434-8.113,8.145-1.507,1.508-3.029,3-4.54,4.505-1.083,1.076-2.156,2.162-3.24,3.237-1.068,1.06-2.018,2.27-3.518,2.791-.245.085-.188.244-.064.431a5.41,5.41,0,0,0,1.07,1.067,2.705,2.705,0,0,0,3.988.018c4.152-4.03,8.192-8.175,12.321-12.23C83.543,78.787,89,73.262,94.483,67.771q1.064-1.065,2.093-2.167a2.558,2.558,0,0,0,.7-1.839m-67.832-49c-.146-1.064-.287-2.128-.444-3.19-.022-.15.066-.376-.118-.443-.216-.078-.3.169-.418.288q-8.51,8.484-17.01,16.978c-.1.1-.272.167-.213.346s.226.157.368.177c.758.106,1.526.167,2.271.329a3.757,3.757,0,0,0,3.764-1.3c1.762-1.849,3.6-3.624,5.406-5.432q2.631-2.634,5.258-5.272a3.38,3.38,0,0,0,1.136-2.477" transform="translate(0 0)"/>
          <path id="Trazado_823070" data-name="Trazado 823070" d="M89.022,234.72c.069-.227.186-.238.341-.076-.083.167-.212.118-.341.076" transform="translate(-49.884 -131.422)" fill="#5f7c8a"/>
          <path id="Trazado_823071" data-name="Trazado 823071" d="M61.833,96.555a3.118,3.118,0,0,1-1.192-.808c-.506-.527-1.029-1.036-1.545-1.553L9.514,44.62a3.026,3.026,0,0,1,.4-4.666,9.88,9.88,0,0,0,1.709-1.771,2.064,2.064,0,0,1,2.35-.709c1.19.233,2.386.434,3.6.556A23.2,23.2,0,0,0,20,38.25a6.1,6.1,0,0,0,3.421-1.218,36.391,36.391,0,0,0,4.32-4.1c1.111-1.054,2.173-2.16,3.256-3.243,1.651-1.651,3.308-3.3,4.951-4.957a6.436,6.436,0,0,0,1.981-5.108c-.073-1.136-.29-2.263-.448-3.393-.143-1.023-.288-2.045-.445-3.065a.629.629,0,0,1,.227-.582c1-.984,2-1.971,3.012-2.945a1.194,1.194,0,0,1,.74-.429,1.213,1.213,0,0,0,.452.726Q54.89,23.357,68.316,36.781q8.212,8.21,16.421,16.425c.4.4.726.874,1.153,1.235a46.9,46.9,0,0,1,3.393,3.336,22.17,22.17,0,0,0,1.757,1.792,5.121,5.121,0,0,1,1.8,3.589,4.547,4.547,0,0,1-1.608,3.727c-7.735,7.8-15.608,15.472-23.26,23.36-1.132,1.166-2.31,2.286-3.44,3.454a24.018,24.018,0,0,0-2.7,2.855M70.3,53.694a3.806,3.806,0,0,0-3.414-3.627.3.3,0,0,0-.368-.052l-.7,0a25.028,25.028,0,0,0-3.353,0h-.155a1.067,1.067,0,0,0-.8.046c-.155.02-.317.091-.446-.067L61,49.856c-.006-.291-.017-.583-.018-.874-.007-1.551.024-3.1-.024-4.652a3.733,3.733,0,0,0-3.234-3.581,26.85,26.85,0,0,0-3.989-.068,4.69,4.69,0,0,0-1.123.16,3.766,3.766,0,0,0-2.831,3.6c-.029,1.623-.016,3.247-.021,4.871a.133.133,0,0,0,0,.227c-.007.175.069.38-.168.474a.218.218,0,0,0-.259.03l-.208-.01-.15-.018-.7-.007a.224.224,0,0,0-.25.007l-.22,0a22.664,22.664,0,0,0-3.319-.01l-.154,0a.2.2,0,0,0-.257.029,3.793,3.793,0,0,0-3.608,3.42c-.068,1.384-.053,2.775-.029,4.161a3.782,3.782,0,0,0,3.872,3.644c1.534-.024,3.068,0,4.6,0,.842,0,.859.014.858.874q0,2.356-.009,4.711a.132.132,0,0,0,.007.226,3.728,3.728,0,0,0,3.883,3.512c1.186.01,2.372.005,3.558,0a3.637,3.637,0,0,0,3.755-3.626c.041-1.677.014-3.356.018-5.035.011-.012.033-.028.03-.036a.468.468,0,0,0-.038-.083c-.025-.28-.081-.552.364-.548,1.694.012,3.388-.018,5.081.011a3.73,3.73,0,0,0,3.855-3.41c.035-1.346.021-2.694.029-4.042.012-.012.035-.029.033-.037a.518.518,0,0,0-.041-.085" transform="translate(-4.816 -5.161)" fill="#00bbd4"/>
          <path id="Trazado_823072" data-name="Trazado 823072" d="M138.167,212.859c-1.1.015-2.011-.127-2.928-.172-.8-.039-1.605-.013-2.407-.043-1.629-.062-3.258-.168-4.888-.208-1.33-.033-1.845.4-2.278,1.653-.7,2.028-1.442,4.042-2.165,6.063-.135.377-.274.753-.393,1.135s-.362.437-.717.3c-2.8-1.087-5.611-2.145-8.4-3.258a3.44,3.44,0,0,0-2.689.025c-2.589,1.013-5.165,2.064-7.795,2.97-1.009.348-1,.352-1.383-.658q-1.324-3.52-2.655-7.037a1.6,1.6,0,0,0-1.743-1.2q-2.236.042-4.472.118c-1.668.058-3.334.152-5,.194-.251.007-.606.33-.73.007-.116-.3.32-.453.519-.66q3.979-4.149,7.971-8.287c.43-.447.876-.88,1.3-1.335s.484-.475.945-.015q1.53,1.529,3.055,3.063,2.108,2.113,4.219,4.223c.954.949,1.9,1.909,2.886,2.823a6.2,6.2,0,0,0,4.66,1.7,6.621,6.621,0,0,0,4.414-2.026q4.859-4.893,9.743-9.762c.278-.279.472-.437.834-.062q4.786,4.97,9.6,9.909c.134.138.263.281.5.536" transform="translate(-49.032 -113.256)" fill="#fedb00"/>
          <path id="Trazado_823073" data-name="Trazado 823073" d="M103.148,96.214a24.052,24.052,0,0,1,2.7-2.855c1.129-1.168,2.308-2.288,3.44-3.454,7.652-7.888,15.524-15.556,23.26-23.36a4.546,4.546,0,0,0,1.607-3.727,5.117,5.117,0,0,0-1.8-3.589,22.247,22.247,0,0,1-1.757-1.792,46.806,46.806,0,0,0-3.393-3.336c-.426-.361-.754-.837-1.153-1.235q-8.207-8.216-16.422-16.425Q96.2,23.016,82.776,9.595a1.213,1.213,0,0,1-.452-.725,2.78,2.78,0,0,1,3.171.557c.335.382.7.724,1.058,1.08,5.42,5.428,10.817,10.881,16.276,16.27,11.346,11.2,22.55,22.537,33.855,33.776A3.5,3.5,0,0,1,137.9,62.98a2.849,2.849,0,0,1-.932,2.144q-3.856,3.866-7.727,7.717c-4.87,4.868-9.759,9.716-14.6,14.616q-3.919,3.968-7.842,7.931a3.164,3.164,0,0,1-3.369.977,1.665,1.665,0,0,1-.284-.151" transform="translate(-46.13 -4.82)" fill="#00828f"/>
          <path id="Trazado_823074" data-name="Trazado 823074" d="M174.408,140.85a2.559,2.559,0,0,1-.7,1.839q-1.027,1.1-2.093,2.167c-5.486,5.491-10.939,11.016-16.477,16.454-4.129,4.055-8.169,8.2-12.321,12.23a2.706,2.706,0,0,1-3.989-.018,5.42,5.42,0,0,1-1.07-1.067c-.124-.187-.181-.346.064-.431,1.5-.521,2.449-1.731,3.518-2.792s2.157-2.16,3.24-3.237c1.512-1.5,3.034-3,4.54-4.505,2.708-2.711,5.4-5.436,8.114-8.145q4.5-4.5,9.022-8.987c1.362-1.361,2.686-2.761,4.075-4.094a7.425,7.425,0,0,0,1.8-2.431c.065-.153.16-.408.382-.17a8.534,8.534,0,0,1,1.552,1.758,2.837,2.837,0,0,1,.336,1.43" transform="translate(-77.135 -77.085)" fill="#5f7c8a"/>
          <path id="Trazado_823075" data-name="Trazado 823075" d="M43.75,28.936a3.38,3.38,0,0,1-1.136,2.477q-2.623,2.641-5.258,5.272c-1.806,1.808-3.645,3.583-5.406,5.432a3.757,3.757,0,0,1-3.764,1.3c-.745-.163-1.513-.223-2.271-.329-.143-.02-.313-.01-.368-.177s.114-.247.213-.346q8.5-8.491,17.01-16.978c.119-.119.2-.366.418-.288.184.066.1.292.118.443.157,1.062.3,2.127.444,3.19" transform="translate(-14.309 -14.17)" fill="#5f7c8a"/>
          <path id="Trazado_823076" data-name="Trazado 823076" d="M110.867,93.876c-.008,1.347.006,2.7-.029,4.042a3.729,3.729,0,0,1-3.854,3.41c-1.693-.029-3.387,0-5.081-.011-.446,0-.39.269-.364.548,0,.04.005.08.007.12,0,1.678.024,3.357-.018,5.035a3.634,3.634,0,0,1-3.755,3.625c-1.186.005-2.372.009-3.558,0a3.728,3.728,0,0,1-3.883-3.512l-.007-.226q.005-2.356.01-4.711c0-.86-.016-.874-.858-.874-1.534,0-3.068-.018-4.6,0A3.782,3.782,0,0,1,81,97.683c-.024-1.387-.039-2.777.029-4.161A3.794,3.794,0,0,1,84.638,90.1a.24.24,0,0,0,.257-.028l.154,0a20.756,20.756,0,0,0,3.319.01l.22,0a.2.2,0,0,0,.25-.007l.7.007.15.018.208.01a.211.211,0,0,0,.259-.03c.237-.094.161-.3.169-.474,0-.076,0-.151,0-.227.005-1.624-.008-3.248.021-4.871a3.767,3.767,0,0,1,2.831-3.6,4.687,4.687,0,0,1,1.123-.16,26.791,26.791,0,0,1,3.989.067,3.733,3.733,0,0,1,3.234,3.58c.047,1.55.018,3.1.024,4.652,0,.291.012.583.018.874-.03.065,0,.1.056.133.128.157.291.087.445.067a2.055,2.055,0,0,0,.805-.047h.155a19.764,19.764,0,0,0,3.353,0l.7,0a.5.5,0,0,0,.368.052,3.807,3.807,0,0,1,3.415,3.627c0,.041.006.081.008.122m-3.723,3.471q0-1.109-.006-2.218v0q.007-.546.013-1.093c.008-.009.019-.017.022-.028s-.011-.015-.018-.024l-.013.037a2.6,2.6,0,0,0-.955-.136c-1.967.007-3.934,0-5.9,0-1.782,0-2.477-.692-2.488-2.481q-.021-3.36-.039-6.72c-.2-.4-.546-.168-.832-.194a19.736,19.736,0,0,0-2.829.091l0,0q-.009,3.477-.018,6.954c0,1.632-.714,2.346-2.331,2.346q-3.286,0-6.572,0c-.312,0-.517.027-.506.436.027,1.039.012,2.08.014,3.12l0,0c.2.181.444.135.678.135,2.172,0,4.343-.008,6.515,0a1.943,1.943,0,0,1,2.192,2.193c.008,2.171.018,4.343-.006,6.515,0,.47.1.65.6.628.838-.037,1.68-.033,2.517.005.473.021.626-.1.619-.6-.026-2.135-.014-4.27,0-6.405.012-1.643.7-2.328,2.335-2.334,2.117-.007,4.234,0,6.351-.006.229,0,.484.07.657-.164l.03-.007-.035-.051" transform="translate(-45.378 -45.221)"/>
          <path id="Trazado_823077" data-name="Trazado 823077" d="M93.554,101.946a20.757,20.757,0,0,1-3.319-.01,22.664,22.664,0,0,1,3.319.01" transform="translate(-50.563 -57.089)" fill="#00828f"/>
          <path id="Trazado_823078" data-name="Trazado 823078" d="M134.473,101.938a19.764,19.764,0,0,1-3.353,0,25.094,25.094,0,0,1,3.353,0" transform="translate(-73.473 -57.089)" fill="#00828f"/>
          <path id="Trazado_823079" data-name="Trazado 823079" d="M129.741,101.938a2.055,2.055,0,0,1-.805.046,1.068,1.068,0,0,1,.805-.046" transform="translate(-72.249 -57.09)" fill="#00828f"/>
          <path id="Trazado_823080" data-name="Trazado 823080" d="M140.7,102.023a.5.5,0,0,1-.368-.052.3.3,0,0,1,.368.052" transform="translate(-78.637 -57.117)" fill="#00828f"/>
          <path id="Trazado_823081" data-name="Trazado 823081" d="M89.557,101.974A.239.239,0,0,1,89.3,102a.2.2,0,0,1,.257-.029" transform="translate(-50.039 -57.122)" fill="#00828f"/>
          <path id="Trazado_823082" data-name="Trazado 823082" d="M101.524,101.981a.211.211,0,0,1-.259.03.218.218,0,0,1,.259-.03" transform="translate(-56.744 -57.129)" fill="#00828f"/>
          <path id="Trazado_823083" data-name="Trazado 823083" d="M98.534,101.963a.2.2,0,0,1-.25.007.224.224,0,0,1,.25-.007" transform="translate(-55.074 -57.116)" fill="#00828f"/>
          <path id="Trazado_823084" data-name="Trazado 823084" d="M102.158,140.308l.007.226a.132.132,0,0,1-.007-.226" transform="translate(-57.211 -78.622)" fill="#00828f"/>
          <path id="Trazado_823085" data-name="Trazado 823085" d="M102.15,100.423c0,.076,0,.151,0,.227a.133.133,0,0,1,0-.227" transform="translate(-57.205 -56.272)" fill="#00828f"/>
          <path id="Trazado_823086" data-name="Trazado 823086" d="M148.947,110.513l-.008-.122a.537.537,0,0,1,.041.085c0,.008-.021.025-.033.037" transform="translate(-83.458 -61.858)" fill="#00828f"/>
          <path id="Trazado_823087" data-name="Trazado 823087" d="M100.6,102.04l-.15-.018.15.018" transform="translate(-56.287 -57.168)" fill="#00828f"/>
          <path id="Trazado_823088" data-name="Trazado 823088" d="M127.836,101.793c-.056-.029-.086-.068-.056-.133l.056.133" transform="translate(-71.595 -56.965)" fill="#00828f"/>
          <path id="Trazado_823089" data-name="Trazado 823089" d="M127.745,128.96c0-.04-.005-.08-.007-.12a.564.564,0,0,1,.038.083c0,.009-.02.024-.031.036" transform="translate(-71.578 -72.196)" fill="#00828f"/>
          <path id="Trazado_823090" data-name="Trazado 823090" d="M111.851,98.855q-.006.546-.013,1.093h0q0,1.109.005,2.217l-.029.009.034.05c-.174.234-.429.163-.657.164-2.117,0-4.234,0-6.351.006-1.631.005-2.323.691-2.335,2.333-.016,2.135-.028,4.271,0,6.406.006.5-.147.623-.619.6-.838-.038-1.68-.042-2.517-.005-.5.022-.607-.158-.6-.628.023-2.171.014-4.343.006-6.515a1.943,1.943,0,0,0-2.191-2.193c-2.172-.005-4.344,0-6.516,0-.234,0-.479.047-.678-.135l.015-.012-.018.011c0-1.04.014-2.08-.014-3.12-.011-.409.194-.437.506-.436q3.286.009,6.572,0c1.617,0,2.326-.714,2.331-2.346q.011-3.477.018-6.954l.018.01L98.8,89.4a19.659,19.659,0,0,1,2.827-.091c.267.109.6-.062.834.194q.019,3.36.039,6.72c.011,1.789.706,2.481,2.488,2.481,1.967,0,3.934,0,5.9,0a2.6,2.6,0,0,1,.955.136l-.008.024Z" transform="translate(-50.078 -50.042)" fill="#fedb00"/>
          <path id="Trazado_823091" data-name="Trazado 823091" d="M118.081,89.461c-.234-.257-.568-.086-.834-.194.288.026.636-.209.834.194" transform="translate(-65.7 -49.996)" fill="#5f7c8a"/>
          <path id="Trazado_823092" data-name="Trazado 823092" d="M140.485,110.962l-.017.009.008-.024.014-.037c.006.008.019.018.017.024s-.015.018-.022.028" transform="translate(-78.711 -62.149)" fill="#5f7c8a"/>
          <path id="Trazado_823093" data-name="Trazado 823093" d="M140.458,118.619l-.033-.05.029-.009.034.051-.03.007" transform="translate(-78.687 -66.435)" fill="#5f7c8a"/>
          <path id="Trazado_823094" data-name="Trazado 823094" d="M140.455,113.515h-.018l.018,0v0" transform="translate(-78.694 -63.607)" fill="#5f7c8a"/>
          <path id="Trazado_823095" data-name="Trazado 823095" d="M89.4,118.761l.018-.011-.015.012,0,0" transform="translate(-50.096 -66.542)" fill="#5f7c8a"/>
          <path id="Trazado_823096" data-name="Trazado 823096" d="M110.814,89.529l.016.014-.018-.01,0,0" transform="translate(-62.094 -50.168)" fill="#5f7c8a"/>
        </g>
      </g>
    </g>
  </g>
</svg>
