<svg xmlns="http://www.w3.org/2000/svg" xmlns:xlink="http://www.w3.org/1999/xlink" width="505" height="654" viewBox="0 0 505 654">
  <defs>
    <linearGradient id="linear-gradient" x1="0.5" x2="0.5" y2="1" gradientUnits="objectBoundingBox">
      <stop offset="0" stop-color="#defff8"/>
      <stop offset="0.803" stop-color="#eaf5ff"/>
      <stop offset="1" stop-color="#f0feff"/>
    </linearGradient>
    <linearGradient id="linear-gradient-2" y1="0.5" x2="1.052" y2="0.5" gradientUnits="objectBoundingBox">
      <stop offset="0" stop-color="#fefefe"/>
      <stop offset="1" stop-color="#f1d8ff"/>
    </linearGradient>
    <filter id="Rectángulo_377821" x="111.359" y="13.164" width="283.818" height="562.729" filterUnits="userSpaceOnUse">
      <feOffset dy="3" input="SourceAlpha"/>
      <feGaussianBlur stdDeviation="3" result="blur"/>
      <feFlood flood-opacity="0.161"/>
      <feComposite operator="in" in2="blur"/>
      <feComposite in="SourceGraphic"/>
    </filter>
    <filter id="Trazado_822891" x="90.637" y="21.775" width="324.363" height="153.565" filterUnits="userSpaceOnUse">
      <feOffset dy="-5" input="SourceAlpha"/>
      <feGaussianBlur stdDeviation="5" result="blur-2"/>
      <feFlood flood-opacity="0.161"/>
      <feComposite operator="in" in2="blur-2"/>
      <feComposite in="SourceGraphic"/>
    </filter>
    <filter id="Trazado_822891-2" x="90.637" y="137.179" width="324.363" height="153.565" filterUnits="userSpaceOnUse">
      <feOffset dy="-5" input="SourceAlpha"/>
      <feGaussianBlur stdDeviation="5" result="blur-3"/>
      <feFlood flood-opacity="0.161"/>
      <feComposite operator="in" in2="blur-3"/>
      <feComposite in="SourceGraphic"/>
    </filter>
    <filter id="Trazado_822891-3" x="90.637" y="247.403" width="324.363" height="153.565" filterUnits="userSpaceOnUse">
      <feOffset dy="-5" input="SourceAlpha"/>
      <feGaussianBlur stdDeviation="5" result="blur-4"/>
      <feFlood flood-opacity="0.161"/>
      <feComposite operator="in" in2="blur-4"/>
      <feComposite in="SourceGraphic"/>
    </filter>
    <filter id="Trazado_822891-4" x="90.637" y="363.381" width="324.363" height="153.565" filterUnits="userSpaceOnUse">
      <feOffset dy="-5" input="SourceAlpha"/>
      <feGaussianBlur stdDeviation="5" result="blur-5"/>
      <feFlood flood-opacity="0.161"/>
      <feComposite operator="in" in2="blur-5"/>
      <feComposite in="SourceGraphic"/>
    </filter>
    <filter id="Trazado_822891-5" x="90.637" y="477.784" width="324.363" height="153.565" filterUnits="userSpaceOnUse">
      <feOffset dy="-5" input="SourceAlpha"/>
      <feGaussianBlur stdDeviation="5" result="blur-6"/>
      <feFlood flood-opacity="0.161"/>
      <feComposite operator="in" in2="blur-6"/>
      <feComposite in="SourceGraphic"/>
    </filter>
  </defs>
  <g id="Grupo_1073635" data-name="Grupo 1073635" transform="translate(-285 -2405.811)">
    <g id="Grupo_1073626" data-name="Grupo 1073626" transform="translate(285 2405.811)">
      <g id="Grupo_1072963" data-name="Grupo 1072963" transform="translate(505 653.716) rotate(180)">
        <rect id="Rectángulo_376022" data-name="Rectángulo 376022" width="505" height="654" transform="translate(0 -0.284)" fill="url(#linear-gradient)"/>
      </g>
    </g>
    <g id="Grupo_1073632" data-name="Grupo 1073632" transform="translate(685 2424.975) rotate(90)">
      <g transform="matrix(0, -1, 1, 0, -19.16, 400)" filter="url(#Rectángulo_377821)">
        <rect id="Rectángulo_377821-2" data-name="Rectángulo 377821" width="544.729" height="265.818" rx="29" transform="translate(386.18 19.16) rotate(90)" fill="url(#linear-gradient-2)"/>
      </g>
      <g id="Grupo_1073627" data-name="Grupo 1073627" transform="translate(22.612 0)">
        <path id="Trazado_822892" data-name="Trazado 822892" d="M-3509.622-9053.27H-3522v-13.23Z" transform="translate(3522.427 9066.5)" fill="#7d9265"/>
        <path id="Trazado_822893" data-name="Trazado 822893" d="M-3506.622-8880H-3519v15.367Z" transform="translate(3521.987 9159.633)" fill="#7d9265"/>
        <g transform="matrix(0, -1, 1, 0, -41.78, 400)" filter="url(#Trazado_822891)">
          <path id="Trazado_822891-6" data-name="Trazado 822891" d="M-3520.5-9067h53.353l70.212,147.359-70.212,147h-51.859l70-147Z" transform="translate(-8667 3562.28) rotate(90)" fill="#c1e29a"/>
        </g>
      </g>
      <g id="Grupo_1073628" data-name="Grupo 1073628" transform="translate(138.015 0)">
        <path id="Trazado_822892-2" data-name="Trazado 822892" d="M-3509.622-9053.27H-3522v-13.23Z" transform="translate(3522.427 9066.5)" fill="#819466"/>
        <path id="Trazado_822893-2" data-name="Trazado 822893" d="M-3506.622-8880H-3519v15.367Z" transform="translate(3521.987 9159.633)" fill="#819466"/>
        <g transform="matrix(0, -1, 1, 0, -157.18, 400)" filter="url(#Trazado_822891-2)">
          <path id="Trazado_822891-7" data-name="Trazado 822891" d="M-3520.5-9067h53.353l70.212,147.359-70.212,147h-51.859l70-147Z" transform="translate(-8667 3677.68) rotate(90)" fill="#c1e29a"/>
        </g>
      </g>
      <g id="Grupo_1073629" data-name="Grupo 1073629" transform="translate(248.24 0)">
        <path id="Trazado_822892-3" data-name="Trazado 822892" d="M-3509.622-9053.27H-3522v-13.23Z" transform="translate(3522.427 9066.5)" fill="#819466"/>
        <path id="Trazado_822893-3" data-name="Trazado 822893" d="M-3506.622-8880H-3519v15.367Z" transform="translate(3521.987 9159.633)" fill="#819466"/>
        <g transform="matrix(0, -1, 1, 0, -267.4, 400)" filter="url(#Trazado_822891-3)">
          <path id="Trazado_822891-8" data-name="Trazado 822891" d="M-3520.5-9067h53.353l70.212,147.359-70.212,147h-51.859l70-147Z" transform="translate(-8667 3787.9) rotate(90)" fill="#c1e29a"/>
        </g>
      </g>
      <g id="Grupo_1073630" data-name="Grupo 1073630" transform="translate(364.217 0)">
        <path id="Trazado_822892-4" data-name="Trazado 822892" d="M-3509.622-9053.27H-3522v-13.23Z" transform="translate(3522.427 9066.5)" fill="#819466"/>
        <path id="Trazado_822893-4" data-name="Trazado 822893" d="M-3506.622-8880H-3519v15.367Z" transform="translate(3521.987 9159.633)" fill="#819466"/>
        <g transform="matrix(0, -1, 1, 0, -383.38, 400)" filter="url(#Trazado_822891-4)">
          <path id="Trazado_822891-9" data-name="Trazado 822891" d="M-3520.5-9067h53.353l70.212,147.359-70.212,147h-51.859l70-147Z" transform="translate(-8667 3903.88) rotate(90)" fill="#c1e29a"/>
        </g>
      </g>
      <g id="Grupo_1073631" data-name="Grupo 1073631" transform="translate(478.621 0)">
        <path id="Trazado_822892-5" data-name="Trazado 822892" d="M-3509.622-9053.27H-3522v-13.23Z" transform="translate(3522.427 9066.5)" fill="#819466"/>
        <path id="Trazado_822893-5" data-name="Trazado 822893" d="M-3506.622-8880H-3519v15.367Z" transform="translate(3521.987 9159.633)" fill="#819466"/>
        <g transform="matrix(0, -1, 1, 0, -497.78, 400)" filter="url(#Trazado_822891-5)">
          <path id="Trazado_822891-10" data-name="Trazado 822891" d="M-3520.5-9067h53.353l70.212,147.359-70.212,147h-51.859l70-147Z" transform="translate(-8667 4018.28) rotate(90)" fill="#c1e29a"/>
        </g>
      </g>
      <text id="Prevención" transform="translate(56.865 189) rotate(-90)" fill="#12263f" font-size="16" font-family="Roboto-Black, Roboto" font-weight="800"><tspan x="0" y="0">Prevención</tspan></text>
      <text id="Reutilización" transform="translate(171.934 195) rotate(-90)" fill="#12263f" font-size="16" font-family="Roboto-Black, Roboto" font-weight="800"><tspan x="0" y="0">Reutilización</tspan></text>
      <text id="Reciclado" transform="translate(288.898 184.999) rotate(-90)" fill="#12263f" font-size="17" font-family="Roboto-Black, Roboto" font-weight="800"><tspan x="0" y="0">Reciclado</tspan></text>
      <text id="Valorización" transform="translate(397.471 193) rotate(-90)" fill="#12263f" font-size="16" font-family="Roboto-Black, Roboto" font-weight="800"><tspan x="0" y="0">Valorización</tspan></text>
      <text id="Eliminación" transform="translate(508.413 190) rotate(-90)" fill="#12263f" font-size="16" font-family="Roboto-Black, Roboto" font-weight="800"><tspan x="0" y="0">Eliminación</tspan></text>
    </g>
  </g>
</svg>
