<svg xmlns="http://www.w3.org/2000/svg" xmlns:xlink="http://www.w3.org/1999/xlink" width="107" height="107" viewBox="0 0 107 107">
  <defs>
    <clipPath id="clip-path">
      <rect id="Rectángulo_377846" data-name="Rectángulo 377846" width="71.889" height="80.68"/>
    </clipPath>
  </defs>
  <g id="Grupo_156312" data-name="Grupo 156312" transform="translate(-288.668 -4448)">
    <path id="Elipse_5845" data-name="Elipse 5845" d="M53.5,0A53.5,53.5,0,1,1,0,53.5,53.5,53.5,0,0,1,53.5,0Z" transform="translate(288.668 4448)" fill="#ffae7e"/>
    <g id="Grupo_156261" data-name="Grupo 156261" transform="translate(304.668 4459)">
      <g id="Grupo_1073675" data-name="Grupo 1073675" transform="translate(1.344 -1.644)">
        <g id="Grupo_1073674" data-name="Grupo 1073674" clip-path="url(#clip-path)">
          <path id="Trazado_823045" data-name="Trazado 823045" d="M63.478,59.995c1.6,0,3.148.008,4.692,0a3.287,3.287,0,0,1,3.355,1.822,4.226,4.226,0,0,1,.34,1.661q.053,2.78-.011,5.561c-.052,2.169-1.161,3.273-3.327,3.406a2.614,2.614,0,0,0-.273.051c-.067.679-.145,1.358-.2,2.039-.128,1.657-.242,3.315-.368,4.973a3.353,3.353,0,0,1-.106.619c-.093.345-.292.6-.689.533a.637.637,0,0,1-.6-.706c.055-.9.1-1.793.175-2.688.123-1.5.264-3.006.394-4.508a1.489,1.489,0,0,0-.056-.3H65.219l-41.142,0c-1.089,0-2.177-.017-3.266,0a.663.663,0,0,1-.77-.658c-.02-.418.278-.651.688-.7a5.108,5.108,0,0,1,.629-.027q23.638,0,47.276.021a1.731,1.731,0,0,0,1.836-1.8c-.013-2.026.017-4.052,0-6.078a1.594,1.594,0,0,0-1.816-1.785q-3.639,0-7.278,0h-.6c0,1.393,0,2.742,0,4.091,0,.459.025.917.021,1.376-.007.726-.186.967-.683.961-.516-.006-.717-.247-.722-.941-.012-1.643-.006-3.286-.01-4.929,0-.167-.015-.334-.026-.558H3.408c-1.372,0-1.972.57-1.983,1.93q-.023,2.9-.005,5.792c.008,1.315.619,1.91,1.949,1.912,3.725,0,7.45,0,11.175,0a4.939,4.939,0,0,1,.966.071.619.619,0,0,1,.553.741.626.626,0,0,1-.712.578c-3.209-.012-6.418,0-9.626,0-.745,0-.722-.012-.658.712q.294,3.282.552,6.567c.05.624-.233,1.035-.689.944a.919.919,0,0,1-.61-.525A8.953,8.953,0,0,1,4.1,78.5c-.137-1.81-.273-3.62-.376-5.432-.026-.457-.165-.624-.639-.636A2.961,2.961,0,0,1,.052,69.546c-.08-2.251-.064-4.51.019-6.761a2.865,2.865,0,0,1,2.809-2.734c2.176-.063,4.354-.03,6.531-.039h.4c0-.258.018-.483,0-.7a13.758,13.758,0,0,1,1.658-7.333,65.533,65.533,0,0,1,5.84-9.435c1.249-1.758,2.566-3.469,3.85-5.2a2.431,2.431,0,0,0,.146-.3,14.96,14.96,0,0,0-2.1-.371,46.25,46.25,0,0,0-8.486.732c-1.15.174-2.3.355-3.449.533-.421.065-.787-.007-.886-.487-.105-.508.267-.7.657-.767,1.8-.325,3.6-.686,5.413-.913a53.642,53.642,0,0,1,5.814-.473,25.05,25.05,0,0,1,3.55.491.912.912,0,0,0,.7-.145c1.481-1.722,2.93-3.471,4.386-5.214a.367.367,0,0,0,.041-.109c-.02-.024-.036-.066-.061-.072-.423-.107-.876-.244-.857-.766.02-.544.515-.591.932-.658a9.92,9.92,0,0,0,5.62-2.6,11.239,11.239,0,0,0,2.9-4.611A4.223,4.223,0,0,1,38,18.787,15.3,15.3,0,0,0,40.983,17a6.044,6.044,0,0,0,2.482-4.167,3.255,3.255,0,0,0-.1-.816,2.277,2.277,0,0,0-.788.182,14.848,14.848,0,0,0-1.762,1.363,11.071,11.071,0,0,1-3.333,2.188c-2.361.972-4.727,1.935-7.1,2.871a20.447,20.447,0,0,0-4.4,2.65q-2.039,1.47-4.172,2.81a4.732,4.732,0,0,1-2.632.643c-3.9-.053-7.792-.079-11.688-.115-.1,0-.191,0-.286-.005-.455-.02-.87-.125-.863-.689.007-.547.4-.692.865-.688,1.222.01,2.445.029,3.667.041q4.326.037,8.652.07a4.121,4.121,0,0,0,2.391-.852c1.518-1.058,2.98-2.2,4.505-3.246.9-.622,1.885-1.132,2.915-1.743-.566-.959-1.087-2-1.754-2.941q-2.438-3.431-4.994-6.776c-1.335-1.735-1.2-2.6.76-3.544q2.706-1.3,5.435-2.555c1.208-.558,1.786-.386,2.612.672a.672.672,0,0,0,.524.214c1.3-.176,2.605-.372,3.9-.606a.737.737,0,0,0,.434-.477A1.675,1.675,0,0,1,38.379.038c1.489.227,2.98.451,4.467.694s2,1.092,1.576,2.548Q43.4,6.765,42.4,10.254c-.036.126-.053.257-.1.485l.574-.116A1.464,1.464,0,0,1,44.8,11.885a4.97,4.97,0,0,1-.7,3.519c-.485.832-1.114,1.58-1.711,2.41h.4c1.375-.009,2.749-.039,4.124-.022a2.6,2.6,0,0,1,2.316,3.9,1.044,1.044,0,0,0-.074.2c2.018,1.477,1.773,3.373.31,4.663a2.9,2.9,0,0,1,.479,2.16,2.63,2.63,0,0,1-1.069,1.634.564.564,0,0,0-.213.467c.526,1.772.295,2.517-1.168,3.6a1.631,1.631,0,0,1-.294.134,60.623,60.623,0,0,1,7.423,7,40.97,40.97,0,0,1,7.046,10.044,18.311,18.311,0,0,1,1.786,7.975c0,.131.012.263.021.428m-31.7-31.2a4.772,4.772,0,0,0-2.9,1.315c-1.411,1.631-2.841,3.251-4.156,4.959-2.631,3.418-5.255,6.846-7.756,10.359a40.8,40.8,0,0,0-5.129,9.3,12.1,12.1,0,0,0-.608,5.261H38.024q11.745,0,23.489.011c.428,0,.587-.095.543-.537-.105-1.062-.1-2.14-.284-3.187a20.275,20.275,0,0,0-3.292-7.557A63.134,63.134,0,0,0,45.754,35.066a1.95,1.95,0,0,0-1.106-.35c-.933-.043-1.871.024-2.806,0a2.609,2.609,0,0,1-2.557-3.681.5.5,0,0,0-.117-.454,4.171,4.171,0,0,1-1.384-1.489c-.12-.2-.618-.192-.945-.2-.07,0-.218.316-.22.487-.013,1.166.006,2.331.011,3.5,0,1.185.014,2.37,0,3.554-.008.685-.484,1.094-.957.792a1.146,1.146,0,0,1-.411-.835c-.035-2.121-.018-4.243-.021-6.364,0-1.141-.008-1.1-1.139-1.177a1.077,1.077,0,0,0-1.234.777c-1.583,3.637-3.213,7.254-4.835,10.873-.352.786-.7,1-1.157.776-.432-.216-.478-.572-.124-1.353q2.211-4.87,4.435-9.735c.188-.412.357-.832.592-1.381m.057-24.823a2.976,2.976,0,0,0,.022.317q.74,3.469,1.482,6.937c.167.782.041,1.142-.418,1.218s-.7-.2-.868-.978q-.868-4.026-1.746-8.05c-.174-.794-.2-.811-.921-.481q-2.858,1.313-5.708,2.644c-.746.349-.755.425-.265,1.067.973,1.274,1.992,2.518,2.9,3.834,1.391,2.006,2.725,4.052,4.039,6.109.237.37.394.473.793.3,1.737-.736,3.487-1.441,5.225-2.175A11.13,11.13,0,0,0,40.27,12.27a1.9,1.9,0,0,0,.455-.766c.724-2.626,1.421-5.26,2.13-7.891.122-.451.257-.9.4-1.4-.333-.076-.587-.148-.846-.192-1.316-.221-2.634-.433-3.951-.649-.789-.13-.827-.085-.906.713q-.331,3.362-.692,6.721c-.043.4-.2.762-.693.755-.463-.007-.716-.335-.666-.875.077-.836.186-1.669.277-2.5.1-.94.2-1.881.313-2.9l-4.256.688M43.684,25.586v-.03c1.412,0,2.825-.008,4.237,0A1.21,1.21,0,0,0,49.272,24.4a1.164,1.164,0,0,0-1.293-1.315c-1.565-.005-3.131.014-4.7.014-1.394,0-2.787-.026-4.18-.01a1.079,1.079,0,0,0-1.1.906,1.233,1.233,0,0,0,.614,1.412,3.128,3.128,0,0,0,1.114.168c1.316.019,2.633.007,3.951.007m.058,3.85V29.43h3.265c.1,0,.191,0,.286,0a1.169,1.169,0,0,0,1.288-1.22,1.105,1.105,0,0,0-1.238-1.188c-2.329-.014-4.659-.008-6.989-.006-.882,0-1.32.4-1.328,1.209-.007.77.461,1.2,1.335,1.21,1.126.008,2.253,0,3.38,0m-.028-7.808V21.62c1.068,0,2.136.006,3.2,0a1.1,1.1,0,0,0,1.069-.524,1.209,1.209,0,0,0-1.1-1.876c-2.06-.024-4.12-.015-6.18,0a1.271,1.271,0,0,0-1.4,1.263c.023.7.565,1.139,1.432,1.147.992.009,1.984,0,2.976,0m.293,9.275v0c-.419,0-.839,0-1.258,0s-.839.011-1.258.01a1.021,1.021,0,0,0-.969.587,1.188,1.188,0,0,0,1.014,1.814c1.218.058,2.439.042,3.658.049a8.974,8.974,0,0,0,1.422-.04,1.22,1.22,0,0,0-.209-2.414c-.8-.016-1.6,0-2.4,0m-10.772-3.42c1.5,0,2.869.018,4.233-.021.193-.006.432-.266.544-.467.056-.1-.091-.358-.2-.5a1.532,1.532,0,0,0-1.537-.637c-.373.053-.76-.005-1.139.017a.889.889,0,0,0-.531.148c-.444.431-.851.9-1.37,1.462m3.944-5c-.549-.05-1.273,1.008-1.383,2.132.327-.142.728-.188.817-.379a13.332,13.332,0,0,0,.565-1.753m1.112-1.749c-.293-.153-.468-.31-.541-.271a3.18,3.18,0,0,0-.551.455c.125.082.273.254.37.228a3.482,3.482,0,0,0,.722-.413" transform="translate(0 0)"/>
          <path id="Trazado_823046" data-name="Trazado 823046" d="M106.961,103.56c-.2.187-.372.455-.609.54-.366.133-.618-.121-.73-.466-.276-.852-.488-1.728-.811-2.562a41.235,41.235,0,0,0-5.509-9.93C98.522,90.1,97.769,89.047,97,88c-.257-.347-.36-.672.028-1,.418-.348.738-.089.974.215,1.066,1.371,2.158,2.726,3.144,4.154a39.505,39.505,0,0,1,4.6,8.293c.407,1.067.7,2.176,1.039,3.268a3.757,3.757,0,0,1,.088.507l.094.115" transform="translate(-52.202 -46.846)"/>
        </g>
      </g>
    </g>
  </g>
</svg>
