<svg xmlns="http://www.w3.org/2000/svg" xmlns:xlink="http://www.w3.org/1999/xlink" width="107" height="107" viewBox="0 0 107 107">
  <defs>
    <clipPath id="clip-path">
      <rect id="Rectángulo_377848" data-name="Rectángulo 377848" width="75.101" height="72.772"/>
    </clipPath>
  </defs>
  <g id="Grupo_156312" data-name="Grupo 156312" transform="translate(-288.668 -4448)">
    <circle id="Elipse_5845" data-name="Elipse 5845" cx="53.5" cy="53.5" r="53.5" transform="translate(288.668 4448)" fill="#ffae7e"/>
    <g id="Grupo_1073679" data-name="Grupo 1073679" transform="translate(304.617 4462.625)">
      <g id="Grupo_1073678" data-name="Grupo 1073678" clip-path="url(#clip-path)">
        <path id="Trazado_823050" data-name="Trazado 823050" d="M53.893,167.543c0,.444-.014.75,0,1.054a1.161,1.161,0,0,0,1.045,1.108,1.128,1.128,0,0,0,1.167-1.058c.017-.622.019-1.245-.007-1.866a1,1,0,0,0-.285-.721,1.106,1.106,0,0,0-1.8.3,2.792,2.792,0,0,0-.127,1.186m8.143-.681a1.078,1.078,0,0,0-2.145-.195,18.079,18.079,0,0,0,0,2.014,1.113,1.113,0,0,0,1.079,1.026c.463,0,1.129-.48,1.072-1.005-.067-.623.118-1.248,0-1.84m-23.774.858h-.01c0-.293.02-.588,0-.88a1.018,1.018,0,0,0-1.009-1.1,1.006,1.006,0,0,0-1.155.953,9.621,9.621,0,0,0,0,2.048,1.061,1.061,0,0,0,.986.958,1.143,1.143,0,0,0,1.186-1.135c.014-.28,0-.562,0-.843m9.693.058c.013.257.039.586.043.914a1.231,1.231,0,0,0,.641.946,1.179,1.179,0,0,0,1.509-.948,9.166,9.166,0,0,0-.074-2.14.937.937,0,0,0-.847-.8.96.96,0,0,0-1.121.52c-.24.458-.095.959-.151,1.512m-3.751-.057a7.915,7.915,0,0,0-.065-1.122,1.1,1.1,0,0,0-1.1-.871,1.07,1.07,0,0,0-.977.869,9.7,9.7,0,0,0,0,2.192.938.938,0,0,0,.841.845c.731.015,1.056-.215,1.227-.8a6.612,6.612,0,0,0,.071-1.115" transform="translate(-25.417 -116.908)"/>
        <path id="Trazado_823051" data-name="Trazado 823051" d="M15.274,60.843c.123-.073.081-.194.08-.3-.007-1.137-.041-2.274-.017-3.411a2.653,2.653,0,0,1,.756-1.754,2.917,2.917,0,0,1,2.374-.9c3.548.016,7.1,0,10.645.007a2.739,2.739,0,0,1,2.694,1.983A4.884,4.884,0,0,1,32,57.749c0,1.015.006,2.031-.006,3.047,0,.233.042.288.3.286q3.376-.029,6.753-.008c.329,0,.392-.1.392-.391q-.007-6.7,0-13.4c0-.11-.007-.22-.011-.33-.016-.536-.214-.878-.937-.911-.464-.021-.93-.009-1.395-.009H9.119c-.147,0-.294,0-.44.006a.755.755,0,0,0-.764.79c0,1.848,0,3.7,0,5.543A1.138,1.138,0,0,1,7.2,53.561a1.07,1.07,0,0,1-1.329-.437,1.538,1.538,0,0,1-.179-.8c.02-1.845-.02-3.691,0-5.537A2.853,2.853,0,0,1,6.828,44.5a3.376,3.376,0,0,1,2.238-.652c2.924,0,5.849-.005,8.773.005.336,0,.427-.119.434-.439a9.346,9.346,0,0,1,.193-1.453c.087-.483.107-.977.166-1.465.092-.756.167-1.516.3-2.266.149-.845.183-1.7.354-2.547.1-.478.095-.974.155-1.461.076-.615.214-1.226.246-1.842s.194-1.212.278-1.819c.074-.536.01-1.135.484-1.554.018-.015.025-.051.043-.056.627-.186.525-.691.517-1.162s-.018-.955,0-1.431a.444.444,0,0,0-.254-.474,3,3,0,0,1-1.367-1.925,3.153,3.153,0,0,1,.132-2.169c.06-.149.076-.236-.053-.341a7.342,7.342,0,0,1-2.013-2.79,9,9,0,0,1-.507-2.05,1.158,1.158,0,0,1,.951-1.191c.108-.014.216-.037.323-.056a1.236,1.236,0,0,1,1.032,1.228,4.12,4.12,0,0,0,1.612,3.162,2.263,2.263,0,0,1,.748,2.813,1.316,1.316,0,0,0,.034,1.1,1.6,1.6,0,0,0,.517.56,2.19,2.19,0,0,1,1,1.558c.058.668.036,1.344.039,2.016,0,.864,0,.845.853.891.337.018.391-.12.382-.4a10.5,10.5,0,0,1,.034-1.539,2.141,2.141,0,0,1,1.866-2.005,1.432,1.432,0,0,0,1.384-1.584,1.824,1.824,0,0,1,.046-.5,2.175,2.175,0,0,1,1.781-1.551,2.15,2.15,0,0,0,1.71-1.428,1.879,1.879,0,0,1,1.366-1.216,2.084,2.084,0,0,0,1.733-1.912,3.156,3.156,0,0,1,.174-1.091,2.409,2.409,0,0,1,1.815-1.375,3.571,3.571,0,0,0,2.638-4.762,2.043,2.043,0,0,1-.027-1.187,2.611,2.611,0,0,1,.9-1.348A2.4,2.4,0,0,0,40.7,4.814a2.649,2.649,0,0,0-3.278-2.545A3.113,3.113,0,0,0,35.684,3.45a2.271,2.271,0,0,1-2.34.649,2.791,2.791,0,0,0-1.85.206,2.945,2.945,0,0,0-1.609,2.619,2.157,2.157,0,0,1-1.7,2.068c-.447.148-.9.032-1.341.165a3.025,3.025,0,0,0-1.869,1.622A2.149,2.149,0,0,1,23.242,12a4.734,4.734,0,0,0-2.724,1.245,1.126,1.126,0,0,1-1.394.224c-.081-.091-.159-.185-.244-.272A1,1,0,0,1,18.8,11.93a5.49,5.49,0,0,1,1.655-1.342,5.737,5.737,0,0,1,2.236-.707c.368-.042.434-.3.539-.483a4.946,4.946,0,0,1,3.979-2.562c.226-.027.62.005.385-.452a10.8,10.8,0,0,1,1.053-2.472,5.07,5.07,0,0,1,3.425-2.072,6.432,6.432,0,0,1,1.432.036.939.939,0,0,0,.92-.326A4.579,4.579,0,0,1,36.7.166a4.941,4.941,0,0,1,4.989,1.49,4.814,4.814,0,0,1,1.15,3.564,4.672,4.672,0,0,1-1.535,3.2.48.48,0,0,0-.15.56,5.911,5.911,0,0,1-1.036,5.293,5.474,5.474,0,0,1-2.284,1.664,4.758,4.758,0,0,1-1.017.3.3.3,0,0,0-.275.356,4.1,4.1,0,0,1-2.963,3.844.7.7,0,0,0-.492.426,3.984,3.984,0,0,1-2.91,2.348c-.242.049-.306.164-.319.4a3.5,3.5,0,0,1-2.9,3.279c-.157.029-.289.053-.286.249q.012.658.025,1.316c-.049.011-.049.039-.028.076a.447.447,0,0,0,.169.423A1.446,1.446,0,0,1,27.3,30q.217,1.479.409,2.962c.094.713.17,1.429.261,2.143.083.652.179,1.3.265,1.956.082.62.159,1.241.239,1.861.092.713.168,1.427.28,2.138s.156,1.407.233,2.11c.02.179.054.356.08.534s.17.151.283.152c.4,0,.807-.005,1.211-.006l7.852-.007A3.039,3.039,0,0,1,41.5,46.207c.1.435.025.891.091,1.338.035.234.058.332.328.331q3.247-.014,6.494.009c.256,0,.341-.054.321-.316a1.488,1.488,0,0,1,.155-.9,1.137,1.137,0,0,1,1.825-.111,1.182,1.182,0,0,1,.2.8,4.9,4.9,0,0,1-.042,1.157c-.051.2.133.248.331.246q1.761-.02,3.522-.014a7.1,7.1,0,0,1,3.155.616,6.915,6.915,0,0,1,2.091,1.556,6.208,6.208,0,0,1,1.294,2.225.7.7,0,0,1,.044.486,1.344,1.344,0,0,1-.937.951,1.118,1.118,0,0,1-1.155-.716,5.9,5.9,0,0,0-.974-1.567,3.884,3.884,0,0,0-2.306-1.237,35.485,35.485,0,0,0-4.679-.065c-.2,0-.246.092-.244.271.006.624.015,1.248-.006,1.871-.01.306.12.369.391.371,1.271.008,2.542.031,3.813.049l-.007.018.019-.008A1.821,1.821,0,0,1,56.877,55.1l-.012.007.013,0q.008,3.614.016,7.228c0,.759.015,1.517-.006,2.275a1.118,1.118,0,0,1-1.56,1.053,1.047,1.047,0,0,1-.668-.966c-.02-.3-.03-.608-.045-.912v-.011a.37.37,0,0,0,.007-.282l0-.011c.012-.1-.005-.174-.123-.184-.006-.038-.01-.039-.01,0q-3.724-.012-7.448-.026a1,1,0,0,0-.775.341,4.348,4.348,0,0,0-1,1.678,1.1,1.1,0,0,0,.587,1.286A3.114,3.114,0,0,0,46.9,66.8a3.356,3.356,0,0,1,3.105,1.906c.078.151.15.307.239.452a1,1,0,0,0,1.119.437c.8-.183,1.549-.5,2.325-.749a3.493,3.493,0,0,1,3.337.561c.408.307.824.607,1.246.887a1.047,1.047,0,0,0,1.508-.122,4.586,4.586,0,0,1,4.953-.915c.305.121.6.272.907.386a1.1,1.1,0,0,0,1.566-.739,6.456,6.456,0,0,0,.333-2.258,6.6,6.6,0,0,0-1.024-3.155c-.062-.11-.128-.21-.275-.2,0-.042,0-.044-.012,0a.948.948,0,0,0-.468.011l-.032-.043L65.7,63.3c-1.254-.028-2.507-.048-3.761.008.014-.065-.035-.045-.059-.038s-.032.03,0,.04c-.2-.024-.14.121-.141.218,0,.355.01.71-.005,1.064a1.129,1.129,0,0,1-1.243,1.144,1.108,1.108,0,0,1-.989-1.185q0-3.486.007-6.972a1.074,1.074,0,0,1,.964-.974,1.125,1.125,0,0,1,1.121.761,8.927,8.927,0,0,1,.092,1.993c.016.476.007.954,0,1.431,0,.192.032.278.263.277q5.87-.018,11.74-.013a2.627,2.627,0,0,1,.583.053,1.058,1.058,0,0,1,.82.913,1.081,1.081,0,0,1-.821,1.2,1.621,1.621,0,0,1-.21.055.766.766,0,0,0-.143-.028c-1.59-.007-3.18-.01-4.77-.019-.364,0-.185.2-.12.329a8.382,8.382,0,0,1,.706,2.5,7.769,7.769,0,0,1-.412,3.475A3.341,3.341,0,0,1,65,71.777c-.423-.144-.822-.361-1.247-.5a2.3,2.3,0,0,0-2.364.437,4.352,4.352,0,0,1-.858.624,3.178,3.178,0,0,1-1.926.406,6.346,6.346,0,0,1-2.784-1.465,1.517,1.517,0,0,0-1.515-.316c-.8.278-1.6.552-2.412.8a2.683,2.683,0,0,1-1.666-.027,3.326,3.326,0,0,1-2.122-1.927,1.166,1.166,0,0,0-.939-.777c-.287-.042-.576-.064-.865-.091A3.638,3.638,0,0,1,44.6,68.42a3.3,3.3,0,0,1-1.59-2.734,4.354,4.354,0,0,1,.553-2.079c.174-.36.172-.363-.209-.363l-41.026.008c-.451,0-.9.014-1.354.021a1.44,1.44,0,0,1-.906-.77,1.032,1.032,0,0,1,.611-1.336,2.548,2.548,0,0,1,.867-.107q1.96-.008,3.92.006c.186,0,.243-.065.237-.227-.043-1.2.033-2.407-.049-3.613-.056-.837.2-1.548,1.183-1.48.77.054,1.048.434,1.071,1.337.032,1.234.016,2.469,0,3.7,0,.265.075.316.324.314,2.186-.021,4.372-.028,6.558-.039.146,0,.292.006.437.009.142.04.12-.084.137-.151.013-.052.006-.132-.091-.074m32.815.226V61.05c2.067,0,4.134-.009,6.2.01.315,0,.367-.113.366-.374q0-2.311.007-4.621c0-.216-.083-.262-.282-.261-1.052.009-2.1.013-3.156,0-.257,0-.3.089-.295.318.017.415.018.832,0,1.247a1.034,1.034,0,0,1-.766,1,1.08,1.08,0,0,1-1.3-.552A1.424,1.424,0,0,1,48.737,57c.024-.261-.063-.32-.319-.318-2.067.011-4.135.006-6.2.006-.617,0-.617,0-.613.615,0,.049,0,.1,0,.147,0,1.113.006,2.227,0,3.34,0,.218.052.286.288.285,2.067-.012,4.134-.007,6.2-.007m-24.426-.036c1.944,0,3.887,0,5.83,0,.182,0,.286-.041.278-.236-.047-1.157.072-2.318-.066-3.474-.061-.512-.181-.623-.69-.624L18.491,56.7c-.8,0-.947.151-.946.971,0,1,.019,2.005-.009,3.007-.009.315.095.365.369.364,1.919-.009,3.838,0,5.757,0M45.208,50.079v.014c-1.076,0-2.153.01-3.23-.007-.282,0-.348.087-.346.354.011,1.236.007,2.471,0,3.707,0,.235.062.321.309.321q3.267-.007,6.533.009c.185,0,.255-.033.253-.237q-.014-1.964,0-3.927c0-.187-.044-.244-.247-.241-1.089.014-2.178.006-3.267.006M23.66,43.853v0h2.456c.727,0,.726,0,.663-.731-.008-.1.008-.2,0-.293-.116-.876-.251-1.751-.346-2.629-.026-.235-.085-.321-.319-.32q-2.473.009-4.947,0c-.119,0-.23,0-.25.147-.076.557-.159,1.114-.215,1.673a13.47,13.47,0,0,1-.219,1.821c-.057.236,0,.343.285.337.965-.018,1.931-.007,2.9-.007m.024-10v.007c.561,0,1.123,0,1.684,0,.177,0,.277-.029.223-.249a22.64,22.64,0,0,1-.339-2.444c-.03-.219-.083-.285-.3-.283-.866.008-1.732,0-2.6-.01-.163,0-.242.041-.267.215-.117.827-.222,1.656-.3,2.488-.022.25.075.283.286.278.537-.012,1.074,0,1.61,0m0,3.841v0H25.8c.189,0,.319,0,.252-.28a6.8,6.8,0,0,1-.137-1.079c-.017-.219-.109-.291-.322-.29q-1.94.01-3.88,0c-.191,0-.3.053-.291.27a3.549,3.549,0,0,1-.139.97c-.071.276.011.42.345.408.683-.024,1.366-.007,2.05-.007" transform="translate(0 0)"/>
        <path id="Trazado_823052" data-name="Trazado 823052" d="M96.653,167.544a2.8,2.8,0,0,1,.127-1.186,1.107,1.107,0,0,1,1.8-.3,1,1,0,0,1,.285.721c.027.621.024,1.245.007,1.867a1.129,1.129,0,0,1-1.167,1.058,1.161,1.161,0,0,1-1.045-1.108c-.017-.3,0-.61,0-1.054" transform="translate(-68.177 -116.909)"/>
        <path id="Trazado_823053" data-name="Trazado 823053" d="M119.1,166.867c.12.592-.065,1.217,0,1.84.057.525-.609,1.007-1.072,1.005a1.114,1.114,0,0,1-1.079-1.026,18.151,18.151,0,0,1,0-2.014,1.078,1.078,0,0,1,2.145.195" transform="translate(-82.484 -116.913)"/>
        <path id="Trazado_823054" data-name="Trazado 823054" d="M38.262,167.723c0,.281.011.563,0,.843a1.143,1.143,0,0,1-1.186,1.135,1.061,1.061,0,0,1-.986-.958,9.621,9.621,0,0,1,0-2.048,1.006,1.006,0,0,1,1.155-.953,1.018,1.018,0,0,1,1.009,1.1c.024.291,0,.586,0,.88h.01" transform="translate(-25.417 -116.911)"/>
        <path id="Trazado_823055" data-name="Trazado 823055" d="M76.509,167.79c.056-.553-.088-1.053.151-1.512a.96.96,0,0,1,1.121-.52.937.937,0,0,1,.847.8,9.165,9.165,0,0,1,.074,2.14,1.179,1.179,0,0,1-1.509.948,1.231,1.231,0,0,1-.641-.946c0-.329-.03-.657-.043-.914" transform="translate(-53.971 -116.919)"/>
        <path id="Trazado_823056" data-name="Trazado 823056" d="M58.5,167.721a6.612,6.612,0,0,1-.071,1.115c-.171.584-.5.814-1.227.8a.938.938,0,0,1-.841-.845,9.7,9.7,0,0,1,0-2.192,1.07,1.07,0,0,1,.977-.869,1.1,1.1,0,0,1,1.1.871,7.914,7.914,0,0,1,.065,1.122" transform="translate(-39.714 -116.908)"/>
        <path id="Trazado_823057" data-name="Trazado 823057" d="M193.052,187.048l-.013,0,.012-.007v0" transform="translate(-136.174 -131.946)"/>
        <path id="Trazado_823058" data-name="Trazado 823058" d="M187.444,181.8l-.019.008.006-.018.018-.007Z" transform="translate(-132.214 -128.233)"/>
        <path id="Trazado_823059" data-name="Trazado 823059" d="M48.776,230.5a.892.892,0,0,1,.187-.627c.215-.311.424-.628.659-.923a1.094,1.094,0,0,1,1.475-.25,1.079,1.079,0,0,1,.313,1.451,5.072,5.072,0,0,1-.856,1.138,1.035,1.035,0,0,1-1.088.25,1.182,1.182,0,0,1-.69-1.038" transform="translate(-34.403 -161.203)"/>
        <path id="Trazado_823060" data-name="Trazado 823060" d="M128.594,229.605a.716.716,0,0,1-.179.612,3.862,3.862,0,0,1-1.319,1.076.912.912,0,0,1-1.05-.264.948.948,0,0,1-.262-1.106,2.593,2.593,0,0,1,1.529-1.387,1.006,1.006,0,0,1,1.283,1.069" transform="translate(-88.672 -161.176)"/>
        <path id="Trazado_823061" data-name="Trazado 823061" d="M89.913,230.054a3.209,3.209,0,0,1,1.585,1.014,1.106,1.106,0,0,1-.189,1.273,1.126,1.126,0,0,1-1.273.205,4.487,4.487,0,0,1-.959-.622,1,1,0,0,1-.308-1.185,1.133,1.133,0,0,1,1.145-.685" transform="translate(-62.564 -162.285)"/>
        <path id="Trazado_823062" data-name="Trazado 823062" d="M20.922,222.823a.8.8,0,0,1,.785.368,2.25,2.25,0,0,1,.635,1.434,1.035,1.035,0,0,1-1.447.9,1.957,1.957,0,0,1-1.068-1.653,1.009,1.009,0,0,1,1.095-1.045" transform="translate(-13.985 -157.177)"/>
        <path id="Trazado_823063" data-name="Trazado 823063" d="M109.784,24.421a3.439,3.439,0,0,1,1.96.605,1.116,1.116,0,0,1,0,1.763,1.091,1.091,0,0,1-1.134.119,1.492,1.492,0,0,0-2,.367,1.091,1.091,0,0,1-.8.551,1.177,1.177,0,0,1-1.094-.547,1.09,1.09,0,0,1,.085-1.285,3.506,3.506,0,0,1,2.982-1.574" transform="translate(-75.157 -17.227)"/>
        <path id="Trazado_823064" data-name="Trazado 823064" d="M86.071,55.322a3.356,3.356,0,0,1,2.071.74.972.972,0,0,1,.283,1.1,1.047,1.047,0,0,1-.911.744.823.823,0,0,1-.6-.062,1.88,1.88,0,0,0-1.042-.229,1,1,0,0,0-.842.413,2.4,2.4,0,0,1-.463.446.951.951,0,0,1-1.29,0,.993.993,0,0,1-.348-1.212A3.277,3.277,0,0,1,85.3,55.408a2.74,2.74,0,0,1,.766-.086" transform="translate(-58.439 -39.024)"/>
      </g>
    </g>
  </g>
</svg>
