<svg xmlns="http://www.w3.org/2000/svg" xmlns:xlink="http://www.w3.org/1999/xlink" width="107" height="107" viewBox="0 0 107 107">
  <defs>
    <clipPath id="clip-path">
      <rect id="Rectángulo_377849" data-name="Rectángulo 377849" width="66.17" height="66.163"/>
    </clipPath>
  </defs>
  <g id="Grupo_156312" data-name="Grupo 156312" transform="translate(-288.668 -4448)">
    <circle id="Elipse_5845" data-name="Elipse 5845" cx="53.5" cy="53.5" r="53.5" transform="translate(288.668 4448)" fill="#ffae7e"/>
    <g id="Grupo_1073681" data-name="Grupo 1073681" transform="translate(307.498 4466.913)">
      <g id="Grupo_1073680" data-name="Grupo 1073680" clip-path="url(#clip-path)">
        <path id="Trazado_823065" data-name="Trazado 823065" d="M34.437,37.653l-4.988,2.1c.195.871.4,1.691.555,2.519a3.767,3.767,0,0,1,.038,1,.537.537,0,0,0,.272.554,7.9,7.9,0,0,1,3.29,7.435,1.382,1.382,0,0,1-.137.46.6.6,0,0,1-1,.116,4.186,4.186,0,0,1-.334-.512,3.93,3.93,0,0,0-2.569-1.8c-.209-.047-.3-.008-.375.208A7.213,7.213,0,0,1,25.3,54c-.178.083-.232.15-.163.361A4.141,4.141,0,0,0,27.073,56.8a.6.6,0,0,1,.372.708.682.682,0,0,1-.674.5,7.67,7.67,0,0,1-4.264-.738.584.584,0,0,0-.563.008,7.641,7.641,0,0,1-4.331.713,1.418,1.418,0,0,1-.4-.114.587.587,0,0,1-.108-1.059c.251-.184.525-.336.777-.519a3.951,3.951,0,0,0,1.393-2.008c.082-.239-.065-.3-.223-.385a7.439,7.439,0,0,1-2.189-1.572,7.148,7.148,0,0,1-1.585-2.669c-.077-.243-.188-.263-.4-.224a3.962,3.962,0,0,0-2.727,1.938,1.213,1.213,0,0,1-.277.349.635.635,0,0,1-1-.487,7.234,7.234,0,0,1,.219-3.224,7.757,7.757,0,0,1,3.095-4.2.513.513,0,0,0,.242-.5,7.606,7.606,0,0,1,3.068-6.5,1.109,1.109,0,0,1,.668-.236.584.584,0,0,1,.464.8,4.132,4.132,0,0,0,.305,3.278l.734-.282a7.04,7.04,0,0,1,5.611.18c.272.121.376.057.486-.185a4.086,4.086,0,0,0,.265-2.677c-.019-.083-.032-.169-.047-.253a.581.581,0,0,1,.267-.669.569.569,0,0,1,.717.072c.438.4.861.809,1.287,1.219.1.1.181.206.3.345.139-.175.265-.33.386-.488,1.2-1.574,2.4-3.153,3.606-4.72a.515.515,0,0,0,.039-.7q-2.878-4.61-5.721-9.242a.468.468,0,0,0-.463-.26c-.718.014-1.436.005-2.2.005l1.989,8.061c-.374.086-.724.179-1.079.237-.05.008-.163-.145-.187-.239q-.38-1.45-.738-2.9c-.4-1.606-.789-3.213-1.171-4.823a.364.364,0,0,0-.434-.338c-.787.019-.789,0-1.011.77q-.859,2.955-1.716,5.91c-.052.181-.109.291-.335.2a3.174,3.174,0,0,0-.621-.168c-.278-.052-.334-.188-.254-.452.487-1.614.962-3.232,1.441-4.848.134-.451.269-.9.418-1.4-.735,0-1.422.032-2.1-.011a.886.886,0,0,0-.928.52Q14,29.215,10.493,34.895q-3.75,6.1-7.51,12.2A11.228,11.228,0,0,0,1.536,55.4,11.537,11.537,0,0,0,6.88,63.1,10.961,10.961,0,0,0,12.9,64.843c6.255.025,12.512.089,18.765-.017a11.091,11.091,0,0,0,9.967-5.947,11.352,11.352,0,0,0,.141-11.3.417.417,0,0,1-.013-.1l.488-.276.541-.309a2.411,2.411,0,0,1,.212.29,13.019,13.019,0,0,1-6.955,18.1,13.423,13.423,0,0,1-4.768.86c-6.029-.01-12.059.047-18.087-.02A12.588,12.588,0,0,1,1.717,59.475a12.526,12.526,0,0,1-.784-11.1A22.158,22.158,0,0,1,2.9,44.8c1.32-2.18,2.668-4.342,4.006-6.511q2.863-4.639,5.728-9.277,1.754-2.84,3.51-5.68c.067-.109.143-.213.232-.345a1.989,1.989,0,0,0-.23-.094,2.55,2.55,0,0,1,.18-4.984,5.249,5.249,0,0,1,.9-.073c2.961-.005,5.922-.009,8.882,0,.349,0,.472-.079.551-.448.4-1.858.849-3.706,1.288-5.556.211-.888.446-1.771.656-2.66.166-.7-.092-.968-.815-.872a3.9,3.9,0,0,0-3.546,3.557c-.143,1.033-.273,2.068-.4,3.1-.03.248-.105.381-.388.306a1.683,1.683,0,0,0-.542-.07c-.357.026-.385-.158-.344-.438.107-.723.2-1.448.3-2.172.017-.126.024-.253.039-.411H21.543c.07.493.142.977.209,1.461.056.4.1.811.162,1.215.031.209-.015.323-.255.337-.308.018-.614.07-.958.112-.093-.685-.181-1.342-.271-2-.086-.629-.157-1.26-.261-1.885a3.908,3.908,0,0,0-3.742-3.148c-.463,0-.69.245-.589.7.251,1.133.527,2.259.8,3.388.244,1.024.486,2.049.738,3.071.051.2.019.312-.2.375-.926.26-.921.266-1.143-.671-.454-1.913-.886-3.831-1.375-5.735A1.891,1.891,0,0,1,16.864,7a5.014,5.014,0,0,1,4.369,3.592c.066.192.144.278.358.27.43-.017.861-.011,1.292,0a.286.286,0,0,0,.341-.239A5.042,5.042,0,0,1,27.7,6.99a1.873,1.873,0,0,1,2.177,1.469,2.165,2.165,0,0,1-.046.888c-.652,2.771-1.319,5.539-1.982,8.308-.01.041-.014.084-.026.158a2.536,2.536,0,0,1,2.406,2.7,2.577,2.577,0,0,1-2.086,2.456l5.452,8.8c.361-.5.805-.861.8-1.563q-.033-12.159-.014-24.318A5.8,5.8,0,0,1,39.174.108a8.052,8.052,0,0,1,1.447-.1Q50.343,0,60.065,0a5.783,5.783,0,0,1,4.946,2.372,6.073,6.073,0,0,1,1.159,3.721q-.008,16.551,0,33.1a5.72,5.72,0,0,1-2.887,5.215,6.061,6.061,0,0,1-3.185.805q-9.916.011-19.832,0a5.734,5.734,0,0,1-5.817-5.345c-.06-.7-.009-1.417-.009-2.217m-3.841.193.064.063c.372-.163.742-.329,1.116-.488.959-.407,1.915-.821,2.881-1.211.57-.23.946.017,1.01.629a3.183,3.183,0,0,1,.009.323q0,1.1,0,2.2a4.519,4.519,0,0,0,4.564,4.567q10.06,0,20.119,0a4.425,4.425,0,0,0,4.511-4.5q.014-16.871-.006-33.743a4.174,4.174,0,0,0-.235-1.357A4.524,4.524,0,0,0,60.3,1.3q-10.06,0-20.12,0a4.539,4.539,0,0,0-4.5,4.5q0,12.319.006,24.637a1.861,1.861,0,0,1-.4,1.189q-2.254,2.948-4.493,5.908a3.163,3.163,0,0,0-.188.315m1.739,11.643a.243.243,0,0,0,.028-.053.158.158,0,0,0,0-.064,6.4,6.4,0,0,0-3.122-4.766.857.857,0,0,1-.5-.938,6.378,6.378,0,0,0-1.082-4.382c-.059-.088-.134-.166-.227-.281-.5,2.684-2,4.452-4.225,4.7-3.552.4-5.482-1.409-6.132-4.887-.3.53-.6.989-.834,1.481a6.362,6.362,0,0,0-.536,3.43.757.757,0,0,1-.407.8,6.619,6.619,0,0,0-3.1,4.333,3.617,3.617,0,0,0-.046.463,5.2,5.2,0,0,1,6.714.03A4.976,4.976,0,0,1,20.6,52.442,5.14,5.14,0,0,1,19.34,56.7a1.111,1.111,0,0,0,.268,0,17.461,17.461,0,0,0,1.977-.666,1.2,1.2,0,0,1,1.231.009,4.928,4.928,0,0,0,2.145.653c-1.7-2.563-1.853-5.074.537-7.2,2.18-1.939,4.556-1.732,6.839,0M22.249,21.706v0q2.646,0,5.293,0a2.219,2.219,0,0,0,.449-.029,1.3,1.3,0,0,0-.308-2.555q-5.374,0-10.748,0a1.892,1.892,0,0,0-.29.013,1.2,1.2,0,0,0-1,.719,1.3,1.3,0,0,0,1.21,1.848c1.8,0,3.593,0,5.39,0M19.786,41.65c.135.105.2.17.281.219a3.973,3.973,0,0,0,4.33.094,1.5,1.5,0,0,0,.247-.223,1.38,1.38,0,0,0-.3-.2,6.675,6.675,0,0,0-4.558.115m-3.22,7.929a6.586,6.586,0,0,0,2.734,3.05,3.625,3.625,0,0,0-2.734-3.05m8.526,3.132a6.55,6.55,0,0,0,2.767-3.054,3.8,3.8,0,0,0-2.767,3.054" transform="translate(0 0)"/>
        <path id="Trazado_823066" data-name="Trazado 823066" d="M164.594,21.145a5.033,5.033,0,0,1,5.139,5.312,4.788,4.788,0,0,1-3.29,4.42c-5.368,1.99-10.763,3.908-16.138,5.877a5.02,5.02,0,0,1-3.289-9.486c2.1-.721,4.188-1.493,6.277-2.253,3-1.09,5.995-2.179,8.985-3.29a6.1,6.1,0,0,1,2.317-.581M151.316,35.07,148.739,28c-.487.176-.992.319-1.463.536a3.668,3.668,0,0,0-2.313,3.335A3.566,3.566,0,0,0,147,35.365c1.495.786,2.911.36,4.312-.3m13.34-4.851c.515-.2,1.045-.366,1.545-.6a3.756,3.756,0,0,0,.682-6.487c-1.433-1.013-2.871-.92-4.794.032l2.566,7.053m-3.166-5.013A13.881,13.881,0,0,1,161,23.873c-.079-.3-.2-.287-.429-.2q-4.371,1.6-8.745,3.185c-.622.226-1.244.455-1.895.693l.6,1.6,10.957-3.948m1.966,5.429c-.17-.467-.336-.9-.481-1.334-.063-.189-.148-.231-.333-.157-.269.108-.549.186-.821.285q-4.781,1.74-9.563,3.477c-.276.1-.318.2-.212.46.163.395.294.8.457,1.257l10.954-3.987m-12.493-.276c.158.447.3.86.449,1.274.066.19.179.2.353.133q.929-.363,1.866-.7,4.027-1.458,8.057-2.909c.257-.093.512-.193.767-.289a10.248,10.248,0,0,1-.415-1.128c-.086-.354-.234-.34-.521-.234q-4.747,1.74-9.5,3.46c-.35.127-.7.264-1.054.4" transform="translate(-106.424 -15.664)"/>
        <path id="Trazado_823067" data-name="Trazado 823067" d="M158.926,104.544l-4.418-4.432c.291-.272.54-.522.814-.743a.322.322,0,0,1,.3.053c.218.219.409.466.619.712l2.822-2.862L157.23,95.56l.937-.929.758.916c.157-.125.236-.176.3-.24q3.518-3.512,7.035-7.026c.529-.528.731-.528,1.265,0,.39.384.763.786,1.137,1.173l5.194-5.22.849.941-5.2,5.157c.49.467.927.866,1.345,1.285s.424.7,0,1.125q-3.524,3.53-7.055,7.052c-.193.191-.213.314-.009.491.226.2.436.411.649.614l-.882.873-1.71-1.8-2.824,2.814c.2.2.4.42.629.624.146.132.158.223.01.364-.24.229-.46.48-.735.771m7.916-15.072a1.633,1.633,0,0,0-.151.12q-3.313,3.3-6.627,6.605c-.135.134-.119.221.005.344q1.215,1.2,2.421,2.415c.138.138.228.172.39.009q3.233-3.246,6.48-6.478c.094-.094.173-.2.259-.306l-.1.044-2.678-2.753m-8.719,12.362,2.669-2.674-.88-.9-2.7,2.679.911.9" transform="translate(-114.473 -62.406)"/>
        <path id="Trazado_823068" data-name="Trazado 823068" d="M81.5,175.871a2.341,2.341,0,0,1-2.346,2.294,2.325,2.325,0,1,1,.051-4.651,2.369,2.369,0,0,1,2.3,2.356m-1.292-.027a1.035,1.035,0,1,0-1.065,1.036,1,1,0,0,0,1.065-1.036" transform="translate(-56.932 -128.555)"/>
      </g>
    </g>
  </g>
</svg>
