<svg xmlns="http://www.w3.org/2000/svg" xmlns:xlink="http://www.w3.org/1999/xlink" width="1030" height="605.536" viewBox="0 0 1030 605.536">
  <defs>
    <linearGradient id="linear-gradient" x1="0.5" x2="0.5" y2="1" gradientUnits="objectBoundingBox">
      <stop offset="0" stop-color="#defff8"/>
      <stop offset="0.803" stop-color="#eaf5ff"/>
      <stop offset="1" stop-color="#f0feff"/>
    </linearGradient>
    <linearGradient id="linear-gradient-2" x1="0.863" y1="0.5" x2="0.092" y2="0.805" gradientUnits="objectBoundingBox">
      <stop offset="0" stop-color="#c1e29a"/>
      <stop offset="0.423" stop-color="#c1e29a"/>
      <stop offset="1" stop-color="#e7ffd1" stop-opacity="0"/>
    </linearGradient>
    <radialGradient id="radial-gradient" cx="0.881" cy="0.33" r="0.979" gradientTransform="matrix(-0.696, -0.718, -0.69, 0.669, 1.722, 0.742)" gradientUnits="objectBoundingBox">
      <stop offset="0" stop-color="#ffae7e"/>
      <stop offset="1" stop-color="#ffae7e" stop-opacity="0.071"/>
    </radialGradient>
  </defs>
  <g id="Grupo_1074677" data-name="Grupo 1074677" transform="translate(-285 -4363.053)">
    <rect id="Rectángulo_376022" data-name="Rectángulo 376022" width="1030" height="605.536" transform="translate(1315 4968.589) rotate(180)" fill="url(#linear-gradient)"/>
    <g id="Grupo_1073785" data-name="Grupo 1073785" transform="translate(28 86)">
      <g id="Grupo_1073782" data-name="Grupo 1073782" transform="translate(0 7)">
        <rect id="Rectángulo_377911" data-name="Rectángulo 377911" width="266" height="395" rx="21" transform="translate(334 4384)" fill="#ffa36d"/>
        <rect id="Rectángulo_377912" data-name="Rectángulo 377912" width="266" height="395" rx="21" transform="translate(343 4375)" fill="#ffd0b4"/>
      </g>
      <rect id="Rectángulo_377913" data-name="Rectángulo 377913" width="242.451" height="32.041" rx="16.021" transform="translate(370 4365.671)" fill="#ffa36d"/>
      <text id="Manipuladores" transform="translate(421.952 4386.5)" font-size="18" font-family="Roboto-Bold, Roboto" font-weight="700"><tspan x="0" y="0">Manipuladores</tspan></text>
      <text id="Aseo_personal:_presentación_excelente_manos_limpias_cuerpo_limpio_sin_anillos_ni_accesorios._Hábitos_higiénicos:_lavado_de_manos_no_toser_sobre_los_productos_no_fumar_no_tocar_dinero._Estado_de_salud:_no_tener_heridas_síntomas_respiratorios_rini" data-name="Aseo personal: presentación excelente, manos limpias, cuerpo limpio, sin anillos, ni accesorios.

Hábitos higiénicos: lavado de manos, no toser sobre los productos, no fumar, no tocar dinero.

Estado de salud: no tener heridas, síntomas respiratorios, rini" transform="translate(370 4429)" fill="#12263f" font-size="16" font-family="Roboto-Bold, Roboto" font-weight="700"><tspan x="0" y="15">Aseo personal: </tspan><tspan y="15" font-family="Roboto-Regular, Roboto" font-weight="400">presentación </tspan><tspan x="0" y="35" font-family="Roboto-Regular, Roboto" font-weight="400">excelente, manos limpias, </tspan><tspan x="0" y="55" font-family="Roboto-Regular, Roboto" font-weight="400">cuerpo limpio, sin anillos, ni </tspan><tspan x="0" y="75" font-family="Roboto-Regular, Roboto" font-weight="400">accesorios.</tspan><tspan font-family="Roboto-Regular, Roboto" font-weight="400"><tspan x="0" y="95"></tspan></tspan><tspan x="0" y="115">Hábitos higiénicos: </tspan><tspan y="115" font-family="Roboto-Regular, Roboto" font-weight="400">lavado </tspan><tspan x="0" y="135" font-family="Roboto-Regular, Roboto" font-weight="400">de manos, no toser sobre los </tspan><tspan x="0" y="155" font-family="Roboto-Regular, Roboto" font-weight="400">productos, no fumar, no tocar </tspan><tspan x="0" y="175" font-family="Roboto-Regular, Roboto" font-weight="400">dinero.</tspan><tspan font-family="Roboto-Regular, Roboto" font-weight="400"><tspan x="0" y="195"></tspan></tspan><tspan x="0" y="215">Estado de salud: </tspan><tspan y="215" font-family="Roboto-Regular, Roboto" font-weight="400">no tener </tspan><tspan x="0" y="235" font-family="Roboto-Regular, Roboto" font-weight="400">heridas, síntomas </tspan><tspan x="0" y="255" font-family="Roboto-Regular, Roboto" font-weight="400">respiratorios, rinitis, etc.</tspan><tspan font-family="Roboto-Regular, Roboto" font-weight="400"><tspan x="0" y="275"></tspan></tspan></text>
    </g>
    <g id="Grupo_1073786" data-name="Grupo 1073786" transform="translate(-40.451 86)">
      <g id="Grupo_1073783" data-name="Grupo 1073783" transform="translate(371 7)">
        <rect id="Rectángulo_377911-2" data-name="Rectángulo 377911" width="266" height="395" rx="21" transform="translate(334 4384)" fill="#264100"/>
        <rect id="Rectángulo_377912-2" data-name="Rectángulo 377912" width="266" height="395" rx="21" transform="translate(343 4375)" fill="#c1e29a"/>
      </g>
      <rect id="Rectángulo_377914" data-name="Rectángulo 377914" width="242.451" height="32.041" rx="16.021" transform="translate(741 4365.671)" fill="#264100"/>
      <text id="Alimento" transform="translate(822 4386.5)" fill="#fff" font-size="18" font-family="Roboto-Bold, Roboto" font-weight="700"><tspan x="0" y="0">Alimento</tspan></text>
      <text id="Materias_primas:_procedente_de_establecimientos_autorizados_registro_legal._Protección_contaminación:_Protegerlos_del_polvo_insectos_roedores_insecticidas_detergentes_etc._Alteración:_protegerlos_de_variaciones_altas_de_temperatura_y_humedad._Mani" data-name="Materias primas: procedente de establecimientos autorizados, registro legal.

Protección contaminación:
Protegerlos del polvo, insectos, roedores, insecticidas, detergentes, etc.

Alteración: protegerlos de variaciones altas de temperatura y humedad.

Mani" transform="translate(741 4429)" fill="#12263f" font-size="16" font-family="Roboto-Bold, Roboto" font-weight="700"><tspan x="0" y="15">Materias primas: </tspan><tspan y="15" font-family="Roboto-Regular, Roboto" font-weight="400">procedente </tspan><tspan x="0" y="35" font-family="Roboto-Regular, Roboto" font-weight="400">de establecimientos </tspan><tspan x="0" y="55" font-family="Roboto-Regular, Roboto" font-weight="400">autorizados, registro legal.</tspan><tspan font-family="Roboto-Regular, Roboto" font-weight="400"><tspan x="0" y="75"></tspan></tspan><tspan x="0" y="95">Protección contaminación:</tspan><tspan font-family="Roboto-Regular, Roboto" font-weight="400"><tspan x="0" y="115">Protegerlos del polvo, insectos, </tspan><tspan x="0" y="135">roedores, insecticidas, </tspan><tspan x="0" y="155">detergentes, etc.</tspan><tspan x="0" y="175"></tspan></tspan><tspan x="0" y="195">Alteración</tspan><tspan y="195" font-family="Roboto-Regular, Roboto" font-weight="400">: protegerlos de </tspan><tspan x="0" y="215" font-family="Roboto-Regular, Roboto" font-weight="400">variaciones altas de </tspan><tspan x="0" y="235" font-family="Roboto-Regular, Roboto" font-weight="400">temperatura y humedad.</tspan><tspan font-family="Roboto-Regular, Roboto" font-weight="400"><tspan x="0" y="255"></tspan></tspan><tspan x="0" y="275">Manipulación: </tspan><tspan y="275" font-family="Roboto-Regular, Roboto" font-weight="400">condiciones </tspan><tspan x="0" y="295" font-family="Roboto-Regular, Roboto" font-weight="400">mínimas de higiene y utensilios </tspan><tspan x="0" y="315" font-family="Roboto-Regular, Roboto" font-weight="400">limpios.</tspan></text>
    </g>
    <g id="Grupo_1073787" data-name="Grupo 1073787" transform="translate(-60.451 86)">
      <g id="Grupo_1073784" data-name="Grupo 1073784" transform="translate(686 7)">
        <rect id="Rectángulo_377911-3" data-name="Rectángulo 377911" width="266" height="395" rx="21" transform="translate(334 4384)" fill="#aecc8b"/>
        <rect id="Rectángulo_377912-3" data-name="Rectángulo 377912" width="266" height="395" rx="21" transform="translate(343 4375)" fill="#e7ffd1"/>
      </g>
      <rect id="Rectángulo_377915" data-name="Rectángulo 377915" width="242.451" height="32.041" rx="16.021" transform="translate(1056 4365.671)" fill="#c1e29a"/>
      <text id="Equipos" transform="translate(1137 4386.5)" font-size="18" font-family="Roboto-Bold, Roboto" font-weight="700"><tspan x="0" y="0">Equipos</tspan></text>
      <text id="Maquinaria:_uso_alimentario_inoxidable_superficies_limpias_y_en_buen_funcionamiento._Muebles:_mesas_que_se_puedan_limpiar_fácilmente_en_buen_estado_y_buena_higiene._Utensilios:_buen_material_fácil_limpieza_y_conservación._" data-name="Maquinaria: uso alimentario, inoxidable, superficies limpias y en buen funcionamiento.

Muebles: mesas que se puedan limpiar fácilmente, en buen estado y buena higiene.

Utensilios: buen material, fácil limpieza y conservación.
" transform="translate(1056 4429)" fill="#12263f" font-size="16" font-family="Roboto-Bold, Roboto" font-weight="700"><tspan x="0" y="15">Maquinaria: </tspan><tspan y="15" font-family="Roboto-Regular, Roboto" font-weight="400">uso alimentario, </tspan><tspan x="0" y="35" font-family="Roboto-Regular, Roboto" font-weight="400">inoxidable, superficies limpias y </tspan><tspan x="0" y="55" font-family="Roboto-Regular, Roboto" font-weight="400">en buen funcionamiento.</tspan><tspan x="0" y="75"></tspan><tspan x="0" y="95">Muebles: </tspan><tspan y="95" font-family="Roboto-Regular, Roboto" font-weight="400">mesas que se puedan </tspan><tspan x="0" y="115" font-family="Roboto-Regular, Roboto" font-weight="400">limpiar fácilmente, en buen </tspan><tspan x="0" y="135" font-family="Roboto-Regular, Roboto" font-weight="400">estado y buena higiene.</tspan><tspan font-family="Roboto-Regular, Roboto" font-weight="400"><tspan x="0" y="155"></tspan></tspan><tspan x="0" y="175">Utensilios:</tspan><tspan y="175" xml:space="preserve" font-family="Roboto-Regular, Roboto" font-weight="400"> buen material, fácil </tspan><tspan x="0" y="195" font-family="Roboto-Regular, Roboto" font-weight="400">limpieza y conservación.</tspan><tspan font-family="Roboto-Regular, Roboto" font-weight="400"><tspan x="0" y="215"></tspan></tspan></text>
    </g>
    <path id="Unión_25" data-name="Unión 25" d="M27.636,72.516H0A77.432,77.432,0,0,1,22.734,22.806a78.454,78.454,0,0,1,118.72,9.417l7.373-3.584-3.083,43.877L109.156,47.924l7.643-3.716A51.453,51.453,0,0,0,27.637,72.515h0Z" transform="translate(879.174 4379.155)" fill="url(#linear-gradient-2)"/>
    <path id="Unión_26" data-name="Unión 26" d="M30.472,0H0a84.875,84.875,0,0,0,6.579,27.52A85.591,85.591,0,0,0,25.067,54.812a86,86,0,0,0,27.421,18.4,86.068,86.068,0,0,0,33.578,6.747,86.079,86.079,0,0,0,33.579-6.747,86,86,0,0,0,27.42-18.4,86.762,86.762,0,0,0,8.907-10.384l8.129,3.952L160.7,0,120.36,27.116l8.428,4.1a56.375,56.375,0,0,1-42.064,18.6A56.51,56.51,0,0,1,30.474,0h0Z" transform="translate(568.898 4870.042)" fill="url(#radial-gradient)"/>
  </g>
</svg>
