<svg xmlns="http://www.w3.org/2000/svg" xmlns:xlink="http://www.w3.org/1999/xlink" width="169" height="169" viewBox="0 0 169 169">
  <defs>
    <clipPath id="clip-path">
      <rect id="Rect치ngulo_377861" data-name="Rect치ngulo 377861" width="105.048" height="104.216" fill="none"/>
    </clipPath>
  </defs>
  <g id="Grupo_1073326" data-name="Grupo 1073326" transform="translate(-385.5 -2057.772)">
    <g id="Grupo_159182" data-name="Grupo 159182" transform="translate(385.5 2057.772)">
      <path id="Uni칩n_12" data-name="Uni칩n 12" d="M84.5,0A84.5,84.5,0,1,1,0,84.5,84.5,84.5,0,0,1,84.5,0Z" transform="translate(0 0)" fill="#ffae7e"/>
    </g>
    <g id="Grupo_1073697" data-name="Grupo 1073697" transform="translate(417.5 2090.772)">
      <g id="Grupo_1073696" data-name="Grupo 1073696" clip-path="url(#clip-path)">
        <path id="Trazado_823223" data-name="Trazado 823223" d="M92.618,103.665c2.246,2.2,4.521,4.326,6.681,6.566a16.34,16.34,0,0,1,3.96,7.263,14.832,14.832,0,0,1,.463,5.069,20.913,20.913,0,0,1-1.476,6.132,16.408,16.408,0,0,1-4.469,6.189c-.29.257-.584.51-.9.789a1.2,1.2,0,0,0,.612.064c2.367,0,4.735.009,7.1,0,.337,0,.474.056.458.435-.033.781-.014,1.565-.008,2.348a.641.641,0,0,1-.689.719c-.091.006-.182,0-.273,0q-51.66,0-103.321.014c-.529,0-.672-.12-.641-.645.05-.834.027-1.674.007-2.511-.007-.294.087-.371.367-.358.452.021.9.006,1.424.006-.282-.486-.574-.9-.812-1.352a8.861,8.861,0,0,1-.978-4.117A1.941,1.941,0,0,0,.03,129.21c-.128-.217.191-.26.227-.475a8.156,8.156,0,0,1,1.807-3.8,7.83,7.83,0,0,1,4.17-2.722c.839-.215.846-.248.9-1.091a10.209,10.209,0,0,1,.278-1.557.3.3,0,0,0-.1-.356,18.826,18.826,0,0,1-4.3-5.848,18.355,18.355,0,0,1-1.479-5.356,21.027,21.027,0,0,1-.081-4.181,13,13,0,0,1,.464-2.164,16.994,16.994,0,0,1,4.825-8.1q2.713-2.733,5.455-5.437c.265-.261.306-.391,0-.656a4.084,4.084,0,0,1-1.073-5.295,3.3,3.3,0,0,0,.349-.77c.091-.4.558-.4.828-.62a4.008,4.008,0,0,1,.9-.51c.273-.125.281-.248.139-.5a7.205,7.205,0,0,1-.97-3.637c0-1.165-.036-2.331.009-3.495a5.052,5.052,0,0,1,2.948-4.518,5.174,5.174,0,0,1,3.669-.278,4.9,4.9,0,0,1,3.769,4.215c.092.438.074.877.172,1.316a1.471,1.471,0,0,0,1.19,1.169,1.786,1.786,0,0,0,1.754-.528,2.1,2.1,0,0,0,.47-1.541,4.971,4.971,0,0,1,1.8-3.662,5.565,5.565,0,0,1,7.183.328,5.618,5.618,0,0,1,1.43,3.263,24.714,24.714,0,0,1,.076,3.31,8.1,8.1,0,0,1-.893,3.946c-.189.331-.166.491.234.7a4.218,4.218,0,0,1,1.1,6.849c-.594.549-.544.533.036,1.144.373.393.57.311.9-.028q2.706-2.74,5.456-5.435c.3-.29.293-.417-.024-.695a4.048,4.048,0,0,1-1.416-4.355,3.953,3.953,0,0,1,2.36-2.776c.3-.119.42-.207.23-.524a8.052,8.052,0,0,1-.981-4.553c.033-.945.01-1.891.016-2.837a4.5,4.5,0,0,1,1.171-2.922,4.8,4.8,0,0,1,2.585-1.682,5.285,5.285,0,0,1,6.287,3.068,4.48,4.48,0,0,1,.319,1.926,1.91,1.91,0,0,0,1.548,1.794,1.665,1.665,0,0,0,1.958-1.481,5.828,5.828,0,0,1,1.791-4.182,4.684,4.684,0,0,1,2.661-1.233A5.791,5.791,0,0,1,65.8,63.1a5.181,5.181,0,0,1,1.951,2.15A6.425,6.425,0,0,1,68.3,67.9a21.087,21.087,0,0,1-.088,3.961,5.375,5.375,0,0,1-.895,2.707c-.172.223-.153.346.171.481A4.279,4.279,0,0,1,70.05,78.82a4.2,4.2,0,0,1-1.557,3.392c-.271.225-.324.384-.021.65.505.444.979.926,1.438,1.418.21.225.337.294.613.069a4.287,4.287,0,0,1,2.6-1,5.733,5.733,0,0,1,3.359.881,4.658,4.658,0,0,1,1.981,2.634,11.641,11.641,0,0,1,.358,2.047,1.737,1.737,0,0,0,3.387.084,10.333,10.333,0,0,1,.51-2.5,5.416,5.416,0,0,1,3.283-2.963,5.092,5.092,0,0,1,2.932.034,4.72,4.72,0,0,1,3.717,4.124,17.333,17.333,0,0,1,.055,4.594A9.351,9.351,0,0,1,92.141,95c-.121.29-.523.488-.4.823.107.288.509.29.759.464a4.323,4.323,0,0,1,2.03,3.732,3.869,3.869,0,0,1-1,2.614c-.276.307-.547.619-.915,1.035m-50.614-1c.011-.013.033-.025.033-.038a.507.507,0,0,0-.017-.094c.011-.068.021-.137.031-.205s.01-.152.015-.228q0-.269,0-.538l-.005-.117q-.028-.269-.055-.537c.009-.014.028-.029.025-.039a.533.533,0,0,0-.037-.085c-.038-.282-.069-.566-.116-.847A6.819,6.819,0,0,0,40.417,96.5a2.358,2.358,0,0,0-3.644,0,6.751,6.751,0,0,0-1.236,2.211,9.374,9.374,0,0,0,.041,5.939,4.89,4.89,0,0,0,2.114,2.94.606.606,0,0,0,.871-.133,6.04,6.04,0,0,1,1.9-1.448,2.063,2.063,0,0,0,1.229-1.6A9.141,9.141,0,0,0,42,102.661m-2.621,33.08h12.4c6.064,0,12.128.014,18.192-.006a5.215,5.215,0,0,0,5.129-6.458,4.987,4.987,0,0,0-1.195-2.3,6.24,6.24,0,0,0-4.029-1.8c-.36-.057-.724.189-1.1.267a4.652,4.652,0,0,0-2.935,2.019c-.146.211-.306.517-.608.307-.732-.511-1.5-.961-2.274-1.4-.374-.213-.383-.395-.15-.722a8.373,8.373,0,0,1,2.738-2.542c.42-.233.393-.438.155-.76a5.3,5.3,0,0,0-1.6-1.468,5.206,5.206,0,0,0-5.744.021,1.042,1.042,0,0,0-.554,1.025c.042,1,.038,2,.007,3a5.787,5.787,0,0,1-1.424,3.839,9.855,9.855,0,0,1-4.823,2.894,14.326,14.326,0,0,1-4.63.6A16.219,16.219,0,0,1,44.1,131.9a11.046,11.046,0,0,1-5.129-2.457,6.016,6.016,0,0,1-2.13-4.7c.021-2.494.015-4.987,0-7.481a14.293,14.293,0,0,0-.14-2.055,8.669,8.669,0,0,0-10.124-7.275,8.46,8.46,0,0,0-6.648,5.391.634.634,0,0,0,.335.959,8.76,8.76,0,0,1,2.836,2.594c.3.392.213.588-.175.8-.575.312-1.137.649-1.7.978-.782.455-.781.456-1.347-.222a5.265,5.265,0,0,0-9.237,2.5c-.2.869-.075,1.01.778,1.262a9.051,9.051,0,0,1,2.889,1.5c.254.191.27.332.057.563-.617.669-1.22,1.351-1.822,2.033-.117.133-.211.251-.4.115-.265-.187-.6-.28-.852-.447a4.64,4.64,0,0,0-4.005-.431,5.235,5.235,0,0,0,1.839,10.219q15.133-.007,30.266,0m43.226-.007c1.3-.071,3.059.075,4.826-.079a14.392,14.392,0,0,0,5.7-1.7c4.432-2.428,6.49-6.428,7.069-11.279a12.881,12.881,0,0,0-.773-5.626,13.337,13.337,0,0,0-3.34-5.179c-1.929-1.932-3.918-3.805-5.757-5.825-.977-1.073-1.932-2.169-3.624-1.759-.018,0-.037,0-.054,0-.135.023-.311-.064-.392.1s.065.269.15.38a17.841,17.841,0,0,1,1.5,2.4,25.976,25.976,0,0,1,3.095,10.969c.127,2.25.023,4.513.038,6.77a.378.378,0,0,1-.491.411,14.142,14.142,0,0,0-2.448-.05c-.46,0-.56-.139-.576-.584-.107-2.963.251-5.933-.334-8.895a26.839,26.839,0,0,0-.936-3.884,20.286,20.286,0,0,0-4.31-7.2,1.137,1.137,0,0,0-.935-.426,19.549,19.549,0,0,1-2.239-.01,1.857,1.857,0,0,0-1.676.8,24.223,24.223,0,0,0-3.613,5.942,21.558,21.558,0,0,0-1.569,6.247c-.175,1.356-.085,2.722-.125,4.083a.659.659,0,0,0,.592.781,8.36,8.36,0,0,1,5.656,4.926,7.956,7.956,0,0,1,.774,3.466,8.359,8.359,0,0,1-1.559,4.853c-.169.228-.122.368.192.368,1.561,0,3.123,0,5.15,0M58.077,116.653c.055-.138.1-.218.12-.3a15.5,15.5,0,0,1,4.028-6.579c1.865-1.894,3.755-3.764,5.636-5.643.606-.606.613-.608-.008-1.23a4,4,0,0,1-1.23-2.994A4.2,4.2,0,0,1,69.1,96.031c.3-.146.353-.283.175-.588a7.367,7.367,0,0,1-.95-3.649c-.023-1.274,0-2.548.012-3.822a.9.9,0,0,0-.292-.724c-.617-.589-1.26-1.149-1.826-1.8-.515-.587-1.093-1.12-1.651-1.67a4.066,4.066,0,0,0-2.68-.453c-.2.1-.1.2-.014.339.529.836,1.112,1.631,1.569,2.52a31.849,31.849,0,0,1,2.54,6.766c.09.356.018.58-.369.616-.83.077-1.57.521-2.43.529-.415,0-.593-.029-.672-.447a18.8,18.8,0,0,0-.877-3.141,22.064,22.064,0,0,0-4.172-6.841,1,1,0,0,0-.856-.364c-.856.022-1.712.027-2.567,0a1.316,1.316,0,0,0-1.14.51,22.374,22.374,0,0,0-1.9,2.5,19.484,19.484,0,0,0-2.636,5.713c-.1.448-.329.532-.685.432-.822-.23-1.632-.5-2.454-.728a.473.473,0,0,1-.362-.7A24.973,24.973,0,0,1,48.426,83.9c.11-.147.333-.321.142-.513-.152-.153-.382-.068-.56.035a2.912,2.912,0,0,0-.3.234,26.789,26.789,0,0,0-2.145,2.071c-1.985,1.913-3.886,3.914-5.813,5.887-.387.4-.367.453.181.616a6.591,6.591,0,0,1,3.7,2.808A12.038,12.038,0,0,1,45.4,103.79c-.08.515.025.627.532.574A13.961,13.961,0,0,1,54.16,105.9a7.5,7.5,0,0,1,3.033,2.949,5.61,5.61,0,0,1,.634,2.732c0,1.438,0,2.876.006,4.314a.841.841,0,0,0,.244.759M15.864,105.391c0,1.533-.014,2.589.007,3.644.007.374-.094.513-.487.5-.837-.027-1.676-.031-2.513,0-.422.016-.518-.132-.513-.53.019-1.838,0-3.677.011-5.515a26.985,26.985,0,0,1,.739-6.033A23.213,23.213,0,0,1,16.9,89.183c.114-.157.4-.349.2-.55s-.478-.036-.694.112a1.337,1.337,0,0,0-.161.147l-3.052,2.941c-.287.276-.521.6-.806.88a33.627,33.627,0,0,0-5.361,5.923,13.4,13.4,0,0,0-1.847,4.481,14.275,14.275,0,0,0,.791,8.167,19.8,19.8,0,0,0,2.884,4.589c.24.317.434.18.67-.032a9.467,9.467,0,0,1,1.674-1.49,9.02,9.02,0,0,1,4.2-1.324c1-.022,1.011-.014,1.335-.952a8.137,8.137,0,0,1,1.252-2.453,16.2,16.2,0,0,1,2.285-2.392,11.508,11.508,0,0,1,11.2-2.416c.4.12.528.054.458-.374a13.5,13.5,0,0,1-.218-4.219,10.944,10.944,0,0,1,1.027-3.757c.856-1.558,1.723-3.111,2.613-4.65.162-.28.152-.436-.07-.646a11.226,11.226,0,0,1-1.306-1.317,3.108,3.108,0,0,0-3.227-1.295c-.168.028-.409-.1-.489.108-.068.177.116.324.232.463a19.626,19.626,0,0,1,2.111,3.552c.16.305.085.494-.244.635-.784.337-1.561.694-2.333,1.06-.321.153-.485.085-.624-.251a18.152,18.152,0,0,0-3.5-5.293.838.838,0,0,0-.678-.278c-.8.008-1.608.058-2.4-.013a1.743,1.743,0,0,0-1.661.824c-.087.116-.175.232-.266.345A22.3,22.3,0,0,0,16.6,98.088a25.238,25.238,0,0,0-.738,7.3m24.479,11.16c0,2.875.009,5.7-.007,8.517a2.194,2.194,0,0,0,.715,1.636,5.179,5.179,0,0,0,1.629,1.077,11.267,11.267,0,0,0,5.935.878A8.371,8.371,0,0,0,53,127.141a2.789,2.789,0,0,0,1.315-2.1c.036-2.712.01-5.425.016-8.137,0-.3-.07-.418-.367-.239a12.228,12.228,0,0,1-5.565,1.582,13.815,13.815,0,0,1-6.966-1.191,4.632,4.632,0,0,0-1.093-.5m40.322-21h5.079a3.274,3.274,0,0,0,3.362-2.616,15.683,15.683,0,0,0,.154-4.451,1.728,1.728,0,0,0-1.748-1.628,1.838,1.838,0,0,0-1.708,1.8,5.443,5.443,0,0,1-2.728,4.455,5.052,5.052,0,0,1-6.42-1.136,5.6,5.6,0,0,1-1.347-3.325,1.8,1.8,0,0,0-1.087-1.633,1.738,1.738,0,0,0-2.4,1.734c-.022,1,.024,2-.011,3a3.7,3.7,0,0,0,3.776,3.8c1.693-.013,3.386,0,5.079,0M24.733,79.818c1.729,0,3.459,0,5.189,0A3.263,3.263,0,0,0,33.138,77.3a16.255,16.255,0,0,0,.178-4.505,1.655,1.655,0,0,0-1.669-1.616A1.694,1.694,0,0,0,29.855,72.9a5.426,5.426,0,0,1-2.714,4.463,5.052,5.052,0,0,1-6.46-1.154,5.557,5.557,0,0,1-1.324-3.333,1.758,1.758,0,0,0-1.661-1.7,1.718,1.718,0,0,0-1.827,1.911c-.021.946.035,1.894-.013,2.838a3.716,3.716,0,0,0,3.907,3.9c1.656-.023,3.313,0,4.97,0M56.2,74.575c1.73,0,3.46.005,5.191,0a3.508,3.508,0,0,0,3.227-2.54,19.958,19.958,0,0,0,.212-3.961,2.472,2.472,0,0,0-.373-1.4,1.514,1.514,0,0,0-1.428-.74,1.48,1.48,0,0,0-1.367.73,4.584,4.584,0,0,0-.443,1.834,5.424,5.424,0,0,1-4.952,4.329,5.058,5.058,0,0,1-3.5-1.311,5.592,5.592,0,0,1-1.733-2.729,9.252,9.252,0,0,0-.473-2,1.68,1.68,0,0,0-1.9-.825,1.76,1.76,0,0,0-1.3,1.517c-.021,1.065-.025,2.131-.027,3.2a3.669,3.669,0,0,0,3.891,3.9q2.486,0,4.972,0m-8.895,40.2c.436-.02.864-.048,1.3-.1a8.373,8.373,0,0,0,4.852-1.939,1.88,1.88,0,0,0,.271-2.7,4.635,4.635,0,0,0-1.692-1.227,11.784,11.784,0,0,0-5.87-.923,9.186,9.186,0,0,0-4.132,1.25c-2.071,1.341-2.317,2.568-.294,4.053a10.1,10.1,0,0,0,5.568,1.59m20.969,5.153a29.941,29.941,0,0,1,.381-4.634,23.128,23.128,0,0,1,2.488-7.622c.545-1.012,1.18-1.963,1.817-2.914.078-.118.226-.243.113-.385s-.3-.093-.458-.04a2.061,2.061,0,0,0-.718.575c-1.286,1.235-2.513,2.53-3.811,3.755-1.28,1.208-2.494,2.486-3.7,3.766a15.587,15.587,0,0,0-2.3,3.561c-.076.145-.315.3-.132.468a.619.619,0,0,0,.613.13c.063-.021.083-.147.169-.094.668.415,1.469.474,2.163.821a10.485,10.485,0,0,1,3.38,2.613M24.639,85.061h9.5c.433,0,.813-.084.854-.619.059-.756-.138-1.037-.777-1.116a3.528,3.528,0,0,0-.436-.011q-9.174,0-18.348,0a2.544,2.544,0,0,0-.793.121.7.7,0,0,0-.522.681c-.035.631.289.948,1.019.948q4.75.006,9.5,0m55.948,15.728h9.5c.433,0,.814-.082.857-.617.061-.755-.136-1.038-.774-1.119a3.442,3.442,0,0,0-.436-.011q-9.174,0-18.348,0a2.5,2.5,0,0,0-.742.1.721.721,0,0,0-.575.747c-.011.6.3.9,1.016.9q4.751.006,9.5,0m-24.5-20.971h9.552c.416,0,.773-.1.827-.591.078-.7-.088-.93-.661-1.078a2.506,2.506,0,0,0-.636-.078q-9.116,0-18.231,0a2.328,2.328,0,0,0-.806.109.737.737,0,0,0-.543.727c-.013.606.3.912,1,.913q4.749.006,9.5,0" transform="translate(0 -35.034)"/>
        <path id="Trazado_823224" data-name="Trazado 823224" d="M221.381,41.451a7.565,7.565,0,0,1-.419,3.772,9.558,9.558,0,0,1-1.314,2.51c-.51.727-1.23,1.268-1.684,2.054a5.449,5.449,0,0,0-.316,5.208,6.584,6.584,0,0,0,1.23,1.871,9.046,9.046,0,0,1,2.5,4.962,8.922,8.922,0,0,1-2.341,7.569c-.565.616-1.187,1.18-1.768,1.782-.161.167-.237.19-.418.008-.652-.657-1.33-1.289-2-1.929-.181-.173-.306-.258-.011-.521a13.583,13.583,0,0,0,2.193-2.321,4.648,4.648,0,0,0,.856-2.567,7.377,7.377,0,0,0-.228-2.673,6.131,6.131,0,0,0-1.463-2.252,8.636,8.636,0,0,1-2.278-4.027,9.842,9.842,0,0,1-.2-3.508,8.827,8.827,0,0,1,2.209-4.639,6.952,6.952,0,0,0,1.709-2.588,6.313,6.313,0,0,0-.746-5.324.653.653,0,0,0-.069-.082c-.193-.2-.583-.368-.506-.626.05-.171.376-.352.567-.539q.781-.764,1.545-1.544c.183-.187.346-.254.538-.022a6.823,6.823,0,0,1,1.719,2.8c.1.431.438.836.532,1.31a3.927,3.927,0,0,1,.156,1.318" transform="translate(-119.967 -20.145)"/>
        <path id="Trazado_823225" data-name="Trazado 823225" d="M80.3,34.369c1.6,0,3.2.008,4.805-.007.317,0,.442.049.431.407-.029.909-.039,1.82,0,2.728a.385.385,0,0,1-.479.445,5.849,5.849,0,0,0-1.612-.07c-2.457-.017-4.915-.029-7.372,0a4.317,4.317,0,0,0-4.228,2.682,4.381,4.381,0,0,0,2.4,5.735,9.252,9.252,0,0,0,3.67.293c.542.011.66.152.631.661a21.019,21.019,0,0,0,0,2.454c.027.438-.277.533-.5.481a10.235,10.235,0,0,0-2.21-.079,7.353,7.353,0,0,1-5.889-2.82,8.068,8.068,0,0,1-1.713-3.295,7.576,7.576,0,0,1,.5-5.081,10.124,10.124,0,0,1,1.6-2.146,7.28,7.28,0,0,1,5.818-2.377c1.383-.024,2.766,0,4.15,0Z" transform="translate(-38.187 -19.294)"/>
        <path id="Trazado_823226" data-name="Trazado 823226" d="M160.859,20.139a4.642,4.642,0,0,0-1.438-3.429,18.872,18.872,0,0,0-2.264-2.241c-.175-.139-.169-.26-.021-.381.7-.573,1.283-1.258,1.918-1.893.213-.213.367-.307.62-.043a32.856,32.856,0,0,1,3.559,3.812,6.746,6.746,0,0,1,.994,2.531,7.663,7.663,0,0,1-.037,3.1,8.213,8.213,0,0,1-2.153,4.112,4.3,4.3,0,0,0-1.269,3.131,4.521,4.521,0,0,0,1.278,3.07c.767.843,1.593,1.624,2.367,2.458.152.164.2.257.016.434a20.018,20.018,0,0,0-1.729,1.749c-.41.508-.735.263-1.009-.016-.894-.914-1.762-1.856-2.611-2.813a7.041,7.041,0,0,1-1.533-2.813,8.323,8.323,0,0,1-.227-2.9,8.18,8.18,0,0,1,1.5-3.815,14,14,0,0,1,1.081-1.332,3.613,3.613,0,0,0,.958-2.716" transform="translate(-88.17 -6.733)"/>
        <path id="Trazado_823227" data-name="Trazado 823227" d="M35.164,28.726A8.839,8.839,0,0,1,37.529,22.8a6.386,6.386,0,0,0,1.716-2.706,5.985,5.985,0,0,0-1.2-5.609c-.126-.144-.192-.2-.011-.379.662-.638,1.294-1.308,1.941-1.962.2-.206.378-.2.586.036a9.366,9.366,0,0,1,2.264,4.526,9.2,9.2,0,0,1-2.655,8.263,5.561,5.561,0,0,0,.035,7.717c.451.5.929.975,1.412,1.443.321.311.547.5,0,.895a13.41,13.41,0,0,0-1.7,1.65c-.253.264-.415.238-.663-.011a22.767,22.767,0,0,1-2.742-3.092A9.747,9.747,0,0,1,35.4,30.847a6.859,6.859,0,0,1-.235-2.121" transform="translate(-19.744 -6.735)"/>
        <path id="Trazado_823228" data-name="Trazado 823228" d="M210.217,23.838a4.422,4.422,0,0,1,.843.723,15.918,15.918,0,0,0,1.614,1.48,6.826,6.826,0,0,1,.982,1.163c.1.112-.059.286-.136.367-.639.667-1.3,1.316-1.954,1.964-.205.2-.669-.03-.928-.42A14.843,14.843,0,0,0,208.12,26.5c-.274-.25-.3-.331-.049-.569.628-.6,1.237-1.229,1.856-1.843.086-.086.185-.158.291-.249" transform="translate(-116.736 -13.385)"/>
        <path id="Trazado_823229" data-name="Trazado 823229" d="M147.464.006c.15-.032.217.1.3.182.993.989,1.979,1.986,2.98,2.966.2.191.165.288,0,.475-.614.684-1.355,1.243-1.916,1.98-.108.142-.293.253-.543-.041a28.05,28.05,0,0,0-2.906-2.946c-.246-.215-.3-.324-.057-.562.633-.617,1.247-1.255,1.872-1.881.073-.073.13-.183.27-.174" transform="translate(-81.51 -0.001)"/>
        <path id="Trazado_823230" data-name="Trazado 823230" d="M31.847,0c.178-.007.239.122.325.208.965.962,1.92,1.934,2.9,2.88.247.239.242.364,0,.595-.644.606-1.267,1.234-1.882,1.869-.172.178-.258.228-.457.018-.719-.763-1.459-1.507-2.2-2.251-.292-.293-.6-.568-.906-.849-.1-.091-.188-.165-.047-.306Q30.61,1.137,31.631.094A.248.248,0,0,1,31.847,0" transform="translate(-16.567 0)"/>
        <path id="Trazado_823231" data-name="Trazado 823231" d="M119.417,36.151c0,.473-.013.947.005,1.419.01.247-.078.3-.311.3q-1.447-.017-2.895,0c-.246,0-.3-.079-.3-.311q.018-1.446,0-2.893c0-.246.079-.3.311-.3q1.447.017,2.894,0c.246,0,.309.078.3.311-.016.491,0,.983,0,1.474" transform="translate(-65.086 -19.296)"/>
        <path id="Trazado_823232" data-name="Trazado 823232" d="M44.014,193.9q-15.133,0-30.266,0a5.235,5.235,0,0,1-1.839-10.219,4.642,4.642,0,0,1,4.005.431c.254.167.588.26.852.447.192.136.285.018.4-.115.6-.682,1.205-1.364,1.822-2.033.213-.231.2-.372-.057-.563a9.052,9.052,0,0,0-2.889-1.5c-.853-.253-.982-.394-.778-1.262a5.265,5.265,0,0,1,9.237-2.5c.566.678.565.677,1.347.221.566-.329,1.128-.666,1.7-.977.388-.21.473-.406.175-.8a8.76,8.76,0,0,0-2.836-2.594.634.634,0,0,1-.335-.959,8.46,8.46,0,0,1,6.648-5.391,8.669,8.669,0,0,1,10.124,7.275,14.292,14.292,0,0,1,.14,2.055c.016,2.493.023,4.987,0,7.481a6.016,6.016,0,0,0,2.13,4.7,11.051,11.051,0,0,0,5.129,2.457,16.22,16.22,0,0,0,2.845.351,14.327,14.327,0,0,0,4.63-.6,9.852,9.852,0,0,0,4.823-2.894,5.785,5.785,0,0,0,1.424-3.838c.032-1,.036-2-.007-3A1.042,1.042,0,0,1,63,179.052a5.205,5.205,0,0,1,5.744-.021,5.3,5.3,0,0,1,1.6,1.468c.238.321.265.527-.155.759a8.379,8.379,0,0,0-2.738,2.542c-.233.327-.225.509.15.722.773.44,1.541.891,2.274,1.4.3.211.461-.1.608-.306a4.651,4.651,0,0,1,2.935-2.019c.374-.077.738-.324,1.1-.267a6.243,6.243,0,0,1,4.029,1.8,4.987,4.987,0,0,1,1.195,2.3,5.214,5.214,0,0,1-5.129,6.457c-6.064.02-12.128.006-18.192.006h-12.4" transform="translate(-4.631 -93.189)" fill="#ae7c4c"/>
        <path id="Trazado_823233" data-name="Trazado 823233" d="M174.554,189.262c-2.027,0-3.589,0-5.15,0-.314,0-.361-.139-.192-.368a8.361,8.361,0,0,0,1.559-4.853,7.97,7.97,0,0,0-.774-3.466,8.362,8.362,0,0,0-5.657-4.926.659.659,0,0,1-.592-.781c.04-1.361-.05-2.727.125-4.083a21.578,21.578,0,0,1,1.568-6.248,24.24,24.24,0,0,1,3.613-5.942,1.855,1.855,0,0,1,1.676-.8,19.553,19.553,0,0,0,2.239.009,1.138,1.138,0,0,1,.935.426,20.294,20.294,0,0,1,4.31,7.2,26.954,26.954,0,0,1,.936,3.884c.585,2.962.227,5.932.334,8.895.016.445.116.586.576.584a14.1,14.1,0,0,1,2.448.05.378.378,0,0,0,.491-.412c-.015-2.257.089-4.52-.038-6.77a25.984,25.984,0,0,0-3.1-10.969,17.751,17.751,0,0,0-1.5-2.4c-.085-.111-.228-.217-.15-.38s.257-.081.392-.1c.018,0,.037,0,.054,0,1.693-.41,2.647.686,3.624,1.759,1.84,2.02,3.829,3.892,5.757,5.825a13.335,13.335,0,0,1,3.34,5.179,12.889,12.889,0,0,1,.773,5.627c-.58,4.851-2.637,8.851-7.069,11.279a14.4,14.4,0,0,1-5.7,1.7c-1.766.155-3.529.009-4.826.079" transform="translate(-91.944 -88.562)" fill="#2e3f54"/>
        <path id="Trazado_823234" data-name="Trazado 823234" d="M108.642,143.358a.841.841,0,0,1-.244-.759c-.006-1.438,0-2.876-.007-4.314a5.609,5.609,0,0,0-.634-2.732,7.5,7.5,0,0,0-3.033-2.949A13.96,13.96,0,0,0,96.5,131.07c-.506.053-.612-.059-.532-.574a12.043,12.043,0,0,0-1.765-8.756,6.593,6.593,0,0,0-3.7-2.808c-.548-.163-.568-.22-.181-.616,1.927-1.973,3.827-3.974,5.812-5.887a26.788,26.788,0,0,1,2.145-2.071,3.058,3.058,0,0,1,.3-.234c.179-.1.409-.188.56-.035.191.193-.032.366-.142.513a25,25,0,0,0-3.565,7.141.473.473,0,0,0,.362.7c.822.228,1.633.5,2.454.728.357.1.582.016.686-.432a19.472,19.472,0,0,1,2.635-5.713,22.38,22.38,0,0,1,1.9-2.5,1.315,1.315,0,0,1,1.14-.51c.855.028,1.712.023,2.567,0a1.006,1.006,0,0,1,.856.364,22.09,22.09,0,0,1,4.172,6.842,18.8,18.8,0,0,1,.877,3.141c.078.417.257.451.671.447.861-.008,1.6-.452,2.431-.529.387-.036.458-.259.368-.616a31.825,31.825,0,0,0-2.54-6.766c-.456-.889-1.039-1.685-1.568-2.52-.088-.139-.188-.239.014-.339a4.065,4.065,0,0,1,2.679.453c.558.549,1.136,1.082,1.651,1.67.566.645,1.209,1.206,1.826,1.8a.9.9,0,0,1,.291.724c-.016,1.274-.035,2.549-.011,3.822a7.367,7.367,0,0,0,.949,3.649c.178.3.122.442-.175.588a4.2,4.2,0,0,0-2.477,3.874,4,4,0,0,0,1.23,2.995c.621.621.614.624.007,1.23-1.88,1.879-3.77,3.748-5.635,5.643a15.5,15.5,0,0,0-4.028,6.579c-.025.084-.065.164-.12.3" transform="translate(-50.564 -61.739)" fill="#2e3f54"/>
        <path id="Trazado_823235" data-name="Trazado 823235" d="M22.141,138.82a25.253,25.253,0,0,1,.738-7.3,22.308,22.308,0,0,1,4.282-8.379c.091-.113.179-.229.266-.345a1.744,1.744,0,0,1,1.661-.824c.795.071,1.6.021,2.4.013a.838.838,0,0,1,.678.278,18.153,18.153,0,0,1,3.5,5.294c.139.336.3.4.624.25.771-.366,1.548-.723,2.333-1.06.328-.141.4-.33.243-.636a19.637,19.637,0,0,0-2.111-3.552c-.115-.139-.3-.286-.232-.464.08-.21.321-.079.489-.107a3.107,3.107,0,0,1,3.227,1.295,11.189,11.189,0,0,0,1.306,1.317c.222.21.232.367.07.646q-1.336,2.308-2.614,4.65a10.955,10.955,0,0,0-1.027,3.758,13.507,13.507,0,0,0,.218,4.218c.07.429-.056.494-.458.374a11.508,11.508,0,0,0-11.2,2.416,16.177,16.177,0,0,0-2.286,2.391A8.15,8.15,0,0,0,23,145.5c-.323.938-.332.93-1.335.952a9.015,9.015,0,0,0-4.2,1.324,9.48,9.48,0,0,0-1.674,1.489c-.236.212-.43.349-.67.032a19.806,19.806,0,0,1-2.884-4.589,14.276,14.276,0,0,1-.79-8.168,13.407,13.407,0,0,1,1.846-4.481,33.657,33.657,0,0,1,5.361-5.922c.285-.283.52-.6.807-.88l3.052-2.941a1.341,1.341,0,0,1,.161-.147c.216-.148.49-.312.694-.112s-.085.393-.2.55a23.191,23.191,0,0,0-3.789,8.275,26.956,26.956,0,0,0-.739,6.033c-.014,1.838.008,3.677-.011,5.515,0,.4.092.546.513.53.837-.032,1.676-.029,2.513,0,.392.013.494-.127.486-.5-.021-1.055-.007-2.111-.007-3.644" transform="translate(-6.277 -68.463)" fill="#2e3f54"/>
        <path id="Trazado_823236" data-name="Trazado 823236" d="M91.995,185.9a4.641,4.641,0,0,1,1.093.5,13.807,13.807,0,0,0,6.966,1.191,12.221,12.221,0,0,0,5.565-1.582c.3-.179.367-.066.367.239-.006,2.712.019,5.425-.016,8.137a2.788,2.788,0,0,1-1.314,2.1,8.377,8.377,0,0,1-4.388,1.518,11.268,11.268,0,0,1-5.935-.878,5.186,5.186,0,0,1-1.629-1.077,2.2,2.2,0,0,1-.715-1.636c.015-2.821.007-5.642.007-8.517" transform="translate(-51.651 -104.383)" fill="#eebe32"/>
        <path id="Trazado_823237" data-name="Trazado 823237" d="M172.615,126.863c-1.693,0-3.386-.011-5.079,0a3.7,3.7,0,0,1-3.776-3.8c.035-1-.011-2,.011-3a1.738,1.738,0,0,1,2.4-1.734,1.8,1.8,0,0,1,1.087,1.633,5.6,5.6,0,0,0,1.346,3.325,5.052,5.052,0,0,0,6.42,1.135,5.443,5.443,0,0,0,2.727-4.454,1.839,1.839,0,0,1,1.708-1.8,1.729,1.729,0,0,1,1.748,1.629,15.681,15.681,0,0,1-.154,4.45,3.274,3.274,0,0,1-3.362,2.617h-5.079" transform="translate(-91.95 -66.35)" fill="#2e3f54"/>
        <path id="Trazado_823238" data-name="Trazado 823238" d="M45.031,91.061c-1.657,0-3.314-.019-4.97,0a3.717,3.717,0,0,1-3.907-3.9c.048-.944-.008-1.893.013-2.838a1.718,1.718,0,0,1,1.827-1.911,1.758,1.758,0,0,1,1.661,1.7,5.562,5.562,0,0,0,1.324,3.333,5.052,5.052,0,0,0,6.46,1.154,5.425,5.425,0,0,0,2.714-4.463,1.7,1.7,0,0,1,1.791-1.729,1.656,1.656,0,0,1,1.669,1.616,16.238,16.238,0,0,1-.178,4.505,3.263,3.263,0,0,1-3.215,2.522c-1.73,0-3.459,0-5.189,0" transform="translate(-20.298 -46.277)" fill="#2e3f54"/>
        <path id="Trazado_823239" data-name="Trazado 823239" d="M116.818,79.081q-2.486,0-4.973,0a3.67,3.67,0,0,1-3.89-3.9c0-1.066.006-2.131.028-3.2a1.759,1.759,0,0,1,1.3-1.517,1.68,1.68,0,0,1,1.9.825,9.289,9.289,0,0,1,.473,2,5.589,5.589,0,0,0,1.733,2.728,5.059,5.059,0,0,0,3.5,1.311A5.425,5.425,0,0,0,121.836,73a4.578,4.578,0,0,1,.442-1.834,1.479,1.479,0,0,1,1.367-.73,1.513,1.513,0,0,1,1.427.74,2.462,2.462,0,0,1,.373,1.4,19.956,19.956,0,0,1-.211,3.961,3.509,3.509,0,0,1-3.227,2.54c-1.73.007-3.46,0-5.19,0" transform="translate(-60.617 -39.54)" fill="#2e3f54"/>
        <path id="Trazado_823240" data-name="Trazado 823240" d="M98.966,172.937a10.1,10.1,0,0,1-5.568-1.59c-2.023-1.484-1.777-2.712.295-4.053a9.192,9.192,0,0,1,4.131-1.25,11.785,11.785,0,0,1,5.87.923,4.636,4.636,0,0,1,1.692,1.226,1.88,1.88,0,0,1-.271,2.7,8.371,8.371,0,0,1-4.852,1.939c-.432.055-.86.083-1.3.1" transform="translate(-51.66 -93.199)" fill="#eebe32"/>
        <path id="Trazado_823241" data-name="Trazado 823241" d="M86.924,143.47q.028.268.055.537c-.012.011-.035.026-.032.034a.487.487,0,0,0,.038.083q0,.269,0,.538a.136.136,0,0,0-.015.228c-.011.068-.021.137-.031.205-.006.044-.011.088-.017.132a9.142,9.142,0,0,1-.314,1.742,2.062,2.062,0,0,1-1.229,1.6,6.043,6.043,0,0,0-1.9,1.448.607.607,0,0,1-.871.133,4.889,4.889,0,0,1-2.114-2.939,9.372,9.372,0,0,1-.041-5.939,6.752,6.752,0,0,1,1.236-2.211,2.359,2.359,0,0,1,3.644,0A6.828,6.828,0,0,1,86.8,142.5c.047.281.078.564.116.847-.008.014-.025.029-.022.041a.5.5,0,0,0,.034.083" transform="translate(-44.913 -77.602)" fill="#eedc9a"/>
        <path id="Trazado_823242" data-name="Trazado 823242" d="M147.514,173.556a10.487,10.487,0,0,0-3.38-2.613c-.694-.346-1.5-.406-2.163-.82-.086-.053-.107.073-.169.094a.619.619,0,0,1-.613-.13c-.183-.17.056-.323.132-.468a15.57,15.57,0,0,1,2.3-3.56c1.208-1.28,2.423-2.559,3.7-3.767,1.3-1.226,2.525-2.52,3.811-3.755a2.046,2.046,0,0,1,.718-.575c.156-.052.343-.1.458.04s-.034.268-.113.385c-.638.952-1.271,1.9-1.817,2.915a23.122,23.122,0,0,0-2.488,7.622,29.945,29.945,0,0,0-.381,4.634" transform="translate(-79.24 -88.665)" fill="#2e3f54"/>
        <path id="Trazado_823243" data-name="Trazado 823243" d="M42.714,111.843q-4.751,0-9.5,0c-.729,0-1.054-.317-1.019-.948a.7.7,0,0,1,.522-.681,2.544,2.544,0,0,1,.794-.121q9.174.009,18.348.005a3.52,3.52,0,0,1,.436.011c.64.079.836.361.777,1.117-.042.534-.422.619-.855.619h-9.5" transform="translate(-18.075 -61.816)" fill="#ae7c4c"/>
        <path id="Trazado_823244" data-name="Trazado 823244" d="M170.314,147.716q-4.751,0-9.5,0c-.712,0-1.026-.294-1.016-.9a.721.721,0,0,1,.575-.747,2.482,2.482,0,0,1,.742-.1q9.174,0,18.348,0a3.526,3.526,0,0,1,.436.011c.638.081.835.364.774,1.119-.043.535-.424.617-.857.617h-9.5" transform="translate(-89.726 -81.96)" fill="#ae7c4c"/>
        <path id="Trazado_823245" data-name="Trazado 823245" d="M114.466,99.889q-4.749,0-9.5,0c-.7,0-1.013-.307-1-.913a.737.737,0,0,1,.543-.727,2.328,2.328,0,0,1,.806-.109q9.116.005,18.231,0a2.506,2.506,0,0,1,.636.078c.573.148.739.379.661,1.078-.055.492-.411.591-.827.591h-9.552" transform="translate(-58.378 -55.105)" fill="#ae7c4c"/>
        <path id="Trazado_823246" data-name="Trazado 823246" d="M95.829,153.163a.136.136,0,0,1,.015-.228c-.005.076-.01.152-.015.228" transform="translate(-53.777 -85.873)" fill="#ae7c4c"/>
        <path id="Trazado_823247" data-name="Trazado 823247" d="M95.764,150.055a.5.5,0,0,1-.034-.083c0-.011.014-.027.022-.041a.528.528,0,0,1,.036.085c0,.011-.016.026-.025.039" transform="translate(-53.753 -84.187)" fill="#ae7c4c"/>
        <path id="Trazado_823248" data-name="Trazado 823248" d="M95.9,151.557a.564.564,0,0,1-.038-.083c0-.008.021-.023.032-.034l.005.118" transform="translate(-53.824 -85.033)" fill="#ae7c4c"/>
        <path id="Trazado_823249" data-name="Trazado 823249" d="M95.791,154.054c.006-.044.011-.088.017-.132a.549.549,0,0,1,.017.095c0,.012-.021.025-.033.037" transform="translate(-53.787 -86.427)" fill="#ae7c4c"/>
      </g>
    </g>
  </g>
</svg>
