<svg xmlns="http://www.w3.org/2000/svg" xmlns:xlink="http://www.w3.org/1999/xlink" width="169" height="169" viewBox="0 0 169 169">
  <defs>
    <clipPath id="clip-path">
      <rect id="Rect치ngulo_377860" data-name="Rect치ngulo 377860" width="102.386" height="105.96" fill="none"/>
    </clipPath>
  </defs>
  <g id="Grupo_1073333" data-name="Grupo 1073333" transform="translate(-719 -2877.811)">
    <g id="Grupo_1073327" data-name="Grupo 1073327" transform="translate(334 819.811)">
      <g id="Grupo_159182" data-name="Grupo 159182" transform="translate(385.001 2058)">
        <path id="Uni칩n_12" data-name="Uni칩n 12" d="M84.5,0A84.5,84.5,0,1,1,0,84.5,84.5,84.5,0,0,1,84.5,0Z" transform="translate(0 0)" fill="#ffae7e"/>
      </g>
    </g>
    <g id="Grupo_1073695" data-name="Grupo 1073695" transform="translate(748.807 2913.811)">
      <g id="Grupo_1073694" data-name="Grupo 1073694" clip-path="url(#clip-path)">
        <path id="Trazado_823179" data-name="Trazado 823179" d="M3.445,23.389a36.532,36.532,0,0,0,.1-4.193,1.463,1.463,0,0,0,1.425-1,3.6,3.6,0,0,0,.135-1.058c-.012-2.6,0-5.2,0-7.807a1.413,1.413,0,0,1,.1-.542A2.228,2.228,0,0,1,7.616,7.467q29.231.007,58.461,0c.293,0,.585.011.877.017a6.7,6.7,0,0,1,.338,2.353c.006.665.336,1.335-.105,1.986a.562.562,0,0,0,.027.5,2.293,2.293,0,0,1,.153,1.114q-.112,1.646-.106,3.3c.013,2.9,0,5.806,0,8.709a1.9,1.9,0,0,1-.2.024,1.409,1.409,0,0,0-1.547,1.559c-.012,1-.02,2,0,3,.006.344-.065.48-.45.474q-2.041-.034-4.083.008c-.393.008-.462-.152-.457-.486.015-.982.025-1.966,0-2.948a1.386,1.386,0,0,0-.223-.941,1.554,1.554,0,0,0-1.478-.679,1.474,1.474,0,0,0-1.372,1.427c0,1-.029,2,.007,3,.018.5-.134.639-.638.628a32.535,32.535,0,0,0-3.973.038c-.361.036-.374-.142-.384-.419a25.312,25.312,0,0,0-.087-3.393c-.151-.9-.713-1.332-1.764-1.268a1.463,1.463,0,0,0-1.236,1.468c0,1.051-.017,2.1,0,3.154,0,.314-.084.415-.406.412-1.4-.013-2.791-.007-4.186.007-.288,0-.4-.083-.395-.38.017-.62.013-1.241.01-1.862a13.47,13.47,0,0,0-.034-1.549,1.506,1.506,0,0,0-1.817-1.245,1.449,1.449,0,0,0-1.229,1.5c0,1,0,2-.012,3,0,.156.091.349-.1.468a.145.145,0,0,0-.085.022l-.239.016a.048.048,0,0,0-.081,0l-4.272-.012a.137.137,0,0,0-.083-.026c-.2-.115-.1-.307-.1-.462a27.276,27.276,0,0,0-.1-3.236c-.159-.911-.7-1.333-1.756-1.274a1.442,1.442,0,0,0-1.24,1.462c-.01,1.1-.024,2.206.012,3.308a.591.591,0,0,1-.447.684,4.425,4.425,0,0,0-1.464.947A5.029,5.029,0,0,0,29.7,35.823c-.011.01-.033.022-.032.028a.424.424,0,0,0,.032.07c0,.071,0,.142,0,.213-.011.01-.033.022-.032.028a.418.418,0,0,0,.031.07c.006.172.017.344.017.516q0,14.43,0,28.86c0,1.173-.018,2.346.018,3.517.016.506-.1.722-.649.649a4.11,4.11,0,0,0-1.475.081,1.434,1.434,0,0,0-1.1,1.2,1.523,1.523,0,0,0,1.56,1.842c.028.042.058.044.088,0l.434.006a3.321,3.321,0,0,0,1.007.061c0,.855.162,1.7.132,2.562-.012.362-.115.464-.473.464Q19.226,75.967,9.2,75.966c-.741,0-1.483.025-2.223-.006A1.846,1.846,0,0,1,5.1,74.12c-.015-.171-.009-.345-.009-.517q0-19.99,0-39.979c0-2.81.007-5.62,0-8.43,0-1.246-.627-1.883-1.649-1.805M13.591,72.9a.845.845,0,0,0,.7,0l5.608,0a1.887,1.887,0,0,0,1.12-.008,3.384,3.384,0,0,0,.651-.141,1.339,1.339,0,0,0,.914-1.138,1.443,1.443,0,0,0-.826-1.66,2.317,2.317,0,0,0-.933-.185l-5.269-.005c-.706,0-1.412-.018-2.118.007a1.545,1.545,0,0,0-.779,2.929c.3.213.625.123.932.2M46.546,13.675v0h3.77a1.828,1.828,0,0,0,1.069-.282,1.457,1.457,0,0,0,.661-1.512,1.534,1.534,0,0,0-1.564-1.294q-3.9-.044-7.8,0a1.555,1.555,0,0,0-1.29,2.24,1.473,1.473,0,0,0,1.382.844q1.885,0,3.77,0m-29.285,0c1.309,0,2.617.012,3.926,0a1.562,1.562,0,0,0,1.6-1.307,1.515,1.515,0,0,0-1.356-1.753,3.356,3.356,0,0,0-.617-.035q-2.97,0-5.94,0c-.43,0-.862-.015-1.291.006A1.519,1.519,0,0,0,12.019,12.2a1.5,1.5,0,0,0,1.626,1.473c1.2.006,2.41,0,3.616,0m43.917,0v0c1.325,0,2.651.006,3.976,0a1.555,1.555,0,1,0-.224-3.1c-1.188-.008-2.375,0-3.563,0-1.274,0-2.548-.015-3.821,0a1.565,1.565,0,0,0-1.658,1.586,1.591,1.591,0,0,0,1.624,1.5c1.222.009,2.444,0,3.666,0M11.3,49.037H11.3c0-1.308.016-2.617-.006-3.924a1.434,1.434,0,0,0-1.23-1.428c-1.086-.063-1.661.332-1.791,1.249a6.052,6.052,0,0,0-.045.823c-.007,2.392-.018,4.783-.008,7.175,0,.69.839,1.747,1.81,1.446A1.506,1.506,0,0,0,11.3,52.755c.01-1.239,0-2.479,0-3.719M8.2,34.372h.029c0,1.189-.006,2.378,0,3.567a1.947,1.947,0,0,0,.736,1.7,1.574,1.574,0,0,0,2.213-.77,5.387,5.387,0,0,0,.13-1.061c-.015-2.205-.006-4.411-.01-6.617a3.926,3.926,0,0,0-.085-.858,1.447,1.447,0,0,0-1.79-1.237A1.574,1.574,0,0,0,8.2,30.652c.005,1.24,0,2.48,0,3.721M8.224,19.5c0,1.39,0,2.476,0,3.562a6.334,6.334,0,0,0,.065.926,1.445,1.445,0,0,0,1.983,1.182c.74-.272,1.005-.692,1.019-1.657.034-2.448.012-4.9.01-7.345a1.791,1.791,0,0,0-.279-1.02A1.582,1.582,0,0,0,9.4,14.515a1.414,1.414,0,0,0-1.126,1.256c-.124,1.341-.016,2.688-.051,3.728m23.662-5.826v0c1.325,0,2.65.012,3.974,0a1.564,1.564,0,0,0,1.494-.981,1.678,1.678,0,0,0-.562-1.805,1.629,1.629,0,0,0-1.059-.295c-2.512-.027-5.024-.034-7.536,0A1.566,1.566,0,0,0,26.614,12.2a1.624,1.624,0,0,0,1.659,1.471c1.2.012,2.409,0,3.613,0M11.3,63.662c0-1.258.01-2.516,0-3.773a1.563,1.563,0,0,0-.985-1.591,1.541,1.541,0,0,0-1.9.66,1.966,1.966,0,0,0-.185,1.088Q8.2,63.792,8.2,67.537a1.782,1.782,0,0,0,1.572,1.491,1.665,1.665,0,0,0,1.527-1.8c.005-1.189,0-2.377,0-3.566" transform="translate(-2.015 -4.368)" fill="#c1e29a"/>
        <path id="Trazado_823180" data-name="Trazado 823180" d="M26.576,68.535l-.434-.006a.069.069,0,0,0-.088,0,1.523,1.523,0,0,1-1.561-1.842,1.435,1.435,0,0,1,1.1-1.2,4.107,4.107,0,0,1,1.475-.081c.553.073.665-.143.65-.649-.037-1.171-.019-2.344-.019-3.517q0-14.43,0-28.86c0-.172-.011-.344-.016-.516a.091.091,0,0,0,0-.1c0-.071,0-.142,0-.212a.092.092,0,0,0,0-.1A5.028,5.028,0,0,1,29.333,27.5a4.425,4.425,0,0,1,1.464-.947.591.591,0,0,0,.447-.684c-.036-1.1-.022-2.205-.012-3.308a1.442,1.442,0,0,1,1.24-1.462c1.054-.059,1.6.363,1.756,1.274a27.369,27.369,0,0,1,.1,3.236c.009.156-.1.347.1.463l.083.026,4.272.012.04.027.041-.026L39.1,26.1c.043.047.066.019.085-.022.2-.119.1-.312.1-.468.013-1,.014-2,.012-3a1.449,1.449,0,0,1,1.229-1.5,1.506,1.506,0,0,1,1.817,1.245,13.472,13.472,0,0,1,.034,1.549c0,.621.008,1.241-.01,1.862-.008.3.106.383.395.38,1.4-.015,2.791-.02,4.186-.007.322,0,.41-.1.406-.413-.015-1.051,0-2.1,0-3.154A1.462,1.462,0,0,1,48.6,21.1c1.05-.063,1.613.366,1.764,1.268a25.383,25.383,0,0,1,.087,3.393c.009.276.022.455.384.419a32.534,32.534,0,0,1,3.973-.038c.5.012.655-.126.637-.628-.035-1,0-2-.007-3a1.474,1.474,0,0,1,1.372-1.427,1.553,1.553,0,0,1,1.478.68,1.387,1.387,0,0,1,.224.941c.023.982.013,1.965,0,2.948,0,.334.064.494.457.486q2.041-.041,4.083-.007c.386.006.456-.13.45-.474-.017-1-.01-2,0-3A1.41,1.41,0,0,1,65.046,21.1a1.9,1.9,0,0,0,.2-.024c1,.177,1.291.786,1.333,1.885.034.911.018,1.826,0,2.739-.007.317.1.426.41.425q2.117-.007,4.235.012c.26,0,.384-.085.377-.353-.008-.362,0-.723,0-1.085-.01-6.477-.01-12.954-.038-19.431A1.932,1.932,0,0,0,69.485,3.12c-1.513-.052-3.03,0-4.545,0-.292-.006-.585-.017-.877-.017q-29.23,0-58.461,0A2.227,2.227,0,0,0,3.186,4.424a1.407,1.407,0,0,0-.1.542c0,2.6-.01,5.2,0,7.807a3.588,3.588,0,0,1-.135,1.058,1.463,1.463,0,0,1-1.425,1A1.335,1.335,0,0,1,.119,13.9a2.46,2.46,0,0,1-.108-1.112c-.006-2.62-.024-5.241.017-7.861A4.769,4.769,0,0,1,2.719.554,5.044,5.044,0,0,1,5.092.013L69.16,0a5.466,5.466,0,0,1,2.9.585,5.015,5.015,0,0,1,2.51,3.6,27.856,27.856,0,0,1,.093,3.7q.024,8.819,0,17.637c0,.5.149.6.611.584,1.292-.035,2.585-.028,3.877-.012.4.005.5-.15.5-.519-.021-1.017-.015-2.034-.02-3.051a1.387,1.387,0,0,1,1.2-1.423c1.038-.1,1.8.447,1.823,1.226.027,1.119.051,2.24.033,3.359-.006.374.138.421.447.418,1.327-.01,2.654,0,3.981,0,.265,0,.545.125.438-.434A10.534,10.534,0,0,1,87.7,24.5q-.006-1.007,0-2.014c0-.862,1.1-1.764,1.886-1.449a1.762,1.762,0,0,1,1.109,1.2,15.363,15.363,0,0,1,.09,2.558c.03.425-.185.987.094,1.233.235.209.784.072,1.194.073,1.068,0,2.137-.017,3.206,0,.388.007.514-.128.506-.51-.022-1,0-2-.019-3A1.485,1.485,0,0,1,98.088,21.3a1.429,1.429,0,0,1,.731,1.485c0,1.034-.009,2.069-.038,3.1-.01.339.074.549.418.657a6.113,6.113,0,0,1,1.68,1c.429.311.6.975.9,1.475.792,1.339.587,2.816.588,4.261q0,24.025-.024,48.05a14.518,14.518,0,0,1-.048,2.258,1.316,1.316,0,0,1-1.3,1.255.616.616,0,0,0-.174.075,1.846,1.846,0,0,1-1.227-.687,2.169,2.169,0,0,1-.307-1.283q0-7.161,0-14.322,0-18.485-.009-36.969c0-1.547-.718-2.321-2.065-2.384-1.512-.071-3.03-.009-4.545,0-.413-.012-.825-.034-1.238-.034q-27.611,0-55.223,0c-1.051,0-2.1.038-3.154-.01a2.109,2.109,0,0,0-2.271,2.294q.04,31.367.02,62.734c0,.552-.018,1.1.011,1.654a1.808,1.808,0,0,0,1.738,1.769l.1.026.335.032.192,0c.171.007.343.021.515.021q28.977,0,57.955,0c.309,0,.619-.022.928-.034a42.48,42.48,0,0,0,4.9-.039,1.834,1.834,0,0,0,1.607-1.127,2.838,2.838,0,0,0,.2-1.142c0-1.515-.008-3.03.007-4.545a1.627,1.627,0,0,1,1.528-1.8c1.218.278,1.56.714,1.555,1.957q-.009,2.25,0,4.5a4.89,4.89,0,0,1-3.155,4.883.609.609,0,0,0-.436.688c.035,1.033.034,2.068.037,3.1a1.529,1.529,0,0,1-2.7,1.143,1.22,1.22,0,0,1-.342-.861c0-1.034-.025-2.069,0-3.1.01-.4-.078-.536-.507-.528-1.361.026-2.723.011-4.084-.007-.3,0-.414.055-.4.393.029,1.034.007,2.069.015,3.1a1.615,1.615,0,0,1-1.56,1.612,1.467,1.467,0,0,1-1.507-1.539c-.051-1.048-.036-2.1-.024-3.149,0-.316-.085-.414-.406-.411q-2.12.024-4.24,0c-.34,0-.417.2-.417.43,0,.972.041,1.943.042,2.915a1.507,1.507,0,0,1-1.633,1.664,1.575,1.575,0,0,1-1.417-1.693c0-.965-.012-1.931,0-2.9,0-.309-.075-.421-.4-.418q-2.119.019-4.239-.013c-.325,0-.352.131-.347.4.016,1.034.024,2.068.005,3.1a1.578,1.578,0,0,1-1.608,1.61c-.923.026-1.344-.822-1.464-1.492a16.555,16.555,0,0,1-.006-3.1c0-.365-.09-.519-.5-.512q-2.068.038-4.136,0c-.374-.006-.44.2-.439.467.006.963.049,1.926.04,2.889a1.515,1.515,0,0,1-.84,1.521,1.5,1.5,0,0,1-1.519-.1,1.631,1.631,0,0,1-.679-1.432c-.008-.948-.034-1.9,0-2.843.017-.442-.15-.5-.534-.5-1.344.018-2.688.012-4.033-.009-.325,0-.444.058-.433.417.029,1.033.015,2.068.012,3.1a1.608,1.608,0,0,1-1.58,1.6,1.544,1.544,0,0,1-1.481-1.519c-.037-.687-.028-1.379-.006-2.067.014-.428-.34-.834-.039-1.29.071-.108-.134-.237-.315-.236-1.448.008-2.9.015-4.343.012-.278,0-.318.122-.33.371-.042.9-.051,1.792-.016,2.688a2.945,2.945,0,0,1-.141,1,1.42,1.42,0,0,1-2.448.515,1.65,1.65,0,0,1-.462-1.158c.015-1-.013-2,.007-3,.007-.356-.123-.428-.452-.425q-2.068.019-4.136-.011c-.3,0-.42.051-.407.391.031.809.023,1.62.009,2.431a9.73,9.73,0,0,1-.1,1.218,1.635,1.635,0,0,1-1.183,1.069,1.521,1.521,0,0,1-1.439-.622,4.273,4.273,0,0,1-.388-2.859c.073-.491-.232-.959.006-1.445.038-.078-.158-.183-.318-.182-1.465.008-2.93.014-4.395.007-.253,0-.261.124-.272.318-.049.913-.054,1.826-.02,2.739a2.259,2.259,0,0,1-.129.954,1.361,1.361,0,0,1-1.621.989,1.382,1.382,0,0,1-1.213-1.158,11.451,11.451,0,0,1,.01-2.625c.01.01.022.031.028.029.046-.014.046-.032,0-.045-.006,0-.018.019-.028.029.193-1.084-.363-1.62-1.283-2.109a4.493,4.493,0,0,1-2.34-3.679,9.363,9.363,0,0,1-.012-1.041q0-9.672,0-19.345c0-.241-.013-.481-.02-.722v-.022c.111-.418-.124-.439-.453-.439q-10.779.009-21.558-.007c-.254,0-.589.176-.769-.2-.012-.025-.154-.029-.191,0-.421.4-.833.071-1.225-.034a5.014,5.014,0,0,1-2.149-1.313A4.632,4.632,0,0,1,.276,71.383a6.815,6.815,0,0,1-.271-2.221Q0,45.971.012,22.781c0-.873.007-1.747.015-2.62a1.367,1.367,0,0,1,1.4-1.139c1.022-.078,1.645.559,1.65,1.805.011,2.81,0,5.62,0,8.43q0,19.99,0,39.979c0,.172-.006.346.01.517a1.845,1.845,0,0,0,1.867,1.84c.74.032,1.482.005,2.223.006q10.031.007,20.062.023c.358,0,.46-.1.473-.464.03-.86-.13-1.706-.132-2.562-.325-.19-.671-.051-1.007-.061" transform="translate(0 0)"/>
        <path id="Trazado_823181" data-name="Trazado 823181" d="M223.126,70.484c1.515,0,3.033-.066,4.545.005,1.347.063,2.063.837,2.065,2.384q.023,18.485.009,36.969,0,7.161,0,14.322a2.173,2.173,0,0,0,.307,1.283,1.846,1.846,0,0,0,1.227.687q0,2.071,0,4.143a1.627,1.627,0,0,0-1.528,1.8c-.016,1.515-.006,3.03-.007,4.545a2.836,2.836,0,0,1-.2,1.141,1.833,1.833,0,0,1-1.607,1.128,42.576,42.576,0,0,1-4.9.039,2.91,2.91,0,0,0,.4-1.534q0-32.241,0-64.482a6.12,6.12,0,0,0-.315-2.433" transform="translate(-130.464 -41.212)" fill="#00bffa"/>
        <path id="Trazado_823182" data-name="Trazado 823182" d="M66.6,181.075v.022l-.036-.011Z" transform="translate(-38.936 -105.918)" fill="#fece84"/>
        <path id="Trazado_823183" data-name="Trazado 823183" d="M75.45,245.887c.01-.01.022-.031.028-.029.046.012.047.032,0,.045-.006,0-.019-.019-.028-.029v.013" transform="translate(-44.134 -143.812)" fill="#fece84"/>
        <path id="Trazado_823184" data-name="Trazado 823184" d="M156.459,7.483c1.515,0,3.032-.054,4.545,0a1.933,1.933,0,0,1,2.077,2.153c.027,6.477.028,12.954.038,19.431,0,.362,0,.723,0,1.085.006.268-.117.355-.377.353q-2.117-.018-4.235-.012c-.309,0-.417-.108-.41-.425.02-.913.037-1.827,0-2.739-.042-1.1-.334-1.709-1.333-1.886,0-2.9.01-5.806,0-8.709q-.007-1.65.106-3.3a2.293,2.293,0,0,0-.153-1.114.562.562,0,0,1-.027-.5c.441-.651.111-1.321.105-1.986a6.706,6.706,0,0,0-.338-2.353" transform="translate(-91.519 -4.363)" fill="#94b76b"/>
        <path id="Trazado_823185" data-name="Trazado 823185" d="M99.772,18.045q-1.885,0-3.77,0a1.472,1.472,0,0,1-1.382-.844,1.555,1.555,0,0,1,1.289-2.24q3.9-.047,7.8,0a1.534,1.534,0,0,1,1.564,1.294,1.456,1.456,0,0,1-.66,1.511,1.829,1.829,0,0,1-1.069.282h-3.77Z" transform="translate(-55.242 -8.738)"/>
        <path id="Trazado_823186" data-name="Trazado 823186" d="M29.344,18.05c-1.205,0-2.411,0-3.616,0A1.5,1.5,0,0,1,24.1,16.575a1.519,1.519,0,0,1,1.563-1.621c.43-.021.861-.006,1.291-.006q2.97,0,5.94,0a3.356,3.356,0,0,1,.617.035,1.515,1.515,0,0,1,1.356,1.752,1.562,1.562,0,0,1-1.6,1.308c-1.308.016-2.617,0-3.926,0" transform="translate(-14.098 -8.741)"/>
        <path id="Trazado_823187" data-name="Trazado 823187" d="M135.084,18.045c-1.222,0-2.444.007-3.666,0a1.591,1.591,0,0,1-1.624-1.5,1.564,1.564,0,0,1,1.657-1.586c1.274-.02,2.548,0,3.821-.005,1.187,0,2.375-.006,3.563,0a1.555,1.555,0,1,1,.225,3.1c-1.325.009-2.651,0-3.976,0v0" transform="translate(-75.922 -8.741)"/>
        <path id="Trazado_823188" data-name="Trazado 823188" d="M31.672,160.677l-5.608,0-.7,0c-.306-.081-.633.01-.931-.2a1.545,1.545,0,0,1,.779-2.929c.705-.025,1.412-.008,2.118-.007q2.635,0,5.269.005a2.311,2.311,0,0,1,.933.186,1.443,1.443,0,0,1,.826,1.66,1.339,1.339,0,0,1-.914,1.138,3.37,3.37,0,0,1-.651.141l-1.119.008" transform="translate(-13.787 -92.147)"/>
        <path id="Trazado_823189" data-name="Trazado 823189" d="M18.021,100.069c0,1.239.008,2.479,0,3.718a1.506,1.506,0,0,1-1.274,1.623c-.971.3-1.808-.757-1.81-1.446-.01-2.392,0-4.784.008-7.175a6.056,6.056,0,0,1,.045-.823c.13-.916.7-1.311,1.791-1.248a1.433,1.433,0,0,1,1.231,1.427c.022,1.308.006,2.617.006,3.925Z" transform="translate(-8.733 -55.4)"/>
        <path id="Trazado_823190" data-name="Trazado 823190" d="M14.907,64.825c0-1.24,0-2.48,0-3.721a1.574,1.574,0,0,1,1.226-1.558,1.446,1.446,0,0,1,1.79,1.236,3.932,3.932,0,0,1,.085.859c0,2.206-.005,4.411.01,6.617a5.418,5.418,0,0,1-.129,1.061,1.575,1.575,0,0,1-2.213.77,1.946,1.946,0,0,1-.735-1.7c-.009-1.189,0-2.378,0-3.567h-.029" transform="translate(-8.719 -34.82)"/>
        <path id="Trazado_823191" data-name="Trazado 823191" d="M14.943,29.385c.035-1.04-.073-2.387.051-3.728A1.414,1.414,0,0,1,16.121,24.4a1.582,1.582,0,0,1,1.623.631,1.793,1.793,0,0,1,.279,1.021c0,2.448.025,4.9-.01,7.345-.013.965-.279,1.385-1.019,1.657a1.444,1.444,0,0,1-1.983-1.181,6.338,6.338,0,0,1-.065-.926c-.007-1.086,0-2.172,0-3.562" transform="translate(-8.735 -14.253)"/>
        <path id="Trazado_823192" data-name="Trazado 823192" d="M64.537,18.042c-1.2,0-2.409.01-3.613,0a1.623,1.623,0,0,1-1.658-1.471,1.566,1.566,0,0,1,1.583-1.613c2.512-.029,5.024-.023,7.536,0a1.626,1.626,0,0,1,1.059.295,1.678,1.678,0,0,1,.562,1.8,1.564,1.564,0,0,1-1.494.981c-1.325.017-2.65,0-3.975,0v0" transform="translate(-34.666 -8.737)"/>
        <path id="Trazado_823193" data-name="Trazado 823193" d="M18.012,135.18c0,1.189,0,2.377,0,3.566a1.664,1.664,0,0,1-1.526,1.8,1.782,1.782,0,0,1-1.572-1.491q0-3.746.027-7.491a1.97,1.97,0,0,1,.185-1.088,1.541,1.541,0,0,1,1.9-.66,1.564,1.564,0,0,1,.985,1.591c.013,1.257,0,2.515,0,3.773" transform="translate(-8.723 -75.885)"/>
        <path id="Trazado_823194" data-name="Trazado 823194" d="M43.091,165.1l1.119-.008a1.886,1.886,0,0,1-1.119.008" transform="translate(-25.206 -96.567)" fill="#fece84"/>
        <path id="Trazado_823195" data-name="Trazado 823195" d="M64.03,165.064c.336.01.682-.129,1.007.061a3.322,3.322,0,0,1-1.007-.061" transform="translate(-37.454 -96.529)" fill="#fece84"/>
        <path id="Trazado_823196" data-name="Trazado 823196" d="M27.89,165.113l.7,0a.845.845,0,0,1-.7,0" transform="translate(-16.314 -96.581)" fill="#fece84"/>
        <path id="Trazado_823197" data-name="Trazado 823197" d="M62.772,165.078a.069.069,0,0,1,.088,0c-.031.041-.06.039-.088,0" transform="translate(-36.718 -96.552)" fill="#fece84"/>
        <path id="Trazado_823198" data-name="Trazado 823198" d="M66.651,76.535a.091.091,0,0,1,0,.1.389.389,0,0,1-.031-.07c0-.006.02-.019.032-.028" transform="translate(-38.969 -44.768)" fill="#fece84"/>
        <path id="Trazado_823199" data-name="Trazado 823199" d="M66.653,75.785a.093.093,0,0,1,0,.1.42.42,0,0,1-.032-.07c0-.006.021-.019.032-.029" transform="translate(-38.969 -44.33)" fill="#fece84"/>
        <path id="Trazado_823200" data-name="Trazado 823200" d="M94.292,62.82c-.02.042-.042.07-.085.022a.147.147,0,0,1,.085-.022" transform="translate(-55.105 -36.746)" fill="#fece84"/>
        <path id="Trazado_823201" data-name="Trazado 823201" d="M93.517,62.88l-.041.026-.04-.027a.048.048,0,0,1,.081,0" transform="translate(-54.654 -36.768)" fill="#fece84"/>
        <path id="Trazado_823202" data-name="Trazado 823202" d="M83.027,62.846l-.083-.026a.137.137,0,0,1,.083.026" transform="translate(-48.517 -36.746)" fill="#fece84"/>
        <path id="Trazado_823203" data-name="Trazado 823203" d="M136.036,70.458a6.113,6.113,0,0,1,.315,2.433q-.008,32.241,0,64.482a2.909,2.909,0,0,1-.4,1.534c-.31.012-.619.034-.928.034q-28.978,0-57.955,0c-.172,0-.344-.014-.516-.021a.111.111,0,0,0-.192,0l-.335-.032-.1-.025a1.808,1.808,0,0,1-1.738-1.769c-.029-.55-.011-1.1-.011-1.655q0-31.367-.02-62.734a2.109,2.109,0,0,1,2.271-2.294c1.049.047,2.1.009,3.154.009q27.612,0,55.223,0c.413,0,.825.022,1.238.034m-43.95,21.1.07.117c.015.979.012,1.958.049,2.937a1.583,1.583,0,0,0,1.726,1.5,1.683,1.683,0,0,0,1.363-1.7c0-.67.013-1.34.02-2.01a.113.113,0,0,0,0-.2c0-.106,0-.212,0-.318a.8.8,0,0,1,.392-.311c.873.034,1.738-.14,2.614-.1a1.522,1.522,0,0,0,1.518-1.869A1.877,1.877,0,0,0,98,88.284a18.62,18.62,0,0,1-2.4.089c-.251.018-.32-.084-.315-.326.022-.929.026-1.858.036-2.788.01-.01.029-.023.027-.03a.413.413,0,0,0-.032-.069c-.093-.327,0-.464.37-.45.8.031,1.61.037,2.415.031a1.563,1.563,0,0,0,1.742-1.791c-.063-.613-.519-1.095-1.355-1.337a.208.208,0,0,0-.286-.04l-1.933-.018-.132,0c-.231.029-.47.11-.663-.1l-.149-.12c-.012-.909-.008-1.819-.04-2.727a1.579,1.579,0,0,0-1.146-1.518A1.52,1.52,0,0,0,92.2,78.6c-.015.823,0,1.648-.007,2.472,0,.165.066.348-.1.481l.02-.012a.77.77,0,0,1-.567.046l-.038-.031-.044.021-2.614-.007a.129.129,0,0,0-.091-.034c-.2-.074-.26-.2-.255-.427.017-.843.035-1.688-.023-2.528-.075-1.088-.647-1.538-1.79-1.5-.694.021-1.212.714-1.251,1.625-.039.942.052,1.887-.063,2.827l-.329.055c-.928.054-1.857-.069-2.784.037A1.707,1.707,0,0,0,80.8,82.888a1.675,1.675,0,0,0,.82,1.6,1.81,1.81,0,0,0,.942.225c.809.009,1.618.027,2.426-.009.348-.016.462.069.454.414-.021.877-.017,1.755-.023,2.633-.01.009-.029.022-.027.028a.373.373,0,0,0,.031.065c.11.393-.007.587-.446.539a5.407,5.407,0,0,0-.672-.007,10.306,10.306,0,0,0-2.265.091,1.474,1.474,0,0,0-.921,2.346,1.6,1.6,0,0,0,1.34.659c.81.015,1.62.007,2.431.02.155,0,.353-.1.455.122l.081.163c0,.823.028,1.648,0,2.47a1.872,1.872,0,0,0,.984,1.759c.62.412,1.954-.346,2.035-.987.141-1.114,0-2.231.105-3.341l.213-.18,3.216.014.115.048Z" transform="translate(-43.373 -41.186)" fill="#00cffb"/>
        <path id="Trazado_823204" data-name="Trazado 823204" d="M79.467,235.4a.112.112,0,0,1,.192,0l-.192,0" transform="translate(-46.483 -137.66)" fill="#00bffa"/>
        <path id="Trazado_823205" data-name="Trazado 823205" d="M78.414,235.338l.1.025-.1-.025" transform="translate(-45.867 -137.658)" fill="#00bffa"/>
        <path id="Trazado_823206" data-name="Trazado 823206" d="M104.656,101.241c0,.106,0,.212,0,.318,0,.066,0,.132,0,.2-.007.669-.024,1.34-.02,2.01a1.683,1.683,0,0,1-1.363,1.7,1.582,1.582,0,0,1-1.725-1.5c-.037-.979-.034-1.958-.049-2.937.014-.061,0-.107-.07-.117l0,0c-.017-.068-.062-.067-.115-.049l-3.216-.014c-.144-.026-.236.009-.213.18-.1,1.111.036,2.228-.105,3.341-.081.641-1.416,1.4-2.036.987a1.872,1.872,0,0,1-.984-1.759c.032-.823,0-1.647,0-2.47.009-.071.011-.14-.081-.163-.1-.222-.3-.119-.455-.122-.81-.013-1.62-.005-2.43-.021a1.6,1.6,0,0,1-1.34-.659,1.474,1.474,0,0,1,.92-2.346,10.359,10.359,0,0,1,2.265-.09,5.414,5.414,0,0,1,.672.007c.438.048.555-.145.445-.539a.075.075,0,0,0,0-.093c.006-.878,0-1.756.023-2.633.008-.345-.105-.43-.454-.414-.807.037-1.617.018-2.425.009a1.81,1.81,0,0,1-.942-.225,1.675,1.675,0,0,1-.82-1.6,1.707,1.707,0,0,1,1.466-1.266c.927-.105,1.857.017,2.784-.036.117.028.242.1.329-.055.115-.94.024-1.885.063-2.827.038-.911.557-1.6,1.25-1.625,1.142-.035,1.715.414,1.79,1.5.058.84.04,1.686.023,2.528,0,.231.056.353.255.428,0,.087.045.066.091.034l2.614.007.039.025.044-.015a.769.769,0,0,0,.566-.046l-.02.012c.164-.133.1-.317.1-.481,0-.824-.007-1.648.007-2.472a1.519,1.519,0,0,1,1.933-1.51,1.578,1.578,0,0,1,1.146,1.518c.033.909.029,1.818.041,2.727-.055.169.045.147.149.12.193.213.432.132.663.1a.085.085,0,0,0,.132,0l1.933.018.286.04c.836.242,1.291.724,1.355,1.337A1.564,1.564,0,0,1,107.44,94.1c-.8.006-1.611,0-2.415-.031-.367-.014-.462.123-.37.45,0,.033,0,.066,0,.1-.01.929-.014,1.858-.036,2.788-.006.242.064.344.315.326a18.623,18.623,0,0,0,2.4-.089,1.878,1.878,0,0,1,1.839,1.322,1.522,1.522,0,0,1-1.519,1.869c-.876-.046-1.74.129-2.614.095-.392-.225-.444-.022-.392.311m-4.97-7.166c-.516,0-1.032.013-1.547-.006-.205-.007-.294.065-.295.252q-.006,1.548,0,3.1c0,.161.046.322.256.313,1.011-.039,2.016.055,3.025.095a.392.392,0,0,0,.442-.441c-.016-.98-.031-1.961-.032-2.942,0-.3-.113-.386-.4-.371-.48.024-.963.006-1.444.005" transform="translate(-52.719 -50.546)"/>
        <path id="Trazado_823207" data-name="Trazado 823207" d="M125.107,121.565c-.052-.334,0-.537.392-.311a.8.8,0,0,0-.392.311" transform="translate(-73.17 -70.87)" fill="#00bffa"/>
        <path id="Trazado_823208" data-name="Trazado 823208" d="M100.743,97.205c-.087.154-.212.082-.329.055l.329-.055" transform="translate(-58.736 -56.859)" fill="#00bffa"/>
        <path id="Trazado_823209" data-name="Trazado 823209" d="M125.278,96.855c-.1.027-.2.049-.149-.12l.149.12" transform="translate(-73.184 -56.584)" fill="#00bffa"/>
        <path id="Trazado_823210" data-name="Trazado 823210" d="M132.37,97.292l-.286-.04a.208.208,0,0,1,.286.04" transform="translate(-77.261 -56.864)" fill="#00bffa"/>
        <path id="Trazado_823211" data-name="Trazado 823211" d="M101.123,121.494c.092.022.09.09.081.163l-.081-.163" transform="translate(-59.151 -71.067)" fill="#00bffa"/>
        <path id="Trazado_823212" data-name="Trazado 823212" d="M108.831,121.383c-.023-.171.069-.205.213-.18l-.213.18" transform="translate(-63.658 -70.892)" fill="#00bffa"/>
        <path id="Trazado_823213" data-name="Trazado 823213" d="M125.14,123.1c0-.066,0-.132,0-.2a.113.113,0,0,1,0,.2" transform="translate(-73.199 -71.891)" fill="#00bffa"/>
        <path id="Trazado_823214" data-name="Trazado 823214" d="M125.134,106.047c0-.033,0-.066,0-.1a.413.413,0,0,1,.032.069c0,.007-.017.02-.027.03" transform="translate(-73.193 -61.973)" fill="#00bffa"/>
        <path id="Trazado_823215" data-name="Trazado 823215" d="M117.1,121.232c.053-.02.1-.02.114.048l-.114-.048" transform="translate(-68.495 -70.907)" fill="#00bffa"/>
        <path id="Trazado_823216" data-name="Trazado 823216" d="M117.364,121.357c.071.011.084.056.07.117l-.07-.117" transform="translate(-68.651 -70.987)" fill="#00bffa"/>
        <path id="Trazado_823217" data-name="Trazado 823217" d="M101.263,112.188a.075.075,0,0,1,0,.093.373.373,0,0,1-.031-.065c0-.006.017-.018.027-.028" transform="translate(-59.217 -65.623)" fill="#00bffa"/>
        <path id="Trazado_823218" data-name="Trazado 823218" d="M127.24,97.262a.086.086,0,0,1-.132,0l.132,0" transform="translate(-74.35 -56.892)" fill="#00bffa"/>
        <path id="Trazado_823219" data-name="Trazado 823219" d="M117.384,97.243l.02-.012-.02.012" transform="translate(-68.663 -56.874)" fill="#00bffa"/>
        <path id="Trazado_823220" data-name="Trazado 823220" d="M115.951,97.3l-.044.015-.039-.025.044-.02Z" transform="translate(-67.776 -56.896)" fill="#00bffa"/>
        <path id="Trazado_823221" data-name="Trazado 823221" d="M109.443,97.253c-.046.032-.089.053-.091-.034a.13.13,0,0,1,.091.034" transform="translate(-63.964 -56.867)" fill="#00bffa"/>
        <path id="Trazado_823222" data-name="Trazado 823222" d="M110.557,104.863c.481,0,.964.017,1.444-.007.291-.014.4.076.4.371,0,.981.016,1.961.032,2.942a.392.392,0,0,1-.442.441c-1.008-.04-2.014-.133-3.025-.094-.21.008-.256-.152-.256-.313q-.006-1.548,0-3.1c0-.186.09-.259.295-.251.515.019,1.031.006,1.547.007" transform="translate(-63.589 -61.334)" fill="#00cffb"/>
      </g>
    </g>
  </g>
</svg>
