<svg xmlns="http://www.w3.org/2000/svg" xmlns:xlink="http://www.w3.org/1999/xlink" width="169" height="169" viewBox="0 0 169 169">
  <defs>
    <clipPath id="clip-path">
      <rect id="Rect치ngulo_377859" data-name="Rect치ngulo 377859" width="129.999" height="92.535" fill="none"/>
    </clipPath>
  </defs>
  <g id="Grupo_1073328" data-name="Grupo 1073328" transform="translate(-384.743 -2057.999)">
    <g id="Grupo_159182" data-name="Grupo 159182" transform="translate(384.743 2057.999)">
      <path id="Uni칩n_12" data-name="Uni칩n 12" d="M84.5,0A84.5,84.5,0,1,1,0,84.5,84.5,84.5,0,0,1,84.5,0Z" transform="translate(0 0)" fill="#ffae7e"/>
    </g>
    <g id="Grupo_1073693" data-name="Grupo 1073693" transform="translate(404.743 2090.029)">
      <g id="Grupo_1073692" data-name="Grupo 1073692" clip-path="url(#clip-path)">
        <path id="Trazado_823154" data-name="Trazado 823154" d="M51.046,57.392a8.7,8.7,0,0,1,.136-1.985,1.2,1.2,0,0,0,1.281-1.254c.036-.479.075-.958.125-1.435.133-1.248.264-2.5.411-3.742.152-1.29.328-2.578.481-3.868.173-1.453.381-2.9.527-4.359.2-2.045.564-4.078.912-6.1.415-2.421.721-4.86,1.166-7.278.307-1.672.684-3.338.9-5.025.266-2.1.826-4.141,1.175-6.223.084-.5.331-.633.8-.68,1.065-.106,2.127.031,3.193,0,4.759-.116,9.522-.141,14.283-.136,4.6,0,9.21-.076,13.815.2,1.1.065,2.228-.016,3.344-.049.734-.022,1.028-.315,1.035-.974.006-.583-.378-.945-1.067-.967-.8-.024-1.6-.062-2.4-.081-3.321-.081-6.643-.119-9.965-.138-7.407-.042-14.812.044-22.217.18-.485.009-.92-.061-1.025-.711s-.352-1.288-.5-1.938A32.652,32.652,0,0,1,56.519,5.4c-.022-.376.086-.521.487-.523a18.64,18.64,0,0,0,1.881-.105c1.788-.189,3.585-.3,5.381-.39,1.72-.082,3.441-.211,5.159-.234,2.257-.031,4.512-.129,6.767-.18,5.745-.131,11.486-.025,17.228.122,3.305.085,6.608.3,9.913.4,1.325.042,2.645.173,3.974.169a6.734,6.734,0,0,1,1.341,0A25.923,25.923,0,0,0,112.834,5a22.93,22.93,0,0,0,2.7.145c.258-.019.387.039.362.4-.039.555-.264,1.058-.319,1.6-.193,1.877-.68,3.7-1.034,5.543a6.574,6.574,0,0,0-.341,2.389c.19,1.1.421,2.193.605,3.294.158.94.356,1.178,1.161,1.259q.188,1.123.375,2.245c-.876.064-1.122.341-1.017,1.208.157,1.283.373,2.56.5,3.847.154,1.62.348,3.236.548,4.847.265,2.141.356,4.293.608,6.431.131,1.109.172,2.225.281,3.331.155,1.586.15,3.183.355,4.763.063.487-.108.629-.621.626-5.8-.025-11.593-.022-17.39-.024-1.222,0-1.532.329-1.532,1.551,0,6.829-.007,13.658.012,20.487,0,.556-.135.705-.7.7-4.76-.024-9.52-.013-14.28-.012-.4,0-.805-.018-1.206.011-.8.059-1.139.4-1.14,1.2q-.008,6.247.014,12.495c0,.777.323,1.074,1.125,1.14a5.634,5.634,0,0,0-.008,2.373c-.961.044-1.122.2-1.126,1.176,0,1.205-.017,2.411.02,3.615.015.484-.127.631-.607.592-1.237-.1-2.48-.037-3.721-.1a20.078,20.078,0,0,0-2.446.087.638.638,0,0,1-.727-.536c-.158-.487-.3-.978-.5-1.456a74.034,74.034,0,0,0-3.944-8.161,48.185,48.185,0,0,0-6.786-9.587,24.415,24.415,0,0,0-4.23-3.777A11.96,11.96,0,0,0,52.415,66.4c-.2-.018-.4-.088-.614-.094a.351.351,0,0,1-.376-.405c.009-.7-.025-1.4.031-2.092.139-1.713.287-3.425.378-5.141a1.155,1.155,0,0,0-.788-1.278M86.019,41.561h20.7c1.31,0,1.625-.328,1.624-1.651q0-6.154.008-12.309c0-1.519-.249-1.778-1.748-1.778H70.032c-1.651,0-3.3-.011-4.952.005-1.02.01-1.285.265-1.29,1.278-.024,4.319-.078,8.638.012,12.956.025,1.207.336,1.5,1.52,1.5h20.7M97.8,13.469v.038a11.21,11.21,0,0,0-1.2.009.7.7,0,0,0-.691.723c-.012.483.042,1,.573,1.124a7.164,7.164,0,0,0,2.366.172.97.97,0,0,0,.986-1.062c-.01-.563-.366-.9-1.023-.957-.336-.028-.674-.032-1.011-.047" transform="translate(-25.024 -1.916)" fill="#8f8e8f"/>
        <path id="Trazado_823155" data-name="Trazado 823155" d="M56.877,101.76c-.8-.067-1.123-.363-1.125-1.14q-.021-6.247-.014-12.495c0-.8.344-1.144,1.14-1.2.4-.03.8-.011,1.206-.011,4.76,0,9.52-.012,14.28.012.566,0,.7-.147.7-.7-.019-6.829-.01-13.658-.012-20.487,0-1.222.309-1.551,1.531-1.551,5.8,0,11.594,0,17.391.024.514,0,.684-.139.621-.626-.2-1.581-.2-3.177-.355-4.763-.109-1.106-.15-2.222-.281-3.331-.252-2.138-.343-4.29-.608-6.43-.2-1.612-.394-3.228-.548-4.848-.122-1.286-.338-2.564-.495-3.847-.106-.867.14-1.144,1.017-1.207a.882.882,0,0,1,.864.9c.113,1.675.528,3.3.664,4.975.1,1.235.339,2.458.478,3.69.119,1.054.148,2.119.282,3.171.139,1.09.165,2.19.333,3.279.114.738.094,1.5.172,2.249.158,1.513.254,3.031.354,4.549a13.867,13.867,0,0,1,.01,1.71c-.025.432.136.528.541.526q6.343-.026,12.685-.017c1.541,0,1.766.178,1.783,1.742.011,1.078.027,2.155,0,3.233-.018.851-.212,1.036-1.016,1.122a.9.9,0,0,1-.931-.72v-.006q-.018-1.385-.037-2.769v-.038c.019-.162.083-.329-.053-.474l-.1-.067c-.085-.006-.169-.017-.253-.017q-15.746,0-31.493-.016c-.514,0-.572.19-.571.632q.023,9.359.012,18.718c0,1.4-.008,1.4,1.39,1.4l27.872,0c.889,0,1.778,0,2.666,0,.225,0,.472.053.472-.326,0-.437.084-.873.085-1.31.011-3.744.007-7.487.016-11.231,0-.994.09-1.09,1.038-1.331.727.188.9.745.9,1.391q.006,6.082,0,12.164c0,.754.04.781.767.707a19.58,19.58,0,0,1,1.958-.07q6.308-.011,12.616-.009c.1.2.194.226.293,0,1.263.044,1.535.324,1.535,1.579q0,9.73,0,19.46c0,.55-.013,1.1-.02,1.648-.028.105.015.144.118.127.719,0,1.439.013,2.158.006.7-.007,1.064.256,1.085.8a1.089,1.089,0,0,1-1.089,1.1h-.064c-1.8.014-3.59.038-5.386.039q-16.473.008-32.947.007c-10.792,0-21.587.136-32.376-.047-17.133-.291-34.264-.011-51.4-.155-1.946-.016-3.892,0-5.839.017-.61.006-.8-.434-.876-.866S0,109.731.6,109.6a2.753,2.753,0,0,1,.94-.094c.7.091,1.38-.168,2.082-.015.3.065.263-.336.287-.467a32.7,32.7,0,0,1,.915-3.537A44.92,44.92,0,0,1,6.322,101.2a40.33,40.33,0,0,1,2.453-5.112c.665-1.13,1.409-2.217,2.156-3.3a26.374,26.374,0,0,1,3.945-4.563,20.254,20.254,0,0,1,4.756-3.257,14.385,14.385,0,0,1,4.4-1.38c.368-.049.325-.395.333-.563.039-.794.115-1.589.139-2.38.051-1.709.236-3.4.4-5.1.062-.624.6-.766,1.113-.879a1.154,1.154,0,0,1,.788,1.278c-.091,1.716-.239,3.428-.378,5.141-.056.693-.022,1.394-.032,2.092a.351.351,0,0,0,.376.405c.211.007.415.076.614.094A11.955,11.955,0,0,1,32.8,85.99a24.372,24.372,0,0,1,4.23,3.777,48.185,48.185,0,0,1,6.786,9.587,74.034,74.034,0,0,1,3.944,8.161c.2.478.341.969.5,1.456a.637.637,0,0,0,.727.536,20.069,20.069,0,0,1,2.446-.087c1.241.059,2.485,0,3.721.1.48.039.622-.108.607-.592-.038-1.2-.025-2.41-.02-3.615,0-.974.164-1.132,1.126-1.176.74.076.8.654.815,1.192.035,1.363.021,2.726.028,4.089l-.014.03.027.018c.11.454.481.262.733.262q15.46.016,30.921.009c.836,0,.828,0,.821-.84a15.828,15.828,0,0,1,.039-2.342.786.786,0,0,1,.829-.722c.343.006.719-.021.935.5a7.059,7.059,0,0,1,.182,2.553c.039.84,0,.844.848.844q15.492,0,30.984.017c.535,0,.7-.195.694-.692q-.022-9.644-.03-19.289c0-.834-.01-.833-.856-.833l-30.475.007c-.254,0-.508,0-.762,0-.318-.006-.419.114-.417.459.02,4.124.018,8.249.02,12.373a2.921,2.921,0,0,1-.114,1.066.747.747,0,0,1-.744.563c-.806.014-1.148-.295-1.149-1.117,0-4.251-.015-8.5,0-12.753,0-.485-.137-.606-.606-.605q-15.619.021-31.237.017c-.2,0-.429-.061-.594.132-.116.081-.091.183-.046.289,0,3.646-.012,7.293,0,10.939,0,.665-.122,1.216-.825,1.464M25.206,85.5a6.008,6.008,0,0,0-2.4.35,17.037,17.037,0,0,0-6.927,4.2,33.049,33.049,0,0,0-7.484,11.5,44.5,44.5,0,0,0-2.206,6.6c-.333,1.35-.376,1.333,1.013,1.333q18.913,0,37.827.006a1.408,1.408,0,0,1,.742.085.4.4,0,0,0,.514-.094c.147-.172.033-.308-.029-.461-.738-1.847-1.554-3.66-2.43-5.444a60.411,60.411,0,0,0-3.6-6.355,35.171,35.171,0,0,0-8.176-9.353A10.926,10.926,0,0,0,25.206,85.5" transform="translate(0 -19.195)"/>
        <path id="Trazado_823156" data-name="Trazado 823156" d="M179.67,92.776q.018,1.384.037,2.769l-.03.007h.032a.9.9,0,0,0,.93.721,8.977,8.977,0,0,0,.113,2.442c-.948.24-1.036.336-1.038,1.331-.009,3.743-.006,7.487-.016,11.23,0,.437-.085.874-.085,1.311,0,.379-.247.325-.472.326-.889,0-1.778,0-2.667,0l-27.872,0c-1.4,0-1.39,0-1.389-1.4q0-9.359-.012-18.718c0-.442.056-.633.571-.632q15.746.025,31.492.016c.084,0,.169.011.252.017l.1.068c.135.145.071.311.052.473l-.03.019.03.019" transform="translate(-72.161 -45.181)" fill="#f5736f"/>
        <path id="Trazado_823157" data-name="Trazado 823157" d="M115.314,17.714c-.805-.081-1-.319-1.161-1.258-.185-1.1-.415-2.195-.606-3.295a6.6,6.6,0,0,1,.341-2.389c.354-1.846.842-3.667,1.034-5.543.055-.54.28-1.044.319-1.6.025-.365-.1-.424-.362-.4a23.048,23.048,0,0,1-2.7-.145,25.913,25.913,0,0,1-4.185-.335,6.773,6.773,0,0,0-1.341,0c-1.329,0-2.649-.126-3.974-.169-3.305-.106-6.607-.317-9.913-.4-5.741-.147-11.482-.252-17.227-.122-2.256.051-4.51.149-6.767.18-1.717.023-3.439.152-5.158.234-1.8.086-3.593.2-5.381.39a18.65,18.65,0,0,1-1.881.105c-.4,0-.509.147-.486.523a32.7,32.7,0,0,0,.925,5.431c.151.65.4,1.283.5,1.939s.54.719,1.025.711c7.405-.137,14.811-.222,22.217-.181,3.322.019,6.644.057,9.966.138.8.019,1.6.056,2.4.081.689.021,1.073.383,1.067.967-.007.659-.3.952-1.035.974-1.115.033-2.247.114-3.344.049-4.6-.272-9.21-.191-13.815-.2-4.761,0-9.523.02-14.283.136-1.066.026-2.127-.11-3.193,0-.464.046-.712.18-.8.679-.349,2.081-.909,4.122-1.175,6.223-.214,1.687-.591,3.352-.9,5.024-.445,2.418-.75,4.857-1.166,7.279-.347,2.022-.707,4.055-.912,6.1-.146,1.457-.354,2.905-.527,4.359-.153,1.29-.329,2.577-.481,3.868-.147,1.246-.279,2.494-.411,3.742-.051.478-.09.956-.125,1.435a1.2,1.2,0,0,1-1.281,1.255c-.722-.282-.977-.9-.73-1.84a20.591,20.591,0,0,0,.36-2.7c.125-.984.177-1.974.351-2.956.2-1.123.275-2.267.413-3.4q.2-1.666.422-3.33c.15-1.15.3-2.3.465-3.447.183-1.242.4-2.48.585-3.72.233-1.523.4-3.058.7-4.57.244-1.249.408-2.509.621-3.762.245-1.441.486-2.883.765-4.317.4-2.075.846-4.141,1.252-6.216a2.61,2.61,0,0,0-.12-1.356,36.419,36.419,0,0,1-1.494-6.229c-.176-1.079-.238-2.181-.4-3.269-.105-.708.455-1.282,1.3-1.3,1.923-.049,3.831-.31,5.749-.43C62.3.543,63.851.493,65.4.411c1.821-.1,3.641-.169,5.463-.246C77.155-.1,83.452.02,89.746.085c2.4.024,4.8.014,7.2.213,2.284.189,4.578.157,6.864.277s4.56.259,6.841.383c1.727.093,3.454.239,5.18.366,1.2.088,1.607.294,1.427,1.759-.231,1.884-.645,3.728-.946,5.595-.161,1-.479,1.979-.661,2.986a7.342,7.342,0,0,0,.087,2.836c.144.7.352,1.387.43,2.091a.992.992,0,0,1-.853,1.123" transform="translate(-24.364 0)"/>
        <path id="Trazado_823158" data-name="Trazado 823158" d="M245.154,132.833c-.1.225-.2.194-.293,0l.293,0" transform="translate(-120.036 -65.116)" fill="#8f8e8f"/>
        <path id="Trazado_823159" data-name="Trazado 823159" d="M248.524,177.465c-.1.017-.146-.022-.118-.127l.118.127" transform="translate(-121.77 -86.935)" fill="#8f8e8f"/>
        <path id="Trazado_823160" data-name="Trazado 823160" d="M111.444,149.615c.7-.248.827-.8.825-1.464-.01-3.646,0-7.293,0-10.939.1-.083.065-.187.046-.29.165-.192.389-.132.594-.132q15.618-.006,31.237-.017c.469,0,.608.12.606.6-.017,4.252-.007,8.5,0,12.754,0,.822.342,1.131,1.148,1.117a.748.748,0,0,0,.744-.564,2.906,2.906,0,0,0,.114-1.065c0-4.125,0-8.249-.02-12.373,0-.345.1-.465.417-.459.254,0,.508,0,.762,0l30.475-.006c.847,0,.855,0,.856.832q.016,9.645.03,19.289c0,.5-.159.693-.694.692q-15.492-.024-30.984-.017c-.85,0-.809,0-.848-.844a7.059,7.059,0,0,0-.182-2.553c-.216-.524-.592-.5-.935-.5a.787.787,0,0,0-.829.723,15.966,15.966,0,0,0-.039,2.342c.007.838.015.84-.821.84q-15.46,0-30.921-.009c-.252,0-.623.193-.732-.261l.019-.031-.033-.017c-.006-1.363.007-2.727-.028-4.089-.014-.539-.074-1.116-.815-1.192a5.625,5.625,0,0,1,.008-2.373" transform="translate(-54.568 -67.049)" fill="#f5736f"/>
        <path id="Trazado_823161" data-name="Trazado 823161" d="M98.239,62.632h-20.7c-1.184,0-1.495-.291-1.52-1.5-.09-4.318-.036-8.637-.012-12.956.006-1.013.271-1.268,1.29-1.278,1.65-.016,3.3-.005,4.952-.005h36.57c1.5,0,1.75.259,1.748,1.778q-.008,6.154-.008,12.309c0,1.323-.314,1.651-1.624,1.651h-20.7m-20.3-13.473a.245.245,0,0,0,.038.3c-.008,3.465.012,6.932-.047,10.4-.012.692.2.762.789.76q10.055-.029,20.11-.013,9.579,0,19.159,0c.363,0,.648.027.644-.5-.025-3.464-.024-6.928-.032-10.392a.67.67,0,0,0,.006-.563c-.109-.432-.457-.216-.682-.217q-19.383-.018-38.767-.011c-.317,0-.634,0-.952,0-.164,0-.3.015-.268.235" transform="translate(-37.243 -22.987)"/>
        <path id="Trazado_823162" data-name="Trazado 823162" d="M140.931,22.664c.337.015.675.019,1.011.047.657.055,1.013.395,1.023.957a.97.97,0,0,1-.986,1.062,7.164,7.164,0,0,1-2.366-.172c-.531-.128-.585-.64-.573-1.124a.7.7,0,0,1,.691-.723,11.21,11.21,0,0,1,1.2-.009v-.038" transform="translate(-68.159 -11.11)"/>
        <path id="Trazado_823163" data-name="Trazado 823163" d="M30.971,130.042a10.926,10.926,0,0,1,6.846,2.364,35.174,35.174,0,0,1,8.176,9.353,60.406,60.406,0,0,1,3.6,6.355c.876,1.784,1.692,3.6,2.43,5.444.061.153.175.289.029.461a.4.4,0,0,1-.514.094,1.407,1.407,0,0,0-.742-.085q-18.913-.008-37.827-.006c-1.389,0-1.346.018-1.013-1.333a44.5,44.5,0,0,1,2.206-6.6,33.057,33.057,0,0,1,7.484-11.5,17.043,17.043,0,0,1,6.927-4.2,6.017,6.017,0,0,1,2.4-.349m-.3,6a.849.849,0,0,0-.552-.853.873.873,0,0,0-1,.141c-.934.782-1.8,1.633-2.67,2.489a.824.824,0,0,0-.222.81.969.969,0,0,0,1.654.427c.89-.763,1.726-1.587,2.579-2.391a.7.7,0,0,0,.209-.621M23.4,148.813a.75.75,0,0,0,.618-.151c.795-.58,1.6-1.151,2.358-1.773a.817.817,0,0,0,.089-1.146c-.275-.4-.677-.685-1.186-.362a17.729,17.729,0,0,0-2.612,1.944.684.684,0,0,0-.172.894c.184.359.4.649.9.594m18.358-.757c.739.007,1.206-.564.932-1.209a7.735,7.735,0,0,0-1.605-2.293c-.352-.366-.778-.22-1.136.073s-.557.63-.249,1.08c.462.675.918,1.355,1.387,2.026a.646.646,0,0,0,.672.323" transform="translate(-5.765 -63.737)" fill="#fed6af"/>
        <path id="Trazado_823164" data-name="Trazado 823164" d="M113.2,137.065c.019.1.051.206-.046.29-.045-.107-.07-.21.046-.29" transform="translate(-55.453 -67.192)" fill="#8f8e8f"/>
        <path id="Trazado_823165" data-name="Trazado 823165" d="M210.939,98.8h-.032l.031-.007V98.8" transform="translate(-103.391 -48.431)" fill="#8f8e8f"/>
        <path id="Trazado_823166" data-name="Trazado 823166" d="M210.694,92.3l-.1-.067.1.067" transform="translate(-103.237 -45.213)" fill="#8f8e8f"/>
        <path id="Trazado_823167" data-name="Trazado 823167" d="M113.195,176.979l.033.017-.019.031-.028-.019Z" transform="translate(-55.484 -86.759)" fill="#8f8e8f"/>
        <path id="Trazado_823168" data-name="Trazado 823168" d="M210.865,93.328l-.03-.019.03-.019v.038" transform="translate(-103.356 -45.733)" fill="#8f8e8f"/>
        <path id="Trazado_823169" data-name="Trazado 823169" d="M120.481,51.63c.008,3.464.007,6.929.032,10.393,0,.525-.281.5-.644.5q-9.58-.008-19.159,0c-6.7,0-13.407-.007-20.11.012-.591,0-.8-.068-.79-.76.059-3.465.039-6.931.047-10.4a.21.21,0,0,0-.038-.3c-.035-.22.1-.237.268-.236.317,0,.635,0,.952,0q19.384,0,38.767.011c.224,0,.573-.215.681.217-.3.185-.3.372-.006.563m-6.169,3.131c-.971.015-1.941.036-2.911.045-4.751.044-9.5-.086-14.254.081a.909.909,0,0,0-.977.673.959.959,0,0,0,.506,1.063,1.347,1.347,0,0,0,.773.189q8.372-.021,16.743-.027a4.212,4.212,0,0,0,.632-.032.892.892,0,0,0,.875-.823.9.9,0,0,0-.731-1.086.107.107,0,0,0-.171-.036l-.232-.045q-.125-.288-.253,0m-25.571.033H86.506c-.963,0-1.493.332-1.53.957-.036.59.529,1.012,1.468,1.023,1.65.017,3.3-.007,4.949,0a2.439,2.439,0,0,0,.654-.145.76.76,0,0,0,.549-.921.8.8,0,0,0-.706-.818c-1.032-.168-2.067-.026-3.147-.1" transform="translate(-39.125 -24.902)" fill="#fefeff"/>
        <path id="Trazado_823170" data-name="Trazado 823170" d="M159.382,51.89c-.291-.191-.3-.379.006-.563a.667.667,0,0,1-.006.563" transform="translate(-78.025 -25.162)" fill="#8f8e8f"/>
        <path id="Trazado_823171" data-name="Trazado 823171" d="M79.8,51.341a.21.21,0,0,1,.038.3.245.245,0,0,1-.038-.3" transform="translate(-39.101 -25.168)" fill="#8f8e8f"/>
        <path id="Trazado_823172" data-name="Trazado 823172" d="M44.565,140.922a.7.7,0,0,1-.209.622c-.854.8-1.69,1.629-2.579,2.391a.968.968,0,0,1-1.654-.426.825.825,0,0,1,.222-.81c.866-.856,1.736-1.707,2.67-2.489a.874.874,0,0,1,1-.141.849.849,0,0,1,.552.853" transform="translate(-19.657 -68.617)"/>
        <path id="Trazado_823173" data-name="Trazado 823173" d="M33.624,163.452c-.5.055-.72-.235-.9-.594a.685.685,0,0,1,.172-.895,17.792,17.792,0,0,1,2.612-1.944c.508-.322.911-.039,1.186.362a.817.817,0,0,1-.089,1.146c-.761.622-1.563,1.194-2.358,1.773a.75.75,0,0,1-.618.151" transform="translate(-15.993 -78.376)"/>
        <path id="Trazado_823174" data-name="Trazado 823174" d="M68.473,161.828a.646.646,0,0,1-.672-.323c-.468-.671-.925-1.351-1.387-2.026-.307-.45-.106-.788.249-1.08s.784-.439,1.136-.073a7.735,7.735,0,0,1,1.605,2.293c.274.644-.193,1.216-.932,1.209" transform="translate(-32.484 -77.508)"/>
        <path id="Trazado_823175" data-name="Trazado 823175" d="M130.67,58.655a.905.905,0,0,1,.732,1.085.892.892,0,0,1-.876.823,4.14,4.14,0,0,1-.632.033q-8.372.012-16.743.027a1.355,1.355,0,0,1-.773-.189.959.959,0,0,1-.506-1.063.909.909,0,0,1,.977-.673c4.751-.166,9.5-.036,14.254-.081.971-.009,1.941-.03,2.911-.046.084.127.168.135.253,0l.232.045a.111.111,0,0,0,.171.036" transform="translate(-54.827 -28.713)"/>
        <path id="Trazado_823176" data-name="Trazado 823176" d="M93.707,58.636c1.081.073,2.115-.069,3.147.1a.8.8,0,0,1,.706.818.76.76,0,0,1-.549.921,2.439,2.439,0,0,1-.654.145c-1.65-.01-3.3.014-4.949,0-.939-.01-1.5-.432-1.468-1.023.038-.626.567-.957,1.53-.957h2.235" transform="translate(-44.09 -28.744)"/>
        <path id="Trazado_823177" data-name="Trazado 823177" d="M147.744,58.436c-.085.133-.17.125-.253,0,.086-.191.17-.191.253,0" transform="translate(-72.303 -28.576)" fill="#8f8e8f"/>
        <path id="Trazado_823178" data-name="Trazado 823178" d="M148.613,58.673a.111.111,0,0,1-.171-.036.106.106,0,0,1,.171.036" transform="translate(-72.769 -28.731)" fill="#8f8e8f"/>
      </g>
    </g>
  </g>
</svg>
