<svg xmlns="http://www.w3.org/2000/svg" xmlns:xlink="http://www.w3.org/1999/xlink" width="1240" height="406" viewBox="0 0 1240 406">
  <defs>
    <linearGradient id="linear-gradient" x1="0.212" y1="0.5" x2="0.773" y2="0.5" gradientUnits="objectBoundingBox">
      <stop offset="0" stop-color="#ffae7e"/>
      <stop offset="1" stop-color="#b5ffed"/>
    </linearGradient>
    <radialGradient id="radial-gradient" cx="2.129" cy="0.5" r="0.295" gradientTransform="translate(-39.294 3.948) rotate(180) scale(7.217 1.999)" gradientUnits="objectBoundingBox">
      <stop offset="0" stop-color="#acc2d4"/>
      <stop offset="0.205" stop-color="#acc2d4"/>
      <stop offset="0.294" stop-color="#baccdb"/>
      <stop offset="0.607" stop-color="#dfe8ee"/>
      <stop offset="0.848" stop-color="#f6f8fa"/>
      <stop offset="1" stop-color="#fff"/>
    </radialGradient>
    <linearGradient id="linear-gradient-2" x1="0.5" x2="0.5" y2="1" gradientUnits="objectBoundingBox">
      <stop offset="0" stop-color="#defff8"/>
      <stop offset="0.803" stop-color="#eaf5ff"/>
      <stop offset="1" stop-color="#f0feff"/>
    </linearGradient>
    <clipPath id="clip-path">
      <rect id="Rectángulo_377863" data-name="Rectángulo 377863" width="1185.534" height="325.944" fill="none"/>
    </clipPath>
    <clipPath id="clip-path-2">
      <rect id="Rectángulo_377862" data-name="Rectángulo 377862" width="1175.408" height="311.315" fill="none"/>
    </clipPath>
    <clipPath id="clip-path-3">
      <path id="Trazado_823253" data-name="Trazado 823253" d="M106.967,20.01V240.141c74.922-74.922,136.991-74.922,211.913,0V20.01c-74.922,74.922-136.991,74.922-211.913,0" transform="translate(-106.967 -20.01)" fill="url(#linear-gradient)"/>
    </clipPath>
    <clipPath id="clip-path-4">
      <path id="Trazado_823254" data-name="Trazado 823254" d="M489.55,20.01V240.141c-74.922-74.922-136.992-74.922-211.913,0V20.01c74.922,74.922,136.991,74.922,211.913,0" transform="translate(-277.637 -20.01)" fill="none"/>
    </clipPath>
    <linearGradient id="linear-gradient-4" x1="0.797" y1="0.5" x2="0.218" y2="0.5" gradientUnits="objectBoundingBox">
      <stop offset="0" stop-color="#c1e29a"/>
      <stop offset="1" stop-color="#b5ffed"/>
    </linearGradient>
    <clipPath id="clip-path-5">
      <rect id="Rectángulo_377867" data-name="Rectángulo 377867" width="27.777" height="192.318" fill="url(#radial-gradient)"/>
    </clipPath>
    <clipPath id="clip-path-6">
      <path id="Trazado_823258" data-name="Trazado 823258" d="M78.119,28.755V221.072c-16.678-20.057-27.776-55.612-27.776-96.159s11.1-76.1,27.776-96.159" transform="translate(-50.343 -28.755)" fill="url(#radial-gradient)"/>
    </clipPath>
    <clipPath id="clip-path-7">
      <rect id="Rectángulo_377876" data-name="Rectángulo 377876" width="141" height="141" transform="translate(0.357 -0.304)" fill="none" stroke="#707070" stroke-width="1"/>
    </clipPath>
    <clipPath id="clip-path-8">
      <rect id="Rectángulo_377875" data-name="Rectángulo 377875" width="125.158" height="125.127" fill="none"/>
    </clipPath>
    <clipPath id="clip-path-9">
      <rect id="Rectángulo_377869" data-name="Rectángulo 377869" width="26.649" height="192.318" fill="none"/>
    </clipPath>
    <clipPath id="clip-path-10">
      <path id="Trazado_823259" data-name="Trazado 823259" d="M252.906,28.755V221.072c-16-20.057-26.649-55.612-26.649-96.159s10.647-76.1,26.649-96.159" transform="translate(-226.257 -28.755)" fill="none"/>
    </clipPath>
    <radialGradient id="radial-gradient-4" cx="2.129" cy="0.5" r="0.295" gradientTransform="translate(-176.602 3.948) rotate(180) scale(7.217 1.999)" gradientUnits="objectBoundingBox">
      <stop offset="0" stop-color="#acc2d4"/>
      <stop offset="0.205" stop-color="#acc2d4"/>
      <stop offset="0.31" stop-color="#baccdb"/>
      <stop offset="0.607" stop-color="#dfe8ee"/>
      <stop offset="0.848" stop-color="#f6f8fa"/>
      <stop offset="1" stop-color="#fff"/>
    </radialGradient>
    <clipPath id="clip-path-11">
      <rect id="Rectángulo_377877" data-name="Rectángulo 377877" width="141" height="141" transform="translate(-0.167 -0.304)" fill="none" stroke="#707070" stroke-width="1"/>
    </clipPath>
    <clipPath id="clip-path-12">
      <rect id="Rectángulo_377873" data-name="Rectángulo 377873" width="115" height="115" transform="translate(-0.278 -0.414)" fill="none"/>
    </clipPath>
    <clipPath id="clip-path-13">
      <rect id="Rectángulo_377871" data-name="Rectángulo 377871" width="26.652" height="192.318" fill="none"/>
    </clipPath>
    <clipPath id="clip-path-14">
      <path id="Trazado_823260" data-name="Trazado 823260" d="M417.737,28.755V221.072c-16-20.057-26.651-55.612-26.651-96.159s10.647-76.1,26.651-96.159" transform="translate(-391.085 -28.755)" fill="none"/>
    </clipPath>
    <radialGradient id="radial-gradient-5" cx="2.129" cy="0.5" r="0.295" gradientTransform="translate(-305.2 3.948) rotate(180) scale(7.216 1.999)" xlink:href="#radial-gradient-4"/>
    <clipPath id="clip-path-15">
      <rect id="Rectángulo_377878" data-name="Rectángulo 377878" width="141" height="141" transform="translate(-0.339 -0.304)" fill="none" stroke="#707070" stroke-width="1"/>
    </clipPath>
    <clipPath id="clip-path-16">
      <rect id="Rectángulo_377874" data-name="Rectángulo 377874" width="113.772" height="131.625" fill="none"/>
    </clipPath>
  </defs>
  <g id="Grupo_1074671" data-name="Grupo 1074671" transform="translate(-180 -4935.811)">
    <g id="Grupo_1073747" data-name="Grupo 1073747">
      <g id="Grupo_1072963" data-name="Grupo 1072963" transform="translate(1420 5342.039) rotate(180)">
        <rect id="Rectángulo_376022" data-name="Rectángulo 376022" width="1240" height="406" transform="translate(0 0.228)" fill="url(#linear-gradient-2)"/>
      </g>
      <g id="Grupo_1073706" data-name="Grupo 1073706" transform="translate(209.386 4976.458)">
        <g id="Grupo_1073705" data-name="Grupo 1073705" transform="translate(0)" clip-path="url(#clip-path)">
          <g id="Grupo_1073704" data-name="Grupo 1073704" transform="translate(5.063 14.629)" style="mix-blend-mode: color-burn;isolation: isolate">
            <g id="Grupo_1073703" data-name="Grupo 1073703">
              <g id="Grupo_1073702" data-name="Grupo 1073702" clip-path="url(#clip-path-2)">
                <path id="Trazado_823251" data-name="Trazado 823251" d="M1021.752,5.779c-143.687,0-163.008,204.564-321.98,45.59A155.177,155.177,0,0,0,589.705,5.779c-143.687,0-163.008,204.564-321.982,45.59a155.659,155.659,0,1,0,0,220.133C426.7,112.529,446.051,317.094,589.705,317.094A155.18,155.18,0,0,0,699.772,271.5c158.972-158.972,178.328,45.592,321.98,45.592a155.657,155.657,0,0,0,0-311.315" transform="translate(-2 -5.779)" fill="#595959"/>
              </g>
            </g>
          </g>
          <path id="Trazado_823252" data-name="Trazado 823252" d="M654.653,157.656A155.657,155.657,0,1,1,499,2,155.656,155.656,0,0,1,654.653,157.656" transform="translate(525.818 3.063)" fill="#c1e29a"/>
        </g>
      </g>
      <g id="Grupo_1073708" data-name="Grupo 1073708" transform="translate(480.172 5027.114)">
        <g id="Grupo_1073707" data-name="Grupo 1073707" transform="translate(0)" clip-path="url(#clip-path-3)">
          <rect id="Rectángulo_377864" data-name="Rectángulo 377864" width="211.913" height="220.131" transform="translate(0 0)" fill="url(#linear-gradient)"/>
        </g>
      </g>
      <g id="Grupo_1073710" data-name="Grupo 1073710" transform="translate(912.221 5027.114)">
        <g id="Grupo_1073709" data-name="Grupo 1073709" transform="translate(0 0)" clip-path="url(#clip-path-4)">
          <path id="Trazado_823261" data-name="Trazado 823261" d="M211.913,0H0V220.131H211.913Z" transform="translate(0 0)" fill="url(#linear-gradient-4)"/>
        </g>
      </g>
      <path id="Trazado_823255" data-name="Trazado 823255" d="M483.982,157.656A155.656,155.656,0,1,1,328.326,2,155.656,155.656,0,0,1,483.982,157.656" transform="translate(473.828 4979.521)" fill="#b5ffed"/>
      <path id="Trazado_823256" data-name="Trazado 823256" d="M313.315,157.656A155.657,155.657,0,1,1,157.659,2,155.656,155.656,0,0,1,313.315,157.656" transform="translate(212.449 4979.521)" fill="#ffae7e"/>
      <path id="Trazado_823257" data-name="Trazado 823257" d="M1024.815,5.063A155.657,155.657,0,1,1,914.748,270.786c-37.461-37.461-71.709-56.191-105.958-56.191s-68.495,18.73-105.956,56.191a155.655,155.655,0,0,1-220.133,0c-37.461-37.461-71.709-56.191-105.958-56.191s-68.494,18.73-105.958,56.191a155.656,155.656,0,1,1,0-220.131c37.461,37.461,71.71,56.191,105.955,56.191s68.5-18.73,105.958-56.194a155.658,155.658,0,0,1,220.133,0c37.464,37.461,71.709,56.191,105.956,56.191s68.5-18.73,105.958-56.194a155.169,155.169,0,0,1,110.067-45.59m0-5.063A159.671,159.671,0,0,0,911.169,47.073c-36.813,36.815-70.3,54.711-102.378,54.711s-65.56-17.9-102.373-54.708a160.722,160.722,0,0,0-227.295,0c-36.815,36.815-70.3,54.711-102.378,54.711s-65.56-17.9-102.376-54.708A159.664,159.664,0,0,0,160.719,0C72.1,0,0,72.1,0,160.719S72.1,321.441,160.719,321.441a159.679,159.679,0,0,0,113.649-47.076c36.813-36.813,70.3-54.708,102.376-54.708s65.563,17.9,102.378,54.708a160.716,160.716,0,0,0,227.292,0c36.813-36.813,70.3-54.708,102.376-54.708s65.565,17.9,102.378,54.708a159.678,159.678,0,0,0,113.646,47.076c88.622,0,160.719-72.1,160.719-160.722S1113.437,0,1024.815,0" transform="translate(209.386 4976.458)" fill="#fff"/>
      <rect id="Rectángulo_377872" data-name="Rectángulo 377872" width="1185.534" height="325.944" transform="translate(209.386 4976.458)" fill="none"/>
      <g id="Grupo_1073738" data-name="Grupo 1073738" transform="translate(246.644 5018.199)">
        <g id="Grupo_1073715" data-name="Grupo 1073715" transform="translate(117.951)" style="mix-blend-mode: multiply;isolation: isolate">
          <g id="Grupo_1073714" data-name="Grupo 1073714">
            <g id="Grupo_1073713" data-name="Grupo 1073713" clip-path="url(#clip-path-5)">
              <g id="Grupo_1073712" data-name="Grupo 1073712" transform="translate(0.001 0)">
                <g id="Grupo_1073711" data-name="Grupo 1073711" clip-path="url(#clip-path-6)">
                  <rect id="Rectángulo_377866" data-name="Rectángulo 377866" width="27.776" height="192.317" transform="translate(0 0)" fill="url(#radial-gradient)"/>
                </g>
              </g>
            </g>
          </g>
        </g>
        <text id="Residuo_inorgánico" data-name="Residuo
inorgánico" transform="translate(161.357 86.611)" fill="#12263f" font-size="20" font-family="Roboto-Black, Roboto" font-weight="800"><tspan x="0" y="0">Residuo</tspan><tspan x="0" y="27">inorgánico</tspan></text>
        <g id="Enmascarar_grupo_379" data-name="Enmascarar grupo 379" transform="translate(0 24.916)" clip-path="url(#clip-path-7)">
          <g id="Grupo_1073736" data-name="Grupo 1073736" transform="translate(7.997 8.793)">
            <g id="Grupo_1073735" data-name="Grupo 1073735" clip-path="url(#clip-path-8)">
              <path id="Trazado_823329" data-name="Trazado 823329" d="M5.2,116.424a4.155,4.155,0,0,1-1.774-.914,7.507,7.507,0,0,1-1.878-1.81,7.862,7.862,0,0,1-.8-8.069,11.123,11.123,0,0,1,1.364-1.941c1.021-1.454,2.266-2.734,3.26-4.221.439-.657,1.013-1.247,1.51-1.885A5.778,5.778,0,0,0,8.1,93.976c.022-1.365-.008-2.73.012-4.1a2.553,2.553,0,0,1,.359-1.4c.034-.052.1-.093.111-.146.309-2.291,1.961-3.895,2.981-5.821.351-.664.785-1.283,1.175-1.927.164-.271.015-.461-.177-.65-1.265-1.252-2.446-2.583-3.756-3.8s-2.427-2.612-3.753-3.791c-1.121-1-2.043-2.174-3.171-3.16A10.546,10.546,0,0,1,.5,67.29a2.393,2.393,0,0,1-.363-1.333A6.584,6.584,0,0,1,.948,61.2,13.368,13.368,0,0,1,2.591,59.19c2.9-2.893,5.812-5.779,8.688-8.7a6.527,6.527,0,0,1,3.853-1.911,6.579,6.579,0,0,1,5.833,1.949q4.967,4.929,9.9,9.89c.766.765,1.054.744,1.888.012a6.247,6.247,0,0,0,2.176-4.553,6.773,6.773,0,0,1,.269-1.826.441.441,0,0,0-.034-.419.462.462,0,0,1-.052-.479c.565-1.014.4-2.184.727-3.249.17-.556.275-.991-.439-1.475a13.35,13.35,0,0,1-1.384-1.517c-1.251-1.247-2.4-2.606-3.75-3.736-.678-.57-.9-1.388-1.525-1.957-.187-.171-.077-.659-.666-.582.6-.532.233-1.067.206-1.554a6.51,6.51,0,0,1,1.15-4.476,11.192,11.192,0,0,1,1.009-1.241c1.207-1.2,2.377-2.441,3.62-3.6a6.754,6.754,0,0,1,3.129-1.358,7.192,7.192,0,0,1,3.3.205,4.665,4.665,0,0,1,2.229,1.305c.533.525,1.029,1.089,1.542,1.636l.162-.083c0-.2,0-.4,0-.594,0-5.715-.046-11.431.035-17.145a5.2,5.2,0,0,1,2.311-4.255,4.809,4.809,0,0,1,1.492-.859c.336-.092.189-.336.191-.506.017-1.366,0-2.732.022-4.1A3.722,3.722,0,0,1,51.6.2,22.156,22.156,0,0,1,57.022.138,3.731,3.731,0,0,1,60.3,2.831a10.807,10.807,0,0,1,.272,2.832c-.019.756.028,1.515-.017,2.269a.737.737,0,0,0,.48.8A6.966,6.966,0,0,1,63.868,11.3a4.459,4.459,0,0,1,.6,2.229c.3,4.738.061,9.482.134,14.223.013.8,0,1.6,0,2.468.767-.313,1.485-.629,2.22-.9a14.7,14.7,0,0,1,5.461-1.034A19.085,19.085,0,0,1,81.929,30.9c.546.33,1.066.706,1.583,1.08a.611.611,0,0,0,.929-.045c2.408-2.435,4.853-4.836,7.237-7.294a6.572,6.572,0,0,1,2.671-1.911,7.1,7.1,0,0,1,6.076.6c.252.15.417.156.6-.013.8-.743,1.549-1.533,2.282-2.342a7.5,7.5,0,0,1,4.659-2.666,6.917,6.917,0,0,1,5.873,1.99,18.713,18.713,0,0,0,1.846,1.75,3.05,3.05,0,0,1,.687,1.226,7.735,7.735,0,0,1,.7,2.984,6.4,6.4,0,0,1-1.732,4.4c-1.107,1.185-2.273,2.317-3.439,3.445-.251.243-.164.379-.02.594a6.43,6.43,0,0,1,1.143,3.925,6.507,6.507,0,0,1-1.981,4.428q-7.713,7.711-15.427,15.421c-.839.837-.834.717-.264,1.979a14.921,14.921,0,0,0,3.028,4.522,12.516,12.516,0,0,0,2.515,1.9c.513.3,1.034.582,1.553.868a1.732,1.732,0,0,0,.879.256c.118,0,.262-.058.348.073.434.662,1.206.735,1.84,1.035,1.587.75,3.269,1.328,4.775,2.208a17.715,17.715,0,0,1,5.47,5.064,41.3,41.3,0,0,1,3.929,7.239,3.161,3.161,0,0,0,1.756,1.747,5.6,5.6,0,0,1,3.582,5.248c.258,6.545.064,13.092.1,19.637a6.342,6.342,0,0,1-1.5,4.715,8.014,8.014,0,0,1-1.977,1.361,7.87,7.87,0,0,1-4.057.695q-38.9,0-77.805-.007a1.542,1.542,0,0,0-1.212.5q-2.716,2.767-5.48,5.486a6.515,6.515,0,0,1-5.615,2.058,6.245,6.245,0,0,1-3.894-1.828c-1.6-1.725-3.28-3.374-4.924-5.057A3.5,3.5,0,0,0,15.816,117c-2.749.107-5.505.041-8.258.028a7.4,7.4,0,0,1-2.1-.372c-.061-.1-.045-.288-.252-.23M76.444,113a14.025,14.025,0,0,1-2.714-3.64.642.642,0,0,0-.68-.4c-1.576.01-3.156.069-4.728-.023a3.8,3.8,0,0,1-3.681-3.616c-.126-2.768-.079-5.547-.024-8.318.049-2.422,1.471-4.011,4.167-4.153,1.383-.073,2.773-.031,4.161-.014.417.006.69-.067.866-.508a4.469,4.469,0,0,1,.743-1.234.685.685,0,0,0,.012-.981c-1.4-2.067-2.8-4.131-4.157-6.223a2.338,2.338,0,0,0-2.161-1.156c-2.333.023-4.667-.018-7,.024-.6.011-.719-.184-.694-.727.043-.922.034-1.85,0-2.773-.015-.422.069-.593.535-.563.691.044,1.387-.007,2.08.018a1.316,1.316,0,0,0,1.046-.427c3.041-3.052,6.1-6.088,9.125-9.152a1.648,1.648,0,0,1,1.591-.471c.227.041.45.054.675.084a11.329,11.329,0,0,1,2.78.6A9.882,9.882,0,0,1,82.3,72.129a9.692,9.692,0,0,1,2.127,4.16c.181.78.135,1.569.277,2.331a1.212,1.212,0,0,1-.358,1.217c-2.3,2.308-4.584,4.627-6.9,6.913a.407.407,0,0,0-.067.612c.147.239.333.233.566.058.29-.217.629-.368.929-.574a12.03,12.03,0,0,1,6.815-2.06c9.772-.075,19.546-.031,29.319-.031.168,0,.336-.006.5,0,.291.011.394-.064.217-.356-.281-.462-.551-.932-.8-1.411-.511-.978-.98-1.974-1.438-2.978a11.363,11.363,0,0,0-2.255-2.879,16.667,16.667,0,0,0-5.72-3.662c-1.334-.576-2.671-1.162-4.017-1.718a16.929,16.929,0,0,1-4.513-2.677,19.1,19.1,0,0,1-6.307-10.219c-.423-1.685-.99-3.333-1.422-5.016-.219-.856-.595-1.669-.761-2.521-.324-1.653-.818-3.256-1.28-4.867-.434-1.514-.922-3.019-1.36-4.528a12.686,12.686,0,0,0-4.047-6.172A13.453,13.453,0,0,0,73.653,32.4a15.146,15.146,0,0,0-2.845.023,12.438,12.438,0,0,0-3.688,1c-1.507.693-2.949,1.525-4.415,2.306q-3.713,1.977-7.42,3.965c-2.568,1.369-5.147,2.716-7.7,4.107a48.746,48.746,0,0,0-5.364,2.961A6.073,6.073,0,0,0,39.64,51c-.121.9-.1,1.826-.3,2.708-.28,1.282-.444,2.584-.671,3.87a9.463,9.463,0,0,1-3.836,6.291c-.2.148-.324.181-.071.427q2.033,1.978,4.022,4a1.317,1.317,0,0,0,1.169.444,7.85,7.85,0,0,1,5.705,1.695c.675.5,1.395.934,2.088,1.407a4.5,4.5,0,0,0,2.776.823c1.827-.055,3.657,0,5.485-.031.464-.008.547.144.534.564-.031.987-.027,1.975,0,2.963.01.387-.063.538-.5.532-1.891-.027-3.783-.037-5.674,0a7.63,7.63,0,0,1-4.55-1.421c-1.038-.712-2.074-1.429-3.145-2.089a3.767,3.767,0,0,0-4.417.353c-.405.366-.808.738-1.176,1.139a8.861,8.861,0,0,1-3.708,2.219c-1.2.432-2.477.6-3.7.939a3.408,3.408,0,0,0-2.056,1.03,8.123,8.123,0,0,0-1.15,2.4c-.643,2-1.464,3.92-2.238,5.863-.12.3-.332.343-.658.2-.882-.384-1.784-.723-2.683-1.066-.358-.136-.5-.294-.318-.7.471-1.067.9-2.152,1.339-3.233.336-.827.34-.85-.475-1.141-2.523-.9-4.24-.566-5.642,1.957-.865,1.556-1.826,3.059-2.73,4.594a5.6,5.6,0,0,0-.9,2.443c-.1,1.522.056,3.05-.133,4.575a10.166,10.166,0,0,1-1.083,3.883,49.316,49.316,0,0,1-5.6,7.307c-1.32,1.566-1.739,3.543-.775,5.049a3.843,3.843,0,0,0,3.484,2.02c1.638-.043,3.279-.007,4.918-.014.151,0,.339.087.46-.121a6.347,6.347,0,0,1-1.056-2.343,6.2,6.2,0,0,1,.108-3.73,7.526,7.526,0,0,1,1.894-2.9q8.29-8.294,16.584-16.584a8.381,8.381,0,0,1,1.308-1.252,6.964,6.964,0,0,1,7.6-.2c.329.185.475.17.724-.086.98-1.01,1.961-2.022,2.987-2.984a6.185,6.185,0,0,1,2.584-1.621,7.135,7.135,0,0,1,5.887.669,11.911,11.911,0,0,1,2.531,2.327,6.366,6.366,0,0,1,1.847,5.349,6.872,6.872,0,0,1-1.979,4.068c-1.008,1.012-2.012,2.03-3.035,3.027-.228.221-.268.325-.07.631a6.463,6.463,0,0,1,1.117,3.989,6.754,6.754,0,0,1-2.022,4.439c-2.258,2.229-4.493,4.482-6.733,6.73-.11.11-.351.208-.267.377a.545.545,0,0,0,.526.227c.147-.006.294,0,.442,0H76.444ZM4.073,64.612a2.462,2.462,0,0,0,.822,1.976q5.3,5.348,10.623,10.672a.657.657,0,0,0,.881.114,6.3,6.3,0,0,1,2.776-.663,9.973,9.973,0,0,1,4,.905c.369.17.56.053.741-.293a6.546,6.546,0,0,1,.936-1.337,7.745,7.745,0,0,1,4.259-2.09c2.195-.531,4.517-.787,6.026-2.831.271-.367.334-.5,0-.83C29.528,64.643,23.912,59.06,18.355,53.419c-.975-.99-3.309-1.12-4.232-.1-.536.59-1.123,1.134-1.688,1.7Q8.867,58.574,5.3,62.136a3.209,3.209,0,0,0-1.227,2.476m84.745,36.282c0,3.865.007,7.73-.01,11.6,0,.411.1.52.516.517q3.529-.03,7.059,0c.417,0,.515-.114.514-.52q-.018-11.6,0-23.191c0-.411-.1-.52-.516-.517-2.332.02-4.664.025-7,0-.477-.006-.582.12-.579.586.02,3.844.012,7.688.012,11.532m20.178.053c0-3.865-.006-7.73.009-11.6,0-.4-.046-.58-.524-.575q-3.529.041-7.059,0c-.432,0-.505.137-.5.529q.016,11.6,0,23.191c0,.425.127.511.525.508,2.332-.018,4.664-.026,7,.005.493.007.572-.144.57-.594-.019-3.823-.011-7.646-.011-11.469m4.035-.051c0,3.863.007,7.726-.009,11.589,0,.4.089.529.51.522,1.743-.025,3.486-.008,5.229-.012a2.081,2.081,0,0,0,2.339-2.327q.008-9.606-.007-19.211a3.682,3.682,0,0,0-.208-1.334c-.421-1.052-1.058-1.274-2.319-1.321-1.657-.061-3.318.008-4.977-.029-.494-.011-.572.145-.57.594.019,3.842.011,7.684.011,11.526m-28.249.067c0-3.821-.007-7.642.009-11.464,0-.508-.1-.7-.636-.511-.452.162-.924.266-1.386.4a10.927,10.927,0,0,0-3.953,2.4,12.413,12.413,0,0,0-1.789,2.74,2.252,2.252,0,0,0-.318,1.353q.006,5.008,0,10.015a2.082,2.082,0,0,0,.094.742,9.907,9.907,0,0,0,2.922,4.09,10.038,10.038,0,0,0,4.466,2.116c.444.1.606.059.6-.471-.025-3.8-.013-7.6-.013-11.4m-43.2,8.056c-.025-.238-.2-.338-.332-.465-.917-.9-1.851-1.783-2.758-2.692q-4.834-4.846-9.645-9.716c-.422-.429-.655-.458-1.084-.016-1.432,1.477-2.9,2.925-4.376,4.354-.35.337-.321.5.007.828q6.365,6.328,12.7,12.69c.266.267.371.177.581-.035,1.535-1.554,3.083-3.095,4.626-4.64.1-.1.2-.211.285-.308m-25.406.005a2.79,2.79,0,0,0,.86,2.006q4.536,4.549,9.08,9.091a3.024,3.024,0,0,0,4.407-.049c.888-.894,1.776-1.789,2.7-2.649.34-.318.3-.491-.011-.789q-2.334-2.255-4.63-4.548-3.965-3.969-7.9-7.966c-.306-.311-.514-.4-.856-.045-.942.988-1.927,1.934-2.868,2.922a2.772,2.772,0,0,0-.777,2.026M36.4,88.931a2.563,2.563,0,0,0-2.335.934c-.751.763-1.519,1.509-2.285,2.257-.722.706-.721.7-.019,1.4q6.212,6.208,12.415,12.425c.23.231.337.193.539-.018.885-.925,1.8-1.826,2.683-2.749,1.485-1.543,1.392-3.242-.139-4.739-2.886-2.823-5.737-5.683-8.583-8.546a2.544,2.544,0,0,0-2.276-.964M96.9,26.4a2.516,2.516,0,0,0-2.323.944c-.845.848-1.685,1.7-2.57,2.509-.388.353-.333.536.009.875q6.346,6.307,12.659,12.648c.24.241.35.248.583,0,.911-.959,1.858-1.886,2.77-2.845a2.863,2.863,0,0,0,.028-4.314c-2.957-3.015-5.956-5.989-8.942-8.975A2.391,2.391,0,0,0,96.9,26.4m5.208,19.976c-.09-.1-.193-.23-.309-.345-1.3-1.287-2.6-2.568-3.89-3.859q-4.344-4.342-8.673-8.7c-.3-.307-.511-.345-.809-.016a11.4,11.4,0,0,1-1.2,1.2c-.422.345-.422.614-.1,1.041A18.238,18.238,0,0,1,90.1,41.9c1.126,4.161,2.28,8.315,3.422,12.472.091.329.161.585.548.195q3.883-3.911,7.789-7.8c.1-.1.238-.179.256-.387M32.326,38.352a2.364,2.364,0,0,0,.768,1.96c1.507,1.551,3.061,3.055,4.578,4.6.3.306.465.208.693-.057a7.584,7.584,0,0,1,1.594-1.42C42,42.1,44.2,41.066,46.353,39.933c.413-.217.461-.351.16-.653-2.031-2.038-4.072-4.065-6.092-6.113a3.207,3.207,0,0,0-4.13-.007c-1.025,1.1-2.128,2.125-3.165,3.211a2.515,2.515,0,0,0-.8,1.98M54.582,28.27c-1.827,0-3.654.021-5.48-.013-.515-.01-.67.106-.655.642a41.152,41.152,0,0,1-.014,4.531A3.328,3.328,0,0,0,49.682,36.8a2.936,2.936,0,0,1,.549.516c.269.324.513.286.865.1q4.5-2.437,9.033-4.826a.7.7,0,0,0,.446-.723c-.017-1.028-.025-2.057,0-3.085.012-.409-.1-.526-.516-.521-1.826.023-3.653.01-5.48.01M80.61,77.419a2.147,2.147,0,0,0-.082-.379,6.188,6.188,0,0,0-4.382-4.22,1,1,0,0,0-1.125.283c-1.435,1.476-2.9,2.922-4.357,4.379-.341.341-.688.677-1.024,1.024-.194.2-.3.385.117.45a5.383,5.383,0,0,1,3.66,2.329c.426.6.832,1.213,1.2,1.845.27.46.47.46.841.083q2.451-2.5,4.954-4.94c.221-.216.21-.432.194-.855m32.425-51.06a3.091,3.091,0,0,0-.531-1.718,13.064,13.064,0,0,0-1.623-1.718,3.112,3.112,0,0,0-3.994.187c-.935.964-1.9,1.9-2.877,2.821-.319.3-.182.457.058.694q2.348,2.326,4.672,4.676c.173.175.277.265.493.038,1-1.047,2.03-2.066,3.024-3.119a2.84,2.84,0,0,0,.778-1.861M48.3,84.884a2.235,2.235,0,0,0-1.851.682c-.985.962-1.957,1.936-2.95,2.888-.247.237-.289.386-.022.65q2.4,2.368,4.763,4.769c.167.168.268.2.45.015,1.019-1.061,2.08-2.082,3.063-3.173a2.752,2.752,0,0,0,.672-2.371c-.16-1.158-1.04-1.72-1.665-2.488a2.875,2.875,0,0,0-2.46-.974M54.517,20.2c-1.869,0-3.737.009-5.606-.008-.349,0-.467.085-.458.449q.035,1.573,0,3.148c-.008.357.1.454.454.453q5.605-.018,11.211,0c.349,0,.467-.085.459-.449-.024-1.028-.028-2.057,0-3.085.012-.412-.107-.523-.518-.519-1.847.023-3.695.01-5.542.01m-.038-4.034h4.532c1.6,0,1.66,0,1.543-1.6-.14-1.9-.76-2.348-2.331-2.409-2.619-.1-5.245-.047-7.867-.013a1.956,1.956,0,0,0-1.891,1.971c-.01.524.025,1.051-.011,1.573-.027.394.1.49.487.485,1.846-.021,3.693-.009,5.539-.009m18.2,84.725c0-1.2-.013-2.392.008-3.588.006-.356-.1-.461-.453-.453q-1.573.033-3.148,0c-.361-.008-.452.1-.45.456q.022,3.588,0,7.177c0,.355.1.461.453.453q1.573-.034,3.148,0c.36.008.457-.1.451-.456-.021-1.2-.008-2.392-.008-3.588M54.493,8.092c.546,0,1.092-.013,1.637.005.283.009.411-.051.405-.374-.019-1.09-.018-2.182,0-3.273,0-.3-.09-.392-.39-.388-1.091.016-2.183.012-3.274,0-.255,0-.376.048-.372.341q.023,1.667,0,3.336c0,.277.085.364.359.355.545-.018,1.091-.005,1.637,0" transform="translate(0 0)"/>
              <path id="Trazado_823330" data-name="Trazado 823330" d="M10.291,230.192c.207-.058.191.128.252.23-.163.01-.239-.076-.252-.23" transform="translate(-5.086 -113.768)" fill="#e5e8ed"/>
              <path id="Trazado_823331" data-name="Trazado 823331" d="M80.4,144.61H48.364c-.147,0-.294-.005-.441,0a.548.548,0,0,1-.526-.227c-.084-.169.158-.267.268-.377,2.239-2.248,4.474-4.5,6.732-6.73a6.755,6.755,0,0,0,2.022-4.439,6.46,6.46,0,0,0-1.117-3.989c-.2-.306-.157-.409.07-.631,1.023-1,2.027-2.015,3.035-3.027a6.869,6.869,0,0,0,1.979-4.068,6.366,6.366,0,0,0-1.847-5.349,11.935,11.935,0,0,0-2.531-2.327,7.136,7.136,0,0,0-5.888-.669,6.193,6.193,0,0,0-2.584,1.621c-1.026.963-2.007,1.974-2.987,2.985-.248.256-.395.271-.724.086a6.964,6.964,0,0,0-7.6.2,8.359,8.359,0,0,0-1.308,1.252q-8.293,8.29-16.584,16.584a7.53,7.53,0,0,0-1.894,2.9,6.2,6.2,0,0,0-.108,3.73,6.347,6.347,0,0,0,1.056,2.343c-.121.209-.309.121-.46.121-1.64.007-3.28-.029-4.918.014a3.844,3.844,0,0,1-3.484-2.02c-.964-1.507-.545-3.483.775-5.049a49.351,49.351,0,0,0,5.6-7.307,10.184,10.184,0,0,0,1.083-3.883c.188-1.525.036-3.054.132-4.575a5.6,5.6,0,0,1,.9-2.443c.9-1.535,1.865-3.038,2.73-4.594,1.4-2.523,3.118-2.858,5.642-1.957.814.291.811.314.475,1.141-.439,1.08-.867,2.166-1.339,3.233-.182.41-.04.568.318.7.9.343,1.8.682,2.683,1.066.326.142.538.1.658-.2.775-1.943,1.6-3.864,2.238-5.863a8.12,8.12,0,0,1,1.15-2.4,3.408,3.408,0,0,1,2.056-1.029c1.228-.338,2.5-.507,3.7-.939a8.866,8.866,0,0,0,3.708-2.219c.368-.4.771-.774,1.176-1.139a3.767,3.767,0,0,1,4.417-.353c1.07.66,2.106,1.378,3.145,2.089a7.624,7.624,0,0,0,4.55,1.421c1.891-.032,3.783-.023,5.674,0,.438.006.511-.144.5-.532-.025-.987-.03-1.976,0-2.963.014-.421-.069-.573-.534-.564-1.828.031-3.658-.024-5.485.031a4.507,4.507,0,0,1-2.776-.823c-.692-.474-1.412-.91-2.087-1.407a7.851,7.851,0,0,0-5.706-1.695,1.317,1.317,0,0,1-1.169-.444q-1.992-2.019-4.022-4c-.253-.246-.131-.279.071-.427a9.467,9.467,0,0,0,3.836-6.291c.228-1.286.391-2.589.671-3.87.193-.882.177-1.808.3-2.708a6.074,6.074,0,0,1,2.577-4.241,48.836,48.836,0,0,1,5.364-2.962c2.557-1.39,5.136-2.737,7.7-4.106q3.711-1.979,7.419-3.965c1.466-.781,2.908-1.613,4.415-2.306a12.446,12.446,0,0,1,3.688-1,15.145,15.145,0,0,1,2.845-.023,13.455,13.455,0,0,1,8.154,3.348,12.693,12.693,0,0,1,4.047,6.172c.438,1.509.926,3.014,1.359,4.528.462,1.61.956,3.213,1.28,4.867.166.851.542,1.665.762,2.521.431,1.683,1,3.331,1.422,5.016a19.1,19.1,0,0,0,6.307,10.218,16.919,16.919,0,0,0,4.512,2.678c1.347.555,2.683,1.141,4.017,1.718a16.658,16.658,0,0,1,5.72,3.662,11.364,11.364,0,0,1,2.255,2.879c.458,1,.928,2,1.438,2.978.25.479.52.949.8,1.411.178.292.073.367-.217.356-.168-.006-.336,0-.5,0-9.773,0-19.547-.044-29.319.031a12.027,12.027,0,0,0-6.815,2.06c-.3.206-.639.357-.929.574-.234.175-.42.182-.566-.058a.407.407,0,0,1,.067-.612c2.318-2.286,4.6-4.6,6.9-6.913a1.212,1.212,0,0,0,.358-1.217c-.143-.763-.1-1.552-.277-2.331a9.692,9.692,0,0,0-2.127-4.16,9.884,9.884,0,0,0-3.908-2.787,11.355,11.355,0,0,0-2.779-.6c-.225-.03-.448-.042-.675-.083a1.648,1.648,0,0,0-1.591.471c-3.028,3.064-6.084,6.1-9.124,9.152a1.317,1.317,0,0,1-1.047.427c-.693-.025-1.389.026-2.08-.018-.466-.03-.55.141-.536.563.033.924.041,1.851,0,2.773-.025.544.09.738.693.727,2.332-.042,4.666,0,7-.024a2.338,2.338,0,0,1,2.161,1.156c1.358,2.092,2.76,4.156,4.156,6.223a.685.685,0,0,1-.012.981,4.444,4.444,0,0,0-.743,1.234.759.759,0,0,1-.866.508c-1.387-.017-2.777-.059-4.161.014-2.7.143-4.118,1.732-4.166,4.154-.055,2.772-.1,5.551.023,8.318a3.8,3.8,0,0,0,3.681,3.616c1.571.092,3.151.032,4.727.023a.642.642,0,0,1,.68.4,14.027,14.027,0,0,0,2.714,3.64m5.076-62.976.088-.023c-.2-.643-.4-1.288-.606-1.93-.921-2.882-3.483-3.92-6.15-3.467a5.645,5.645,0,0,0-3.168,2c-2.182,2.325-4.5,4.519-6.764,6.773a.739.739,0,0,1-.967.212,6.418,6.418,0,0,0-1.524-.542c-.419-.084-.82-.417-1.238-.27s-.094.7-.36.978a.429.429,0,0,0-.1.158c-.217.672-.433,1.343-.642,2.017-.1.327-.016.6.336.685,1.146.261,2.236.7,3.355,1.044a2.47,2.47,0,0,1,1.79,1.855,10.01,10.01,0,0,0,.407,1.186,5.939,5.939,0,0,0,5.156,3.865c2.16.086,4.33.1,6.489,0a7.3,7.3,0,0,1,4.689,1.461c.943.663,1.919,1.279,2.872,1.928.311.212.51.268.748-.131a27.6,27.6,0,0,1,1.583-2.378c.3-.4.188-.585-.156-.811-.888-.584-1.766-1.184-2.655-1.767a1.029,1.029,0,0,1-.452-.609c-.413-1.265-.548-2.587-.858-3.872-.488-2.021-.93-4.053-1.387-6.081-.171-.758-.328-1.518-.491-2.277M64.553,120.34c0,.669-.262,1.57.069,1.946.38.43,1.3.108,1.983.128.626.018,1.47.229,1.824-.087.406-.362.11-1.22.124-1.862.016-.669.245-1.568-.092-1.946-.384-.43-1.3-.108-1.984-.128-.626-.018-1.465-.228-1.825.087-.415.363-.066,1.222-.1,1.862m36.258-10.019c-.02-.662.317-1.55-.1-1.924-.362-.327-1.236-.108-1.883-.093-.664.015-1.551-.287-1.924.124-.327.361-.108,1.236-.093,1.882.015.663-.288,1.55.124,1.924.361.327,1.236.108,1.883.093.663-.015,1.553.288,1.923-.124.322-.359.067-1.235.067-1.882M64.524,98.257c0-.546-.014-1.092.006-1.637.011-.306-.049-.442-.4-.434-1.07.025-2.141.018-3.212,0-.306,0-.443.049-.434.4.025,1.07.027,2.141,0,3.211-.01.385.14.437.471.431,1.029-.019,2.058-.033,3.086.006.449.017.516-.158.495-.537-.028-.481-.007-.965-.007-1.448M52.417,86.067c0-.525-.023-1.051.009-1.574.021-.35-.117-.413-.429-.409-1.071.017-2.142.022-3.212,0-.349-.008-.413.117-.409.43.017,1.07.022,2.141,0,3.211-.008.348.117.413.43.408,1.071-.016,2.142-.021,3.212,0,.348.008.42-.117.408-.43-.022-.545-.006-1.091-.006-1.637m8.071-7.995c0-.567-.013-1.134.006-1.7.009-.274-.074-.36-.352-.357q-1.669.023-3.338,0c-.273,0-.36.074-.357.353q.023,1.669,0,3.337c0,.274.074.36.353.357q1.669-.022,3.338,0c.274,0,.367-.073.356-.353-.02-.545-.006-1.091-.006-1.637M76.63,70c0-.567-.014-1.134.006-1.7.01-.278-.081-.357-.356-.353q-1.669.021-3.338,0c-.278,0-.357.081-.353.356q.02,1.669,0,3.338c0,.278.081.357.356.353q1.669-.021,3.338,0c.278,0,.363-.081.353-.356-.019-.545-.006-1.091-.006-1.637" transform="translate(-3.955 -31.613)" fill="#e5e8ed"/>
              <path id="Trazado_823332" data-name="Trazado 823332" d="M8.044,116.029a3.207,3.207,0,0,1,1.227-2.476q3.565-3.565,7.136-7.124c.565-.564,1.152-1.108,1.688-1.7.923-1.016,3.256-.886,4.232.1,5.557,5.641,11.173,11.224,16.782,16.815.333.332.27.464,0,.831-1.509,2.043-3.831,2.3-6.026,2.83a7.747,7.747,0,0,0-4.26,2.091,6.53,6.53,0,0,0-.936,1.337c-.181.346-.372.464-.741.293a9.983,9.983,0,0,0-4-.905,6.307,6.307,0,0,0-2.776.663.657.657,0,0,1-.882-.114q-5.308-5.339-10.623-10.672a2.462,2.462,0,0,1-.822-1.976m21.5,1.379a4.259,4.259,0,0,0-.29-.371c-.663-.672-1.349-1.322-1.991-2.013-.372-.4-.629-.316-.972.031q-3.65,3.691-7.329,7.355c-.228.226-.207.317.012.523.746.706,1.479,1.426,2.191,2.168.263.274.436.3.713.025q3.706-3.725,7.428-7.434c.084-.084.153-.183.238-.285M15.491,119.3c.21-.024.332-.216.473-.358q3.613-3.6,7.217-7.209c.277-.276.319-.473.018-.761-.667-.639-1.325-1.288-1.951-1.966-.376-.407-.639-.379-1.02.008q-3.554,3.614-7.151,7.187c-.316.314-.338.5-.013.8.7.661,1.375,1.354,2.059,2.035.1.1.181.236.367.262" transform="translate(-3.971 -51.417)" fill="#fee9a6"/>
              <path id="Trazado_823333" data-name="Trazado 823333" d="M175.607,187.654c0-3.844.009-7.688-.012-11.532,0-.466.1-.591.579-.585,2.332.028,4.665.023,7,0,.412,0,.517.106.516.517q-.019,11.6,0,23.191c0,.406-.1.523-.514.519q-3.53-.031-7.06,0c-.412,0-.518-.107-.516-.517.016-3.865.01-7.73.01-11.6" transform="translate(-86.789 -86.76)" fill="#fee9a6"/>
              <path id="Trazado_823334" data-name="Trazado 823334" d="M207.617,187.707c0,3.823-.008,7.646.011,11.469,0,.45-.077.6-.57.594-2.332-.03-4.664-.023-7,0-.4,0-.526-.082-.525-.508q.021-11.6,0-23.191c0-.391.072-.533.5-.529q3.529.035,7.059,0c.478-.006.525.17.524.575-.014,3.865-.009,7.73-.009,11.6" transform="translate(-98.622 -86.76)" fill="#fee9a6"/>
              <path id="Trazado_823335" data-name="Trazado 823335" d="M223.485,187.655c0-3.842.008-7.684-.011-11.526,0-.45.076-.6.57-.594,1.658.036,3.319-.032,4.976.029,1.261.046,1.9.268,2.319,1.32a3.672,3.672,0,0,1,.208,1.334q.02,9.6.007,19.21a2.08,2.08,0,0,1-2.338,2.327c-1.743,0-3.486-.014-5.229.012-.421.006-.512-.121-.511-.522.015-3.863.009-7.726.009-11.589" transform="translate(-110.453 -86.759)" fill="#fee9a6"/>
              <path id="Trazado_823336" data-name="Trazado 823336" d="M159.748,187.858c0,3.8-.012,7.6.014,11.4,0,.531-.159.566-.6.471a10.036,10.036,0,0,1-4.466-2.116,9.9,9.9,0,0,1-2.922-4.09,2.07,2.07,0,0,1-.093-.742q0-5.007,0-10.015a2.253,2.253,0,0,1,.318-1.353,12.4,12.4,0,0,1,1.789-2.739,10.932,10.932,0,0,1,3.953-2.4c.463-.13.935-.234,1.386-.4.533-.192.638,0,.636.511-.016,3.821-.009,7.642-.009,11.464" transform="translate(-74.966 -86.896)" fill="#fee9a6"/>
              <path id="Trazado_823337" data-name="Trazado 823337" d="M64.187,202.653c-.089.1-.183.206-.285.308-1.543,1.546-3.091,3.087-4.626,4.64-.21.212-.315.3-.581.035q-6.332-6.361-12.7-12.69c-.327-.326-.357-.491-.007-.828q2.221-2.144,4.377-4.354c.429-.443.662-.414,1.084.016q4.8,4.882,9.645,9.716c.907.909,1.84,1.793,2.758,2.692.13.127.306.228.332.465" transform="translate(-22.608 -93.634)" fill="#68d5f3"/>
              <path id="Trazado_823338" data-name="Trazado 823338" d="M31.978,210.509a2.774,2.774,0,0,1,.777-2.026c.941-.988,1.926-1.934,2.868-2.922.342-.359.549-.267.856.044q3.937,4,7.9,7.967,2.294,2.3,4.63,4.548c.309.3.35.471.011.788-.92.86-1.809,1.755-2.7,2.649a3.024,3.024,0,0,1-4.407.049q-4.537-4.548-9.08-9.091a2.79,2.79,0,0,1-.86-2.006" transform="translate(-15.805 -101.485)" fill="#68d5f3"/>
              <path id="Trazado_823339" data-name="Trazado 823339" d="M66.921,175.809a2.544,2.544,0,0,1,2.276.964c2.846,2.864,5.7,5.724,8.583,8.546,1.53,1.5,1.623,3.2.139,4.739-.888.922-1.8,1.824-2.683,2.749-.2.211-.31.249-.539.018Q68.5,186.6,62.282,180.4c-.7-.7-.7-.7.019-1.4.766-.748,1.534-1.494,2.285-2.257a2.563,2.563,0,0,1,2.335-.934" transform="translate(-30.524 -86.878)" fill="#68d5f3"/>
              <path id="Trazado_823340" data-name="Trazado 823340" d="M186.559,52.166a2.39,2.39,0,0,1,2.214.846c2.986,2.986,5.985,5.96,8.942,8.975a2.863,2.863,0,0,1-.029,4.314c-.912.959-1.859,1.885-2.77,2.845-.232.244-.342.238-.582,0q-6.315-6.339-12.659-12.649c-.341-.339-.4-.522-.009-.875.886-.805,1.725-1.661,2.57-2.509a2.517,2.517,0,0,1,2.323-.944" transform="translate(-89.656 -25.764)" fill="#68d5f3"/>
              <path id="Trazado_823341" data-name="Trazado 823341" d="M187.039,78.854c-.019.208-.156.286-.257.387q-3.9,3.9-7.789,7.8c-.387.39-.458.135-.548-.195-1.142-4.157-2.3-8.311-3.421-12.472a18.249,18.249,0,0,0-2.968-6.193c-.318-.427-.318-.7.1-1.041a11.455,11.455,0,0,0,1.2-1.2c.3-.329.5-.291.809.016q4.323,4.362,8.673,8.7c1.292,1.291,2.594,2.572,3.89,3.859.115.115.218.244.309.345" transform="translate(-84.927 -32.475)" fill="#68d5f3"/>
              <path id="Trazado_823342" data-name="Trazado 823342" d="M63.9,70.026a2.515,2.515,0,0,1,.8-1.98c1.038-1.087,2.141-2.113,3.165-3.211a3.208,3.208,0,0,1,4.13.007c2.02,2.048,4.061,4.076,6.092,6.113.3.3.253.435-.16.653-2.149,1.132-4.355,2.163-6.395,3.5a7.57,7.57,0,0,0-1.594,1.42c-.228.265-.391.363-.693.056-1.517-1.541-3.071-3.045-4.578-4.6a2.364,2.364,0,0,1-.768-1.96" transform="translate(-31.576 -31.674)" fill="#fbd66e"/>
              <path id="Trazado_823343" data-name="Trazado 823343" d="M101.886,55.885c1.827,0,3.653.013,5.48-.01.416-.005.528.113.516.521-.029,1.028-.02,2.057,0,3.085a.7.7,0,0,1-.446.723Q102.9,62.593,98.4,65.03c-.352.191-.6.229-.866-.1a2.949,2.949,0,0,0-.549-.516,3.329,3.329,0,0,1-1.249-3.374,41.278,41.278,0,0,0,.015-4.531c-.015-.537.14-.652.655-.642,1.826.034,3.653.013,5.48.013" transform="translate(-47.304 -27.615)" fill="#68d5f3"/>
              <path id="Trazado_823344" data-name="Trazado 823344" d="M148.5,148.522c.016.422.027.638-.194.855q-2.5,2.449-4.954,4.94c-.37.377-.57.376-.841-.083-.372-.633-.778-1.247-1.2-1.845a5.385,5.385,0,0,0-3.66-2.33c-.415-.064-.312-.249-.117-.45.336-.347.683-.683,1.025-1.025,1.455-1.457,2.921-2.9,4.356-4.379a1,1,0,0,1,1.125-.283,6.187,6.187,0,0,1,4.382,4.22,2.162,2.162,0,0,1,.082.38" transform="translate(-67.893 -71.103)" fill="#fbd66e"/>
              <path id="Trazado_823345" data-name="Trazado 823345" d="M214.5,48.141A2.838,2.838,0,0,1,213.723,50c-.994,1.053-2.023,2.072-3.024,3.119-.216.227-.32.137-.494-.038q-2.326-2.347-4.672-4.676c-.239-.237-.377-.393-.058-.694.976-.922,1.943-1.857,2.877-2.821a3.112,3.112,0,0,1,3.994-.187,13.03,13.03,0,0,1,1.623,1.718,3.087,3.087,0,0,1,.531,1.718" transform="translate(-101.466 -21.783)" fill="#68d5f3"/>
              <path id="Trazado_823346" data-name="Trazado 823346" d="M90.6,167.825a2.874,2.874,0,0,1,2.459.974c.625.768,1.505,1.33,1.665,2.487a2.754,2.754,0,0,1-.672,2.371c-.984,1.091-2.045,2.113-3.063,3.173-.182.189-.283.153-.45-.016q-2.372-2.394-4.763-4.769c-.267-.264-.226-.413.022-.65.993-.953,1.966-1.926,2.951-2.888a2.234,2.234,0,0,1,1.851-.682" transform="translate(-42.307 -82.941)" fill="#68d5f3"/>
              <path id="Trazado_823347" data-name="Trazado 823347" d="M101.87,39.933c1.847,0,3.695.013,5.542-.01.412-.005.531.106.519.519-.03,1.028-.025,2.057,0,3.085.009.363-.11.449-.458.448q-5.606-.017-11.211,0c-.356,0-.462-.1-.454-.453q.033-1.573,0-3.148c-.008-.363.109-.452.458-.449,1.869.016,3.737.008,5.606.008" transform="translate(-47.353 -19.733)" fill="#68d5f3"/>
              <path id="Trazado_823348" data-name="Trazado 823348" d="M101.829,27.993c-1.846,0-3.693-.012-5.539.01-.386,0-.515-.091-.488-.486.036-.522,0-1.048.011-1.572a1.955,1.955,0,0,1,1.892-1.971c2.622-.034,5.248-.09,7.867.013,1.572.061,2.191.51,2.331,2.409.117,1.593.059,1.6-1.543,1.6h-4.532" transform="translate(-47.349 -11.827)" fill="#68d5f3"/>
              <path id="Trazado_823349" data-name="Trazado 823349" d="M139.749,195.542c0,1.2-.013,2.392.008,3.588.006.352-.091.464-.451.456q-1.573-.035-3.148,0c-.357.008-.455-.1-.453-.454q.023-3.587,0-7.176c0-.352.09-.464.45-.456q1.573.035,3.148,0c.357-.008.46.1.454.454-.021,1.2-.008,2.392-.008,3.588" transform="translate(-67.073 -94.65)" fill="#fbd66e"/>
              <path id="Trazado_823350" data-name="Trazado 823350" d="M105.8,12.061c-.546,0-1.092-.013-1.637.006-.274.009-.363-.078-.359-.355q.02-1.668,0-3.336c0-.292.117-.343.372-.341,1.091.011,2.183.014,3.274,0,.3-.005.395.084.39.387-.016,1.091-.018,2.183,0,3.273.006.323-.122.383-.405.374-.545-.018-1.091-.006-1.637-.006" transform="translate(-51.305 -3.97)" fill="#68d5f3"/>
              <path id="Trazado_823351" data-name="Trazado 823351" d="M140.209,93.508c.163.759.32,1.519.491,2.277.457,2.029.9,4.06,1.387,6.081.31,1.285.446,2.607.859,3.872a1.025,1.025,0,0,0,.452.609c.889.583,1.766,1.183,2.654,1.767.344.226.453.416.156.811a27.6,27.6,0,0,0-1.583,2.377c-.239.4-.438.343-.749.131-.953-.649-1.929-1.265-2.872-1.928a7.31,7.31,0,0,0-4.689-1.461c-2.159.1-4.329.09-6.489,0a5.941,5.941,0,0,1-5.156-3.865,10,10,0,0,1-.407-1.186,2.469,2.469,0,0,0-1.79-1.855c-1.118-.347-2.209-.783-3.355-1.044-.351-.08-.437-.358-.336-.685.209-.674.425-1.346.642-2.017a.43.43,0,0,1,.1-.158c.266-.281-.063-.829.36-.978s.819.186,1.239.27a6.424,6.424,0,0,1,1.523.542.738.738,0,0,0,.967-.212c2.26-2.254,4.582-4.448,6.764-6.773a5.644,5.644,0,0,1,3.168-2c2.667-.453,5.228.585,6.15,3.467.205.643.4,1.287.606,1.93l-.088.023M137.827,104.1c.654.167.658-.229.561-.665q-1.127-5.083-2.269-10.161a1.4,1.4,0,0,0-2.512-.731c-2.189,2.147-4.352,4.321-6.527,6.481-.18.179-.3.358-.111.6a10.031,10.031,0,0,1,1.362,3.019,1.908,1.908,0,0,0,1.963,1.376c2.514.029,5.03-.058,7.532.082" transform="translate(-58.689 -43.488)"/>
              <path id="Trazado_823352" data-name="Trazado 823352" d="M119.716,173.438c.033-.64-.316-1.5.1-1.862.36-.315,1.2-.105,1.825-.087.684.02,1.6-.3,1.984.128.336.377.107,1.277.092,1.946-.015.642.281,1.5-.124,1.862-.355.316-1.2.106-1.824.087-.684-.02-1.6.3-1.983-.128-.332-.375-.069-1.277-.069-1.945" transform="translate(-59.118 -84.711)"/>
              <path id="Trazado_823353" data-name="Trazado 823353" d="M187.515,153.565c0,.647.255,1.523-.067,1.882-.37.413-1.26.11-1.923.125-.647.015-1.522.234-1.883-.093-.412-.374-.109-1.261-.124-1.924-.015-.647-.234-1.522.093-1.882.374-.412,1.261-.11,1.924-.124.647-.015,1.521-.234,1.883.093.414.374.077,1.261.1,1.924" transform="translate(-90.659 -74.858)"/>
              <path id="Trazado_823354" data-name="Trazado 823354" d="M115.808,129.749c0,.484-.021.967.007,1.448.022.379-.046.553-.495.537-1.028-.038-2.057-.024-3.086-.005-.331.006-.481-.046-.471-.432.028-1.07.026-2.141,0-3.211-.009-.355.128-.409.434-.4,1.071.015,2.142.022,3.212,0,.356-.009.415.127.4.433-.02.546-.006,1.092-.006,1.637" transform="translate(-55.24 -63.106)"/>
              <path id="Trazado_823355" data-name="Trazado 823355" d="M91.871,105.731c0,.546-.016,1.092.006,1.637.013.313-.06.437-.408.43-1.07-.024-2.141-.019-3.212,0-.313.005-.438-.06-.43-.408.024-1.07.019-2.141,0-3.211-.005-.313.06-.437.408-.43,1.07.024,2.142.019,3.212,0,.313,0,.45.059.429.409-.031.523-.008,1.049-.008,1.574" transform="translate(-43.409 -51.277)"/>
              <path id="Trazado_823356" data-name="Trazado 823356" d="M107.832,89.853c0,.546-.014,1.092.006,1.637.01.279-.082.356-.356.353q-1.669-.021-3.338,0c-.279,0-.356-.083-.353-.356q.02-1.669,0-3.338c0-.279.083-.356.357-.353q1.669.021,3.338,0c.279,0,.361.082.352.356-.019.566-.006,1.133-.006,1.7" transform="translate(-51.299 -43.394)"/>
              <path id="Trazado_823357" data-name="Trazado 823357" d="M139.75,73.895c0,.546-.014,1.092.006,1.637.01.275-.075.36-.353.356q-1.669-.022-3.338,0c-.274,0-.359-.075-.356-.353q.022-1.669,0-3.338c0-.274.075-.359.353-.356q1.669.022,3.338,0c.275,0,.365.075.356.353-.02.566-.006,1.133-.006,1.7" transform="translate(-67.075 -35.508)"/>
              <path id="Trazado_823358" data-name="Trazado 823358" d="M40.072,127.894c-.085.1-.154.2-.238.285q-3.715,3.716-7.428,7.434c-.277.278-.451.249-.714-.025-.711-.741-1.444-1.463-2.191-2.168-.218-.206-.239-.3-.012-.523q3.68-3.663,7.33-7.355c.343-.347.6-.432.972-.031.642.691,1.328,1.341,1.991,2.013a4.171,4.171,0,0,1,.29.371" transform="translate(-14.496 -61.903)"/>
              <path id="Trazado_823359" data-name="Trazado 823359" d="M20.179,123.878c-.186-.027-.264-.16-.367-.262-.684-.681-1.356-1.375-2.059-2.035-.325-.3-.3-.489.013-.8q3.6-3.572,7.151-7.187c.38-.387.644-.415,1.02-.008.626.678,1.285,1.328,1.951,1.966.3.288.259.485-.018.761q-3.616,3.6-7.217,7.209c-.142.141-.263.333-.473.358" transform="translate(-8.659 -55.994)"/>
              <path id="Trazado_823360" data-name="Trazado 823360" d="M145.777,108.017c-2.5-.14-5.018-.053-7.532-.082a1.908,1.908,0,0,1-1.963-1.376,10.032,10.032,0,0,0-1.362-3.019c-.185-.242-.069-.421.111-.6,2.175-2.161,4.338-4.334,6.527-6.481a1.4,1.4,0,0,1,2.512.731q1.148,5.077,2.269,10.161c.1.436.093.832-.561.665" transform="translate(-66.638 -47.405)" fill="#fbd66e"/>
            </g>
          </g>
        </g>
      </g>
      <g id="Grupo_1073739" data-name="Grupo 1073739" transform="translate(666.168 5018.199)">
        <g id="Grupo_1073720" data-name="Grupo 1073720" transform="translate(115.986 0)" style="mix-blend-mode: multiply;isolation: isolate">
          <g id="Grupo_1073719" data-name="Grupo 1073719">
            <g id="Grupo_1073718" data-name="Grupo 1073718" clip-path="url(#clip-path-9)">
              <g id="Grupo_1073717" data-name="Grupo 1073717" transform="translate(0 0)">
                <g id="Grupo_1073716" data-name="Grupo 1073716" clip-path="url(#clip-path-10)">
                  <rect id="Rectángulo_377868" data-name="Rectángulo 377868" width="26.649" height="192.317" transform="translate(0 0)" fill="url(#radial-gradient-4)"/>
                </g>
              </g>
            </g>
          </g>
        </g>
        <text id="Mezcla_de_residuo" data-name="Mezcla
de residuo" transform="translate(164.833 86.611)" fill="#12263f" font-size="20" font-family="Roboto-Black, Roboto" font-weight="800"><tspan x="0" y="0">Mezcla</tspan><tspan x="0" y="27">de residuo</tspan></text>
        <g id="Enmascarar_grupo_380" data-name="Enmascarar grupo 380" transform="translate(0 24.916)" clip-path="url(#clip-path-11)">
          <g id="Grupo_1073731" data-name="Grupo 1073731" transform="translate(13.11 13.11)">
            <g id="Grupo_1073730" data-name="Grupo 1073730" transform="translate(0 0)" clip-path="url(#clip-path-12)">
              <path id="Trazado_823263" data-name="Trazado 823263" d="M.01,71.8c0-11.26-.034-22.52.033-33.779a8.007,8.007,0,0,1,2.215-5.135A12.841,12.841,0,0,1,3.484,31.67c.26-.23.232-.35-.02-.553A9.58,9.58,0,0,1,.176,25.676,8.617,8.617,0,0,1,0,23.653c.012-5.137-.032-10.274.032-15.41A7.462,7.462,0,0,1,1.343,4.417,9.312,9.312,0,0,1,5.024.986,9,9,0,0,1,8.093.1,25.439,25.439,0,0,1,11.138.013Q30.09,0,49.043.02a10.652,10.652,0,0,1,5.347,1.241,8.724,8.724,0,0,1,2.332,2.027c.287.333.424.523.807.024A8.7,8.7,0,0,1,63.135.138,12.605,12.605,0,0,1,65.393,0Q84.931.015,104.47.017a10.006,10.006,0,0,1,3.062.267,9.392,9.392,0,0,1,3.969,2.3,10.553,10.553,0,0,1,2.323,3.7,8.631,8.631,0,0,1,.414,2.668c.244,4.866.066,9.735.09,14.6a9.358,9.358,0,0,1-1.347,5.181,10.022,10.022,0,0,1-2.08,2.38c-.268.22-.237.318.006.526A9.369,9.369,0,0,1,114.1,37a3.531,3.531,0,0,1,.072,1.787c-.09.292.188.581.188.927q-.022,32.44-.024,64.88a9.37,9.37,0,0,1-1.788,5.964,8.8,8.8,0,0,1-5.836,3.586,24.022,24.022,0,0,1-3.364.216q-19.064-.005-38.128.009a10.869,10.869,0,0,1-3.652-.509,8.233,8.233,0,0,1-3.922-2.75c-.418-.547-.47-.536-.912-.013a9.012,9.012,0,0,1-4.983,3,10.742,10.742,0,0,1-2.4.251q-20.1.018-40.194.008A8.921,8.921,0,0,1,3.8,112.574a9.177,9.177,0,0,1-3.669-5.907,11.874,11.874,0,0,1-.13-2.257q.009-16.3,0-32.608M66.435,11.139H66.4l.03.021c-.012.2-.035.406-.035.609q0,7.814,0,15.628a8.756,8.756,0,0,1-.025,1.5c-.09.508.071.6.532.6q17.578-.014,35.156-.008c1.23,0,1.242,0,1.244-1.234.009-5.563.007-11.125.024-16.687,0-.411-.106-.531-.53-.531q-17.885.023-35.77.022c-.2,0-.41-.062-.592.08m44.231,60.784h0q0-16.33,0-32.66a7.781,7.781,0,0,0-.2-1.92,5.5,5.5,0,0,0-5.532-4.143q-20.095,0-40.19,0a6.364,6.364,0,0,0-1.493.16A5.587,5.587,0,0,0,58.991,39.2c.03,1.358.009,2.717.011,4.076s0,2.717,0,4.075V75.819c0,1.358-.045,2.719.013,4.075.056,1.323-.052,2.641-.04,3.964.059,6.718.026,13.436.03,20.154,0,.558.03,1.116.059,1.673a4.632,4.632,0,0,0,.61,2.067,5.517,5.517,0,0,0,5.185,2.923q12.7-.027,25.4-.009,7.4,0,14.792,0a5.421,5.421,0,0,0,4.72-2.491,5.879,5.879,0,0,0,.891-3.42q.015-16.414.006-32.828m-106.973.05H3.7q0,16.777.007,33.554a4.888,4.888,0,0,0,.911,2.659,5.465,5.465,0,0,0,4.94,2.487q20.236-.02,40.471-.01a3.781,3.781,0,0,0,1.086-.161,4.805,4.805,0,0,0,2.224-1.2,9.778,9.778,0,0,0,1.146-1.21,6.472,6.472,0,0,0,.875-3.85q0-32.355,0-64.709a11.654,11.654,0,0,0-.06-1.444,5.544,5.544,0,0,0-4.139-4.718,12.637,12.637,0,0,0-3-.166Q28.847,33.2,9.532,33.2a5.638,5.638,0,0,0-4.377,1.788A5.26,5.26,0,0,0,3.7,38.642q-.01,16.666,0,33.331M29.5,11.056c-5.917,0-11.834.009-17.75-.015-.56,0-.71.125-.708.693.022,5.657.013,11.315.014,16.972,0,.784,0,.783.8.783H46.96c.984,0,.983,0,.983-1.012q0-8.318,0-16.637c0-.806.192-.783-.753-.784q-8.847-.006-17.695,0M84.777,7.373H102.8a5.468,5.468,0,0,1,1.794.271,3.857,3.857,0,0,1,2.367,3.534q.021,7.173,0,14.347a21.563,21.563,0,0,1-.069,3.218c-.03.2.035.512.405.3a10.139,10.139,0,0,0,1.041-.577,5.321,5.321,0,0,0,2.316-4.463q.032-7.313,0-14.626a6.319,6.319,0,0,0-.2-1.582,5.435,5.435,0,0,0-5.376-4.094q-20.26-.007-40.52,0a5.408,5.408,0,0,0-1.487.19A5.553,5.553,0,0,0,59,9.492c-.017,2.94-.005,5.88,0,8.82q.009,3.014.044,6.028a5,5,0,0,0,.907,2.711,5.669,5.669,0,0,0,2.145,1.9c.2.1.47.265.538-.115a7.226,7.226,0,0,0,.1-1.26q.017-8.345.016-16.691a3.337,3.337,0,0,1,1.1-2.456,3.809,3.809,0,0,1,2.779-1.051q9.07-.008,18.139,0M29.508,3.7H9.416a6.708,6.708,0,0,0-1.643.187A5.57,5.57,0,0,0,3.684,9.385c.03,4.819.019,9.638.005,14.458a5.537,5.537,0,0,0,2.685,4.869c.259.172.564.46.836.285.24-.155.2-.555.2-.872Q7.4,22.4,7.4,16.681c0-1.842-.017-3.685.009-5.526A3.6,3.6,0,0,1,9.926,7.588a6.045,6.045,0,0,1,1.912-.219q12.418,0,24.837,0c3.7,0,7.4-.01,11.107.011a3.706,3.706,0,0,1,3.756,2.872,5.654,5.654,0,0,1,.1,1.387c-.018,5.618.068,11.236-.042,16.854-.013.643.07.693.638.406a6.258,6.258,0,0,0,.761-.423,5.563,5.563,0,0,0,2.364-4.892q.009-6.978,0-13.956a6.747,6.747,0,0,0-.353-2.289,5.476,5.476,0,0,0-5.293-3.634q-10.1-.006-20.2,0M58.995,31.38l-.118-.135a20.091,20.091,0,0,1-1.544-1.664c-.131-.19-.253-.058-.348.067A10.866,10.866,0,0,1,55.4,31.236c-.125.109-.179.147,0,.27a6.551,6.551,0,0,1,1.593,1.581c.148.205.229.211.4.007a7.526,7.526,0,0,1,1.435-1.5.9.9,0,0,0,.167-.215" transform="translate(0.334 0.499)"/>
              <path id="Trazado_823264" data-name="Trazado 823264" d="M183.326,112.826q0,16.414-.006,32.827a5.879,5.879,0,0,1-.892,3.42,5.419,5.419,0,0,1-4.72,2.492q-7.4.011-14.792,0-12.7,0-25.4.009a5.515,5.515,0,0,1-5.185-2.923,4.63,4.63,0,0,1-.61-2.067c-.029-.557-.059-1.115-.059-1.673,0-6.718.029-13.436-.03-20.154-.012-1.323.1-2.64.04-3.964-.058-1.356-.013-2.717-.013-4.075V88.249q0-2.038,0-4.076c0-1.358.019-2.718-.011-4.076a5.587,5.587,0,0,1,4.265-5.836,6.386,6.386,0,0,1,1.493-.16q20.095,0,40.19,0a5.5,5.5,0,0,1,5.532,4.143,7.828,7.828,0,0,1,.2,1.92q-.008,16.33,0,32.66Zm-5.539,12.391-.173-.086q-1.418,1.452-2.836,2.9a4.529,4.529,0,0,1-3.619,1.4,5.165,5.165,0,0,1-3.457-1.593c-.81-.847-1.659-1.656-2.48-2.493-.244-.248-.429-.3-.683-.005-.33.378-.7.724-1.055,1.076-.112.11-.193.342-.38.26-.171-.076-.089-.3-.089-.454q-.005-11.332,0-22.664a2.058,2.058,0,0,1,.137-1.042c.473.5.918.918,1.306,1.386.328.4.557.341.888,0,.908-.933,1.81-1.878,2.781-2.742a4.976,4.976,0,0,1,6.68.208c.817.866,1.658,1.709,2.5,2.553.108.108.186.337.378.266s.108-.289.108-.447c0-.837-.034-1.675-.014-2.512a17.759,17.759,0,0,0-.414-4.789A14.8,14.8,0,0,0,164.135,85.23c-1.357-.105-2.715-.059-4.072-.059-.742,0-.745.008-.746-.7,0-2.066-.01-4.131,0-6.2,0-.353-.085-.508-.461-.5q-1.339.03-2.679.008c-.411-.008-.541.141-.536.556q.036,2.651.011,5.3c0,.479.216,1.091-.076,1.405-.324.349-.953.106-1.446.1a19.578,19.578,0,0,0-6.076.566c-5.92,1.891-9.54,5.855-10.643,12.016a43.7,43.7,0,0,0-.184,6.348c0,.026.041.055.2.25.87-.935,1.739-1.823,2.555-2.755a5.038,5.038,0,0,1,7.266-.1c.817.815,1.657,1.607,2.439,2.454.36.39.588.326.893-.016.321-.36.668-.7,1.007-1.043.085-.086.151-.252.3-.179s.072.23.087.352a1.767,1.767,0,0,1,0,.223l0,21.046c0,.688-.006,1.376,0,2.065,0,.137,0,.278-.143.33s-.144-.125-.213-.192c-.386-.377-.773-.753-1.138-1.15-.256-.279-.433-.3-.719,0-.862.9-1.752,1.773-2.648,2.639a5.19,5.19,0,0,1-3.527,1.432,4.343,4.343,0,0,1-3.25-1.307q-1.328-1.316-2.661-2.626c-.1-.1-.195-.246-.373-.164s-.083.227-.083.345c0,1.321,0,2.642.01,3.964a13.973,13.973,0,0,0,2.446,7.9,14.411,14.411,0,0,0,12.013,6.641c3.83.107,7.665.023,11.5.022a13.053,13.053,0,0,0,3.515-.493,14.665,14.665,0,0,0,8.716-6.327,15.076,15.076,0,0,0,1.98-4.684c.6-2.477.267-4.995.383-7.493" transform="translate(-72.326 -40.404)" fill="#b3dd7e"/>
              <path id="Trazado_823265" data-name="Trazado 823265" d="M8.244,112.874q0-16.666,0-33.331a5.258,5.258,0,0,1,1.459-3.657A5.637,5.637,0,0,1,14.083,74.1q19.314.011,38.629.012a12.662,12.662,0,0,1,3,.166,5.545,5.545,0,0,1,4.139,4.718,11.646,11.646,0,0,1,.06,1.444q0,32.355,0,64.71A6.475,6.475,0,0,1,59.036,149a9.649,9.649,0,0,1-1.146,1.21,4.8,4.8,0,0,1-2.224,1.2,3.78,3.78,0,0,1-1.086.16q-20.235,0-40.471.01a5.464,5.464,0,0,1-4.94-2.486,4.887,4.887,0,0,1-.911-2.66q-.015-16.777-.006-33.554ZM19.309,118.3H19.3q0,9.964,0,19.928a5.966,5.966,0,0,0,.853,3.276,5.07,5.07,0,0,0,4.207,2.657c6.342.095,12.687.075,19.03.028a5.406,5.406,0,0,0,4.457-2.421,6.721,6.721,0,0,0,.954-4.2Q48.8,118,48.8,98.435a9.321,9.321,0,0,0-.206-2.259A8.956,8.956,0,0,0,42,89.243c-.456-.128-.622-.309-.6-.8.04-1.189.047-2.382.006-3.571a3.642,3.642,0,0,0-2.982-3.305,13.788,13.788,0,0,0-1.932-.112c-2.058.027-4.115-.041-6.176.076a3.629,3.629,0,0,0-3.562,3.244c-.126,1.263-.009,2.529-.025,3.793,0,.363-.088.565-.5.641A7.548,7.548,0,0,0,23.084,90.7a8.58,8.58,0,0,0-3.736,6.839c-.121,6.92-.039,13.842-.039,20.764" transform="translate(-4.217 -40.402)" fill="#b3dd7e"/>
              <path id="Trazado_823266" data-name="Trazado 823266" d="M148.179,24.737c.181-.142.395-.08.592-.08q17.885-.01,35.77-.022c.425,0,.531.12.53.531-.017,5.563-.014,11.125-.024,16.687,0,1.234-.014,1.234-1.244,1.234q-17.578,0-35.156.008c-.461,0-.621-.091-.532-.6a8.757,8.757,0,0,0,.025-1.5q0-7.814,0-15.628c0-.2.023-.406.035-.608l0-.02" transform="translate(-81.411 -13.099)" fill="#cbd0d9"/>
              <path id="Trazado_823267" data-name="Trazado 823267" d="M43.1,24.659q8.847,0,17.695,0c.944,0,.753-.023.753.784q0,8.319,0,16.637c0,1.012,0,1.012-.983,1.012H25.453c-.793,0-.8,0-.8-.783,0-5.658.008-11.315-.014-16.972,0-.568.147-.695.707-.693,5.917.023,11.834.014,17.751.013" transform="translate(-13.269 -13.105)" fill="#cbd0d9"/>
              <path id="Trazado_823268" data-name="Trazado 823268" d="M157.46,11.935q-9.07,0-18.139,0a3.808,3.808,0,0,0-2.779,1.051,3.339,3.339,0,0,0-1.1,2.456q0,8.346-.016,16.691a7.227,7.227,0,0,1-.1,1.26c-.069.38-.339.22-.538.115a5.678,5.678,0,0,1-2.145-1.9,5,5,0,0,1-.907-2.711q-.038-3.013-.044-6.028c-.009-2.94-.02-5.88,0-8.82a5.553,5.553,0,0,1,4.074-5.6,5.408,5.408,0,0,1,1.487-.19q20.26,0,40.52,0a5.435,5.435,0,0,1,5.376,4.094,6.317,6.317,0,0,1,.2,1.582q.02,7.313,0,14.626a5.323,5.323,0,0,1-2.316,4.463,10.216,10.216,0,0,1-1.04.577c-.371.208-.435-.106-.4-.3a21.632,21.632,0,0,0,.069-3.218q.023-7.173,0-14.346a3.858,3.858,0,0,0-2.367-3.534,5.468,5.468,0,0,0-1.794-.271q-9.014,0-18.028,0" transform="translate(-72.348 -4.062)" fill="#b3dd7e"/>
              <path id="Trazado_823269" data-name="Trazado 823269" d="M34.047,8.266q10.1,0,20.2,0A5.476,5.476,0,0,1,59.545,11.9a6.747,6.747,0,0,1,.353,2.289q0,6.978,0,13.956a5.563,5.563,0,0,1-2.364,4.892,6.2,6.2,0,0,1-.761.423c-.568.287-.651.237-.638-.406.11-5.618.024-11.236.042-16.854a5.659,5.659,0,0,0-.1-1.387,3.707,3.707,0,0,0-3.756-2.872c-3.7-.02-7.4-.01-11.107-.011q-12.418,0-24.837,0a6.033,6.033,0,0,0-1.912.219,3.6,3.6,0,0,0-2.515,3.567c-.026,1.842-.009,3.684-.009,5.526q0,5.722.008,11.444c0,.317.039.718-.2.872-.271.175-.577-.113-.836-.286A5.536,5.536,0,0,1,8.228,28.4c.013-4.819.025-9.639-.005-14.458a5.57,5.57,0,0,1,4.089-5.494,6.68,6.68,0,0,1,1.642-.187H34.047" transform="translate(-4.205 -4.063)" fill="#b3dd7e"/>
              <path id="Trazado_823270" data-name="Trazado 823270" d="M127.108,67.708a.9.9,0,0,1-.167.215,7.526,7.526,0,0,0-1.435,1.5c-.173.2-.254.2-.4-.007a6.551,6.551,0,0,0-1.593-1.581c-.178-.123-.124-.161,0-.27a10.866,10.866,0,0,0,1.586-1.587c.095-.125.217-.258.348-.067a20.1,20.1,0,0,0,1.544,1.664l.118.135" transform="translate(-67.78 -35.829)" fill="#f8f9fb"/>
              <path id="Trazado_823271" data-name="Trazado 823271" d="M148.245,24.86l0,.02-.029-.021Z" transform="translate(-81.476 -13.223)" fill="#b3dd7e"/>
              <path id="Trazado_823272" data-name="Trazado 823272" d="M184.653,129.741c-.116,2.5.212,5.016-.383,7.493a15.088,15.088,0,0,1-1.98,4.684,14.663,14.663,0,0,1-8.716,6.326,13.037,13.037,0,0,1-3.515.493c-3.833,0-7.668.086-11.5-.021a14.41,14.41,0,0,1-12.012-6.641,13.97,13.97,0,0,1-2.446-7.9c-.013-1.321-.01-2.642-.01-3.964,0-.118-.081-.27.083-.345s.269.062.373.164q1.331,1.313,2.661,2.626a4.344,4.344,0,0,0,3.25,1.308,5.19,5.19,0,0,0,3.527-1.432c.9-.866,1.786-1.74,2.648-2.639.285-.3.462-.277.719,0,.365.4.752.773,1.138,1.15.069.067.061.248.213.192s.143-.193.143-.33c0-.689,0-1.377,0-2.065q0-10.523,0-21.046a1.767,1.767,0,0,0,0-.223c-.015-.122.051-.286-.087-.352s-.22.092-.3.179c-.339.345-.685.682-1.007,1.043-.305.342-.533.406-.893.016-.782-.846-1.623-1.639-2.439-2.454a5.038,5.038,0,0,0-7.266.1c-.816.933-1.685,1.82-2.555,2.756-.157-.2-.2-.224-.2-.25a43.692,43.692,0,0,1,.184-6.348c1.1-6.161,4.723-10.126,10.643-12.016A19.564,19.564,0,0,1,161,89.675c.492,0,1.121.244,1.446-.1.292-.315.072-.926.076-1.405q.022-2.651-.011-5.3c-.005-.415.125-.564.536-.556q1.339.024,2.679-.008c.377-.009.464.146.461.5-.013,2.065-.006,4.131,0,6.2,0,.71,0,.7.745.7,1.357,0,2.715-.047,4.072.059a14.8,14.8,0,0,1,13.226,11.213,17.761,17.761,0,0,1,.415,4.789c-.02.836.011,1.674.013,2.512,0,.158.089.374-.108.447s-.27-.158-.378-.266c-.84-.844-1.681-1.687-2.5-2.553a4.976,4.976,0,0,0-6.68-.208c-.971.865-1.873,1.81-2.781,2.742-.332.341-.56.4-.888,0-.388-.469-.833-.889-1.306-1.386a2.063,2.063,0,0,0-.137,1.042q-.007,11.332,0,22.664c0,.157-.082.379.089.454.188.082.269-.15.38-.26.358-.352.724-.7,1.055-1.075.254-.291.439-.243.683.005.821.837,1.67,1.645,2.48,2.493a5.165,5.165,0,0,0,3.457,1.593,4.529,4.529,0,0,0,3.619-1.4q1.422-1.448,2.836-2.9l.173.086M164.724,93.387c-1.716,0-3,0-4.284,0a18.653,18.653,0,0,0-3.231.124,10.981,10.981,0,0,0-8.787,7.127c-.039.1-.151.165-.047.289s.2.067.332.04a9.247,9.247,0,0,1,3.581.035,8.119,8.119,0,0,1,4.206,2.269c.4.392.629.365,1.044.018a10.426,10.426,0,0,1,8.953-2.278,10.264,10.264,0,0,1,4.849,2.374c.315.268.5.286.778-.02a5.524,5.524,0,0,1,.878-.773,8.241,8.241,0,0,1,7.015-1.554c.1.026.249.051.31-.054a.465.465,0,0,0-.043-.422,10.866,10.866,0,0,0-9.291-7.09c-2.218-.255-4.463-.037-6.263-.084M180.31,137.6c-.415,0-.806-.026-1.193,0a8.788,8.788,0,0,1-6.965-2.495c-.321-.3-.467-.379-.841-.053a10.664,10.664,0,0,1-13.767.119c-.478-.4-.674-.34-1.1.043a8.663,8.663,0,0,1-7.76,2.248.44.44,0,0,0-.319.028c-.117.1-.011.237.044.348.263.532.5,1.08.8,1.59a10.662,10.662,0,0,0,9.117,5.576c3.787.166,7.587.033,11.381.037a11.785,11.785,0,0,0,2.3-.225,10.742,10.742,0,0,0,7.145-4.8,8.261,8.261,0,0,0,1.159-2.425m-17.819-18.411h.006q0,7.031-.007,14.062a.464.464,0,0,0,.4.538,5.862,5.862,0,0,0,2.834.034c.4-.069.468-.247.467-.613-.014-3.181-.008-6.362-.008-9.543q0-9.18.01-18.36c0-.375-.1-.632-.457-.679a10.485,10.485,0,0,0-2.2-.121c-1.035.084-1.038.093-1.038,1.176q0,6.752,0,13.5" transform="translate(-79.192 -44.928)"/>
              <path id="Trazado_823273" data-name="Trazado 823273" d="M32.909,127.365c0-6.921-.082-13.844.039-20.763a8.581,8.581,0,0,1,3.736-6.84,7.548,7.548,0,0,1,3.145-1.484c.413-.076.5-.278.5-.641.016-1.264-.1-2.53.025-3.793A3.629,3.629,0,0,1,43.916,90.6c2.061-.118,4.118-.049,6.176-.077a13.852,13.852,0,0,1,1.932.112,3.642,3.642,0,0,1,2.982,3.306c.04,1.189.034,2.382-.006,3.571-.017.487.149.668.6.8a8.955,8.955,0,0,1,6.594,6.934A9.315,9.315,0,0,1,62.4,107.5q-.01,19.565-.009,39.13a6.721,6.721,0,0,1-.954,4.2,5.4,5.4,0,0,1-4.457,2.421c-6.343.047-12.688.066-19.03-.028a5.07,5.07,0,0,1-4.207-2.657,5.968,5.968,0,0,1-.853-3.276q.015-9.964,0-19.928ZM44.007,94.8v.023c-.013.892-.017,1.784-.045,2.676-.01.33.14.416.435.415q3.262-.011,6.524,0c.3,0,.428-.095.421-.418-.021-.929-.022-1.859-.011-2.788,0-.293-.092-.448-.39-.457h-.026c-2.156-.008-4.312-.006-6.468-.03-.469,0-.544.2-.441.584m14.7,48.06c.219-.128.264-.267.026-.424-.009-.3-.229-.227-.405-.228Q47.664,142.2,37,142.178c-.342,0-.446.085-.441.433.023,1.637.066,3.276.009,4.912a2.1,2.1,0,0,0,2.127,2.086c5.954-.055,11.909-.041,17.863-.014a1.93,1.93,0,0,0,2.19-2.157c.009-1.525-.028-3.051-.044-4.577m0-4.864,0-.279c0-.053,0-.107,0-.16a34.345,34.345,0,0,0-.016-3.948c.1-.1.135-.207-.011-.3.121-1.766.085-3.532.03-5.3,0-.152.129-.307-.009-.457-.109-.147-.267-.1-.411-.1q-10.274,0-20.548,0c-.351,0-.7.03-1.052.045-.115.025-.107.1-.078.185l.007,1.378a.036.036,0,0,0,0,.061q-.013,4.324-.026,8.649c0,.758,0,.761.744.761l20.031,0c.2,0,.515.076.593-.025.2-.264.792.152.75-.45l.029-.033Zm-.005-25.2c-.114-.138-.27-.1-.415-.1q-9.768,0-19.535,0c-.6,0-1.191.018-1.786.01-.284,0-.38.088-.379.388q.015,5.108,0,10.216c0,.349.087.482.471.482q10.6-.021,21.209-.015c.164,0,.343.046.433-.156a.442.442,0,0,0,.011-.365q0-.138-.009-.276c0-.052,0-.1,0-.156q.1-4.775,0-9.551c.017-.159.124-.319,0-.476m-11.008-3.829h3.8c1.265,0,2.53,0,3.8,0,1.023,0,2.046-.016,3.069-.012.306,0,.454-.1.414-.424-.1-.807-.043-1.619-.158-2.433a5.408,5.408,0,0,0-4.875-4.424c-3.979-.121-7.961-.112-11.941-.006-2.453.065-3.966,1.492-4.9,3.661a8.553,8.553,0,0,0-.32,3.1c-.024.474.149.544.569.542,3.516-.016,7.032-.009,10.548-.01" transform="translate(-17.817 -49.468)"/>
              <path id="Trazado_823274" data-name="Trazado 823274" d="M169.972,107c1.8.046,4.044-.171,6.263.084a10.865,10.865,0,0,1,9.291,7.089.466.466,0,0,1,.043.422c-.061.1-.206.08-.31.054a8.241,8.241,0,0,0-7.015,1.554,5.563,5.563,0,0,0-.878.772c-.278.306-.463.289-.778.021a10.261,10.261,0,0,0-4.848-2.375,10.426,10.426,0,0,0-8.953,2.278c-.415.347-.649.375-1.044-.018a8.116,8.116,0,0,0-4.206-2.269,9.247,9.247,0,0,0-3.581-.035c-.134.026-.226.085-.332-.04s.008-.192.047-.289a10.98,10.98,0,0,1,8.787-7.127,18.608,18.608,0,0,1,3.231-.124c1.284,0,2.568,0,4.284,0" transform="translate(-84.439 -58.539)" fill="#fe816d"/>
              <path id="Trazado_823275" data-name="Trazado 823275" d="M185.535,202.348a8.239,8.239,0,0,1-1.159,2.425,10.741,10.741,0,0,1-7.145,4.8,11.777,11.777,0,0,1-2.3.225c-3.794,0-7.594.129-11.381-.037a10.661,10.661,0,0,1-9.117-5.576c-.3-.51-.537-1.059-.8-1.59-.055-.112-.16-.246-.044-.348a.438.438,0,0,1,.319-.028,8.664,8.664,0,0,0,7.76-2.248c.424-.383.62-.447,1.1-.043a10.665,10.665,0,0,0,13.767-.119c.374-.327.521-.248.842.053a8.786,8.786,0,0,0,6.965,2.495c.387-.03.778,0,1.193,0" transform="translate(-84.418 -109.673)" fill="#fe816d"/>
              <path id="Trazado_823276" data-name="Trazado 823276" d="M185.183,146.536q0-6.753,0-13.5c0-1.084,0-1.093,1.038-1.177a10.487,10.487,0,0,1,2.2.121c.359.047.457.3.457.679q-.021,9.18-.01,18.36c0,3.181-.006,6.362.008,9.543,0,.366-.065.543-.467.613a5.863,5.863,0,0,1-2.834-.034.464.464,0,0,1-.4-.538q.014-7.031.007-14.062Z" transform="translate(-101.884 -72.272)" fill="#cbd0d9"/>
              <path id="Trazado_823277" data-name="Trazado 823277" d="M63.269,140.584q.1,4.775,0,9.55c0,.052,0,.1,0,.157,0,.092.005.184.009.276,0,.121-.008.244-.011.366-.09.2-.269.156-.433.156q-10.6,0-21.209.015c-.384,0-.472-.133-.471-.482q.013-5.108,0-10.216c0-.3.095-.392.379-.388.6.009,1.191-.01,1.786-.01q9.767,0,19.535.006c.145,0,.3-.043.415.095l0,.476" transform="translate(-22.38 -76.782)" fill="#fcd76f"/>
              <path id="Trazado_823278" data-name="Trazado 823278" d="M63.27,183.213l0,.278a.056.056,0,0,0,0,.066c.042.6-.545.185-.75.45-.078.1-.388.025-.593.025l-20.031,0c-.747,0-.746,0-.744-.761q.013-4.325.026-8.649l.039-.03-.039-.03q0-.69-.006-1.378a.156.156,0,0,0,.078-.185c.35-.016.7-.045,1.052-.045q10.274,0,20.548,0c.143,0,.3-.049.411.1q0,.228.009.457c.055,1.766.091,3.532-.03,5.3-.267.11-.192.208.011.3a34.335,34.335,0,0,1,.016,3.948c0,.053,0,.107,0,.161" transform="translate(-22.383 -94.962)" fill="#fcd76f"/>
              <path id="Trazado_823279" data-name="Trazado 823279" d="M63.237,206.5c.017,1.525.053,3.051.044,4.577a1.93,1.93,0,0,1-2.19,2.157c-5.954-.027-11.909-.04-17.863.014a2.1,2.1,0,0,1-2.127-2.086c.057-1.635.014-3.275-.009-4.912,0-.348.1-.434.441-.433q10.662.026,21.324.031c.177,0,.4-.073.406.227a.46.46,0,0,0-.026.425" transform="translate(-22.349 -113.111)" fill="#f8f9fb"/>
              <path id="Trazado_823280" data-name="Trazado 823280" d="M52.242,122.6c-3.516,0-7.032-.007-10.548.009-.42,0-.593-.069-.569-.542a8.556,8.556,0,0,1,.32-3.1c.931-2.168,2.444-3.6,4.9-3.661,3.979-.106,7.961-.115,11.941.006a5.408,5.408,0,0,1,4.875,4.423c.115.815.058,1.626.158,2.433.039.319-.108.426-.414.425-1.023,0-2.046.01-3.069.012-1.265,0-2.53,0-3.8,0h-3.8" transform="translate(-22.366 -63.1)" fill="#f8f9fb"/>
              <path id="Trazado_823281" data-name="Trazado 823281" d="M64.594,98.8c.3.009.394.164.39.457-.011.929-.01,1.859.011,2.788.007.323-.117.419-.421.418q-3.261-.008-6.524,0c-.3,0-.445-.084-.435-.415.028-.892.032-1.784.045-2.676l.028-.013-.03-.01c-.1-.384-.028-.589.441-.584,2.156.024,4.312.023,6.468.03l.014.03Z" transform="translate(-31.469 -54.02)" fill="#cbd0d9"/>
              <path id="Trazado_823282" data-name="Trazado 823282" d="M90.472,206.823a.46.46,0,0,1,.026-.425c.238.157.192.3-.026.425" transform="translate(-49.584 -113.429)" fill="#b3dd7e"/>
              <path id="Trazado_823283" data-name="Trazado 823283" d="M90.254,186.324c-.2-.094-.278-.193-.011-.3.146.1.109.2.011.3" transform="translate(-49.384 -102.182)" fill="#fe816d"/>
              <path id="Trazado_823284" data-name="Trazado 823284" d="M90.517,140.709l0-.476c.128.158.021.317,0,.476" transform="translate(-49.628 -76.907)" fill="#fe816d"/>
              <path id="Trazado_823285" data-name="Trazado 823285" d="M90.509,173.635l-.009-.457c.139.15.013.3.009.457" transform="translate(-49.621 -95.093)" fill="#fe816d"/>
              <path id="Trazado_823286" data-name="Trazado 823286" d="M90.507,163.943l.011-.366a.442.442,0,0,1-.011.366" transform="translate(-49.625 -89.793)" fill="#fe816d"/>
              <path id="Trazado_823287" data-name="Trazado 823287" d="M90.512,162.77c0-.052,0-.1,0-.157,0,.052,0,.1,0,.157" transform="translate(-49.627 -89.261)" fill="#fe816d"/>
              <path id="Trazado_823288" data-name="Trazado 823288" d="M41.253,173.063a.156.156,0,0,1-.077.185c-.03-.085-.038-.161.077-.185" transform="translate(-22.384 -95.029)" fill="#b3dd7e"/>
              <path id="Trazado_823289" data-name="Trazado 823289" d="M90.515,195.669c0-.054,0-.108,0-.161,0,.054,0,.108,0,.161" transform="translate(-49.629 -107.418)" fill="#fe816d"/>
              <path id="Trazado_823290" data-name="Trazado 823290" d="M41.192,176.551l.039.031-.039.03a.036.036,0,0,1,0-.061" transform="translate(-22.394 -96.954)" fill="#b3dd7e"/>
              <path id="Trazado_823291" data-name="Trazado 823291" d="M90.511,196.554a.058.058,0,0,1,0-.066l.029.034Z" transform="translate(-49.621 -107.959)" fill="#fe816d"/>
              <path id="Trazado_823292" data-name="Trazado 823292" d="M57.714,100.073l.03.01-.028.013v-.023" transform="translate(-31.523 -54.74)" fill="#b3dd7e"/>
              <path id="Trazado_823293" data-name="Trazado 823293" d="M73.16,98.835l-.012.031-.014-.03h.026" transform="translate(-40.035 -54.057)" fill="#b3dd7e"/>
            </g>
          </g>
        </g>
      </g>
      <g id="Grupo_1073740" data-name="Grupo 1073740" transform="translate(1093.339 5018.199)">
        <g id="Grupo_1073725" data-name="Grupo 1073725" transform="translate(106.074)" style="mix-blend-mode: multiply;isolation: isolate">
          <g id="Grupo_1073724" data-name="Grupo 1073724">
            <g id="Grupo_1073723" data-name="Grupo 1073723" clip-path="url(#clip-path-13)">
              <g id="Grupo_1073722" data-name="Grupo 1073722" transform="translate(0 0)">
                <g id="Grupo_1073721" data-name="Grupo 1073721" clip-path="url(#clip-path-14)">
                  <rect id="Rectángulo_377870" data-name="Rectángulo 377870" width="26.652" height="192.317" transform="translate(0 0)" fill="url(#radial-gradient-5)"/>
                </g>
              </g>
            </g>
          </g>
        </g>
        <text id="Residuo_orgánico" data-name="Residuo
orgánico" transform="translate(151.496 86.417)" fill="#12263f" font-size="20" font-family="Roboto-Black, Roboto" font-weight="800"><tspan x="0" y="0">Residuo</tspan><tspan x="0" y="27">orgánico</tspan></text>
        <g id="Enmascarar_grupo_381" data-name="Enmascarar grupo 381" transform="translate(0 24.916)" clip-path="url(#clip-path-15)">
          <g id="Grupo_1073733" data-name="Grupo 1073733" transform="translate(11.852 6.385)" clip-path="url(#clip-path-16)">
            <path id="Trazado_823294" data-name="Trazado 823294" d="M17.088,127.184,17.111,116c0-.022,0-.043,0-.064-.027-.509.219-1.134-.093-1.493-.266-.308-.925-.218-1.336-.407a12.366,12.366,0,0,1-2.5-1.487,7.234,7.234,0,0,1-2.688-4.644,7.96,7.96,0,0,1,2.1-7.05,8.166,8.166,0,0,1,3.973-2.384,8.61,8.61,0,0,1,2.455-.23c.128.005.325.1.386-.1.057-.183-.113-.25-.24-.327A16.459,16.459,0,0,1,12.3,89.36a15.05,15.05,0,0,1-.924-6.227A16.453,16.453,0,0,1,18.3,70.389a11.719,11.719,0,0,0,1.675-1.173,15.762,15.762,0,0,0-3.693-1.067,18.827,18.827,0,0,0-3.121-.114c-.748-.008-1.147-.269-1.307-.869a1.35,1.35,0,0,1,.747-1.547,2.115,2.115,0,0,1,.421-.154c.509-.134.584-.347.263-.8a10.845,10.845,0,0,1-1.92-7.564,7.787,7.787,0,0,1,.77-2.752,9.547,9.547,0,0,1,1.005-1.929,1.292,1.292,0,0,1,1.5-.4,9.972,9.972,0,0,1,6.214,5.7,15.592,15.592,0,0,1,.816,3.011A4.193,4.193,0,0,1,21.69,61.8a14.634,14.634,0,0,1-.6,3.919c-.168.364-.569.842-.054,1.086.6.286.634-.4.821-.763.009-.017,0-.042,0-.063a15.448,15.448,0,0,1,2.286-3.821,11.29,11.29,0,0,1,1.986-2,1.329,1.329,0,0,1,2.052.224,10.932,10.932,0,0,0,5.363,3.575,7.6,7.6,0,0,0,4.063-.063c1.419-.341,1.62-.3,2.438.886a10.58,10.58,0,0,0,1.322,1.84,12.313,12.313,0,0,0,2.889,2.061,5.993,5.993,0,0,0,4.812.086,15.067,15.067,0,0,0,3.089-1.618,1.534,1.534,0,0,1,2.089.64A49.1,49.1,0,0,1,57.9,75.2a24.681,24.681,0,0,1,1.675,7.215,9.637,9.637,0,0,1-2.529,7.573,14.089,14.089,0,0,1-4.2,3.236,2.646,2.646,0,0,0-1.541,2.106,11.665,11.665,0,0,1-.928,2.357c-.063.138-.321.2-.176.419.117.181.289.141.46.12a23.033,23.033,0,0,1,2.76-.066q20.6-.005,41.2-.016a8.972,8.972,0,0,1,6.28,2.183,7.992,7.992,0,0,1,2.225,3.529,8.834,8.834,0,0,1-.229,5.865,6.283,6.283,0,0,1-1.667,2.378,8.513,8.513,0,0,1-2.988,1.882,1.183,1.183,0,0,1-.75.139c-.266-.062-.626.126-.634.637-.092,6.464-.016,12.928-.033,19.391-.017,6.343,0,12.686-.026,19.029,0,.622.164.8.772.795q6.684-.019,13.368.021a5.051,5.051,0,0,1,1.957.191,1.292,1.292,0,0,1-.165,2.488,2.839,2.839,0,0,1-.76.084q-55.017.005-110.034,0c-.8,0-1.494-.166-1.8-1.029s-.155-1.135.671-1.53a3.708,3.708,0,0,1,1.626-.215l12.789-.007a.558.558,0,0,0,.56.005c.148,0,.3,0,.443-.008.889-.03.889-.031.856-.947q0-.449-.006-.9c.009-.9.026-1.794.026-2.691q0-9.94,0-19.88c0-.234-.012-.469-.018-.7,0-.128,0-.256,0-.384,0-.172,0-.344,0-.516q0-.385,0-.77m1.3-62.33a3.117,3.117,0,0,0,.173-.408,8.276,8.276,0,0,0-.033-5.054,7.246,7.246,0,0,0-2.164-3.4,5.419,5.419,0,0,0-1.131-.818c-.269-.174-.441-.152-.6.165a7.133,7.133,0,0,0-.542,2.527,7.244,7.244,0,0,0,1.575,5.485A7.035,7.035,0,0,0,17.642,65c.436.252.6.528.742-.149m14.08,89.1.012.048.033-.032,2.349-.03c1.112.01,2.223.036,3.335.028,1.031-.008,1.034-.024,1.034-1.034,0-4.8.02-9.6-.005-14.393a49.609,49.609,0,0,0-.111-5.634,3.372,3.372,0,0,0-6.277-1.173,4.522,4.522,0,0,0-.475,2.357q.012,9.3.025,18.609a2.889,2.889,0,0,0,.08,1.254m44.559-.011c1.326.012,2.653,0,3.977.051.481.019.558-.121.557-.57-.006-6.3.01-12.591.017-18.887,0-.427-.015-.856-.054-1.282a3.368,3.368,0,0,0-2.828-3.223c-.235-.007-.47-.021-.7-.021a3.009,3.009,0,0,0-2.585,1.332,4.457,4.457,0,0,0-.722,2.885c.06,2.287.019,4.577.02,6.866,0,4.043.015,8.086-.007,12.129,0,.57.182.769.73.738.532-.031,1.066-.014,1.6-.018m-21.083,0,3.638.027c-.028.153.068.182.184.172.1-.009.144-.072.119-.174.2.013.423.073.512-.2-.055-.148.343-.289.006-.441q0-2.888.009-5.776c0-4.514-.014-9.028,0-13.542,0-1.822-.8-3.712-2.925-3.973a3.561,3.561,0,0,0-2.084.294,3.863,3.863,0,0,0-1.882,3.665c.013,5.562.005,11.124.008,16.686,0,.941.033,1.882.018,2.823-.005.327.064.468.415.457.661-.022,1.323-.011,1.985-.014M18.264,101.076a5.236,5.236,0,0,0-2.347,9.864,2.651,2.651,0,0,0,1.328.537,2.8,2.8,0,0,0,1.561.155q33.775.022,67.549.022,4.274,0,8.548-.015a6.41,6.41,0,0,0,1.7-.144,5.163,5.163,0,0,0,4.047-4.352,5.051,5.051,0,0,0-2.7-5.481,7.02,7.02,0,0,0-3.706-.69q-18.607-.032-37.213-.013-18.832,0-37.663.006c-.367,0-.759-.125-1.107.113M29.207,64.989q-.977-.831-1.956-1.662c-.179-.151-.341-.342-.582-.053A13,13,0,0,0,23.83,68.43a4.3,4.3,0,0,1-2.408,3.219A10.381,10.381,0,0,0,19.287,73.1a14.2,14.2,0,0,0-3.417,3.888,13.149,13.149,0,0,0-1.79,6.737,14.478,14.478,0,0,0,.416,3.731,13.752,13.752,0,0,0,5.122,7.329c.083.064.161.154.247.005a2.376,2.376,0,0,0,.668.655c.9.527,1.761,1.124,2.688,1.595A6.844,6.844,0,0,0,26.376,98.2q3.854-.038,7.708-.046,6.071,0,12.142.029a1.167,1.167,0,0,0,1.168-.674,17.832,17.832,0,0,0,1.664-3.883,3.922,3.922,0,0,1,2.062-2.484,14.475,14.475,0,0,0,3.558-2.614,6.245,6.245,0,0,0,.968-1,9.74,9.74,0,0,0,.955-7.233,31.3,31.3,0,0,0-3.8-9.71c-.149-.262-.346-.428-.61-.207a7.64,7.64,0,0,1-1.656.74,7.862,7.862,0,0,1-6.034.622A12.029,12.029,0,0,1,38.419,67.2a.88.88,0,0,0-1.025-.39,9.926,9.926,0,0,1-4.592-.167,12.7,12.7,0,0,1-3.6-1.656m-7.2,89c2.289.014,4.578,0,6.865.058.629.015.742-.2.741-.767-.016-6.3-.007-12.6-.007-18.9a15.58,15.58,0,0,1,.091-1.794,6.282,6.282,0,0,1,5.734-5.412,6.131,6.131,0,0,1,6.373,5,21.186,21.186,0,0,1,.225,3.519q.015,8.807-.006,17.615c0,.562.171.733.738.727,2.4-.026,4.8-.007,7.2,0,.832,0,.834,0,.834-.838q0-9.836,0-19.672a6.2,6.2,0,0,1,1.282-3.909,6.09,6.09,0,0,1,10.678,1.886,11.3,11.3,0,0,1,.363,2.814q.057,6.171.006,12.343a57.4,57.4,0,0,1-.118,6.728c-.065.509.165.666.665.661,2.442-.023,4.884-.018,7.326-.021.9,0,.91,0,.91-.907q-.005-8.582-.015-17.164c0-.942.054-1.882.082-2.823a6.1,6.1,0,0,1,7.91-5.609,6.518,6.518,0,0,1,3.63,2.985,6.174,6.174,0,0,1,.8,3.431q0,9.354.013,18.708c0,.343,0,.686.005,1.028,0,.255.107.364.4.363,2.805-.014,5.611-.012,8.417-.014.879,0,.879,0,.878-.875q-.005-11.7-.01-23.4c0-4.521-.01-9.043.017-13.565,0-.363-.258-.661-.133-1.033.2-.607.136-.69-.518-.7-1.05-.01-2.1-.023-3.149-.023q-32.488,0-64.977,0c-.963,0-1.926.026-2.889.039-.556-.011-1.117.019-1.668-.043-.639-.071-.824.129-.823.791q.023,17.868,0,35.736c0,.857.028,1.714.017,2.57,0,.338.119.456.448.45.556-.01,1.113.008,1.67.015" transform="translate(0 -25.135)"/>
            <path id="Trazado_823295" data-name="Trazado 823295" d="M138.533,44.958c.953.87,1.941,1.723,2.821,2.645.7.739,1.13.677,1.988.384a6.43,6.43,0,0,1,8.36,4.2,6.6,6.6,0,0,1-5.022,8.306,1.577,1.577,0,0,0-1.434,1.208,6.537,6.537,0,0,1-12.43-.916,5.907,5.907,0,0,1,.931-4.895,1.09,1.09,0,0,0,.012-1.387c-.754-1.117-1.483-2.25-2.206-3.388a.473.473,0,0,0-.587-.24,3.73,3.73,0,0,1-4.184-1.486c-.066-.085-.146-.158-.206-.247a6.517,6.517,0,0,0-4.774-2.848,26.982,26.982,0,0,1-3.168-.888,51.8,51.8,0,0,1-5.066-1.736c-1.123-.414-1.386-.793-1.377-1.993.024-3.273-1.634-5.009-4.937-6.083-3.328-1.081-6.058-2.813-7.322-6.285a11,11,0,0,1-.583-3.02c-.05-.719-.077-1.442-.162-2.157a1.945,1.945,0,0,0-1.979-1.809,10.534,10.534,0,0,0-3.874.68c-1.276.4-2.066-.357-2.1-1.647a14.6,14.6,0,0,1,.68-4.864A23.906,23.906,0,0,1,105.836,1.394,16.943,16.943,0,0,1,113.9.049a18.165,18.165,0,0,1,10.381,4.238,24.673,24.673,0,0,1,6.943,9.9,53.679,53.679,0,0,1,2.867,9.174A55.271,55.271,0,0,1,135.1,29.5c.237,2.193.352,4.387.5,6.584a5.244,5.244,0,0,0,1.4,3.091,13.033,13.033,0,0,1,1.517,1.977,3.623,3.623,0,0,1,.012,3.408c-.193.133-.185.264,0,.394M102.063,25.275c0,.135.008.269.012.4,0,.079-.009.158-.013.238-.151.352.078.664.119.993A6.381,6.381,0,0,0,106,32.128c1.028.492,2.115.866,3.19,1.254,2.617.946,5.619,3.3,5.687,7.337a.723.723,0,0,0,.48.747,62.613,62.613,0,0,0,7.888,2.318,7.509,7.509,0,0,1,4.685,2.84c.365.474.785.906,1.175,1.361a.79.79,0,0,0,1.192.143q2.757-2.22,5.474-4.488a.876.876,0,0,0,.359-1.04,13.318,13.318,0,0,0-1.872-2.589,6.463,6.463,0,0,1-1.243-2.7c-.423-1.848-.217-3.755-.5-5.623-.2-1.291-.256-2.605-.389-3.908a36.64,36.64,0,0,0-1.156-6.039,63.91,63.91,0,0,0-2.435-6.755A25.457,25.457,0,0,0,124.17,7.96a14.913,14.913,0,0,0-10.254-5.2.377.377,0,0,0-.391-.044A16.324,16.324,0,0,0,104.9,4.819a20.664,20.664,0,0,0-9.735,10.617,10.74,10.74,0,0,0-.828,2.53c-.08.345-.156.691-.243,1.034-.2.773-.1.881.675.773.23-.031.462-.041.692-.072a6.924,6.924,0,0,1,3.747.351,4.734,4.734,0,0,1,2.578,2.834c-.038.357.2.642.254.976q.008.515.017,1.029c0,.09,0,.179,0,.269a.1.1,0,0,0,0,.116m38.148,37.57a3.6,3.6,0,0,0,2.71-3.032c.082-1.371.519-2.147,2.088-1.974a4.265,4.265,0,0,0,.77-.008,3.813,3.813,0,0,0,3.138-5.178,3.876,3.876,0,0,0-5.607-1.7c-1.244.75-1.382.737-2.5-.223-.179-.153-.349-.317-.522-.477-1.007-.93-2.01-1.863-3.02-2.789-.935-.858-.939-.854-1.887.024-.5.405-.978.831-1.5,1.208-.4.291-.414.522-.134.942,1.055,1.58,2.066,3.19,3.08,4.8a1.605,1.605,0,0,1-.279,2.174c-1.593,1.618-1.56,3.061-.424,4.868a3.227,3.227,0,0,0,4.085,1.366" transform="translate(-44.159 0)"/>
            <path id="Trazado_823296" data-name="Trazado 823296" d="M41.353,78.914a.158.158,0,0,1,0,.063c-.187.361-.216,1.049-.821.763-.515-.244-.114-.721.054-1.085l.77.26" transform="translate(-19.495 -38.072)" fill="#e8f2ff"/>
            <path id="Trazado_823297" data-name="Trazado 823297" d="M32.856,246.134q0,.449.005.9c-.368-.3-.363-.6-.005-.9" transform="translate(-15.773 -119.139)" fill="#e8f2ff"/>
            <path id="Trazado_823298" data-name="Trazado 823298" d="M32.9,197.786l0,.77c-.385-.256-.229-.513,0-.77" transform="translate(-15.813 -95.737)" fill="#e8f2ff"/>
            <path id="Trazado_823299" data-name="Trazado 823299" d="M30.076,249.544a.556.556,0,0,1-.56-.005c.189-.252.376-.253.56.005" transform="translate(-14.287 -120.696)" fill="#60d17c"/>
            <path id="Trazado_823300" data-name="Trazado 823300" d="M32.925,200.278c0,.128,0,.256,0,.384-.126-.02-.229-.065-.211-.22.014-.123.112-.146.211-.164" transform="translate(-15.834 -96.943)" fill="#e8f2ff"/>
            <path id="Trazado_823301" data-name="Trazado 823301" d="M182.776,86.765c-.187-.131-.2-.262,0-.394l0,.394" transform="translate(-88.402 -41.807)" fill="#e8f2ff"/>
            <path id="Trazado_823302" data-name="Trazado 823302" d="M43.015,173.111c.963-.013,1.926-.039,2.889-.039q32.489,0,64.977,0c1.049,0,2.1.012,3.149.023.653.007.722.09.518.7-.125.373.135.67.133,1.033-.027,4.521-.018,9.043-.017,13.565q0,11.7.01,23.4c0,.873,0,.874-.879.875-2.805,0-5.611,0-8.417.014-.289,0-.392-.108-.4-.363-.006-.343,0-.686,0-1.028q-.008-9.354-.013-18.708a6.174,6.174,0,0,0-.8-3.431,6.517,6.517,0,0,0-3.629-2.985,6.1,6.1,0,0,0-7.91,5.609c-.028.94-.082,1.881-.082,2.823q0,8.582.015,17.164c0,.907-.006.906-.91.907-2.443,0-4.885,0-7.327.022-.5,0-.729-.153-.665-.662a57.4,57.4,0,0,0,.118-6.728q.052-6.171-.007-12.343a11.3,11.3,0,0,0-.363-2.814,6.09,6.09,0,0,0-10.678-1.886,6.2,6.2,0,0,0-1.283,3.908q-.009,9.836,0,19.672c0,.841,0,.839-.834.838-2.4,0-4.8-.024-7.2,0-.567.006-.739-.165-.738-.727q.025-8.807.006-17.615a21.242,21.242,0,0,0-.224-3.519,6.132,6.132,0,0,0-6.373-5,6.283,6.283,0,0,0-5.734,5.412,15.687,15.687,0,0,0-.091,1.794q0,9.451.007,18.9c0,.57-.112.782-.741.767-2.288-.055-4.577-.044-6.866-.058.506-.366.349-.924.35-1.4q.022-18.354.01-36.708a2.749,2.749,0,0,0-.073-.956l0-.191.066-.269" transform="translate(-20.648 -83.773)" fill="#60d17c"/>
            <path id="Trazado_823303" data-name="Trazado 823303" d="M45.029,77.242a12.706,12.706,0,0,0,3.6,1.656,9.933,9.933,0,0,0,4.591.167.881.881,0,0,1,1.025.389,12.025,12.025,0,0,0,6.084,4.539,7.861,7.861,0,0,0,6.033-.622,7.656,7.656,0,0,0,1.656-.74c.264-.221.462-.054.61.207a31.31,31.31,0,0,1,3.8,9.71,9.738,9.738,0,0,1-.955,7.233,6.24,6.24,0,0,1-.967,1A14.472,14.472,0,0,1,66.94,103.4a3.924,3.924,0,0,0-2.062,2.484,17.842,17.842,0,0,1-1.664,3.883,1.166,1.166,0,0,1-1.167.674q-6.071-.04-12.142-.029-3.853,0-7.707.046a6.849,6.849,0,0,1-3.156-1.158c-.927-.472-1.789-1.068-2.688-1.595a2.385,2.385,0,0,1-.668-.655c-.149-.282-.284-.574-.449-.847A15.257,15.257,0,0,1,32.8,96.124,14.831,14.831,0,0,1,40.88,84.361a2.94,2.94,0,0,0,1.6-2.007,13.336,13.336,0,0,1,2.545-5.112" transform="translate(-15.822 -37.388)" fill="#ff8283"/>
            <path id="Trazado_823304" data-name="Trazado 823304" d="M33.169,147.047c.348-.239.74-.113,1.107-.113q18.831-.012,37.663-.006,18.607,0,37.213.013a7.019,7.019,0,0,1,3.706.69,5.052,5.052,0,0,1,2.7,5.48,5.164,5.164,0,0,1-4.047,4.352,6.412,6.412,0,0,1-1.7.144q-4.274.015-8.548.015-33.775,0-67.549-.022a2.8,2.8,0,0,1-1.561-.155c.19-.36.006-.657-.169-.949a7.124,7.124,0,0,1-1.114-4.844,5.923,5.923,0,0,1,2.127-4c.19-.149.468-.3.175-.6" transform="translate(-14.905 -71.106)" fill="#e8f2ff"/>
            <path id="Trazado_823305" data-name="Trazado 823305" d="M109.942,203.307c2.123.261,2.93,2.15,2.924,3.973-.012,4.514,0,9.028,0,13.542q0,2.888-.008,5.776c-.129.145-.07.293-.006.441-.089.275-.31.215-.511.2l-.3,0-3.638-.026q0-9.048,0-18.1a11.715,11.715,0,0,1,.145-2.931c.233-.9.261-1.945,1.257-2.478.152-.081.136-.254.138-.4" transform="translate(-52.461 -98.409)" fill="#e8f2ff"/>
            <path id="Trazado_823306" data-name="Trazado 823306" d="M41.013,173.1c-.022.09-.044.18-.066.269q0,.1,0,.192a2.749,2.749,0,0,1,.073.956q0,18.354-.01,36.708c0,.472.156,1.03-.35,1.4-.556-.007-1.113-.026-1.67-.015-.329.006-.452-.112-.447-.45.011-.857-.018-1.714-.017-2.57q.006-17.868,0-35.736c0-.663.184-.863.822-.791.551.062,1.112.032,1.668.043" transform="translate(-18.646 -83.759)" fill="#f8f9fb"/>
            <path id="Trazado_823307" data-name="Trazado 823307" d="M69.179,203.422a3.167,3.167,0,0,1,2.627,2.816,49.6,49.6,0,0,1,.111,5.634c.026,4.8.007,9.6.005,14.393,0,1.011,0,1.026-1.034,1.034-1.111.008-2.223-.017-3.335-.028,0-6.807-.02-13.614.018-20.421a3.884,3.884,0,0,1,1.609-3.428" transform="translate(-32.696 -98.465)" fill="#e8f2ff"/>
            <path id="Trazado_823308" data-name="Trazado 823308" d="M150.95,203.308a3.369,3.369,0,0,1,2.829,3.223c.039.426.054.855.054,1.283-.007,6.3-.023,12.591-.017,18.886,0,.448-.077.589-.558.57-1.324-.052-2.651-.038-3.976-.051a19.625,19.625,0,0,0,.146-4.446c.032-5.261-.156-10.523.09-15.784a8.111,8.111,0,0,1,.611-2.65c.186-.476.818-.488.821-1.031" transform="translate(-72.258 -98.41)" fill="#e8f2ff"/>
            <path id="Trazado_823309" data-name="Trazado 823309" d="M42.414,75.492A13.336,13.336,0,0,0,39.87,80.6a2.94,2.94,0,0,1-1.6,2.007A14.831,14.831,0,0,0,30.19,94.374a15.257,15.257,0,0,0,2.434,10.074c.165.273.3.564.449.847-.086.149-.165.059-.247-.006A13.758,13.758,0,0,1,27.7,97.96a14.473,14.473,0,0,1-.416-3.731,13.15,13.15,0,0,1,1.79-6.737A14.211,14.211,0,0,1,32.494,83.6a10.383,10.383,0,0,1,2.135-1.451,4.3,4.3,0,0,0,2.408-3.219,13,13,0,0,1,2.84-5.156c.24-.29.4-.1.582.053q.979.83,1.955,1.662" transform="translate(-13.208 -35.638)" fill="#f8f9fb"/>
            <path id="Trazado_823310" data-name="Trazado 823310" d="M148.748,203.288c0,.543-.635.555-.821,1.031a8.111,8.111,0,0,0-.611,2.65c-.246,5.261-.058,10.523-.09,15.784a19.629,19.629,0,0,1-.146,4.446c-.534,0-1.068-.013-1.6.018-.548.031-.733-.168-.73-.738.021-4.043.008-8.086.006-12.129,0-2.289.04-4.579-.02-6.866a4.454,4.454,0,0,1,.722-2.885,3.009,3.009,0,0,1,2.585-1.332c.235,0,.47.014.7.021" transform="translate(-70.057 -98.39)" fill="#f8f9fb"/>
            <path id="Trazado_823311" data-name="Trazado 823311" d="M66.836,203.329a3.884,3.884,0,0,0-1.609,3.428c-.037,6.807-.018,13.614-.018,20.421l-2.349.03-.015-.029-.03.013a2.9,2.9,0,0,1-.08-1.254q-.026-9.3-.025-18.608a4.515,4.515,0,0,1,.475-2.357,3.161,3.161,0,0,1,3.65-1.643" transform="translate(-30.353 -98.372)" fill="#f8f9fb"/>
            <path id="Trazado_823312" data-name="Trazado 823312" d="M107.684,203.284c0,.15.013.324-.138.4-1,.533-1.025,1.573-1.257,2.478a11.715,11.715,0,0,0-.145,2.931q0,9.048,0,18.1c-.661,0-1.324-.008-1.985.014-.351.012-.421-.13-.415-.457.015-.941-.017-1.882-.018-2.823,0-5.562,0-11.124-.009-16.686a3.863,3.863,0,0,1,1.882-3.665,3.562,3.562,0,0,1,2.085-.294" transform="translate(-50.203 -98.386)" fill="#f8f9fb"/>
            <path id="Trazado_823313" data-name="Trazado 823313" d="M30.572,147.184c.293.3.015.454-.175.6a5.923,5.923,0,0,0-2.127,4,7.124,7.124,0,0,0,1.114,4.844c.175.293.359.589.169.949a2.656,2.656,0,0,1-1.328-.537,5.236,5.236,0,0,1,2.347-9.864" transform="translate(-12.308 -71.243)" fill="#f8f9fb"/>
            <path id="Trazado_823314" data-name="Trazado 823314" d="M31.563,67.794c-.141.677-.306.4-.742.149a7.018,7.018,0,0,1-1.976-1.654A7.243,7.243,0,0,1,27.27,60.8a7.13,7.13,0,0,1,.542-2.527c.155-.317.327-.34.6-.166a5.42,5.42,0,0,1,1.131.818c-.026.167-.046.335-.08.5a10.432,10.432,0,0,0-.3,2.661,14.859,14.859,0,0,0,1.563,5.082,1.15,1.15,0,0,0,.841.62" transform="translate(-13.18 -28.076)" fill="#f8f9fb"/>
            <path id="Trazado_823315" data-name="Trazado 823315" d="M33.367,68.664a1.15,1.15,0,0,1-.841-.62,14.859,14.859,0,0,1-1.563-5.082,10.433,10.433,0,0,1,.3-2.661c.034-.166.054-.334.08-.5a7.245,7.245,0,0,1,2.164,3.4,8.276,8.276,0,0,1,.032,5.054,3.108,3.108,0,0,1-.173.407" transform="translate(-14.983 -28.945)" fill="#fef57f"/>
            <path id="Trazado_823316" data-name="Trazado 823316" d="M115.465,249.7l.3,0c.024.1-.02.166-.12.174-.117.01-.213-.019-.184-.172" transform="translate(-55.888 -120.862)" fill="#60d17c"/>
            <path id="Trazado_823317" data-name="Trazado 823317" d="M116.983,248.889c-.064-.148-.124-.3.006-.441.337.152-.061.294-.006.441" transform="translate(-56.59 -120.259)" fill="#60d17c"/>
            <path id="Trazado_823318" data-name="Trazado 823318" d="M62.918,249.66l.03-.013.015.029-.033.032Z" transform="translate(-30.455 -120.84)" fill="#60d17c"/>
            <path id="Trazado_823319" data-name="Trazado 823319" d="M97.253,20.5a10.752,10.752,0,0,1,.828-2.53,20.667,20.667,0,0,1,9.735-10.616,16.325,16.325,0,0,1,8.625-2.105.457.457,0,0,0,.392.044,14.915,14.915,0,0,1,10.254,5.2,25.448,25.448,0,0,1,4.363,7.027,64,64,0,0,1,2.435,6.756,36.7,36.7,0,0,1,1.156,6.039c.133,1.3.194,2.617.389,3.908.282,1.868.076,3.775.5,5.623a6.461,6.461,0,0,0,1.243,2.7,13.326,13.326,0,0,1,1.871,2.589,31.722,31.722,0,0,1-3.891,3.179A1.9,1.9,0,0,1,132.636,48a5.633,5.633,0,0,1-.785-.847,7.364,7.364,0,0,0-4.779-3.163,48.285,48.285,0,0,1-8.462-2.549c-.341-.137-.714-.266-.683-.732a8.772,8.772,0,0,0-.143-1.787,5.376,5.376,0,0,0-1.887-3.6,15.247,15.247,0,0,0-4.676-2.349A9.5,9.5,0,0,1,106.5,29.7,12.833,12.833,0,0,1,105.3,27.17c.012-.315,0-.618-.348-.773-.053-.333-.292-.619-.253-.976.5-.658.219-1.413.227-2.118a3.014,3.014,0,0,0-2.549-3.218,7.027,7.027,0,0,0-3.548.188,4.771,4.771,0,0,1-1.579.228" transform="translate(-47.075 -2.535)" fill="#fef57f"/>
            <path id="Trazado_823320" data-name="Trazado 823320" d="M176.8,91.422c.948-.878.951-.881,1.887-.024,1.01.926,2.014,1.859,3.02,2.789.173.16.343.324.522.477,1.12.961,1.258.973,2.5.223a3.876,3.876,0,0,1,5.607,1.7,3.813,3.813,0,0,1-3.138,5.178,4.263,4.263,0,0,1-.769.008c-1.569-.173-2.007.6-2.088,1.974a3.6,3.6,0,0,1-2.71,3.032c.046-.382-.254-.561-.463-.8a5.155,5.155,0,0,1-1.134-5.841,9.453,9.453,0,0,1,1.131-1.693.489.489,0,0,0,.037-.675c-.867-1.241-1.672-2.527-2.554-3.757a12.748,12.748,0,0,0-1.849-2.593" transform="translate(-85.578 -43.932)" fill="#e8f2ff"/>
            <path id="Trazado_823321" data-name="Trazado 823321" d="M112.5,47.646a12.847,12.847,0,0,0,1.192,2.531,9.5,9.5,0,0,0,4.725,3.276A15.247,15.247,0,0,1,123.1,55.8a5.376,5.376,0,0,1,1.887,3.6,8.761,8.761,0,0,1,.143,1.787c-.031.466.342.595.683.733a48.273,48.273,0,0,0,8.462,2.549,7.363,7.363,0,0,1,4.779,3.163,5.636,5.636,0,0,0,.785.847,1.9,1.9,0,0,0,2.515.313,31.681,31.681,0,0,0,3.891-3.18.874.874,0,0,1-.359,1.041q-2.723,2.261-5.474,4.488A.79.79,0,0,1,139.217,71c-.39-.455-.81-.887-1.175-1.361a7.509,7.509,0,0,0-4.685-2.84,62.549,62.549,0,0,1-7.888-2.318.722.722,0,0,1-.48-.747c-.069-4.04-3.069-6.391-5.687-7.337-1.075-.389-2.162-.763-3.19-1.255a6.379,6.379,0,0,1-3.814-5.217c-.041-.33-.27-.641-.119-.993a.134.134,0,0,0,.014-.238l-.012-.4c.012-.012.037-.027.035-.035a.477.477,0,0,0-.039-.082c0-.089,0-.179,0-.269.246.091-.13-.626.331-.255" transform="translate(-54.274 -23.011)" fill="#f8f9fb"/>
            <path id="Trazado_823322" data-name="Trazado 823322" d="M175.09,92.044a12.75,12.75,0,0,1,1.849,2.593c.882,1.23,1.687,2.516,2.554,3.757a.489.489,0,0,1-.037.675,9.455,9.455,0,0,0-1.131,1.693,5.155,5.155,0,0,0,1.134,5.841c.209.236.509.414.463.8a3.227,3.227,0,0,1-4.085-1.366c-1.136-1.807-1.169-3.25.424-4.868a1.606,1.606,0,0,0,.279-2.174c-1.014-1.607-2.025-3.217-3.08-4.8-.281-.42-.266-.651.134-.942.518-.377,1-.8,1.5-1.208" transform="translate(-83.87 -44.553)" fill="#f8f9fb"/>
            <path id="Trazado_823323" data-name="Trazado 823323" d="M96.943,34.29a4.771,4.771,0,0,0,1.579-.228,7.027,7.027,0,0,1,3.548-.188,3.014,3.014,0,0,1,2.549,3.218c-.008.705.275,1.46-.227,2.118a4.735,4.735,0,0,0-2.578-2.834,6.922,6.922,0,0,0-3.747-.351c-.23.03-.463.04-.692.072-.777.107-.87,0-.675-.773.087-.344.163-.689.243-1.035" transform="translate(-46.765 -16.325)" fill="#f8f9fb"/>
            <path id="Trazado_823324" data-name="Trazado 823324" d="M112.531,47.021c-.461-.371-.086.346-.331.255l-.017-1.028c.344.155.36.458.348.773" transform="translate(-54.301 -22.386)" fill="#e8f2ff"/>
            <path id="Trazado_823325" data-name="Trazado 823325" d="M134.832,5.271a.458.458,0,0,1-.392-.044.378.378,0,0,1,.392.044" transform="translate(-65.075 -2.513)" fill="#60d17c"/>
            <path id="Trazado_823326" data-name="Trazado 823326" d="M112.239,49.769c.092.085.088.165-.014.238l.014-.238" transform="translate(-54.322 -24.09)" fill="#e8f2ff"/>
            <path id="Trazado_823327" data-name="Trazado 823327" d="M112.2,48.762a.474.474,0,0,1,.039.082c0,.008-.023.023-.035.035a.1.1,0,0,1,0-.116" transform="translate(-54.304 -23.603)" fill="#e8f2ff"/>
            <path id="Trazado_823328" data-name="Trazado 823328" d="M43.214,173.863l0-.191,0,.191" transform="translate(-20.917 -84.065)" fill="#e8f2ff"/>
          </g>
        </g>
      </g>
    </g>
  </g>
</svg>
