<svg xmlns="http://www.w3.org/2000/svg" xmlns:xlink="http://www.w3.org/1999/xlink" width="190" height="174" viewBox="0 0 190 174">
  <defs>
    <clipPath id="clip-path">
      <rect id="Rect치ngulo_377726" data-name="Rect치ngulo 377726" width="190" height="174" transform="translate(390 2505)" fill="none" stroke="#707070" stroke-width="1"/>
    </clipPath>
    <clipPath id="clip-path-2">
      <rect id="Rect치ngulo_377727" data-name="Rect치ngulo 377727" width="144.13" height="162.001" fill="none"/>
    </clipPath>
  </defs>
  <g id="Enmascarar_grupo_367" data-name="Enmascarar grupo 367" transform="translate(-390 -2505)" clip-path="url(#clip-path)">
    <g id="Grupo_1073497" data-name="Grupo 1073497" transform="translate(413 2511)">
      <g id="Grupo_1073496" data-name="Grupo 1073496" clip-path="url(#clip-path-2)">
        <path id="Trazado_821829" data-name="Trazado 821829" d="M105.11,61.452a3.728,3.728,0,0,1-2.409,3.264,7.137,7.137,0,0,1-2.152.467c-1.186.012-2.371,0-3.557,0-.735,0-1.031.41-1,1.175a13.036,13.036,0,0,1-.054,3.424,18.346,18.346,0,0,0-.08,2.18,4.832,4.832,0,0,1-.409,1.782c-.258.477-.07,1.049-.2,1.594-.414,1.724-.762,3.463-1.3,5.155a44.481,44.481,0,0,1-3.467,8.618c-.866,1.523-1.8,3.009-2.769,4.471-.313.474-.3.744.093,1.134,1.989,1.959,3.952,3.944,5.929,5.915q3.581,3.568,7.166,7.131a.582.582,0,0,0,.714.183,5.973,5.973,0,0,1,6.384,1.661q7.024,7.112,14.083,14.189c.308.31.618.62.908.948a3.377,3.377,0,0,1,.581,1.641c.164.724-.338,1.066-.526,1.581-1.586,1.007-2.444.92-3.782-.384-.095-.091-.185-.187-.279-.281q-3.412-3.409-6.826-6.815c-.27-.269-.468-.607-.938-.128-2.654,2.711-5.347,5.384-8.027,8.07-.958.96-.953.955,0,1.911q10.43,10.423,20.857,20.849c1.789,1.787,3.511,3.647,5.431,5.3a2.7,2.7,0,0,0,3.853-.091q2.716-2.649,5.366-5.367a2.78,2.78,0,0,0,.116-3.862c-.336-.4-.72-.769-1.092-1.142q-4.949-4.947-9.907-9.884a2.589,2.589,0,0,1-.576-3.412.947.947,0,0,0,.068-.3c1.663-1.093,2.806-.691,4.033.567,3.237,3.321,6.528,6.588,9.821,9.854a18.746,18.746,0,0,1,2.193,2.613,5.192,5.192,0,0,1,.692,2.255,7.245,7.245,0,0,1-1.676,6.069c-2.037,2.245-4.223,4.347-6.426,6.427a7.227,7.227,0,0,1-7.512,1.256,10.58,10.58,0,0,1-3.734-3.006c-1.473-1.618-3.051-3.127-4.594-4.672Q106.892,140.56,93.66,127.349a34.742,34.742,0,0,1-2.738-2.695,5.827,5.827,0,0,1-.853-5.308.677.677,0,0,0-.18-.737c-1.866-2.136-3.981-4.026-5.964-6.045-2.293-2.335-4.613-4.646-6.894-6.992a.861.861,0,0,0-1.333-.1,28.688,28.688,0,0,1-3.829,2.262c-1.031.5-1.926,1.433-3.065,1.694-1,.23-1.744.916-2.7,1.169a26.54,26.54,0,0,0-3.115,1.023,25.27,25.27,0,0,1-5.048,1.329,37.612,37.612,0,0,1-5.962.842c-1.139.024-2.3.156-3.433.089a30.269,30.269,0,0,1-5.609-.343,1.329,1.329,0,0,0,.011-.229c-.007-.062-.064-.058-.071.015a.747.747,0,0,0,.046.223c-.208.109-.172.3-.166.482.15,4.55.081,9.1.051,13.654a3.382,3.382,0,0,1-2.942,3.676,5.144,5.144,0,0,1-1.042-.028c-2.579-.006-5.157.006-7.736-.015a2.392,2.392,0,0,1-2.494-2.37,2.477,2.477,0,0,1,.929-1.827c.389-.325.4-.314,1.706-.143.058.008.152-.068.19-.129.225-.362.581-.293.915-.292q2.53.007,5.059.018c.324,0,.538.025.6-.463.152-1.259-.071-2.507.071-3.776a43.864,43.864,0,0,0,.044-4.9q0-12.412,0-24.824a2.889,2.889,0,0,0-.964-2.258c-1.869-1.781-3.734-3.574-5.475-5.478a3.424,3.424,0,0,0-2.842-1.193c-7.773.05-15.548.03-23.321.032-.428,0-.79-.075-.788.622q.038,20.712.011,41.426c0,.585.084.8.758.8,4.891.043,9.785-.185,14.673.138a2.013,2.013,0,0,1,1.977,1.93,1.317,1.317,0,0,0,.153.428,3.3,3.3,0,0,1-1.4,2.022.978.978,0,0,1-.516.194c-5.849.1-11.7.053-17.547.017a3.131,3.131,0,0,1-2.8-2.711C.007,128.241,0,127.9,0,127.556q0-22.491,0-44.982a3.335,3.335,0,0,1,2.556-3.435c.584-.151.693-.3.477-.89A33.939,33.939,0,0,1,1.954,72.76a35.159,35.159,0,0,1-.341-8.9q.171-2.519.583-5.042c.331-2.017.852-3.972,1.32-5.948a22.677,22.677,0,0,1,1.425-4.14,44.548,44.548,0,0,1,3.3-6.441c1.372-2.057,2.767-4.091,4.329-6.01A46.029,46.029,0,0,1,26.788,24.72,45.178,45.178,0,0,1,37.3,20.683a12.425,12.425,0,0,1,2.057-.4c.625-.044.723-.342.715-.863-.021-1.317-.007-2.635-.011-3.953q-.017-5.77-.039-11.54A3.75,3.75,0,0,1,43.739.173C62.62-.173,81.5.121,100.384.039c1.645-.007,3.211.326,4.147,1.938a4.768,4.768,0,0,1,.566,2.474q-.007,10.158-.019,20.316c0,1.169,0,2.339-.073,3.5-.077,1.27-1.078,1.645-2.081,1.982a2.348,2.348,0,0,1-2.486-2.618q0-11.031.008-22.061c0-.586-.1-.827-.774-.825q-14.193.038-28.387.018-8.425,0-16.849-.008c-2.952,0-5.9.019-8.855-.011-.65-.006-.82.169-.819.837q.028,26.963-.01,53.927c0,.745.2.927.924.921,3.426-.029,6.852-.015,10.278.013a4.065,4.065,0,0,1,4.008,3.35c.2,2.126.113,4.25.119,6.376,0,.406,0,.811,0,1.464.972-.983,1.756-1.784,2.55-2.576,2.479-2.476,4.949-4.961,7.451-7.414a3.665,3.665,0,0,1,2.561-1.188q13.482-.019,26.964,0c.658,0,.845-.163.842-.83q-.038-9.884-.011-19.768a3.665,3.665,0,0,1-.037-1.214,2.549,2.549,0,0,1,2.309-2.117,5.24,5.24,0,0,1,1.393.542c.486.38,1,.767.8,1.516-.019.1-.023.2.131.132a5.918,5.918,0,0,1,.067.621q.01,11,.013,22c-.095-.077-.187-.065-.187.06s.093.129.185.057M40.049,49.1h-.043c0-4.242-.009-8.485.01-12.727,0-.647-.145-.823-.812-.618a29.413,29.413,0,0,0-8.667,4.248C21.743,46.371,16.912,54.9,16.611,65.85a29.407,29.407,0,0,0,.6,7.281c.378,1.686.892,3.325,1.368,4.979a1.094,1.094,0,0,0,1.236.862c3.267-.065,6.535-.035,9.8-.029a9.4,9.4,0,0,1,2.217.291,6.408,6.408,0,0,1,2.729,2.018c2.218,2.091,4.3,4.315,6.5,6.418a5.434,5.434,0,0,1,1.756,4.213c-.033,1.949.03,3.9-.02,5.849a.7.7,0,0,0,.68.8,18.522,18.522,0,0,0,2.846.317,55.362,55.362,0,0,0,6.138-.114,28.549,28.549,0,0,0,7.307-1.816,41.693,41.693,0,0,0,5.769-2.788,30.678,30.678,0,0,0,8.8-7.7,31.553,31.553,0,0,0,5.544-11.027,30.38,30.38,0,0,0,.959-4.85,31.513,31.513,0,0,0,.348-4.74c-.017-.472-.208-.646-.675-.643-2.345.013-4.691.008-7.037,0a1.072,1.072,0,0,0-.891.479,12.233,12.233,0,0,1-1.556,1.7c-1.544,1.307-2.892,2.81-4.339,4.213-1.47,1.425-2.882,2.91-4.335,4.352A4.627,4.627,0,0,1,59.4,77.486a3.843,3.843,0,0,1-4.043-3.794,25.68,25.68,0,0,0-.032-2.833,11.91,11.91,0,0,1,.02-3.88c.235-1.172-.228-1.794-1.4-1.794-3.452,0-6.9.041-10.356-.026a3.425,3.425,0,0,1-3.1-2.086,6.442,6.442,0,0,1-.442-2.983c-.02-3.662-.008-7.326-.008-10.988m8.066,60.035a44.82,44.82,0,0,0,7.72-.587,41.755,41.755,0,0,0,26.43-15.511,41.5,41.5,0,0,0,8.2-17.3,37.32,37.32,0,0,0,.679-4.4c.173-1.852.3-3.7.323-5.557,0-.352-.041-.607-.5-.6-1.528.019-3.058.013-4.586,0-.381,0-.514.162-.5.524.041,1.259-.06,2.512-.129,3.77a35.351,35.351,0,0,1-1.457,7.813A33.681,33.681,0,0,1,80.9,85.113,36.933,36.933,0,0,1,66.944,98.864a36.068,36.068,0,0,1-10.2,3.858,36.349,36.349,0,0,1-7.513.9,28.862,28.862,0,0,1-5.4-.312c-.938-.176-1.014-.055-1.005.889.011,1.186-.007,2.371-.021,3.557-.01.874.271,1.214,1.169,1.232,1.491.031,2.977.22,4.141.154M10.946,78.959v-.005c.659,0,1.317,0,1.976,0,.969.006,1.026-.076.71-1.045-.041-.125-.085-.249-.127-.374a33.907,33.907,0,0,1-1.6-8.11,33.209,33.209,0,0,1,.1-6.527,39.661,39.661,0,0,1,1.354-6.836,37.021,37.021,0,0,1,3.355-7.712A37.532,37.532,0,0,1,33.761,32.806a29.9,29.9,0,0,1,5.545-1.966c.377-.093.752-.176.737-.743-.04-1.5-.041-3-.026-4.505.006-.568-.216-.658-.725-.538A42.885,42.885,0,0,0,26.1,30.58,43.59,43.59,0,0,0,13.926,42.153a48.421,48.421,0,0,0-3.181,5.458c-.727,1.357-1.271,2.813-1.9,4.225a32.958,32.958,0,0,0-1.6,5.6,29.373,29.373,0,0,0-.862,5.635,47.806,47.806,0,0,0,.377,10.217c.293,1.717.7,3.4,1.107,5.084a.685.685,0,0,0,.785.594c.764-.018,1.528-.005,2.292-.005m86.478,32.118c.011-.3-.237-.413-.4-.573Q91,104.462,84.976,98.418c-.449-.453-.771-.43-1.17.013a35.279,35.279,0,0,1-3.361,3.339c-.287.243-.336.374-.041.667q6.228,6.176,12.425,12.386c.408.409.673.454,1.087.018,1.052-1.106,2.141-2.178,3.221-3.258.151-.15.325-.275.287-.506m-2.857,10.185a1.818,1.818,0,0,0,.625,1.061c1.055,1.068,2.144,2.1,3.156,3.21.479.524.749.419,1.187-.025,2.126-2.157,4.281-4.285,6.426-6.424.6-.6,1.2-1.186,1.786-1.789.343-.352.55-.708.093-1.158-1.12-1.1-2.2-2.24-3.328-3.338-.694-.678-1.174-.727-1.839-.074-2.594,2.545-5.154,5.125-7.719,7.7a1.054,1.054,0,0,0-.386.838" transform="translate(0 0)"/>
        <path id="Trazado_821830" data-name="Trazado 821830" d="M128.459,39.258a2.547,2.547,0,0,0-2.308,2.117,3.619,3.619,0,0,0,.037,1.214q-.011,9.884.011,19.768c0,.666-.185.832-.843.83q-13.482-.028-26.964,0a3.664,3.664,0,0,0-2.561,1.188c-2.5,2.453-4.971,4.938-7.451,7.414-.793.792-1.576,1.593-2.55,2.576,0-.653,0-1.058,0-1.464-.006-2.125.084-4.25-.119-6.375a4.067,4.067,0,0,0-4.008-3.35c-3.426-.027-6.853-.041-10.279-.013-.719.006-.924-.176-.924-.921q.039-26.963.011-53.927c0-.668.169-.842.819-.836,2.95.029,5.9.01,8.854.01q8.425,0,16.849.008,14.194,0,28.388-.018c.678,0,.775.24.774.825q-.023,11.03-.009,22.061a2.349,2.349,0,0,0,2.487,2.618A4.987,4.987,0,0,0,128.561,35c-.019,1.419.037,2.838-.1,4.253m-23.2,1.778h0c0-2.952.023-5.9-.01-8.855a3.409,3.409,0,0,0-2.562-3.573,6.465,6.465,0,0,0-2.206-.041q-4.427-.021-8.855-.013a7.644,7.644,0,0,0-1.181.064,2.413,2.413,0,0,0-2.056,2.559,2.443,2.443,0,0,0,2.384,2.1c.739-.037.787.251.785.845q-.028,8.539.006,17.077c0,.748-.222.953-.946.924a2.134,2.134,0,0,0-2.094,2.064,2.328,2.328,0,0,0,2.017,2.463c.578.015,1.161.07,1.743.067,4.058-.019,8.117-.01,12.176-.012.5,0,1,.009,1.5-.02a2.32,2.32,0,0,0,2.169-3.105,2.374,2.374,0,0,0-2.3-1.613c-.644-.031-.809-.359-.606-.867a2.955,2.955,0,0,0,.033-1.207c.015-2.952.008-5.9.008-8.855M98.5,26.35v.016c1.29,0,2.581.022,3.871-.006a2.753,2.753,0,0,0,2.583-1.937,5.782,5.782,0,0,0,.324-2.4c-.068-1.921.011-3.846-.036-5.767-.053-2.252-1.149-3.4-3.268-3.5-2.418-.112-4.846-.072-7.268-.01-2.107.054-3.091,1.324-3.146,3.274-.067,2.395-.035,4.794-.013,7.19a3.045,3.045,0,0,0,3.082,3.13c1.289.038,2.581.008,3.872.008" transform="translate(-25.751 -2.733)" fill="#2dd0e2"/>
        <path id="Trazado_821831" data-name="Trazado 821831" d="M25,177.211a1.319,1.319,0,0,1-.152-.428,2.014,2.014,0,0,0-1.977-1.93c-4.889-.324-9.783-.1-14.674-.138-.673-.006-.759-.218-.758-.8q.021-20.712-.011-41.426c0-.7.361-.622.788-.622,7.774,0,15.548.017,23.323-.032a3.424,3.424,0,0,1,2.841,1.193c1.74,1.9,3.605,3.7,5.475,5.478a2.891,2.891,0,0,1,.964,2.258q-.017,12.412,0,24.824a44.017,44.017,0,0,1-.044,4.9c-.143,1.269.081,2.517-.072,3.776-.058.487-.273.465-.6.463q-2.531-.012-5.06-.018c-.335,0-.691-.07-.915.292-.037.062-.132.136-.19.129-1.309-.171-1.316-.182-1.706.143a2.478,2.478,0,0,0-.929,1.827c-2.1.044-4.2-.067-6.3.119m-1.065-10.9V166.3q3.75,0,7.5,0c.844,0,1.8-.144,2.179-.845,1.106-2.039.025-3.638-1.739-3.821a10.037,10.037,0,0,0-1.026-.031q-6.791-.006-13.582,0a6.984,6.984,0,0,0-1.332.111,2.35,2.35,0,0,0-1.828,2.476,2.325,2.325,0,0,0,2.324,2.122q3.751,0,7.5,0m.148-15.356v.012c-2.582,0-5.165-.027-7.746.011A2.331,2.331,0,0,0,14.1,153.5a2.449,2.449,0,0,0,2.339,2.195q3.991.024,7.983.023c2.293,0,4.585.011,6.877,0a2.642,2.642,0,0,0,2.648-1.605,2.389,2.389,0,0,0-.753-2.637,2.6,2.6,0,0,0-1.758-.519q-3.676-.008-7.352,0m-3.452-5.986c1.5,0,3,.015,4.5-.006a2.472,2.472,0,0,0,2.22-1.6,2.411,2.411,0,0,0-.97-2.711,3.053,3.053,0,0,0-1.728-.392c-2.527-.023-5.054-.018-7.581-.005a5.425,5.425,0,0,0-1.325.154,2.3,2.3,0,0,0-1.649,2.456,2.412,2.412,0,0,0,2.267,2.106c1.421.006,2.843,0,4.264,0" transform="translate(-2.715 -48.152)" fill="#fee076"/>
        <path id="Trazado_821832" data-name="Trazado 821832" d="M186.27,201.548a.93.93,0,0,1-.068.3,2.591,2.591,0,0,0,.576,3.412q4.975,4.921,9.907,9.884c.373.373.756.738,1.092,1.142a2.781,2.781,0,0,1-.116,3.862q-2.65,2.715-5.366,5.367a2.7,2.7,0,0,1-3.853.09c-1.92-1.648-3.642-3.509-5.431-5.3q-10.432-10.421-20.857-20.85c-.956-.955-.96-.951,0-1.911,2.679-2.686,5.373-5.358,8.026-8.069.47-.481.668-.142.938.128q3.416,3.4,6.827,6.815c.093.093.183.189.278.281,1.338,1.3,2.2,1.391,3.782.384a27.383,27.383,0,0,0,3.028,3.069,8.916,8.916,0,0,1,1.237,1.393" transform="translate(-58.965 -69.12)" fill="#2dd0e2"/>
        <path id="Trazado_821833" data-name="Trazado 821833" d="M189.992,70.859c-4.189,0-8.379.026-12.567-.011a3.344,3.344,0,0,1-3.24-3.518c.178-8.614.026-17.228.078-25.841.011-1.923.028-3.848-.05-5.769a3.406,3.406,0,0,1,3.75-3.8c3.057.023,6.113.006,9.17.006s6.113.014,9.17-.006a4.515,4.515,0,0,1,3.676,1.638,40.893,40.893,0,0,0,3.921,3.885,6.279,6.279,0,0,1,2.377,5.1c-.09,7.72-.03,15.441-.039,23.161,0,.911-.045,1.824-.126,2.732a3.17,3.17,0,0,1-2.92,2.4c-1.657.071-3.318.048-4.978.052-2.74.006-5.48,0-8.221,0v-.039M178.918,51.378h0c0,4.69.008,9.38-.012,14.07,0,.5.091.667.629.666q10.71-.03,21.421-.01c.412,0,.595-.055.593-.541q-.024-11.738-.007-23.476a.96.96,0,0,0-.315-.757c-1.391-1.366-2.764-2.75-4.135-4.135a1.677,1.677,0,0,0-1.249-.51c-5.375.009-10.75.036-16.125.015-.692,0-.813.221-.81.845.023,4.611.013,9.222.013,13.833" transform="translate(-63.621 -11.66)"/>
        <path id="Trazado_821834" data-name="Trazado 821834" d="M172.443,137.943c-2.067-.039-5.7.121-9.338-.058a3.373,3.373,0,0,1-2.942-2.893c-.14-1.473-.062-2.949-.066-4.424q-.022-8.144,0-16.286a5.064,5.064,0,0,1,.491-2.812,3.383,3.383,0,0,1,3.111-1.6q4.505.028,9.012.027c3.979,0,7.958,0,11.937.008a3.124,3.124,0,0,1,2.936,1.56,4.047,4.047,0,0,1,.58,2c0,6.931.011,13.861-.01,20.792-.008,2.39-1.385,3.665-3.544,3.678-3.531.02-7.062.005-12.162.005m1.722-23.308v0c-2.872,0-5.745.016-8.617-.013-.636-.006-.855.213-.8.826.06.653.1,1.311.1,1.966,0,4.981,0,9.961-.039,14.942-.005.665.2.894.851.86.92-.048,1.844-.047,2.766-.046q7.115,0,14.229.018c.457,0,.81.01.807-.639q-.035-8.617-.016-17.234c0-.572-.213-.7-.745-.7-2.846.023-5.692.011-8.539.011" transform="translate(-58.469 -40.131)"/>
        <path id="Trazado_821835" data-name="Trazado 821835" d="M90.463,210.267c-2.317,0-4.635.01-6.952,0a3.53,3.53,0,0,1-3.374-2.519,4.031,4.031,0,0,1-.095-1.374c-.011-4.319.023-8.638,0-12.956a3.656,3.656,0,0,1,1.594-3.506,3.878,3.878,0,0,1,2.058-.5q6.715-.019,13.431,0c1.876.007,3.424,1.084,3.578,2.5a33.564,33.564,0,0,1,.206,3.435q.033,5.49-.007,10.981a3.633,3.633,0,0,1-1.958,3.588,3.163,3.163,0,0,1-1.451.371q-3.515,0-7.031,0Zm5.682-10.36h-.011c0-1.712-.015-3.424.009-5.136.007-.482-.139-.633-.63-.63-3.292.027-6.586.043-9.878.017-.635-.005-.8.182-.791.8.035,2.976.036,5.953.027,8.929-.005,1.594-.025,1.593,1.537,1.594,3.029,0,6.059,0,9.088.024.536,0,.7-.1.672-.7-.066-1.63-.023-3.265-.023-4.9" transform="translate(-29.231 -69.176)"/>
        <path id="Trazado_821836" data-name="Trazado 821836" d="M12.257,17.381c0-2.027-.038-4.054.015-6.079a3.153,3.153,0,0,1,2.588-2.89c3.941-.286,7.887-.063,11.831-.1a5.044,5.044,0,0,1,1.994.239,3.147,3.147,0,0,1,2,3.078q.088,5.1-.011,10.193a20.636,20.636,0,0,1-.111,2.413,2.769,2.769,0,0,1-1.808,2.2,4.378,4.378,0,0,1-1.719.336c-3.871-.019-7.743-.016-11.615-.02a3.262,3.262,0,0,1-3.147-3.21c-.039-2.053-.01-4.107-.01-6.16Zm13.724.2c0-1.318-.02-2.635.01-3.953.011-.488-.155-.648-.63-.644q-3.873.036-7.746.032c-.468,0-.639.149-.649.635a67.822,67.822,0,0,1-.149,7.637c-.074.551.162.741.713.738q3.953-.025,7.906.01c.465,0,.564-.152.555-.582-.026-1.29-.01-2.582-.01-3.873" transform="translate(-4.472 -3.018)"/>
        <path id="Trazado_821837" data-name="Trazado 821837" d="M67.594,178.713a.751.751,0,0,1-.046-.223c.007-.072.064-.076.071-.015a1.323,1.323,0,0,1-.011.229l-.014.009" transform="translate(-24.672 -65.173)" fill="#2dd0e2"/>
        <path id="Trazado_821838" data-name="Trazado 821838" d="M165.486,96.718c-.091.072-.185.076-.185-.057s.093-.137.188-.06a.562.562,0,0,1,.032.084c0,.008-.022.022-.034.034" transform="translate(-60.377 -35.266)" fill="#2dd0e2"/>
        <path id="Trazado_821839" data-name="Trazado 821839" d="M165.39,60.918c-.154.065-.15-.027-.131-.132.057.011.113.02.169.029-.013.036-.026.07-.038.1" transform="translate(-60.358 -22.202)" fill="#2dd0e2"/>
        <path id="Trazado_821840" data-name="Trazado 821840" d="M49.6,69.631c0,3.662-.012,7.325.008,10.988a6.442,6.442,0,0,0,.442,2.983,3.425,3.425,0,0,0,3.1,2.086c3.451.067,6.9.025,10.356.026,1.169,0,1.633.621,1.4,1.794a11.875,11.875,0,0,0-.02,3.88,25.681,25.681,0,0,1,.031,2.833,3.843,3.843,0,0,0,4.044,3.794,4.63,4.63,0,0,0,2.959-1.562c1.453-1.443,2.865-2.927,4.335-4.352,1.447-1.4,2.795-2.906,4.339-4.213a12.235,12.235,0,0,0,1.556-1.7,1.072,1.072,0,0,1,.891-.479c2.345,0,4.691.009,7.036,0,.468,0,.658.171.676.643a31.515,31.515,0,0,1-.348,4.74,30.383,30.383,0,0,1-.959,4.85,31.553,31.553,0,0,1-5.544,11.027,30.677,30.677,0,0,1-8.8,7.7,41.692,41.692,0,0,1-5.769,2.788,28.556,28.556,0,0,1-7.307,1.816,55.364,55.364,0,0,1-6.138.114,18.53,18.53,0,0,1-2.846-.317.7.7,0,0,1-.679-.8c.05-1.949-.013-3.9.02-5.849a5.434,5.434,0,0,0-1.756-4.213c-2.2-2.1-4.286-4.326-6.5-6.418a6.408,6.408,0,0,0-2.729-2.018,9.4,9.4,0,0,0-2.217-.291c-3.268-.006-6.537-.036-9.8.029a1.093,1.093,0,0,1-1.236-.862c-.476-1.654-.99-3.293-1.368-4.979a29.407,29.407,0,0,1-.6-7.281c.3-10.948,5.131-19.479,13.926-25.844a29.406,29.406,0,0,1,8.667-4.248c.666-.205.814-.029.812.618-.018,4.242-.01,8.485-.01,12.727H49.6" transform="translate(-9.549 -20.529)" fill="#d7ebfe"/>
        <path id="Trazado_821841" data-name="Trazado 821841" d="M72.747,146.643c-1.164.066-2.649-.123-4.141-.154-.9-.018-1.179-.359-1.169-1.232.014-1.186.032-2.372.021-3.557-.009-.944.068-1.064,1.005-.889a28.807,28.807,0,0,0,5.4.313,38.177,38.177,0,0,0,17.716-4.754,36.938,36.938,0,0,0,13.954-13.751,33.687,33.687,0,0,0,3.393-7.826,35.339,35.339,0,0,0,1.457-7.812c.069-1.257.17-2.51.129-3.77-.012-.361.121-.527.5-.524,1.528.011,3.058.017,4.586,0,.463-.006.508.249.5.6-.02,1.858-.15,3.706-.323,5.558a37.318,37.318,0,0,1-.679,4.4,41.5,41.5,0,0,1-8.2,17.3,41.762,41.762,0,0,1-26.43,15.511,44.82,44.82,0,0,1-7.72.587" transform="translate(-24.631 -37.505)" fill="#00f0a5"/>
        <path id="Trazado_821842" data-name="Trazado 821842" d="M14.562,93.35c-.764,0-1.528-.013-2.292.005a.685.685,0,0,1-.785-.594c-.411-1.686-.814-3.367-1.107-5.084A47.765,47.765,0,0,1,10,77.459a29.322,29.322,0,0,1,.861-5.635,33.017,33.017,0,0,1,1.6-5.6c.625-1.412,1.169-2.868,1.9-4.225a48.229,48.229,0,0,1,3.181-5.458A43.588,43.588,0,0,1,29.719,44.97a42.892,42.892,0,0,1,13.19-5.525c.508-.12.731-.03.726.538-.015,1.5-.015,3,.025,4.505.015.566-.36.649-.736.743A29.887,29.887,0,0,0,37.377,47.2,37.531,37.531,0,0,0,20.334,62.741a36.989,36.989,0,0,0-3.356,7.712,39.6,39.6,0,0,0-1.353,6.836,33.16,33.16,0,0,0-.1,6.527,33.877,33.877,0,0,0,1.6,8.11c.041.125.086.249.126.374.316.97.26,1.051-.71,1.045-.658,0-1.317,0-1.976,0v.005" transform="translate(-3.616 -14.39)" fill="#00f0a5"/>
        <path id="Trazado_821843" data-name="Trazado 821843" d="M143.576,167.52c.037.23-.136.355-.287.506-1.08,1.08-2.169,2.152-3.221,3.258-.413.435-.679.39-1.087-.019q-6.193-6.212-12.424-12.386c-.3-.293-.246-.423.041-.667a35.2,35.2,0,0,0,3.361-3.338c.4-.443.72-.466,1.17-.013q6.01,6.058,12.051,12.086c.16.16.408.269.4.573" transform="translate(-46.152 -56.443)" fill="#2dd0e2"/>
        <path id="Trazado_821844" data-name="Trazado 821844" d="M148.981,185.86a1.054,1.054,0,0,1,.386-.838c2.566-2.574,5.125-5.154,7.719-7.7.665-.654,1.146-.6,1.839.074,1.124,1.1,2.208,2.236,3.328,3.338.457.45.251.806-.093,1.158-.589.6-1.19,1.194-1.786,1.789-2.145,2.138-4.3,4.267-6.426,6.424-.438.444-.708.549-1.187.025-1.012-1.106-2.1-2.142-3.156-3.21a1.818,1.818,0,0,1-.625-1.061" transform="translate(-54.415 -64.598)" fill="#d7ebfe"/>
        <path id="Trazado_821845" data-name="Trazado 821845" d="M115.547,53.12c0,2.952.007,5.9-.008,8.855a2.965,2.965,0,0,1-.033,1.207c-.2.508-.038.837.606.867a2.375,2.375,0,0,1,2.3,1.614,2.321,2.321,0,0,1-2.17,3.105c-.5.028-1,.019-1.5.019-4.059,0-8.117-.006-12.176.012-.582,0-1.165-.052-1.742-.067a2.329,2.329,0,0,1-2.017-2.464A2.134,2.134,0,0,1,100.9,64.2c.724.029.95-.176.946-.924q-.046-8.539-.006-17.078c0-.595-.046-.882-.785-.845a2.443,2.443,0,0,1-2.383-2.1,2.412,2.412,0,0,1,2.056-2.559,7.557,7.557,0,0,1,1.181-.065q4.427,0,8.855.013a6.5,6.5,0,0,1,2.206.041,3.41,3.41,0,0,1,2.562,3.574c.033,2.951.01,5.9.01,8.855ZM110.7,54.863h-.01c0-2.9-.018-5.793.015-8.688.007-.594-.22-.784-.746-.785-.737,0-1.475-.021-2.211,0-.388.008-.813-.15-1.16.086-.462.315-.005.714-.008,1.072-.038,4.87-.032,9.741-.034,14.611,0,.843.022,1.685.013,2.528,0,.321.074.376.417.362a27.4,27.4,0,0,1,3.156.027c.56.043.576-.168.574-.6-.015-2.87-.008-5.739-.008-8.609" transform="translate(-36.038 -14.817)"/>
        <path id="Trazado_821846" data-name="Trazado 821846" d="M110.6,29.345c-1.291,0-2.583.03-3.871-.008a3.045,3.045,0,0,1-3.082-3.131c-.022-2.4-.055-4.795.013-7.19.055-1.95,1.038-3.22,3.146-3.274,2.422-.062,4.851-.1,7.268.01,2.119.1,3.216,1.247,3.269,3.5.046,1.922-.033,3.847.036,5.768a5.793,5.793,0,0,1-.324,2.4,2.754,2.754,0,0,1-2.583,1.937c-1.289.028-2.581.006-3.871.006v-.015m-2.233-6.78c0,.027,0,.053,0,.079.015.656-.205,1.481.11,1.925.363.512,1.21.011,1.852.07.7.063,1.638.276,2.039-.074.428-.373.114-1.336.128-2.041.011-.657.242-1.523-.083-1.918-.374-.453-1.273-.133-1.941-.147-2.135-.046-2.136-.031-2.1,2.1" transform="translate(-37.847 -5.728)"/>
        <path id="Trazado_821847" data-name="Trazado 821847" d="M27.777,183.438q-3.751,0-7.5,0a2.324,2.324,0,0,1-2.323-2.122,2.35,2.35,0,0,1,1.827-2.476,6.981,6.981,0,0,1,1.332-.111q6.791-.009,13.583,0a10.037,10.037,0,0,1,1.025.031c1.763.183,2.844,1.782,1.739,3.821-.38.7-1.336.846-2.179.845q-3.751,0-7.5,0v.011" transform="translate(-6.553 -65.28)"/>
        <path id="Trazado_821848" data-name="Trazado 821848" d="M27.925,161.957q3.676,0,7.352,0a2.6,2.6,0,0,1,1.758.519,2.388,2.388,0,0,1,.753,2.637,2.644,2.644,0,0,1-2.648,1.606c-2.292.015-4.585.007-6.877,0-2.661,0-5.322-.006-7.983-.023a2.449,2.449,0,0,1-2.339-2.195,2.331,2.331,0,0,1,2.237-2.526c2.582-.038,5.164-.011,7.746-.011v-.013" transform="translate(-6.553 -59.155)"/>
        <path id="Trazado_821849" data-name="Trazado 821849" d="M24.466,149.807c-1.421,0-2.843,0-4.264,0a2.412,2.412,0,0,1-2.267-2.106,2.3,2.3,0,0,1,1.649-2.456,5.425,5.425,0,0,1,1.325-.154c2.527-.013,5.054-.018,7.581.005a3.053,3.053,0,0,1,1.728.392,2.412,2.412,0,0,1,.97,2.711,2.472,2.472,0,0,1-2.22,1.6c-1.5.021-3,.006-4.5.006" transform="translate(-6.545 -52.99)"/>
        <path id="Trazado_821850" data-name="Trazado 821850" d="M181.632,54.118c0-4.611.011-9.222-.013-13.832,0-.625.119-.849.81-.845,5.375.021,10.75-.006,16.124-.015a1.677,1.677,0,0,1,1.249.51c1.371,1.386,2.744,2.77,4.135,4.135a.963.963,0,0,1,.315.757q-.009,11.738.007,23.476c0,.486-.182.541-.594.541q-10.71-.013-21.421.01c-.538,0-.632-.165-.63-.666.021-4.69.012-9.38.012-14.07Zm11.147,10.1c1.789,0,3.579.023,5.368-.008a2.317,2.317,0,0,0,2.484-2.022c.119-2.047-.927-2.644-2.37-2.677-3.577-.081-7.157-.058-10.735-.025a2.361,2.361,0,0,0-2.413,2.376,2.507,2.507,0,0,0,2.533,2.356c1.711-.013,3.421,0,5.132,0M192.7,56.5c1.87,0,3.741.03,5.609-.012a2.323,2.323,0,0,0,2.228-1.426,2.505,2.505,0,0,0-.562-2.626,3.179,3.179,0,0,0-2.339-.684c-3.134-.018-6.269,0-9.4-.015a5.3,5.3,0,0,0-1.316.167,2.321,2.321,0,0,0,.489,4.59c1.764.022,3.529.006,5.294,0m-2.2-7.627a25.292,25.292,0,0,0,3.449-.118A2.2,2.2,0,0,0,195.88,47a2.171,2.171,0,0,0-1.462-2.608,4.318,4.318,0,0,0-1.2-.22c-1.867-.023-3.736-.043-5.6,0a2.432,2.432,0,0,0-2.483,2.456,2.5,2.5,0,0,0,2.382,2.253c.92,0,1.841,0,3,0" transform="translate(-66.335 -14.4)" fill="#d7ebfe"/>
        <path id="Trazado_821851" data-name="Trazado 821851" d="M176.848,117.369c2.846,0,5.692.012,8.539-.011.533,0,.746.123.745.7q-.016,8.618.016,17.234c0,.649-.35.64-.807.639q-7.114-.017-14.229-.018c-.922,0-1.845,0-2.766.046-.652.034-.856-.195-.851-.86.036-4.981.038-9.961.039-14.942,0-.656-.042-1.313-.1-1.966-.056-.613.163-.832.8-.826,2.872.029,5.745.013,8.617.013Z" transform="translate(-61.152 -42.865)" fill="#00f0a5"/>
        <path id="Trazado_821852" data-name="Trazado 821852" d="M98.915,202.638c0,1.633-.043,3.268.023,4.9.024.6-.136.7-.672.7-3.029-.025-6.059-.02-9.088-.024-1.563,0-1.542,0-1.537-1.594.009-2.976.008-5.953-.027-8.929-.008-.617.156-.8.791-.8,3.292.025,6.586.01,9.878-.017.491,0,.637.147.63.63-.023,1.712-.009,3.424-.009,5.136Z" transform="translate(-32.001 -71.908)" fill="#fee076"/>
        <path id="Trazado_821853" data-name="Trazado 821853" d="M28.6,20.293c0,1.291-.017,2.583.01,3.873.008.43-.09.587-.555.582q-3.953-.038-7.906-.01c-.55,0-.786-.187-.713-.738a67.822,67.822,0,0,0,.149-7.637c.01-.487.181-.636.649-.635q3.873.007,7.746-.032c.475,0,.641.156.63.644-.03,1.317-.01,2.635-.01,3.953" transform="translate(-7.096 -5.733)" fill="#fee076"/>
        <path id="Trazado_821854" data-name="Trazado 821854" d="M115.141,57.61c0,2.87-.007,5.739.008,8.609,0,.431-.013.642-.574.6a27.407,27.407,0,0,0-3.156-.027c-.343.013-.42-.042-.417-.362.009-.842-.014-1.685-.013-2.528,0-4.87,0-9.741.034-14.611,0-.358-.454-.757.008-1.072.347-.236.771-.077,1.16-.086.736-.017,1.474,0,2.211,0,.527,0,.753.191.746.785-.034,2.9-.015,5.792-.015,8.688Z" transform="translate(-40.478 -17.564)" fill="#f8f9fb"/>
        <path id="Trazado_821855" data-name="Trazado 821855" d="M111.064,25.259c-.03-2.136-.03-2.151,2.106-2.1.668.014,1.567-.305,1.94.147.326.395.095,1.261.083,1.918-.013.705.3,1.667-.127,2.041-.4.35-1.344.138-2.039.074-.642-.059-1.489.441-1.852-.07-.315-.444-.095-1.269-.111-1.925,0-.027,0-.053,0-.079" transform="translate(-40.545 -8.422)" fill="#f8f9fb"/>
        <path id="Trazado_821856" data-name="Trazado 821856" d="M194.791,75.75c-1.711,0-3.421-.01-5.132,0a2.507,2.507,0,0,1-2.533-2.356,2.36,2.36,0,0,1,2.413-2.376c3.578-.033,7.158-.055,10.735.025,1.443.033,2.489.63,2.37,2.677a2.317,2.317,0,0,1-2.484,2.022c-1.789.031-3.579.008-5.369.005" transform="translate(-68.347 -25.93)"/>
        <path id="Trazado_821857" data-name="Trazado 821857" d="M194.707,63.594c-1.765,0-3.529.016-5.294-.006a2.321,2.321,0,0,1-.489-4.59,5.3,5.3,0,0,1,1.316-.167c3.134.012,6.269,0,9.4.015a3.18,3.18,0,0,1,2.339.684,2.507,2.507,0,0,1,.562,2.626,2.324,2.324,0,0,1-2.228,1.426c-1.869.042-3.74.012-5.61.013" transform="translate(-68.338 -21.488)"/>
        <path id="Trazado_821858" data-name="Trazado 821858" d="M192.527,51.593c-1.158,0-2.079,0-3,0a2.5,2.5,0,0,1-2.382-2.253,2.432,2.432,0,0,1,2.483-2.456c1.867-.041,3.735-.022,5.6,0a4.318,4.318,0,0,1,1.2.22,2.171,2.171,0,0,1,1.462,2.608,2.2,2.2,0,0,1-1.923,1.763,25.292,25.292,0,0,1-3.449.118" transform="translate(-68.354 -17.115)"/>
      </g>
    </g>
  </g>
</svg>
